ply
format ascii 1.0
element vertex 2068
property float x
property float y
property float z
end_header
88.94000 22.34046 2.20000
88.94000 22.34046 2.20000
88.94000 22.34046 2.20000
88.94000 22.34046 2.20000
88.94000 22.69046 2.20000
88.94000 22.69046 2.20000
88.94000 22.69046 2.20000
88.94000 22.69046 2.20000
88.94000 22.69046 2.20000
88.94000 22.69046 2.20000
88.94000 22.69046 2.20000
88.94000 22.69046 2.20000
88.94000 23.04046 2.20000
88.94000 23.04046 2.20000
88.94000 23.04046 2.20000
88.94000 23.04046 2.20000
88.94000 23.04046 2.20000
88.94000 23.39046 2.20000
88.94000 23.39046 2.20000
88.94000 23.39046 2.20000
88.94000 23.39046 2.20000
88.94000 23.39046 2.20000
88.94000 23.39046 2.20000
89.29000 24.09046 2.20000
89.29000 24.09046 2.20000
89.29000 24.44046 2.20000
89.29000 24.44046 2.20000
89.29000 24.44046 2.20000
89.29000 24.79046 2.20000
89.29000 24.79046 2.20000
89.29000 25.14046 2.20000
89.29000 25.49046 2.20000
89.29000 25.49046 2.20000
88.94000 25.84046 2.20000
88.94000 25.84046 2.20000
88.94000 25.84046 2.20000
88.94000 26.19046 2.20000
88.94000 26.54046 2.20000
88.94000 27.24046 2.20000
88.94000 28.29046 2.20000
88.94000 29.34046 2.20000
88.94000 31.09046 2.20000
86.49000 27.24046 2.20000
86.49000 26.54046 2.20000
86.49000 25.84046 2.20000
86.49000 25.49046 2.20000
86.49000 25.14046 2.20000
86.49000 24.79046 2.20000
86.49000 24.44046 2.20000
86.49000 24.44046 2.20000
86.49000 24.09046 2.20000
86.49000 24.09046 2.20000
86.49000 24.09046 2.20000
86.49000 23.74046 2.20000
86.49000 23.74046 2.20000
86.49000 23.74046 2.20000
86.49000 23.74046 2.20000
86.49000 23.39046 2.20000
86.49000 23.39046 2.20000
86.49000 23.39046 2.20000
86.49000 23.04046 2.20000
86.49000 23.04046 2.20000
86.49000 23.04046 2.20000
86.49000 23.04046 2.20000
86.49000 23.04046 2.20000
86.49000 23.04046 2.20000
86.49000 23.04046 2.20000
86.49000 23.04046 2.20000
86.49000 22.69046 2.20000
86.49000 22.69046 2.20000
86.49000 22.69046 2.20000
86.49000 22.69046 2.20000
86.49000 22.69046 2.20000
86.49000 22.69046 2.20000
86.49000 22.69046 2.20000
86.49000 22.69046 2.20000
86.49000 22.69046 2.20000
86.49000 22.69046 2.20000
86.49000 22.34046 2.20000
86.49000 22.34046 2.20000
86.49000 22.34046 2.20000
86.49000 22.34046 2.20000
86.49000 22.34046 2.20000
86.49000 22.34046 2.20000
86.49000 22.34046 2.20000
86.49000 22.34046 2.20000
86.49000 22.34046 2.20000
86.49000 21.99046 2.20000
86.49000 21.99046 2.20000
86.49000 21.99046 2.20000
86.49000 21.99046 2.20000
86.49000 21.99046 2.20000
86.49000 21.99046 2.20000
86.49000 21.99046 2.20000
86.49000 21.99046 2.20000
86.49000 21.99046 2.20000
86.49000 21.99046 2.20000
86.49000 21.99046 2.20000
86.49000 21.64046 2.20000
86.49000 21.64046 2.20000
86.49000 21.64046 2.20000
86.49000 21.64046 2.20000
86.49000 21.64046 2.20000
86.49000 21.64046 2.20000
86.49000 21.64046 2.20000
86.49000 21.29046 2.20000
86.49000 21.29046 2.20000
86.49000 21.29046 2.20000
86.49000 20.94046 2.20000
86.49000 20.94046 2.20000
86.49000 20.94046 2.20000
86.49000 20.94046 2.20000
85.44000 18.49046 2.20000
85.44000 18.49046 2.20000
85.79000 18.49046 2.20000
85.79000 18.49046 2.20000
86.14000 18.49046 2.20000
86.14000 18.49046 2.20000
86.14000 18.49046 2.20000
86.49000 18.49046 2.20000
86.49000 18.49046 2.20000
86.84000 18.49046 2.20000
86.84000 18.49046 2.20000
86.84000 18.49046 2.20000
87.19000 18.49046 2.20000
87.19000 18.49046 2.20000
87.54000 18.49046 2.20000
87.54000 18.49046 2.20000
87.54000 18.49046 2.20000
87.89000 18.49046 2.20000
87.89000 18.49046 2.20000
88.24000 18.49046 2.20000
88.24000 18.49046 2.20000
88.24000 18.49046 2.20000
88.59000 18.49046 2.20000
88.59000 18.49046 2.20000
88.94000 18.49046 2.20000
88.94000 18.49046 2.20000
88.94000 18.49046 2.20000
89.29000 18.49046 2.20000
89.29000 19.19046 2.20000
89.29000 19.19046 2.20000
89.29000 19.19046 2.20000
89.64000 19.19046 2.20000
89.64000 19.19046 2.20000
89.64000 19.19046 2.20000
89.99000 19.19046 2.20000
89.99000 19.19046 2.20000
90.34000 19.19046 2.20000
90.34000 19.19046 2.20000
90.69000 19.19046 2.20000
91.04000 19.19046 2.20000
91.04000 19.19046 2.20000
91.39000 19.19046 2.20000
91.74000 19.19046 2.20000
92.09000 19.19046 2.20000
92.44000 19.19046 2.20000
92.79000 19.19046 2.20000
93.14000 19.19046 2.20000
93.84000 19.19046 2.20000
94.19000 19.19046 2.20000
94.89000 19.19046 2.20000
88.94000 22.34046 2.20000
88.94000 22.34046 2.20000
88.94000 22.34046 2.20000
89.29000 23.74046 2.20000
89.29000 23.74046 2.20000
89.29000 23.74046 2.20000
89.29000 24.09046 2.20000
89.29000 24.09046 2.20000
89.29000 24.09046 2.20000
89.29000 24.09046 2.20000
89.29000 24.09046 2.20000
89.29000 24.09046 2.20000
89.29000 24.44046 2.20000
89.29000 24.44046 2.20000
89.29000 24.44046 2.20000
89.29000 24.44046 2.20000
89.29000 24.44046 2.20000
89.29000 24.79046 2.20000
89.29000 24.79046 2.20000
89.29000 24.79046 2.20000
89.29000 24.79046 2.20000
89.29000 25.14046 2.20000
89.29000 25.14046 2.20000
89.29000 25.14046 2.20000
89.29000 25.14046 2.20000
89.29000 25.49046 2.20000
89.29000 25.49046 2.20000
89.29000 25.49046 2.20000
89.29000 25.84046 2.20000
88.94000 25.84046 2.20000
88.94000 25.84046 2.20000
88.94000 25.84046 2.20000
88.94000 25.84046 2.20000
88.94000 25.84046 2.20000
88.94000 26.19046 2.20000
88.94000 26.19046 2.20000
88.94000 26.54046 2.20000
88.94000 26.89046 2.20000
88.94000 27.24046 2.20000
88.94000 27.59046 2.20000
88.94000 27.94046 2.20000
88.94000 28.64046 2.20000
88.94000 29.69046 2.20000
88.94000 30.74046 2.20000
88.94000 32.49046 2.20000
86.49000 27.24046 2.20000
86.49000 26.89046 2.20000
86.49000 26.54046 2.20000
86.49000 26.19046 2.20000
86.49000 25.84046 2.20000
86.49000 25.84046 2.20000
86.49000 25.49046 2.20000
86.49000 25.49046 2.20000
86.49000 25.49046 2.20000
86.49000 25.14046 2.20000
86.49000 25.14046 2.20000
86.49000 25.14046 2.20000
86.49000 25.14046 2.20000
86.49000 24.79046 2.20000
86.49000 24.79046 2.20000
86.49000 24.79046 2.20000
86.49000 24.44046 2.20000
86.49000 24.44046 2.20000
86.49000 24.44046 2.20000
86.49000 24.44046 2.20000
86.49000 24.44046 2.20000
86.49000 24.44046 2.20000
86.49000 24.44046 2.20000
86.49000 24.09046 2.20000
86.49000 24.09046 2.20000
86.49000 24.09046 2.20000
86.49000 24.09046 2.20000
86.49000 24.09046 2.20000
86.49000 24.09046 2.20000
86.49000 24.09046 2.20000
86.49000 24.09046 2.20000
86.49000 24.09046 2.20000
86.49000 24.09046 2.20000
86.49000 24.09046 2.20000
86.49000 23.74046 2.20000
86.49000 23.74046 2.20000
86.49000 23.74046 2.20000
86.49000 23.74046 2.20000
86.49000 23.74046 2.20000
86.49000 23.74046 2.20000
86.49000 23.74046 2.20000
86.49000 23.74046 2.20000
86.49000 23.74046 2.20000
86.49000 23.39046 2.20000
86.49000 23.39046 2.20000
86.49000 23.39046 2.20000
86.49000 23.39046 2.20000
86.49000 23.39046 2.20000
86.49000 23.39046 2.20000
86.49000 23.39046 2.20000
86.49000 23.39046 2.20000
86.49000 23.39046 2.20000
86.49000 23.39046 2.20000
86.49000 23.04046 2.20000
86.49000 23.04046 2.20000
86.49000 23.04046 2.20000
86.49000 23.04046 2.20000
86.49000 23.04046 2.20000
86.49000 23.04046 2.20000
86.49000 23.04046 2.20000
86.49000 23.04046 2.20000
86.49000 22.69046 2.20000
86.49000 22.69046 2.20000
86.49000 22.69046 2.20000
86.49000 22.34046 2.20000
86.49000 22.34046 2.20000
86.49000 22.34046 2.20000
86.49000 22.34046 2.20000
86.49000 21.99046 2.20000
86.49000 21.99046 2.20000
86.49000 21.99046 2.20000
86.49000 21.64046 2.20000
86.49000 21.64046 2.20000
86.49000 21.29046 2.20000
86.49000 20.94046 2.20000
86.14000 18.49046 2.20000
86.14000 18.49046 2.20000
86.49000 18.49046 2.20000
86.49000 18.49046 2.20000
86.84000 18.49046 2.20000
86.84000 18.49046 2.20000
87.19000 18.49046 2.20000
87.19000 18.49046 2.20000
87.54000 18.49046 2.20000
87.89000 18.49046 2.20000
87.89000 18.49046 2.20000
88.24000 18.49046 2.20000
88.24000 18.49046 2.20000
88.59000 18.49046 2.20000
88.59000 18.49046 2.20000
88.94000 18.49046 2.20000
88.94000 18.49046 2.20000
89.29000 18.84046 2.20000
89.29000 19.19046 2.20000
89.29000 19.19046 2.20000
89.64000 19.19046 2.20000
89.64000 19.19046 2.20000
89.99000 19.19046 2.20000
89.99000 19.19046 2.20000
90.34000 19.19046 2.20000
90.69000 19.19046 2.20000
90.69000 19.19046 2.20000
91.04000 19.19046 2.20000
88.94000 22.34046 2.20000
88.94000 22.34046 2.20000
88.94000 22.34046 2.20000
88.94000 22.69046 2.20000
88.94000 22.69046 2.20000
88.94000 22.69046 2.20000
88.94000 22.69046 2.20000
88.94000 22.69046 2.20000
88.94000 22.69046 2.20000
88.94000 23.04046 2.20000
88.94000 23.04046 2.20000
88.94000 23.04046 2.20000
88.94000 23.04046 2.20000
88.94000 23.04046 2.20000
88.94000 23.39046 2.20000
88.94000 23.39046 2.20000
88.94000 23.39046 2.20000
88.94000 23.39046 2.20000
88.94000 23.39046 2.20000
88.94000 23.39046 2.20000
88.94000 23.39046 2.20000
88.94000 23.39046 2.20000
89.29000 23.39046 2.20000
89.29000 23.74046 2.20000
89.29000 23.74046 2.20000
89.29000 25.14046 2.20000
89.29000 25.14046 2.20000
89.29000 25.14046 2.20000
89.29000 25.49046 2.20000
89.29000 25.49046 2.20000
89.29000 25.49046 2.20000
89.29000 25.49046 2.20000
89.29000 25.49046 2.20000
89.29000 25.49046 2.20000
89.29000 25.84046 2.20000
88.94000 25.84046 2.20000
88.94000 25.84046 2.20000
88.94000 25.84046 2.20000
88.94000 25.84046 2.20000
88.94000 25.84046 2.20000
88.94000 25.84046 2.20000
88.94000 25.84046 2.20000
88.94000 26.19046 2.20000
88.94000 26.19046 2.20000
88.94000 26.19046 2.20000
88.94000 26.19046 2.20000
88.94000 26.19046 2.20000
88.94000 26.19046 2.20000
88.94000 26.54046 2.20000
88.94000 26.54046 2.20000
88.94000 26.54046 2.20000
88.94000 26.89046 2.20000
88.94000 26.89046 2.20000
88.94000 26.89046 2.20000
88.94000 27.24046 2.20000
88.94000 27.24046 2.20000
88.94000 27.59046 2.20000
88.94000 27.59046 2.20000
88.94000 27.94046 2.20000
88.94000 28.29046 2.20000
88.94000 28.64046 2.20000
88.94000 28.99046 2.20000
88.94000 29.34046 2.20000
88.94000 30.04046 2.20000
88.94000 31.09046 2.20000
88.94000 32.14046 2.20000
88.94000 33.89046 2.20000
85.09000 33.19046 2.20000
85.09000 32.14046 2.20000
86.49000 27.59046 2.20000
86.49000 27.24046 2.20000
86.49000 27.24046 2.20000
86.49000 26.89046 2.20000
86.49000 26.89046 2.20000
86.49000 26.89046 2.20000
86.49000 26.54046 2.20000
86.49000 26.54046 2.20000
86.49000 26.54046 2.20000
86.49000 26.54046 2.20000
86.49000 26.19046 2.20000
86.49000 26.19046 2.20000
86.49000 26.19046 2.20000
86.49000 25.84046 2.20000
86.49000 25.84046 2.20000
86.49000 25.84046 2.20000
86.49000 25.84046 2.20000
86.49000 25.84046 2.20000
86.49000 25.84046 2.20000
86.49000 25.84046 2.20000
86.49000 25.84046 2.20000
86.49000 25.49046 2.20000
86.49000 25.49046 2.20000
86.49000 25.49046 2.20000
86.49000 25.49046 2.20000
86.49000 25.49046 2.20000
86.49000 25.49046 2.20000
86.49000 25.49046 2.20000
86.49000 25.49046 2.20000
86.49000 25.49046 2.20000
86.49000 25.49046 2.20000
86.49000 25.14046 2.20000
86.49000 25.14046 2.20000
86.49000 25.14046 2.20000
86.49000 25.14046 2.20000
86.49000 25.14046 2.20000
86.49000 25.14046 2.20000
86.49000 25.14046 2.20000
86.49000 25.14046 2.20000
86.49000 25.14046 2.20000
86.49000 24.79046 2.20000
86.49000 24.79046 2.20000
86.49000 24.79046 2.20000
86.49000 24.79046 2.20000
86.49000 24.79046 2.20000
86.49000 24.79046 2.20000
86.49000 24.79046 2.20000
86.49000 24.79046 2.20000
86.49000 24.79046 2.20000
86.49000 24.79046 2.20000
86.49000 24.79046 2.20000
86.49000 24.44046 2.20000
86.49000 24.44046 2.20000
86.49000 24.44046 2.20000
86.49000 24.44046 2.20000
86.49000 24.44046 2.20000
86.49000 24.44046 2.20000
86.49000 24.44046 2.20000
86.49000 24.09046 2.20000
86.49000 24.09046 2.20000
86.49000 24.09046 2.20000
86.49000 23.74046 2.20000
86.49000 23.74046 2.20000
86.49000 23.74046 2.20000
86.49000 23.74046 2.20000
86.49000 23.39046 2.20000
86.49000 23.39046 2.20000
86.49000 23.39046 2.20000
86.49000 23.04046 2.20000
86.49000 23.04046 2.20000
86.49000 22.69046 2.20000
86.49000 22.34046 2.20000
86.49000 21.99046 2.20000
86.49000 21.64046 2.20000
86.49000 20.94046 2.20000
86.49000 18.49046 2.20000
86.49000 18.49046 2.20000
86.84000 18.49046 2.20000
87.19000 18.49046 2.20000
87.19000 18.49046 2.20000
87.54000 18.49046 2.20000
87.89000 18.49046 2.20000
87.89000 18.49046 2.20000
88.24000 18.49046 2.20000
88.59000 18.49046 2.20000
88.59000 18.49046 2.20000
88.94000 18.49046 2.20000
89.29000 18.84046 2.20000
89.29000 19.19046 2.20000
89.29000 19.19046 2.20000
89.64000 19.19046 2.20000
89.99000 19.19046 2.20000
88.94000 22.34046 2.20000
88.94000 22.69046 2.20000
88.94000 22.69046 2.20000
88.94000 23.04046 2.20000
88.94000 23.04046 2.20000
88.94000 23.39046 2.20000
88.94000 23.39046 2.20000
88.94000 23.39046 2.20000
88.94000 23.39046 2.20000
88.94000 23.39046 2.20000
89.29000 23.39046 2.20000
89.29000 23.39046 2.20000
89.29000 23.74046 2.20000
89.29000 23.74046 2.20000
89.29000 23.74046 2.20000
89.29000 23.74046 2.20000
89.29000 24.09046 2.20000
89.29000 24.09046 2.20000
89.29000 24.09046 2.20000
89.29000 24.09046 2.20000
89.29000 24.44046 2.20000
89.29000 24.44046 2.20000
89.29000 24.44046 2.20000
89.29000 24.44046 2.20000
89.29000 24.44046 2.20000
89.29000 24.79046 2.20000
89.29000 24.79046 2.20000
89.29000 24.79046 2.20000
89.29000 24.79046 2.20000
89.29000 24.79046 2.20000
89.29000 24.79046 2.20000
89.29000 25.14046 2.20000
89.29000 25.14046 2.20000
88.94000 26.54046 2.20000
88.94000 26.54046 2.20000
88.94000 26.54046 2.20000
88.94000 26.54046 2.20000
88.94000 26.89046 2.20000
88.94000 26.89046 2.20000
88.94000 26.89046 2.20000
88.94000 26.89046 2.20000
88.94000 26.89046 2.20000
88.94000 26.89046 2.20000
88.94000 26.89046 2.20000
88.94000 26.89046 2.20000
88.94000 27.24046 2.20000
88.94000 27.24046 2.20000
88.94000 27.24046 2.20000
88.94000 27.24046 2.20000
88.94000 27.24046 2.20000
88.94000 27.59046 2.20000
88.94000 27.59046 2.20000
88.94000 27.59046 2.20000
88.94000 27.59046 2.20000
88.94000 27.59046 2.20000
88.94000 27.59046 2.20000
88.94000 27.94046 2.20000
88.94000 27.94046 2.20000
88.94000 27.94046 2.20000
88.94000 28.29046 2.20000
88.94000 28.29046 2.20000
88.94000 28.29046 2.20000
88.94000 28.64046 2.20000
88.94000 28.64046 2.20000
88.94000 28.99046 2.20000
88.94000 28.99046 2.20000
88.94000 29.34046 2.20000
88.94000 29.69046 2.20000
88.94000 30.04046 2.20000
88.94000 30.39046 2.20000
88.94000 30.74046 2.20000
88.94000 31.44046 2.20000
88.94000 32.49046 2.20000
88.94000 33.54046 2.20000
88.94000 36.69046 2.20000
88.59000 36.69046 2.20000
88.24000 36.69046 2.20000
87.89000 36.69046 2.20000
87.54000 36.69046 2.20000
87.19000 36.69046 2.20000
86.84000 36.69046 2.20000
86.49000 36.69046 2.20000
86.14000 36.69046 2.20000
85.79000 36.69046 2.20000
84.74000 36.34046 2.20000
85.09000 33.54046 2.20000
85.09000 32.84046 2.20000
85.09000 32.14046 2.20000
85.09000 31.79046 2.20000
85.09000 31.09046 2.20000
85.09000 30.74046 2.20000
85.09000 30.39046 2.20000
85.09000 30.39046 2.20000
85.09000 30.04046 2.20000
85.09000 29.69046 2.20000
85.09000 29.69046 2.20000
86.49000 27.59046 2.20000
86.49000 27.59046 2.20000
86.49000 27.59046 2.20000
86.49000 27.24046 2.20000
86.49000 27.24046 2.20000
86.49000 27.24046 2.20000
86.49000 27.24046 2.20000
86.49000 27.24046 2.20000
86.49000 27.24046 2.20000
86.49000 27.24046 2.20000
86.49000 27.24046 2.20000
86.49000 26.89046 2.20000
86.49000 26.89046 2.20000
86.49000 26.89046 2.20000
86.49000 26.89046 2.20000
86.49000 26.89046 2.20000
86.49000 26.89046 2.20000
86.49000 26.89046 2.20000
86.49000 26.89046 2.20000
86.49000 26.89046 2.20000
86.49000 26.89046 2.20000
86.49000 26.54046 2.20000
86.49000 26.54046 2.20000
86.49000 26.54046 2.20000
86.49000 26.54046 2.20000
86.49000 26.54046 2.20000
86.49000 26.54046 2.20000
86.49000 26.54046 2.20000
86.49000 26.54046 2.20000
86.49000 26.54046 2.20000
86.49000 26.19046 2.20000
86.49000 26.19046 2.20000
86.49000 26.19046 2.20000
86.49000 26.19046 2.20000
86.49000 26.19046 2.20000
86.49000 26.19046 2.20000
86.49000 26.19046 2.20000
86.49000 26.19046 2.20000
86.49000 26.19046 2.20000
86.49000 26.19046 2.20000
86.49000 26.19046 2.20000
86.49000 25.84046 2.20000
86.49000 25.84046 2.20000
86.49000 25.84046 2.20000
86.49000 25.84046 2.20000
86.49000 25.84046 2.20000
86.49000 25.84046 2.20000
86.49000 25.84046 2.20000
86.49000 25.49046 2.20000
86.49000 25.49046 2.20000
86.49000 25.49046 2.20000
86.49000 25.14046 2.20000
86.49000 25.14046 2.20000
86.49000 25.14046 2.20000
86.49000 25.14046 2.20000
86.49000 24.79046 2.20000
86.49000 24.79046 2.20000
86.49000 24.79046 2.20000
86.49000 24.44046 2.20000
86.49000 24.44046 2.20000
86.49000 24.09046 2.20000
86.49000 23.74046 2.20000
86.49000 23.39046 2.20000
86.49000 23.04046 2.20000
86.49000 22.34046 2.20000
86.49000 21.64046 2.20000
86.49000 18.49046 2.20000
86.84000 18.49046 2.20000
86.84000 18.49046 2.20000
87.19000 18.49046 2.20000
87.54000 18.49046 2.20000
87.89000 18.49046 2.20000
88.24000 18.49046 2.20000
88.24000 18.49046 2.20000
88.59000 18.49046 2.20000
88.94000 18.49046 2.20000
89.29000 18.84046 2.20000
89.29000 19.19046 2.20000
88.94000 22.34046 2.20000
88.94000 22.69046 2.20000
88.94000 23.04046 2.20000
88.94000 23.39046 2.20000
88.94000 23.39046 2.20000
88.94000 23.39046 2.20000
89.29000 23.39046 2.20000
89.29000 23.74046 2.20000
89.29000 24.09046 2.20000
89.29000 24.09046 2.20000
89.29000 24.44046 2.20000
89.29000 24.44046 2.20000
89.29000 24.44046 2.20000
89.29000 24.79046 2.20000
89.29000 24.79046 2.20000
89.29000 24.79046 2.20000
89.29000 25.14046 2.20000
89.29000 25.14046 2.20000
89.29000 25.14046 2.20000
89.29000 25.14046 2.20000
89.29000 25.49046 2.20000
88.94000 25.84046 2.20000
88.94000 25.84046 2.20000
88.94000 25.84046 2.20000
88.94000 25.84046 2.20000
88.94000 25.84046 2.20000
88.94000 26.19046 2.20000
88.94000 26.19046 2.20000
88.94000 26.19046 2.20000
88.94000 26.19046 2.20000
88.94000 26.19046 2.20000
88.94000 26.19046 2.20000
88.94000 26.19046 2.20000
88.94000 26.19046 2.20000
88.94000 26.54046 2.20000
88.94000 26.54046 2.20000
88.94000 26.54046 2.20000
88.94000 27.94046 2.20000
88.94000 27.94046 2.20000
88.94000 27.94046 2.20000
88.94000 27.94046 2.20000
88.94000 28.29046 2.20000
88.94000 28.29046 2.20000
88.94000 28.29046 2.20000
88.94000 28.29046 2.20000
88.94000 28.29046 2.20000
88.94000 28.29046 2.20000
88.94000 28.29046 2.20000
88.94000 28.29046 2.20000
88.94000 28.64046 2.20000
88.94000 28.64046 2.20000
88.94000 28.64046 2.20000
88.94000 28.64046 2.20000
88.94000 28.64046 2.20000
88.94000 28.99046 2.20000
88.94000 28.99046 2.20000
88.94000 28.99046 2.20000
88.94000 28.99046 2.20000
88.94000 28.99046 2.20000
88.94000 28.99046 2.20000
88.94000 29.34046 2.20000
88.94000 29.34046 2.20000
88.94000 29.34046 2.20000
88.94000 29.69046 2.20000
88.94000 29.69046 2.20000
88.94000 29.69046 2.20000
88.94000 30.04046 2.20000
88.94000 30.04046 2.20000
88.94000 30.39046 2.20000
88.94000 30.39046 2.20000
88.94000 30.74046 2.20000
88.94000 31.09046 2.20000
88.94000 31.44046 2.20000
88.94000 31.79046 2.20000
88.94000 32.14046 2.20000
88.94000 32.84046 2.20000
88.94000 33.89046 2.20000
88.94000 36.69046 2.20000
88.59000 36.69046 2.20000
88.59000 36.69046 2.20000
88.24000 36.69046 2.20000
87.89000 36.69046 2.20000
87.54000 36.69046 2.20000
87.19000 36.69046 2.20000
86.84000 36.69046 2.20000
86.49000 36.69046 2.20000
86.49000 36.69046 2.20000
86.14000 36.69046 2.20000
85.79000 36.69046 2.20000
85.44000 36.69046 2.20000
85.09000 36.69046 2.20000
84.74000 36.34046 2.20000
84.39000 36.34046 2.20000
85.09000 33.54046 2.20000
85.09000 33.19046 2.20000
85.09000 32.49046 2.20000
85.09000 32.14046 2.20000
85.09000 31.79046 2.20000
85.09000 31.79046 2.20000
85.09000 31.44046 2.20000
85.09000 31.09046 2.20000
85.09000 31.09046 2.20000
85.09000 30.74046 2.20000
85.09000 30.39046 2.20000
85.09000 30.39046 2.20000
85.09000 30.39046 2.20000
85.09000 30.04046 2.20000
85.09000 29.69046 2.20000
85.09000 29.69046 2.20000
85.09000 29.69046 2.20000
85.09000 29.34046 2.20000
85.09000 29.34046 2.20000
85.09000 29.34046 2.20000
85.09000 29.34046 2.20000
85.09000 28.99046 2.20000
85.09000 28.99046 2.20000
85.09000 28.99046 2.20000
85.09000 28.64046 2.20000
85.09000 28.64046 2.20000
85.09000 28.64046 2.20000
85.09000 28.64046 2.20000
85.09000 28.29046 2.20000
85.09000 28.29046 2.20000
85.09000 28.29046 2.20000
85.09000 28.29046 2.20000
85.09000 27.94046 2.20000
85.09000 27.94046 2.20000
85.09000 27.94046 2.20000
85.09000 27.94046 2.20000
85.09000 27.94046 2.20000
85.79000 27.59046 2.20000
86.14000 27.59046 2.20000
86.49000 27.59046 2.20000
86.49000 27.59046 2.20000
86.49000 27.59046 2.20000
86.49000 27.59046 2.20000
86.49000 27.59046 2.20000
86.49000 27.59046 2.20000
86.49000 27.59046 2.20000
86.49000 27.59046 2.20000
86.49000 27.59046 2.20000
86.49000 27.59046 2.20000
86.49000 27.24046 2.20000
86.49000 27.24046 2.20000
86.49000 27.24046 2.20000
86.49000 27.24046 2.20000
86.49000 27.24046 2.20000
86.49000 27.24046 2.20000
86.49000 27.24046 2.20000
86.49000 27.24046 2.20000
86.49000 26.89046 2.20000
86.49000 26.89046 2.20000
86.49000 26.89046 2.20000
86.49000 26.54046 2.20000
86.49000 26.54046 2.20000
86.49000 26.54046 2.20000
86.49000 26.54046 2.20000
86.49000 26.19046 2.20000
86.49000 26.19046 2.20000
86.49000 26.19046 2.20000
86.49000 25.84046 2.20000
86.49000 25.84046 2.20000
86.49000 25.49046 2.20000
86.49000 25.14046 2.20000
86.49000 24.79046 2.20000
86.49000 24.44046 2.20000
86.49000 23.74046 2.20000
86.49000 23.04046 2.20000
86.49000 21.64046 2.20000
86.49000 18.49046 2.20000
86.84000 18.49046 2.20000
87.19000 18.49046 2.20000
87.54000 18.49046 2.20000
87.89000 18.49046 2.20000
88.24000 18.49046 2.20000
88.59000 18.49046 2.20000
88.94000 18.49046 2.20000
89.29000 18.84046 2.20000
89.29000 19.19046 2.20000
88.94000 23.04046 2.20000
88.94000 23.39046 2.20000
88.94000 23.39046 2.20000
89.29000 23.39046 2.20000
89.29000 23.74046 2.20000
89.29000 24.09046 2.20000
89.29000 24.79046 2.20000
89.29000 24.79046 2.20000
88.94000 25.84046 2.20000
88.94000 25.84046 2.20000
88.94000 26.19046 2.20000
88.94000 26.19046 2.20000
88.94000 26.19046 2.20000
88.94000 26.54046 2.20000
88.94000 26.54046 2.20000
88.94000 26.54046 2.20000
88.94000 26.89046 2.20000
88.94000 26.89046 2.20000
88.94000 26.89046 2.20000
88.94000 26.89046 2.20000
88.94000 26.89046 2.20000
88.94000 26.89046 2.20000
88.94000 27.24046 2.20000
88.94000 27.24046 2.20000
88.94000 27.24046 2.20000
88.94000 27.24046 2.20000
88.94000 27.24046 2.20000
88.94000 27.59046 2.20000
88.94000 27.59046 2.20000
88.94000 27.59046 2.20000
88.94000 27.59046 2.20000
88.94000 27.59046 2.20000
88.94000 27.59046 2.20000
88.94000 27.59046 2.20000
88.94000 27.59046 2.20000
88.94000 27.94046 2.20000
88.94000 27.94046 2.20000
88.94000 27.94046 2.20000
88.94000 29.34046 2.20000
88.94000 29.34046 2.20000
88.94000 29.34046 2.20000
88.94000 29.69046 2.20000
88.94000 29.69046 2.20000
88.94000 29.69046 2.20000
88.94000 29.69046 2.20000
88.94000 29.69046 2.20000
88.94000 30.04046 2.20000
88.94000 30.04046 2.20000
88.94000 30.04046 2.20000
88.94000 30.04046 2.20000
88.94000 30.39046 2.20000
88.94000 30.39046 2.20000
88.94000 30.39046 2.20000
88.94000 30.39046 2.20000
88.94000 30.39046 2.20000
88.94000 30.74046 2.20000
88.94000 30.74046 2.20000
88.94000 30.74046 2.20000
88.94000 31.09046 2.20000
88.94000 31.09046 2.20000
88.94000 31.44046 2.20000
88.94000 31.44046 2.20000
88.94000 31.44046 2.20000
88.94000 31.79046 2.20000
88.94000 31.79046 2.20000
88.94000 32.14046 2.20000
88.94000 32.14046 2.20000
88.94000 32.49046 2.20000
88.94000 32.84046 2.20000
88.94000 33.19046 2.20000
88.94000 33.54046 2.20000
88.94000 33.89046 2.20000
88.94000 34.24046 2.20000
89.64000 36.69046 2.20000
89.29000 36.69046 2.20000
88.94000 36.69046 2.20000
88.59000 36.69046 2.20000
88.24000 36.69046 2.20000
88.24000 36.69046 2.20000
87.89000 36.69046 2.20000
87.54000 36.69046 2.20000
87.19000 36.69046 2.20000
87.19000 36.69046 2.20000
86.84000 36.69046 2.20000
86.49000 36.69046 2.20000
86.49000 36.69046 2.20000
86.14000 36.69046 2.20000
85.79000 36.69046 2.20000
85.44000 36.69046 2.20000
85.44000 36.69046 2.20000
85.09000 36.69046 2.20000
84.74000 36.34046 2.20000
84.74000 36.34046 2.20000
85.09000 33.89046 2.20000
85.09000 33.54046 2.20000
85.09000 33.19046 2.20000
85.09000 32.49046 2.20000
85.09000 32.49046 2.20000
85.09000 32.14046 2.20000
85.09000 31.79046 2.20000
85.09000 31.79046 2.20000
85.09000 31.44046 2.20000
85.09000 31.44046 2.20000
85.09000 31.44046 2.20000
85.09000 31.09046 2.20000
85.09000 31.09046 2.20000
85.09000 31.09046 2.20000
85.09000 30.74046 2.20000
85.09000 30.74046 2.20000
85.09000 30.74046 2.20000
85.09000 30.74046 2.20000
85.09000 30.39046 2.20000
85.09000 30.39046 2.20000
85.09000 30.39046 2.20000
85.09000 30.39046 2.20000
85.09000 30.04046 2.20000
85.09000 30.04046 2.20000
85.09000 30.04046 2.20000
85.09000 30.04046 2.20000
85.09000 30.04046 2.20000
85.09000 29.69046 2.20000
85.09000 29.69046 2.20000
85.09000 29.69046 2.20000
85.09000 29.69046 2.20000
85.09000 29.69046 2.20000
85.09000 29.69046 2.20000
85.09000 29.34046 2.20000
85.09000 29.34046 2.20000
85.09000 29.34046 2.20000
85.09000 29.34046 2.20000
85.09000 29.34046 2.20000
85.09000 28.99046 2.20000
85.09000 28.99046 2.20000
85.09000 28.99046 2.20000
85.09000 28.99046 2.20000
85.09000 28.99046 2.20000
85.09000 28.99046 2.20000
85.09000 28.64046 2.20000
85.09000 28.64046 2.20000
85.09000 28.64046 2.20000
85.09000 28.64046 2.20000
85.09000 28.64046 2.20000
85.09000 28.29046 2.20000
85.09000 28.29046 2.20000
85.09000 28.29046 2.20000
85.09000 28.29046 2.20000
85.09000 27.94046 2.20000
85.09000 27.94046 2.20000
85.09000 27.94046 2.20000
85.09000 27.94046 2.20000
85.09000 27.59046 2.20000
85.09000 27.59046 2.20000
85.44000 27.59046 2.20000
85.44000 27.59046 2.20000
85.44000 27.59046 2.20000
85.44000 27.59046 2.20000
85.79000 27.59046 2.20000
85.79000 27.59046 2.20000
85.79000 27.59046 2.20000
85.79000 27.59046 2.20000
86.14000 27.59046 2.20000
86.14000 27.59046 2.20000
86.14000 27.59046 2.20000
86.14000 27.59046 2.20000
86.14000 27.59046 2.20000
86.49000 27.59046 2.20000
86.49000 27.59046 2.20000
86.49000 27.59046 2.20000
86.49000 27.59046 2.20000
86.49000 27.59046 2.20000
86.49000 27.59046 2.20000
86.49000 26.89046 2.20000
86.49000 24.44046 2.20000
88.94000 22.69046 2.20000
88.94000 23.39046 2.20000
88.94000 23.39046 2.20000
89.29000 23.74046 2.20000
89.29000 24.09046 2.20000
89.29000 24.79046 2.20000
89.29000 25.14046 2.20000
88.94000 25.84046 2.20000
88.94000 26.19046 2.20000
88.94000 26.54046 2.20000
88.94000 26.54046 2.20000
88.94000 26.89046 2.20000
88.94000 26.89046 2.20000
88.94000 27.24046 2.20000
88.94000 27.24046 2.20000
88.94000 27.24046 2.20000
88.94000 27.59046 2.20000
88.94000 27.59046 2.20000
88.94000 27.94046 2.20000
88.94000 27.94046 2.20000
88.94000 27.94046 2.20000
88.94000 28.29046 2.20000
88.94000 28.29046 2.20000
88.94000 28.29046 2.20000
88.94000 28.29046 2.20000
88.94000 28.29046 2.20000
88.94000 28.64046 2.20000
88.94000 28.64046 2.20000
88.94000 28.64046 2.20000
88.94000 28.64046 2.20000
88.94000 28.99046 2.20000
88.94000 28.99046 2.20000
88.94000 28.99046 2.20000
88.94000 28.99046 2.20000
88.94000 28.99046 2.20000
88.94000 29.34046 2.20000
88.94000 29.34046 2.20000
88.94000 30.74046 2.20000
88.94000 30.74046 2.20000
88.94000 31.09046 2.20000
88.94000 31.09046 2.20000
88.94000 31.09046 2.20000
88.94000 31.09046 2.20000
88.94000 31.44046 2.20000
88.94000 31.44046 2.20000
88.94000 31.44046 2.20000
88.94000 31.44046 2.20000
88.94000 31.79046 2.20000
88.94000 31.79046 2.20000
88.94000 31.79046 2.20000
88.94000 32.14046 2.20000
88.94000 32.14046 2.20000
88.94000 32.49046 2.20000
88.94000 32.49046 2.20000
88.94000 32.49046 2.20000
88.94000 32.84046 2.20000
88.94000 32.84046 2.20000
88.94000 32.84046 2.20000
88.94000 33.19046 2.20000
88.94000 33.19046 2.20000
88.94000 33.54046 2.20000
88.94000 33.89046 2.20000
88.94000 33.89046 2.20000
88.94000 34.24046 2.20000
88.94000 34.59046 2.20000
88.94000 34.59046 2.20000
89.64000 36.69046 2.20000
89.64000 36.69046 2.20000
89.29000 36.69046 2.20000
88.94000 36.69046 2.20000
88.94000 36.69046 2.20000
88.59000 36.69046 2.20000
88.24000 36.69046 2.20000
87.89000 36.69046 2.20000
87.89000 36.69046 2.20000
87.54000 36.69046 2.20000
87.54000 36.69046 2.20000
87.19000 36.69046 2.20000
86.84000 36.69046 2.20000
86.84000 36.69046 2.20000
86.49000 36.69046 2.20000
86.49000 36.69046 2.20000
86.14000 36.69046 2.20000
85.79000 36.69046 2.20000
85.79000 36.69046 2.20000
85.44000 36.69046 2.20000
85.44000 36.69046 2.20000
85.09000 36.69046 2.20000
84.74000 36.69046 2.20000
84.74000 36.34046 2.20000
85.09000 33.89046 2.20000
85.09000 33.54046 2.20000
85.09000 33.19046 2.20000
85.09000 32.84046 2.20000
85.09000 32.84046 2.20000
85.09000 32.49046 2.20000
85.09000 32.49046 2.20000
85.09000 32.14046 2.20000
85.09000 32.14046 2.20000
85.09000 32.14046 2.20000
85.09000 32.14046 2.20000
85.09000 32.14046 2.20000
85.09000 31.79046 2.20000
85.09000 31.79046 2.20000
85.09000 31.79046 2.20000
85.09000 31.44046 2.20000
85.09000 31.44046 2.20000
85.09000 31.44046 2.20000
85.09000 31.44046 2.20000
85.09000 31.44046 2.20000
85.09000 31.44046 2.20000
85.09000 31.44046 2.20000
85.09000 31.44046 2.20000
85.09000 31.09046 2.20000
85.09000 31.09046 2.20000
85.09000 31.09046 2.20000
85.09000 31.09046 2.20000
85.09000 31.09046 2.20000
85.09000 31.09046 2.20000
85.09000 31.09046 2.20000
85.09000 31.09046 2.20000
85.09000 31.09046 2.20000
85.09000 31.09046 2.20000
85.09000 30.74046 2.20000
85.09000 30.74046 2.20000
85.09000 30.74046 2.20000
85.09000 30.74046 2.20000
85.09000 30.74046 2.20000
85.09000 30.74046 2.20000
85.09000 30.74046 2.20000
85.09000 30.74046 2.20000
85.09000 30.74046 2.20000
85.09000 30.39046 2.20000
85.09000 30.39046 2.20000
85.09000 30.39046 2.20000
85.09000 30.39046 2.20000
85.09000 30.39046 2.20000
85.09000 30.39046 2.20000
85.09000 30.39046 2.20000
85.09000 30.39046 2.20000
85.09000 30.39046 2.20000
85.09000 30.39046 2.20000
85.09000 30.04046 2.20000
85.09000 30.04046 2.20000
85.09000 30.04046 2.20000
85.09000 30.04046 2.20000
85.09000 30.04046 2.20000
85.09000 30.04046 2.20000
85.09000 30.04046 2.20000
85.09000 30.04046 2.20000
85.09000 29.69046 2.20000
85.09000 29.69046 2.20000
85.09000 29.69046 2.20000
85.09000 29.34046 2.20000
85.09000 29.34046 2.20000
85.09000 29.34046 2.20000
85.09000 29.34046 2.20000
85.09000 29.34046 2.20000
85.09000 28.99046 2.20000
85.09000 28.99046 2.20000
85.09000 28.64046 2.20000
85.09000 28.64046 2.20000
85.09000 28.29046 2.20000
85.09000 27.94046 2.20000
85.44000 27.59046 2.20000
85.44000 27.59046 2.20000
85.44000 27.59046 2.20000
85.44000 27.59046 2.20000
85.79000 27.59046 2.20000
85.79000 27.59046 2.20000
85.79000 27.59046 2.20000
86.14000 27.59046 2.20000
86.14000 27.59046 2.20000
86.14000 27.59046 2.20000
86.49000 27.59046 2.20000
86.49000 27.59046 2.20000
86.49000 27.59046 2.20000
88.94000 22.69046 2.20000
88.94000 23.39046 2.20000
88.94000 23.39046 2.20000
89.29000 24.09046 2.20000
89.29000 24.44046 2.20000
88.94000 25.84046 2.20000
88.94000 26.19046 2.20000
88.94000 26.54046 2.20000
88.94000 26.89046 2.20000
88.94000 26.89046 2.20000
88.94000 27.24046 2.20000
88.94000 27.59046 2.20000
88.94000 27.59046 2.20000
88.94000 27.94046 2.20000
88.94000 28.29046 2.20000
88.94000 28.29046 2.20000
88.94000 28.64046 2.20000
88.94000 28.64046 2.20000
88.94000 28.64046 2.20000
88.94000 28.99046 2.20000
88.94000 28.99046 2.20000
88.94000 28.99046 2.20000
88.94000 29.34046 2.20000
88.94000 29.34046 2.20000
88.94000 29.69046 2.20000
88.94000 29.69046 2.20000
88.94000 29.69046 2.20000
88.94000 30.04046 2.20000
88.94000 30.04046 2.20000
88.94000 30.04046 2.20000
88.94000 30.04046 2.20000
88.94000 30.39046 2.20000
88.94000 30.39046 2.20000
88.94000 30.39046 2.20000
88.94000 30.39046 2.20000
88.94000 30.74046 2.20000
88.94000 32.14046 2.20000
88.94000 32.14046 2.20000
88.94000 32.49046 2.20000
88.94000 32.49046 2.20000
88.94000 32.49046 2.20000
88.94000 32.49046 2.20000
88.94000 32.84046 2.20000
88.94000 32.84046 2.20000
88.94000 32.84046 2.20000
88.94000 32.84046 2.20000
88.94000 33.19046 2.20000
88.94000 33.19046 2.20000
88.94000 33.19046 2.20000
88.94000 33.54046 2.20000
88.94000 33.54046 2.20000
88.94000 33.54046 2.20000
88.94000 33.89046 2.20000
88.94000 33.89046 2.20000
88.94000 34.24046 2.20000
88.94000 34.24046 2.20000
88.94000 34.24046 2.20000
88.94000 34.59046 2.20000
88.94000 34.59046 2.20000
90.34000 36.69046 2.20000
89.99000 36.69046 2.20000
89.99000 36.69046 2.20000
89.64000 36.69046 2.20000
89.29000 36.69046 2.20000
89.29000 36.69046 2.20000
88.94000 36.69046 2.20000
88.59000 36.69046 2.20000
88.59000 36.69046 2.20000
88.24000 36.69046 2.20000
88.24000 36.69046 2.20000
87.89000 36.69046 2.20000
87.89000 36.69046 2.20000
87.54000 36.69046 2.20000
87.54000 36.69046 2.20000
87.19000 36.69046 2.20000
87.19000 36.69046 2.20000
86.84000 36.69046 2.20000
86.84000 36.69046 2.20000
86.49000 36.69046 2.20000
86.49000 36.69046 2.20000
86.14000 36.69046 2.20000
86.14000 36.69046 2.20000
86.14000 36.69046 2.20000
85.79000 36.69046 2.20000
85.79000 36.69046 2.20000
85.44000 36.69046 2.20000
85.44000 36.69046 2.20000
85.09000 36.69046 2.20000
85.09000 36.69046 2.20000
84.74000 36.34046 2.20000
84.74000 36.34046 2.20000
84.74000 36.34046 2.20000
84.39000 36.34046 2.20000
84.39000 36.34046 2.20000
85.09000 33.89046 2.20000
85.09000 33.89046 2.20000
85.09000 33.54046 2.20000
85.09000 33.54046 2.20000
85.09000 33.54046 2.20000
85.09000 33.54046 2.20000
85.09000 33.54046 2.20000
85.09000 33.19046 2.20000
85.09000 33.19046 2.20000
85.09000 33.19046 2.20000
85.09000 32.84046 2.20000
85.09000 32.84046 2.20000
85.09000 32.84046 2.20000
85.09000 32.84046 2.20000
85.09000 32.84046 2.20000
85.09000 32.84046 2.20000
85.09000 32.84046 2.20000
85.09000 32.49046 2.20000
85.09000 32.49046 2.20000
85.09000 32.49046 2.20000
85.09000 32.49046 2.20000
85.09000 32.49046 2.20000
85.09000 32.49046 2.20000
85.09000 32.49046 2.20000
85.09000 32.49046 2.20000
85.09000 32.49046 2.20000
85.09000 32.49046 2.20000
85.09000 32.49046 2.20000
85.09000 32.14046 2.20000
85.09000 32.14046 2.20000
85.09000 32.14046 2.20000
85.09000 32.14046 2.20000
85.09000 32.14046 2.20000
85.09000 32.14046 2.20000
85.09000 32.14046 2.20000
85.09000 32.14046 2.20000
85.09000 32.14046 2.20000
85.09000 31.79046 2.20000
85.09000 31.79046 2.20000
85.09000 31.79046 2.20000
85.09000 31.79046 2.20000
85.09000 31.79046 2.20000
85.09000 31.79046 2.20000
85.09000 31.79046 2.20000
85.09000 31.79046 2.20000
85.09000 31.79046 2.20000
85.09000 31.79046 2.20000
85.09000 31.44046 2.20000
85.09000 31.44046 2.20000
85.09000 31.44046 2.20000
85.09000 31.44046 2.20000
85.09000 31.44046 2.20000
85.09000 31.44046 2.20000
85.09000 31.44046 2.20000
85.09000 31.44046 2.20000
85.09000 31.09046 2.20000
85.09000 31.09046 2.20000
85.09000 31.09046 2.20000
85.09000 30.74046 2.20000
85.09000 30.74046 2.20000
85.09000 30.74046 2.20000
85.09000 30.74046 2.20000
85.09000 30.74046 2.20000
85.09000 30.39046 2.20000
85.09000 30.39046 2.20000
85.09000 30.04046 2.20000
85.09000 30.04046 2.20000
85.09000 29.69046 2.20000
85.09000 29.34046 2.20000
85.09000 28.99046 2.20000
85.09000 28.64046 2.20000
85.09000 27.94046 2.20000
85.44000 27.59046 2.20000
85.44000 27.59046 2.20000
85.79000 27.59046 2.20000
85.79000 27.59046 2.20000
86.14000 27.59046 2.20000
86.14000 27.59046 2.20000
86.14000 27.59046 2.20000
86.49000 27.59046 2.20000
86.49000 27.59046 2.20000
88.94000 23.04046 2.20000
88.94000 23.39046 2.20000
89.29000 24.09046 2.20000
89.29000 24.79046 2.20000
88.94000 26.19046 2.20000
88.94000 26.54046 2.20000
88.94000 27.24046 2.20000
88.94000 27.59046 2.20000
88.94000 27.94046 2.20000
88.94000 28.29046 2.20000
88.94000 28.29046 2.20000
88.94000 28.64046 2.20000
88.94000 28.99046 2.20000
88.94000 28.99046 2.20000
88.94000 29.34046 2.20000
88.94000 29.69046 2.20000
88.94000 29.69046 2.20000
88.94000 30.04046 2.20000
88.94000 30.04046 2.20000
88.94000 30.04046 2.20000
88.94000 30.39046 2.20000
88.94000 30.39046 2.20000
88.94000 30.39046 2.20000
88.94000 30.74046 2.20000
88.94000 30.74046 2.20000
88.94000 31.09046 2.20000
88.94000 31.09046 2.20000
88.94000 31.09046 2.20000
88.94000 31.44046 2.20000
88.94000 31.44046 2.20000
88.94000 31.44046 2.20000
88.94000 31.44046 2.20000
88.94000 31.79046 2.20000
88.94000 31.79046 2.20000
88.94000 31.79046 2.20000
88.94000 31.79046 2.20000
88.94000 32.14046 2.20000
88.94000 33.54046 2.20000
88.94000 33.54046 2.20000
88.94000 33.89046 2.20000
88.94000 33.89046 2.20000
88.94000 33.89046 2.20000
88.94000 33.89046 2.20000
88.94000 34.24046 2.20000
88.94000 34.24046 2.20000
88.94000 34.24046 2.20000
88.94000 34.24046 2.20000
88.94000 34.59046 2.20000
88.94000 34.59046 2.20000
88.94000 34.59046 2.20000
94.54000 37.74046 2.20000
93.84000 37.74046 2.20000
93.14000 37.74046 2.20000
92.79000 37.74046 2.20000
92.09000 37.74046 2.20000
90.34000 36.69046 2.20000
89.99000 36.69046 2.20000
89.64000 36.69046 2.20000
89.64000 36.69046 2.20000
89.29000 36.69046 2.20000
88.94000 36.69046 2.20000
88.94000 36.69046 2.20000
88.59000 36.69046 2.20000
88.59000 36.69046 2.20000
88.24000 36.69046 2.20000
88.24000 36.69046 2.20000
88.24000 36.69046 2.20000
87.89000 36.69046 2.20000
87.89000 36.69046 2.20000
87.54000 36.69046 2.20000
87.54000 36.69046 2.20000
87.54000 36.69046 2.20000
87.19000 36.69046 2.20000
87.19000 36.69046 2.20000
86.84000 36.69046 2.20000
86.84000 36.69046 2.20000
86.84000 36.69046 2.20000
86.84000 36.69046 2.20000
86.49000 36.69046 2.20000
86.49000 36.69046 2.20000
86.49000 36.69046 2.20000
86.14000 36.69046 2.20000
86.14000 36.69046 2.20000
86.14000 36.69046 2.20000
85.79000 36.69046 2.20000
85.79000 36.69046 2.20000
85.79000 36.69046 2.20000
85.44000 36.69046 2.20000
85.44000 36.69046 2.20000
85.44000 36.69046 2.20000
85.44000 36.69046 2.20000
85.09000 36.69046 2.20000
85.09000 36.69046 2.20000
84.74000 36.69046 2.20000
84.74000 36.34046 2.20000
84.74000 36.34046 2.20000
84.74000 36.34046 2.20000
84.39000 36.34046 2.20000
84.39000 36.34046 2.20000
84.39000 36.34046 2.20000
84.04000 36.34046 2.20000
84.04000 36.34046 2.20000
84.04000 36.34046 2.20000
83.69000 36.34046 2.20000
83.69000 36.34046 2.20000
83.34000 36.34046 2.20000
82.99000 36.34046 2.20000
82.99000 36.34046 2.20000
82.64000 36.34046 2.20000
81.94000 36.69046 2.20000
81.59000 36.69046 2.20000
81.24000 36.69046 2.20000
85.09000 33.89046 2.20000
85.09000 33.89046 2.20000
85.09000 33.89046 2.20000
85.09000 33.89046 2.20000
85.09000 33.89046 2.20000
85.09000 33.89046 2.20000
85.09000 33.89046 2.20000
85.09000 33.89046 2.20000
85.09000 33.89046 2.20000
85.09000 33.89046 2.20000
85.09000 33.89046 2.20000
85.09000 33.54046 2.20000
85.09000 33.54046 2.20000
85.09000 33.54046 2.20000
85.09000 33.54046 2.20000
85.09000 33.54046 2.20000
85.09000 33.54046 2.20000
85.09000 33.54046 2.20000
85.09000 33.54046 2.20000
85.09000 33.54046 2.20000
85.09000 33.19046 2.20000
85.09000 33.19046 2.20000
85.09000 33.19046 2.20000
85.09000 33.19046 2.20000
85.09000 33.19046 2.20000
85.09000 33.19046 2.20000
85.09000 33.19046 2.20000
85.09000 33.19046 2.20000
85.09000 33.19046 2.20000
85.09000 33.19046 2.20000
85.09000 32.84046 2.20000
85.09000 32.84046 2.20000
85.09000 32.84046 2.20000
85.09000 32.84046 2.20000
85.09000 32.84046 2.20000
85.09000 32.84046 2.20000
85.09000 32.84046 2.20000
85.09000 32.84046 2.20000
85.09000 32.49046 2.20000
85.09000 32.49046 2.20000
85.09000 32.49046 2.20000
85.09000 32.14046 2.20000
85.09000 32.14046 2.20000
85.09000 32.14046 2.20000
85.09000 32.14046 2.20000
85.09000 32.14046 2.20000
85.09000 31.79046 2.20000
85.09000 31.79046 2.20000
85.09000 31.44046 2.20000
85.09000 31.44046 2.20000
85.09000 31.09046 2.20000
85.09000 30.74046 2.20000
85.09000 30.39046 2.20000
85.09000 30.04046 2.20000
85.09000 29.34046 2.20000
85.09000 28.64046 2.20000
85.44000 27.59046 2.20000
85.44000 27.59046 2.20000
85.79000 27.59046 2.20000
85.79000 27.59046 2.20000
86.14000 27.59046 2.20000
86.49000 27.59046 2.20000
86.49000 27.59046 2.20000
89.29000 24.09046 2.20000
88.94000 26.19046 2.20000
88.94000 26.89046 2.20000
88.94000 27.59046 2.20000
88.94000 27.94046 2.20000
88.94000 28.64046 2.20000
88.94000 28.99046 2.20000
88.94000 29.34046 2.20000
88.94000 29.69046 2.20000
88.94000 29.69046 2.20000
88.94000 30.04046 2.20000
88.94000 30.39046 2.20000
88.94000 30.39046 2.20000
88.94000 30.74046 2.20000
88.94000 31.09046 2.20000
88.94000 31.09046 2.20000
88.94000 31.44046 2.20000
88.94000 31.44046 2.20000
88.94000 31.44046 2.20000
88.94000 31.79046 2.20000
88.94000 31.79046 2.20000
88.94000 31.79046 2.20000
88.94000 32.14046 2.20000
88.94000 32.14046 2.20000
88.94000 32.49046 2.20000
88.94000 32.49046 2.20000
88.94000 32.49046 2.20000
88.94000 32.84046 2.20000
88.94000 32.84046 2.20000
88.94000 32.84046 2.20000
88.94000 32.84046 2.20000
88.94000 33.19046 2.20000
88.94000 33.19046 2.20000
88.94000 33.19046 2.20000
88.94000 33.19046 2.20000
88.94000 33.54046 2.20000
95.24000 37.74046 2.20000
94.19000 37.74046 2.20000
93.49000 37.74046 2.20000
90.34000 36.69046 2.20000
89.99000 36.69046 2.20000
89.29000 36.69046 2.20000
89.29000 36.69046 2.20000
88.94000 36.69046 2.20000
88.59000 36.69046 2.20000
88.59000 36.69046 2.20000
88.24000 36.69046 2.20000
88.24000 36.69046 2.20000
88.24000 36.69046 2.20000
87.89000 36.69046 2.20000
87.89000 36.69046 2.20000
87.89000 36.69046 2.20000
87.54000 36.69046 2.20000
87.54000 36.69046 2.20000
87.54000 36.69046 2.20000
87.54000 36.69046 2.20000
87.19000 36.69046 2.20000
87.19000 36.69046 2.20000
87.19000 36.69046 2.20000
87.19000 36.69046 2.20000
86.84000 36.69046 2.20000
86.84000 36.69046 2.20000
86.84000 36.69046 2.20000
86.84000 36.69046 2.20000
86.84000 36.69046 2.20000
86.49000 36.69046 2.20000
86.49000 36.69046 2.20000
86.49000 36.69046 2.20000
86.49000 36.69046 2.20000
86.49000 36.69046 2.20000
86.49000 36.69046 2.20000
86.14000 36.69046 2.20000
86.14000 36.69046 2.20000
86.14000 36.69046 2.20000
86.14000 36.69046 2.20000
86.14000 36.69046 2.20000
85.79000 36.69046 2.20000
85.79000 36.69046 2.20000
85.79000 36.69046 2.20000
85.79000 36.69046 2.20000
85.79000 36.69046 2.20000
85.79000 36.69046 2.20000
85.44000 36.69046 2.20000
85.44000 36.69046 2.20000
85.44000 36.69046 2.20000
85.44000 36.69046 2.20000
85.44000 36.69046 2.20000
85.09000 36.69046 2.20000
85.09000 36.69046 2.20000
85.09000 36.69046 2.20000
85.09000 36.69046 2.20000
84.74000 36.69046 2.20000
84.74000 36.69046 2.20000
84.74000 36.34046 2.20000
84.74000 36.34046 2.20000
84.74000 36.34046 2.20000
84.74000 36.34046 2.20000
84.74000 36.34046 2.20000
84.74000 36.34046 2.20000
84.39000 36.34046 2.20000
84.39000 36.34046 2.20000
84.39000 36.34046 2.20000
84.04000 36.34046 2.20000
84.04000 36.34046 2.20000
83.69000 36.34046 2.20000
83.69000 36.34046 2.20000
83.34000 36.34046 2.20000
82.99000 36.34046 2.20000
82.64000 36.34046 2.20000
81.24000 36.69046 2.20000
80.54000 36.69046 2.20000
79.84000 36.69046 2.20000
79.49000 36.34046 2.20000
79.14000 36.34046 2.20000
77.39000 36.34046 2.20000
81.24000 34.59046 2.20000
82.29000 34.59046 2.20000
82.29000 34.59046 2.20000
82.29000 34.24046 2.20000
82.29000 34.24046 2.20000
82.29000 34.24046 2.20000
82.64000 33.89046 2.20000
82.99000 33.89046 2.20000
83.34000 33.89046 2.20000
83.69000 33.89046 2.20000
84.04000 33.89046 2.20000
84.04000 33.89046 2.20000
84.39000 33.89046 2.20000
84.39000 33.89046 2.20000
84.74000 33.89046 2.20000
84.74000 33.89046 2.20000
84.74000 33.89046 2.20000
84.74000 33.89046 2.20000
84.74000 33.89046 2.20000
85.09000 33.89046 2.20000
85.09000 33.89046 2.20000
85.09000 33.89046 2.20000
85.09000 33.89046 2.20000
85.09000 33.89046 2.20000
85.09000 33.89046 2.20000
85.09000 33.54046 2.20000
85.09000 33.54046 2.20000
85.09000 33.54046 2.20000
85.09000 33.54046 2.20000
85.09000 33.54046 2.20000
85.09000 33.19046 2.20000
85.09000 33.19046 2.20000
85.09000 32.84046 2.20000
85.09000 32.84046 2.20000
85.09000 32.49046 2.20000
85.09000 32.14046 2.20000
85.09000 31.79046 2.20000
85.09000 31.44046 2.20000
85.09000 30.74046 2.20000
85.09000 30.04046 2.20000
85.09000 28.64046 2.20000
85.44000 27.59046 2.20000
85.79000 27.59046 2.20000
85.79000 27.59046 2.20000
86.14000 27.59046 2.20000
86.49000 27.59046 2.20000
86.49000 27.59046 2.20000
88.94000 25.84046 2.20000
88.94000 26.89046 2.20000
88.94000 27.59046 2.20000
88.94000 28.29046 2.20000
88.94000 28.99046 2.20000
88.94000 29.34046 2.20000
88.94000 30.04046 2.20000
88.94000 30.39046 2.20000
88.94000 30.74046 2.20000
88.94000 31.09046 2.20000
88.94000 31.09046 2.20000
88.94000 31.44046 2.20000
88.94000 31.79046 2.20000
88.94000 31.79046 2.20000
88.94000 32.14046 2.20000
88.94000 32.49046 2.20000
88.94000 32.49046 2.20000
88.94000 32.84046 2.20000
88.94000 32.84046 2.20000
88.94000 32.84046 2.20000
88.94000 33.19046 2.20000
88.94000 33.19046 2.20000
88.94000 33.19046 2.20000
88.94000 33.54046 2.20000
88.94000 33.54046 2.20000
88.94000 33.89046 2.20000
88.94000 33.89046 2.20000
88.94000 33.89046 2.20000
88.94000 34.24046 2.20000
88.94000 34.24046 2.20000
88.94000 34.24046 2.20000
88.94000 34.24046 2.20000
88.94000 34.59046 2.20000
88.94000 34.59046 2.20000
88.94000 34.59046 2.20000
88.94000 34.59046 2.20000
91.04000 34.59046 2.20000
90.34000 36.69046 2.20000
89.64000 36.69046 2.20000
89.29000 36.69046 2.20000
88.94000 36.69046 2.20000
88.59000 36.69046 2.20000
87.89000 36.69046 2.20000
87.89000 36.69046 2.20000
87.54000 36.69046 2.20000
87.19000 36.69046 2.20000
87.19000 36.69046 2.20000
86.84000 36.69046 2.20000
86.84000 36.69046 2.20000
86.84000 36.69046 2.20000
86.49000 36.69046 2.20000
86.49000 36.69046 2.20000
86.49000 36.69046 2.20000
86.14000 36.69046 2.20000
86.14000 36.69046 2.20000
86.14000 36.69046 2.20000
86.14000 36.69046 2.20000
85.79000 36.69046 2.20000
85.79000 36.69046 2.20000
85.79000 36.69046 2.20000
85.79000 36.69046 2.20000
85.44000 36.69046 2.20000
85.44000 36.69046 2.20000
85.44000 36.69046 2.20000
85.44000 36.69046 2.20000
85.44000 36.69046 2.20000
85.09000 36.69046 2.20000
85.09000 36.69046 2.20000
85.09000 36.69046 2.20000
85.09000 36.69046 2.20000
85.09000 36.69046 2.20000
84.74000 36.34046 2.20000
84.74000 36.34046 2.20000
84.74000 36.34046 2.20000
84.74000 36.34046 2.20000
84.74000 36.34046 2.20000
84.74000 36.34046 2.20000
84.74000 36.34046 2.20000
84.39000 36.34046 2.20000
84.39000 36.34046 2.20000
84.39000 36.34046 2.20000
84.39000 36.34046 2.20000
84.39000 36.34046 2.20000
84.39000 36.34046 2.20000
84.39000 36.34046 2.20000
84.39000 36.34046 2.20000
84.04000 36.34046 2.20000
84.04000 36.34046 2.20000
84.04000 36.34046 2.20000
84.04000 36.34046 2.20000
84.04000 36.34046 2.20000
83.69000 36.34046 2.20000
83.69000 36.34046 2.20000
83.69000 36.34046 2.20000
83.69000 36.34046 2.20000
83.69000 36.34046 2.20000
83.69000 36.34046 2.20000
83.34000 36.34046 2.20000
83.34000 36.34046 2.20000
83.34000 36.34046 2.20000
82.99000 36.34046 2.20000
82.99000 36.34046 2.20000
82.99000 36.34046 2.20000
82.64000 36.34046 2.20000
82.64000 36.34046 2.20000
81.59000 36.69046 2.20000
81.59000 36.69046 2.20000
80.89000 36.69046 2.20000
80.54000 36.69046 2.20000
80.19000 36.69046 2.20000
79.84000 36.69046 2.20000
79.49000 36.34046 2.20000
79.49000 36.34046 2.20000
78.79000 36.34046 2.20000
77.74000 36.34046 2.20000
75.99000 36.34046 2.20000
74.59000 35.99046 2.20000
74.59000 35.64046 2.20000
74.59000 35.29046 2.20000
74.59000 34.94046 2.20000
79.84000 34.59046 2.20000
82.29000 34.59046 2.20000
82.29000 34.59046 2.20000
82.29000 34.59046 2.20000
82.29000 34.59046 2.20000
82.29000 34.59046 2.20000
82.29000 34.24046 2.20000
82.29000 34.24046 2.20000
82.29000 34.24046 2.20000
82.29000 34.24046 2.20000
82.64000 33.89046 2.20000
82.64000 33.89046 2.20000
82.99000 33.89046 2.20000
82.99000 33.89046 2.20000
83.34000 33.89046 2.20000
83.34000 33.89046 2.20000
83.34000 33.89046 2.20000
83.34000 33.89046 2.20000
83.34000 33.89046 2.20000
83.69000 33.89046 2.20000
83.69000 33.89046 2.20000
83.69000 33.89046 2.20000
84.04000 33.89046 2.20000
84.04000 33.89046 2.20000
84.04000 33.89046 2.20000
84.04000 33.89046 2.20000
84.04000 33.89046 2.20000
84.04000 33.89046 2.20000
84.04000 33.89046 2.20000
84.04000 33.89046 2.20000
84.39000 33.89046 2.20000
84.39000 33.89046 2.20000
84.39000 33.89046 2.20000
84.39000 33.89046 2.20000
84.39000 33.89046 2.20000
84.39000 33.89046 2.20000
84.39000 33.89046 2.20000
84.39000 33.89046 2.20000
84.39000 33.89046 2.20000
84.39000 33.89046 2.20000
84.74000 33.89046 2.20000
84.74000 33.89046 2.20000
84.74000 33.89046 2.20000
84.74000 33.89046 2.20000
84.74000 33.89046 2.20000
84.74000 33.89046 2.20000
84.74000 33.89046 2.20000
84.74000 33.89046 2.20000
84.74000 33.89046 2.20000
85.09000 33.89046 2.20000
85.09000 33.89046 2.20000
85.09000 33.89046 2.20000
85.09000 33.89046 2.20000
85.09000 33.89046 2.20000
85.09000 33.89046 2.20000
85.09000 33.89046 2.20000
85.09000 33.89046 2.20000
85.09000 33.89046 2.20000
85.09000 33.89046 2.20000
88.94000 27.94046 2.20000
88.94000 28.29046 2.20000
88.94000 28.99046 2.20000
88.94000 29.34046 2.20000
88.94000 29.69046 2.20000
88.94000 30.04046 2.20000
88.94000 30.39046 2.20000
88.94000 30.74046 2.20000
88.94000 31.09046 2.20000
88.94000 31.44046 2.20000
88.94000 31.44046 2.20000
88.94000 31.79046 2.20000
88.94000 31.79046 2.20000
88.94000 32.14046 2.20000
88.94000 32.49046 2.20000
88.94000 32.49046 2.20000
88.94000 32.84046 2.20000
88.94000 32.84046 2.20000
88.94000 33.19046 2.20000
88.94000 33.19046 2.20000
88.94000 33.54046 2.20000
88.94000 33.54046 2.20000
88.94000 33.89046 2.20000
88.94000 33.89046 2.20000
88.94000 34.24046 2.20000
88.94000 34.24046 2.20000
88.94000 34.24046 2.20000
88.94000 34.59046 2.20000
88.94000 34.59046 2.20000
89.64000 34.59046 2.20000
89.64000 36.69046 2.20000
88.94000 36.69046 2.20000
88.24000 36.69046 2.20000
87.89000 36.69046 2.20000
87.54000 36.69046 2.20000
87.19000 36.69046 2.20000
86.49000 36.69046 2.20000
86.49000 36.69046 2.20000
86.14000 36.69046 2.20000
85.79000 36.69046 2.20000
85.79000 36.69046 2.20000
85.44000 36.69046 2.20000
85.44000 36.69046 2.20000
84.74000 36.34046 2.20000
84.74000 36.34046 2.20000
84.74000 36.34046 2.20000
84.39000 36.34046 2.20000
84.39000 36.34046 2.20000
84.39000 36.34046 2.20000
84.39000 36.34046 2.20000
84.39000 36.34046 2.20000
84.39000 36.34046 2.20000
84.04000 36.34046 2.20000
84.04000 36.34046 2.20000
84.04000 36.34046 2.20000
84.04000 36.34046 2.20000
84.04000 36.34046 2.20000
83.69000 36.34046 2.20000
83.69000 36.34046 2.20000
83.69000 36.34046 2.20000
83.69000 36.34046 2.20000
83.69000 36.34046 2.20000
83.69000 36.34046 2.20000
83.69000 36.34046 2.20000
83.69000 36.34046 2.20000
83.34000 36.34046 2.20000
83.34000 36.34046 2.20000
83.34000 36.34046 2.20000
83.34000 36.34046 2.20000
83.34000 36.34046 2.20000
83.34000 36.34046 2.20000
83.34000 36.34046 2.20000
82.99000 36.34046 2.20000
82.99000 36.34046 2.20000
82.99000 36.34046 2.20000
82.99000 36.34046 2.20000
82.99000 36.34046 2.20000
82.99000 36.34046 2.20000
82.99000 36.34046 2.20000
82.99000 36.34046 2.20000
82.64000 36.34046 2.20000
82.64000 36.34046 2.20000
82.64000 36.34046 2.20000
82.64000 36.34046 2.20000
82.64000 36.34046 2.20000
82.29000 36.69046 2.20000
81.94000 36.69046 2.20000
81.94000 36.69046 2.20000
81.94000 36.69046 2.20000
81.94000 36.69046 2.20000
81.59000 36.69046 2.20000
81.59000 36.69046 2.20000
81.59000 36.69046 2.20000
81.24000 36.69046 2.20000
81.24000 36.69046 2.20000
81.24000 36.69046 2.20000
80.89000 36.69046 2.20000
80.89000 36.69046 2.20000
80.54000 36.69046 2.20000
80.19000 36.69046 2.20000
80.19000 36.69046 2.20000
79.49000 36.69046 2.20000
79.49000 36.34046 2.20000
79.49000 36.34046 2.20000
79.49000 36.34046 2.20000
79.14000 36.34046 2.20000
78.44000 36.34046 2.20000
77.39000 36.34046 2.20000
76.34000 36.34046 2.20000
74.59000 35.99046 2.20000
74.59000 35.99046 2.20000
74.59000 35.64046 2.20000
74.59000 35.29046 2.20000
74.59000 34.94046 2.20000
74.94000 34.59046 2.20000
80.89000 34.59046 2.20000
81.59000 34.59046 2.20000
81.94000 34.59046 2.20000
82.29000 34.59046 2.20000
82.29000 34.59046 2.20000
82.29000 34.59046 2.20000
82.29000 34.59046 2.20000
82.29000 34.59046 2.20000
82.29000 34.59046 2.20000
82.29000 34.59046 2.20000
82.29000 34.59046 2.20000
82.29000 34.59046 2.20000
82.29000 34.59046 2.20000
82.29000 34.24046 2.20000
82.29000 34.24046 2.20000
82.29000 34.24046 2.20000
82.29000 34.24046 2.20000
82.29000 34.24046 2.20000
82.29000 34.24046 2.20000
82.29000 34.24046 2.20000
82.29000 34.24046 2.20000
82.64000 33.89046 2.20000
82.64000 33.89046 2.20000
82.64000 33.89046 2.20000
82.64000 33.89046 2.20000
82.64000 33.89046 2.20000
82.64000 33.89046 2.20000
82.64000 33.89046 2.20000
82.64000 33.89046 2.20000
82.99000 33.89046 2.20000
82.99000 33.89046 2.20000
82.99000 33.89046 2.20000
82.99000 33.89046 2.20000
82.99000 33.89046 2.20000
82.99000 33.89046 2.20000
82.99000 33.89046 2.20000
82.99000 33.89046 2.20000
82.99000 33.89046 2.20000
82.99000 33.89046 2.20000
83.34000 33.89046 2.20000
83.34000 33.89046 2.20000
83.34000 33.89046 2.20000
83.34000 33.89046 2.20000
83.34000 33.89046 2.20000
83.34000 33.89046 2.20000
83.34000 33.89046 2.20000
83.34000 33.89046 2.20000
83.34000 33.89046 2.20000
83.69000 33.89046 2.20000
83.69000 33.89046 2.20000
83.69000 33.89046 2.20000
83.69000 33.89046 2.20000
83.69000 33.89046 2.20000
83.69000 33.89046 2.20000
83.69000 33.89046 2.20000
83.69000 33.89046 2.20000
83.69000 33.89046 2.20000
83.69000 33.89046 2.20000
84.04000 33.89046 2.20000
84.04000 33.89046 2.20000
84.04000 33.89046 2.20000
84.04000 33.89046 2.20000
84.04000 33.89046 2.20000
84.04000 33.89046 2.20000
84.04000 33.89046 2.20000
84.04000 33.89046 2.20000
84.39000 33.89046 2.20000
84.39000 33.89046 2.20000
84.39000 33.89046 2.20000
84.74000 33.89046 2.20000
84.74000 33.89046 2.20000
84.74000 33.89046 2.20000
84.74000 33.89046 2.20000
84.74000 33.89046 2.20000
85.09000 33.89046 2.20000
85.09000 33.89046 2.20000
88.94000 32.49046 2.20000
88.94000 32.84046 2.20000
88.94000 32.84046 2.20000
88.94000 33.19046 2.20000
88.94000 33.19046 2.20000
88.94000 33.54046 2.20000
88.94000 33.89046 2.20000
88.94000 33.89046 2.20000
88.94000 34.24046 2.20000
88.94000 34.24046 2.20000
88.94000 34.59046 2.20000
88.94000 34.59046 2.20000
