ply
format ascii 1.0
element vertex 1934
property float x
property float y
property float z
end_header
-53.33000 -24.48000 1.90000
-53.33000 -24.48000 1.90000
-53.33000 -24.48000 1.90000
-53.33000 -24.48000 1.90000
-53.33000 -24.48000 1.90000
-53.33000 -23.73000 1.90000
-53.33000 -23.73000 1.90000
-53.33000 -23.73000 1.90000
-53.33000 -23.73000 1.90000
-53.33000 -23.73000 1.90000
-53.33000 -23.73000 1.90000
-53.33000 -23.73000 1.90000
-53.33000 -23.73000 1.90000
-53.33000 -23.73000 1.90000
-53.33000 -23.73000 1.90000
-53.33000 -23.73000 1.90000
-45.08000 -17.73000 1.90000
-45.83000 -17.73000 1.90000
-46.58000 -17.73000 1.90000
-47.33000 -17.73000 1.90000
-48.08000 -17.73000 1.90000
-48.08000 -17.73000 1.90000
-48.83000 -17.73000 1.90000
-49.58000 -17.73000 1.90000
-49.58000 -17.73000 1.90000
-50.33000 -17.73000 1.90000
-50.33000 -17.73000 1.90000
-51.08000 -17.73000 1.90000
-51.08000 -17.73000 1.90000
-51.08000 -17.73000 1.90000
-51.83000 -17.73000 1.90000
-51.83000 -17.73000 1.90000
-52.58000 -17.73000 1.90000
-52.58000 -17.73000 1.90000
-52.58000 -17.73000 1.90000
-53.33000 -17.73000 1.90000
-53.33000 -17.73000 1.90000
-54.08000 -17.73000 1.90000
-54.08000 -17.73000 1.90000
-54.08000 -17.73000 1.90000
-54.08000 -17.73000 1.90000
-54.83000 -17.73000 1.90000
-54.83000 -17.73000 1.90000
-54.83000 -17.73000 1.90000
-55.58000 -17.73000 1.90000
-55.58000 -17.73000 1.90000
-55.58000 -17.73000 1.90000
-56.33000 -19.23000 1.90000
-56.33000 -19.23000 1.90000
-56.33000 -19.23000 1.90000
-56.33000 -19.23000 1.90000
-56.33000 -19.23000 1.90000
-57.08000 -19.23000 1.90000
-57.08000 -19.23000 1.90000
-57.08000 -19.23000 1.90000
-57.08000 -19.23000 1.90000
-57.83000 -19.23000 1.90000
-57.83000 -19.23000 1.90000
-57.83000 -19.23000 1.90000
-58.58000 -19.23000 1.90000
-58.58000 -19.98000 1.90000
-58.58000 -19.98000 1.90000
-58.58000 -20.73000 1.90000
-58.58000 -20.73000 1.90000
-58.58000 -20.73000 1.90000
-58.58000 -21.48000 1.90000
-58.58000 -21.48000 1.90000
-58.58000 -21.48000 1.90000
-58.58000 -21.48000 1.90000
-58.58000 -21.48000 1.90000
-58.58000 -21.48000 1.90000
-59.33000 -21.48000 1.90000
-59.33000 -21.48000 1.90000
-59.33000 -21.48000 1.90000
-60.08000 -21.48000 1.90000
-60.08000 -21.48000 1.90000
-60.83000 -21.48000 1.90000
-60.83000 -21.48000 1.90000
-61.58000 -21.48000 1.90000
-63.08000 -21.48000 1.90000
-63.08000 -21.48000 1.90000
-63.08000 -22.23000 1.90000
-63.08000 -22.23000 1.90000
-63.08000 -22.98000 1.90000
-63.08000 -22.98000 1.90000
-63.08000 -22.98000 1.90000
-63.83000 -22.98000 1.90000
-66.08000 -22.98000 1.90000
-62.33000 -25.23000 1.90000
-62.33000 -25.23000 1.90000
-62.33000 -25.23000 1.90000
-62.33000 -25.98000 1.90000
-62.33000 -25.98000 1.90000
-62.33000 -25.98000 1.90000
-62.33000 -25.98000 1.90000
-62.33000 -26.73000 1.90000
-62.33000 -26.73000 1.90000
-62.33000 -27.48000 1.90000
-62.33000 -27.48000 1.90000
-62.33000 -27.48000 1.90000
-62.33000 -28.23000 1.90000
-62.33000 -28.23000 1.90000
-62.33000 -28.98000 1.90000
-61.58000 -28.98000 1.90000
-61.58000 -28.98000 1.90000
-60.83000 -28.98000 1.90000
-60.83000 -28.98000 1.90000
-60.08000 -28.98000 1.90000
-60.08000 -28.98000 1.90000
-60.08000 -28.98000 1.90000
-59.33000 -28.98000 1.90000
-59.33000 -28.98000 1.90000
-58.58000 -28.98000 1.90000
-58.58000 -28.98000 1.90000
-58.58000 -28.98000 1.90000
-57.83000 -28.98000 1.90000
-57.83000 -28.98000 1.90000
-57.83000 -28.98000 1.90000
-57.83000 -28.98000 1.90000
-57.83000 -28.98000 1.90000
-57.08000 -28.98000 1.90000
-57.08000 -28.98000 1.90000
-57.08000 -28.98000 1.90000
-57.08000 -28.98000 1.90000
-56.33000 -28.98000 1.90000
-56.33000 -28.98000 1.90000
-56.33000 -28.98000 1.90000
-56.33000 -28.98000 1.90000
-56.33000 -28.98000 1.90000
-55.58000 -28.98000 1.90000
-55.58000 -28.98000 1.90000
-55.58000 -28.98000 1.90000
-55.58000 -28.98000 1.90000
-55.58000 -28.98000 1.90000
-54.83000 -28.98000 1.90000
-54.83000 -28.98000 1.90000
-54.83000 -28.98000 1.90000
-54.83000 -28.98000 1.90000
-54.83000 -28.98000 1.90000
-54.08000 -28.98000 1.90000
-54.08000 -28.98000 1.90000
-54.08000 -28.98000 1.90000
-54.08000 -28.98000 1.90000
-53.33000 -28.98000 1.90000
-53.33000 -28.23000 1.90000
-53.33000 -28.23000 1.90000
-53.33000 -27.48000 1.90000
-53.33000 -27.48000 1.90000
-53.33000 -27.48000 1.90000
-53.33000 -27.48000 1.90000
-53.33000 -27.48000 1.90000
-53.33000 -26.73000 1.90000
-53.33000 -26.73000 1.90000
-53.33000 -26.73000 1.90000
-53.33000 -25.98000 1.90000
-53.33000 -25.98000 1.90000
-53.33000 -25.98000 1.90000
-53.33000 -25.98000 1.90000
-53.33000 -25.98000 1.90000
-53.33000 -25.98000 1.90000
-53.33000 -25.98000 1.90000
-53.33000 -25.23000 1.90000
-53.33000 -25.23000 1.90000
-53.33000 -25.23000 1.90000
-53.33000 -25.23000 1.90000
-53.33000 -25.23000 1.90000
-53.33000 -25.23000 1.90000
-53.33000 -25.23000 1.90000
-53.33000 -25.23000 1.90000
-53.33000 -25.23000 1.90000
-53.33000 -25.23000 1.90000
-53.33000 -25.23000 1.90000
-53.33000 -24.48000 1.90000
-53.33000 -24.48000 1.90000
-53.33000 -24.48000 1.90000
-53.33000 -24.48000 1.90000
-42.08000 -17.73000 1.90000
-42.83000 -17.73000 1.90000
-44.33000 -17.73000 1.90000
-45.08000 -17.73000 1.90000
-45.83000 -17.73000 1.90000
-46.58000 -17.73000 1.90000
-47.33000 -17.73000 1.90000
-48.08000 -17.73000 1.90000
-48.83000 -17.73000 1.90000
-48.83000 -17.73000 1.90000
-49.58000 -17.73000 1.90000
-49.58000 -17.73000 1.90000
-50.33000 -17.73000 1.90000
-50.33000 -17.73000 1.90000
-50.33000 -17.73000 1.90000
-51.08000 -17.73000 1.90000
-51.08000 -17.73000 1.90000
-51.83000 -17.73000 1.90000
-51.83000 -17.73000 1.90000
-51.83000 -17.73000 1.90000
-52.58000 -17.73000 1.90000
-52.58000 -17.73000 1.90000
-52.58000 -17.73000 1.90000
-52.58000 -17.73000 1.90000
-52.58000 -17.73000 1.90000
-53.33000 -17.73000 1.90000
-53.33000 -17.73000 1.90000
-53.33000 -17.73000 1.90000
-53.33000 -17.73000 1.90000
-54.08000 -17.73000 1.90000
-54.08000 -17.73000 1.90000
-54.08000 -17.73000 1.90000
-54.08000 -17.73000 1.90000
-54.08000 -17.73000 1.90000
-54.83000 -17.73000 1.90000
-54.83000 -17.73000 1.90000
-54.83000 -17.73000 1.90000
-54.83000 -17.73000 1.90000
-54.83000 -17.73000 1.90000
-55.58000 -17.73000 1.90000
-55.58000 -17.73000 1.90000
-55.58000 -17.73000 1.90000
-55.58000 -17.73000 1.90000
-55.58000 -17.73000 1.90000
-56.33000 -18.48000 1.90000
-56.33000 -18.48000 1.90000
-56.33000 -19.23000 1.90000
-56.33000 -19.23000 1.90000
-56.33000 -19.23000 1.90000
-56.33000 -19.23000 1.90000
-56.33000 -19.23000 1.90000
-56.33000 -19.23000 1.90000
-56.33000 -19.23000 1.90000
-57.08000 -19.23000 1.90000
-57.08000 -19.23000 1.90000
-57.08000 -19.23000 1.90000
-57.08000 -19.23000 1.90000
-57.08000 -19.23000 1.90000
-57.08000 -19.23000 1.90000
-57.83000 -19.23000 1.90000
-57.83000 -19.23000 1.90000
-57.83000 -19.23000 1.90000
-58.58000 -19.23000 1.90000
-58.58000 -19.23000 1.90000
-58.58000 -19.98000 1.90000
-58.58000 -19.98000 1.90000
-58.58000 -19.98000 1.90000
-58.58000 -19.98000 1.90000
-58.58000 -20.73000 1.90000
-58.58000 -20.73000 1.90000
-58.58000 -20.73000 1.90000
-58.58000 -20.73000 1.90000
-58.58000 -20.73000 1.90000
-58.58000 -21.48000 1.90000
-58.58000 -21.48000 1.90000
-58.58000 -21.48000 1.90000
-58.58000 -21.48000 1.90000
-58.58000 -21.48000 1.90000
-58.58000 -21.48000 1.90000
-60.08000 -21.48000 1.90000
-63.08000 -22.23000 1.90000
-63.08000 -22.23000 1.90000
-63.08000 -22.23000 1.90000
-63.08000 -22.98000 1.90000
-63.08000 -22.98000 1.90000
-65.33000 -25.23000 1.90000
-63.83000 -25.23000 1.90000
-63.08000 -25.23000 1.90000
-62.33000 -25.23000 1.90000
-62.33000 -25.23000 1.90000
-62.33000 -25.23000 1.90000
-62.33000 -25.98000 1.90000
-62.33000 -25.98000 1.90000
-62.33000 -26.73000 1.90000
-62.33000 -26.73000 1.90000
-62.33000 -26.73000 1.90000
-62.33000 -27.48000 1.90000
-62.33000 -28.23000 1.90000
-62.33000 -28.23000 1.90000
-62.33000 -28.98000 1.90000
-61.58000 -28.98000 1.90000
-60.83000 -28.98000 1.90000
-60.83000 -28.98000 1.90000
-60.08000 -28.98000 1.90000
-60.08000 -28.98000 1.90000
-59.33000 -28.98000 1.90000
-59.33000 -28.98000 1.90000
-59.33000 -28.98000 1.90000
-58.58000 -28.98000 1.90000
-58.58000 -28.98000 1.90000
-57.83000 -28.98000 1.90000
-57.83000 -28.98000 1.90000
-57.83000 -28.98000 1.90000
-57.08000 -28.98000 1.90000
-57.08000 -28.98000 1.90000
-56.33000 -28.98000 1.90000
-56.33000 -28.98000 1.90000
-56.33000 -28.98000 1.90000
-56.33000 -28.98000 1.90000
-55.58000 -28.98000 1.90000
-55.58000 -28.98000 1.90000
-55.58000 -28.98000 1.90000
-54.83000 -28.98000 1.90000
-54.83000 -28.98000 1.90000
-54.83000 -28.98000 1.90000
-54.08000 -28.98000 1.90000
-54.08000 -28.98000 1.90000
-54.08000 -28.98000 1.90000
-53.33000 -28.98000 1.90000
-53.33000 -27.48000 1.90000
-53.33000 -26.73000 1.90000
-53.33000 -25.98000 1.90000
-53.33000 -25.98000 1.90000
-53.33000 -25.23000 1.90000
-53.33000 -25.23000 1.90000
-53.33000 -25.23000 1.90000
-53.33000 -24.48000 1.90000
-53.33000 -24.48000 1.90000
-53.33000 -24.48000 1.90000
-53.33000 -24.48000 1.90000
-53.33000 -23.73000 1.90000
-53.33000 -23.73000 1.90000
-53.33000 -23.73000 1.90000
-53.33000 -23.73000 1.90000
-53.33000 -23.73000 1.90000
-53.33000 -23.73000 1.90000
-53.33000 -23.73000 1.90000
-53.33000 -23.73000 1.90000
-53.33000 -23.73000 1.90000
-53.33000 -23.73000 1.90000
-53.33000 -23.73000 1.90000
-53.33000 -23.73000 1.90000
-52.58000 -23.73000 1.90000
-52.58000 -23.73000 1.90000
-52.58000 -23.73000 1.90000
-52.58000 -23.73000 1.90000
-51.83000 -23.73000 1.90000
-51.83000 -23.73000 1.90000
-51.83000 -23.73000 1.90000
-51.08000 -23.73000 1.90000
-51.08000 -23.73000 1.90000
-50.33000 -23.73000 1.90000
-49.58000 -23.73000 1.90000
-48.08000 -23.73000 1.90000
-46.58000 -23.73000 1.90000
-44.33000 -23.73000 1.90000
-42.08000 -17.73000 1.90000
-42.83000 -17.73000 1.90000
-43.58000 -17.73000 1.90000
-44.33000 -17.73000 1.90000
-45.08000 -17.73000 1.90000
-45.83000 -17.73000 1.90000
-46.58000 -17.73000 1.90000
-46.58000 -17.73000 1.90000
-47.33000 -17.73000 1.90000
-47.33000 -17.73000 1.90000
-48.08000 -17.73000 1.90000
-48.08000 -17.73000 1.90000
-48.08000 -17.73000 1.90000
-48.83000 -17.73000 1.90000
-48.83000 -17.73000 1.90000
-49.58000 -17.73000 1.90000
-49.58000 -17.73000 1.90000
-49.58000 -17.73000 1.90000
-50.33000 -17.73000 1.90000
-50.33000 -17.73000 1.90000
-50.33000 -17.73000 1.90000
-50.33000 -17.73000 1.90000
-50.33000 -17.73000 1.90000
-51.08000 -17.73000 1.90000
-51.08000 -17.73000 1.90000
-51.08000 -17.73000 1.90000
-51.08000 -17.73000 1.90000
-51.83000 -17.73000 1.90000
-51.83000 -17.73000 1.90000
-51.83000 -17.73000 1.90000
-51.83000 -17.73000 1.90000
-51.83000 -17.73000 1.90000
-52.58000 -17.73000 1.90000
-52.58000 -17.73000 1.90000
-52.58000 -17.73000 1.90000
-52.58000 -17.73000 1.90000
-52.58000 -17.73000 1.90000
-53.33000 -17.73000 1.90000
-53.33000 -17.73000 1.90000
-53.33000 -17.73000 1.90000
-53.33000 -17.73000 1.90000
-53.33000 -17.73000 1.90000
-54.08000 -17.73000 1.90000
-54.08000 -17.73000 1.90000
-54.08000 -17.73000 1.90000
-54.08000 -17.73000 1.90000
-54.83000 -17.73000 1.90000
-54.83000 -17.73000 1.90000
-54.83000 -17.73000 1.90000
-54.83000 -17.73000 1.90000
-54.83000 -17.73000 1.90000
-55.58000 -17.73000 1.90000
-55.58000 -17.73000 1.90000
-55.58000 -17.73000 1.90000
-56.33000 -17.73000 1.90000
-56.33000 -18.48000 1.90000
-56.33000 -18.48000 1.90000
-56.33000 -18.48000 1.90000
-56.33000 -19.23000 1.90000
-56.33000 -19.23000 1.90000
-56.33000 -19.23000 1.90000
-56.33000 -19.23000 1.90000
-56.33000 -19.23000 1.90000
-57.08000 -19.23000 1.90000
-57.08000 -19.23000 1.90000
-57.83000 -19.23000 1.90000
-57.83000 -19.23000 1.90000
-58.58000 -19.98000 1.90000
-58.58000 -19.98000 1.90000
-58.58000 -19.98000 1.90000
-58.58000 -20.73000 1.90000
-58.58000 -20.73000 1.90000
-58.58000 -20.73000 1.90000
-58.58000 -20.73000 1.90000
-58.58000 -21.48000 1.90000
-58.58000 -21.48000 1.90000
-58.58000 -21.48000 1.90000
-58.58000 -21.48000 1.90000
-63.08000 -22.23000 1.90000
-63.08000 -22.23000 1.90000
-63.08000 -22.23000 1.90000
-63.08000 -22.98000 1.90000
-63.08000 -22.98000 1.90000
-65.33000 -25.23000 1.90000
-63.08000 -25.23000 1.90000
-62.33000 -25.23000 1.90000
-62.33000 -25.23000 1.90000
-62.33000 -25.98000 1.90000
-62.33000 -25.98000 1.90000
-62.33000 -26.73000 1.90000
-62.33000 -26.73000 1.90000
-62.33000 -27.48000 1.90000
-62.33000 -27.48000 1.90000
-62.33000 -28.23000 1.90000
-62.33000 -28.98000 1.90000
-61.58000 -28.98000 1.90000
-60.83000 -28.98000 1.90000
-60.08000 -28.98000 1.90000
-60.08000 -28.98000 1.90000
-59.33000 -28.98000 1.90000
-58.58000 -28.98000 1.90000
-58.58000 -28.98000 1.90000
-53.33000 -23.73000 1.90000
-53.33000 -23.73000 1.90000
-53.33000 -23.73000 1.90000
-53.33000 -23.73000 1.90000
-53.33000 -23.73000 1.90000
-53.33000 -23.73000 1.90000
-53.33000 -23.73000 1.90000
-53.33000 -23.73000 1.90000
-53.33000 -23.73000 1.90000
-53.33000 -23.73000 1.90000
-53.33000 -23.73000 1.90000
-53.33000 -23.73000 1.90000
-53.33000 -23.73000 1.90000
-52.58000 -23.73000 1.90000
-52.58000 -23.73000 1.90000
-52.58000 -23.73000 1.90000
-52.58000 -23.73000 1.90000
-52.58000 -23.73000 1.90000
-52.58000 -23.73000 1.90000
-52.58000 -23.73000 1.90000
-52.58000 -23.73000 1.90000
-52.58000 -23.73000 1.90000
-52.58000 -23.73000 1.90000
-52.58000 -23.73000 1.90000
-52.58000 -23.73000 1.90000
-52.58000 -23.73000 1.90000
-52.58000 -23.73000 1.90000
-52.58000 -23.73000 1.90000
-51.83000 -23.73000 1.90000
-51.83000 -23.73000 1.90000
-51.83000 -23.73000 1.90000
-51.83000 -23.73000 1.90000
-51.83000 -23.73000 1.90000
-51.83000 -23.73000 1.90000
-51.83000 -23.73000 1.90000
-51.83000 -23.73000 1.90000
-51.83000 -23.73000 1.90000
-51.83000 -23.73000 1.90000
-51.83000 -23.73000 1.90000
-51.83000 -23.73000 1.90000
-51.83000 -23.73000 1.90000
-51.08000 -23.73000 1.90000
-51.08000 -23.73000 1.90000
-51.08000 -23.73000 1.90000
-51.08000 -23.73000 1.90000
-51.08000 -23.73000 1.90000
-51.08000 -23.73000 1.90000
-51.08000 -23.73000 1.90000
-51.08000 -23.73000 1.90000
-50.33000 -23.73000 1.90000
-50.33000 -23.73000 1.90000
-50.33000 -23.73000 1.90000
-50.33000 -23.73000 1.90000
-49.58000 -23.73000 1.90000
-49.58000 -23.73000 1.90000
-49.58000 -23.73000 1.90000
-48.83000 -23.73000 1.90000
-48.83000 -23.73000 1.90000
-48.08000 -23.73000 1.90000
-47.33000 -23.73000 1.90000
-45.83000 -23.73000 1.90000
-44.33000 -23.73000 1.90000
-42.08000 -23.73000 1.90000
-42.08000 -17.73000 1.90000
-42.83000 -17.73000 1.90000
-43.58000 -17.73000 1.90000
-44.33000 -17.73000 1.90000
-44.33000 -17.73000 1.90000
-45.08000 -17.73000 1.90000
-45.08000 -17.73000 1.90000
-45.83000 -17.73000 1.90000
-45.83000 -17.73000 1.90000
-45.83000 -17.73000 1.90000
-46.58000 -17.73000 1.90000
-46.58000 -17.73000 1.90000
-47.33000 -17.73000 1.90000
-47.33000 -17.73000 1.90000
-47.33000 -17.73000 1.90000
-48.08000 -17.73000 1.90000
-48.08000 -17.73000 1.90000
-48.08000 -17.73000 1.90000
-48.08000 -17.73000 1.90000
-48.08000 -17.73000 1.90000
-48.83000 -17.73000 1.90000
-48.83000 -17.73000 1.90000
-48.83000 -17.73000 1.90000
-48.83000 -17.73000 1.90000
-49.58000 -17.73000 1.90000
-49.58000 -17.73000 1.90000
-49.58000 -17.73000 1.90000
-49.58000 -17.73000 1.90000
-49.58000 -17.73000 1.90000
-50.33000 -17.73000 1.90000
-50.33000 -17.73000 1.90000
-50.33000 -17.73000 1.90000
-50.33000 -17.73000 1.90000
-50.33000 -17.73000 1.90000
-51.08000 -17.73000 1.90000
-51.08000 -17.73000 1.90000
-51.08000 -17.73000 1.90000
-51.08000 -17.73000 1.90000
-51.08000 -17.73000 1.90000
-51.83000 -17.73000 1.90000
-51.83000 -17.73000 1.90000
-51.83000 -17.73000 1.90000
-51.83000 -17.73000 1.90000
-52.58000 -17.73000 1.90000
-52.58000 -17.73000 1.90000
-52.58000 -17.73000 1.90000
-52.58000 -17.73000 1.90000
-52.58000 -17.73000 1.90000
-53.33000 -17.73000 1.90000
-53.33000 -17.73000 1.90000
-53.33000 -17.73000 1.90000
-54.08000 -17.73000 1.90000
-54.08000 -17.73000 1.90000
-54.83000 -17.73000 1.90000
-54.83000 -17.73000 1.90000
-54.83000 -17.73000 1.90000
-55.58000 -17.73000 1.90000
-55.58000 -17.73000 1.90000
-56.33000 -17.73000 1.90000
-56.33000 -18.48000 1.90000
-56.33000 -18.48000 1.90000
-56.33000 -19.23000 1.90000
-56.33000 -19.23000 1.90000
-56.33000 -19.23000 1.90000
-56.33000 -19.23000 1.90000
-57.08000 -19.23000 1.90000
-57.83000 -19.23000 1.90000
-58.58000 -19.23000 1.90000
-58.58000 -19.98000 1.90000
-58.58000 -19.98000 1.90000
-58.58000 -20.73000 1.90000
-58.58000 -20.73000 1.90000
-58.58000 -20.73000 1.90000
-58.58000 -21.48000 1.90000
-58.58000 -21.48000 1.90000
-60.83000 -21.48000 1.90000
-63.08000 -22.23000 1.90000
-63.08000 -22.98000 1.90000
-63.08000 -22.98000 1.90000
-63.08000 -25.23000 1.90000
-62.33000 -25.23000 1.90000
-62.33000 -25.98000 1.90000
-62.33000 -25.98000 1.90000
-53.33000 -23.73000 1.90000
-53.33000 -23.73000 1.90000
-53.33000 -23.73000 1.90000
-52.58000 -23.73000 1.90000
-52.58000 -23.73000 1.90000
-52.58000 -23.73000 1.90000
-52.58000 -23.73000 1.90000
-51.83000 -23.73000 1.90000
-51.83000 -23.73000 1.90000
-51.83000 -23.73000 1.90000
-51.83000 -23.73000 1.90000
-51.83000 -23.73000 1.90000
-51.83000 -23.73000 1.90000
-51.83000 -23.73000 1.90000
-51.83000 -23.73000 1.90000
-51.08000 -23.73000 1.90000
-51.08000 -23.73000 1.90000
-51.08000 -23.73000 1.90000
-51.08000 -23.73000 1.90000
-51.08000 -23.73000 1.90000
-51.08000 -23.73000 1.90000
-51.08000 -23.73000 1.90000
-51.08000 -23.73000 1.90000
-51.08000 -23.73000 1.90000
-51.08000 -23.73000 1.90000
-51.08000 -23.73000 1.90000
-51.08000 -23.73000 1.90000
-51.08000 -23.73000 1.90000
-50.33000 -23.73000 1.90000
-50.33000 -23.73000 1.90000
-50.33000 -23.73000 1.90000
-50.33000 -23.73000 1.90000
-50.33000 -23.73000 1.90000
-50.33000 -23.73000 1.90000
-50.33000 -23.73000 1.90000
-50.33000 -23.73000 1.90000
-50.33000 -23.73000 1.90000
-50.33000 -23.73000 1.90000
-50.33000 -23.73000 1.90000
-50.33000 -23.73000 1.90000
-50.33000 -23.73000 1.90000
-50.33000 -23.73000 1.90000
-50.33000 -23.73000 1.90000
-49.58000 -23.73000 1.90000
-49.58000 -23.73000 1.90000
-49.58000 -23.73000 1.90000
-49.58000 -23.73000 1.90000
-49.58000 -23.73000 1.90000
-49.58000 -23.73000 1.90000
-49.58000 -23.73000 1.90000
-49.58000 -23.73000 1.90000
-49.58000 -23.73000 1.90000
-49.58000 -23.73000 1.90000
-49.58000 -23.73000 1.90000
-49.58000 -23.73000 1.90000
-49.58000 -23.73000 1.90000
-48.83000 -23.73000 1.90000
-48.83000 -23.73000 1.90000
-48.83000 -23.73000 1.90000
-48.83000 -23.73000 1.90000
-48.83000 -23.73000 1.90000
-48.83000 -23.73000 1.90000
-48.83000 -23.73000 1.90000
-48.83000 -23.73000 1.90000
-48.08000 -23.73000 1.90000
-48.08000 -23.73000 1.90000
-48.08000 -23.73000 1.90000
-48.08000 -23.73000 1.90000
-47.33000 -23.73000 1.90000
-47.33000 -23.73000 1.90000
-47.33000 -23.73000 1.90000
-46.58000 -23.73000 1.90000
-46.58000 -23.73000 1.90000
-45.83000 -23.73000 1.90000
-45.08000 -23.73000 1.90000
-43.58000 -23.73000 1.90000
-42.08000 -23.73000 1.90000
-39.83000 -23.73000 1.90000
-35.33000 -17.73000 1.90000
-35.33000 -17.73000 1.90000
-35.33000 -16.98000 1.90000
-35.33000 -16.23000 1.90000
-35.33000 -16.23000 1.90000
-42.08000 -17.73000 1.90000
-42.08000 -17.73000 1.90000
-42.83000 -17.73000 1.90000
-42.83000 -17.73000 1.90000
-43.58000 -17.73000 1.90000
-43.58000 -17.73000 1.90000
-43.58000 -17.73000 1.90000
-44.33000 -17.73000 1.90000
-44.33000 -17.73000 1.90000
-45.08000 -17.73000 1.90000
-45.08000 -17.73000 1.90000
-45.08000 -17.73000 1.90000
-45.83000 -17.73000 1.90000
-45.83000 -17.73000 1.90000
-45.83000 -17.73000 1.90000
-45.83000 -17.73000 1.90000
-45.83000 -17.73000 1.90000
-46.58000 -17.73000 1.90000
-46.58000 -17.73000 1.90000
-46.58000 -17.73000 1.90000
-46.58000 -17.73000 1.90000
-47.33000 -17.73000 1.90000
-47.33000 -17.73000 1.90000
-47.33000 -17.73000 1.90000
-47.33000 -17.73000 1.90000
-47.33000 -17.73000 1.90000
-48.08000 -17.73000 1.90000
-48.08000 -17.73000 1.90000
-48.08000 -17.73000 1.90000
-48.08000 -17.73000 1.90000
-48.08000 -17.73000 1.90000
-48.83000 -17.73000 1.90000
-48.83000 -17.73000 1.90000
-48.83000 -17.73000 1.90000
-48.83000 -17.73000 1.90000
-48.83000 -17.73000 1.90000
-49.58000 -17.73000 1.90000
-49.58000 -17.73000 1.90000
-49.58000 -17.73000 1.90000
-49.58000 -17.73000 1.90000
-50.33000 -17.73000 1.90000
-50.33000 -17.73000 1.90000
-50.33000 -17.73000 1.90000
-50.33000 -17.73000 1.90000
-50.33000 -17.73000 1.90000
-51.08000 -17.73000 1.90000
-51.08000 -17.73000 1.90000
-51.08000 -17.73000 1.90000
-51.83000 -17.73000 1.90000
-51.83000 -17.73000 1.90000
-52.58000 -17.73000 1.90000
-52.58000 -17.73000 1.90000
-52.58000 -17.73000 1.90000
-53.33000 -17.73000 1.90000
-53.33000 -17.73000 1.90000
-54.08000 -17.73000 1.90000
-54.08000 -17.73000 1.90000
-54.83000 -17.73000 1.90000
-55.58000 -17.73000 1.90000
-56.33000 -17.73000 1.90000
-56.33000 -18.48000 1.90000
-56.33000 -18.48000 1.90000
-56.33000 -19.23000 1.90000
-56.33000 -19.23000 1.90000
-56.33000 -19.23000 1.90000
-57.08000 -19.23000 1.90000
-58.58000 -19.98000 1.90000
-58.58000 -19.98000 1.90000
-58.58000 -20.73000 1.90000
-58.58000 -20.73000 1.90000
-58.58000 -21.48000 1.90000
-58.58000 -21.48000 1.90000
-58.58000 -21.48000 1.90000
-53.33000 -23.73000 1.90000
-52.58000 -23.73000 1.90000
-51.83000 -23.73000 1.90000
-51.83000 -23.73000 1.90000
-51.08000 -23.73000 1.90000
-51.08000 -23.73000 1.90000
-51.08000 -23.73000 1.90000
-50.33000 -23.73000 1.90000
-50.33000 -23.73000 1.90000
-50.33000 -23.73000 1.90000
-50.33000 -23.73000 1.90000
-49.58000 -23.73000 1.90000
-49.58000 -23.73000 1.90000
-49.58000 -23.73000 1.90000
-49.58000 -23.73000 1.90000
-49.58000 -23.73000 1.90000
-49.58000 -23.73000 1.90000
-49.58000 -23.73000 1.90000
-49.58000 -23.73000 1.90000
-48.83000 -23.73000 1.90000
-48.83000 -23.73000 1.90000
-48.83000 -23.73000 1.90000
-48.83000 -23.73000 1.90000
-48.83000 -23.73000 1.90000
-48.83000 -23.73000 1.90000
-48.83000 -23.73000 1.90000
-48.83000 -23.73000 1.90000
-48.83000 -23.73000 1.90000
-48.83000 -23.73000 1.90000
-48.83000 -23.73000 1.90000
-48.83000 -23.73000 1.90000
-48.83000 -23.73000 1.90000
-48.08000 -23.73000 1.90000
-48.08000 -23.73000 1.90000
-48.08000 -23.73000 1.90000
-48.08000 -23.73000 1.90000
-48.08000 -23.73000 1.90000
-48.08000 -23.73000 1.90000
-48.08000 -23.73000 1.90000
-48.08000 -23.73000 1.90000
-48.08000 -23.73000 1.90000
-48.08000 -23.73000 1.90000
-48.08000 -23.73000 1.90000
-48.08000 -23.73000 1.90000
-48.08000 -23.73000 1.90000
-48.08000 -23.73000 1.90000
-48.08000 -23.73000 1.90000
-47.33000 -23.73000 1.90000
-47.33000 -23.73000 1.90000
-47.33000 -23.73000 1.90000
-47.33000 -23.73000 1.90000
-47.33000 -23.73000 1.90000
-47.33000 -23.73000 1.90000
-47.33000 -23.73000 1.90000
-47.33000 -23.73000 1.90000
-47.33000 -23.73000 1.90000
-47.33000 -23.73000 1.90000
-47.33000 -23.73000 1.90000
-47.33000 -23.73000 1.90000
-47.33000 -23.73000 1.90000
-46.58000 -23.73000 1.90000
-46.58000 -23.73000 1.90000
-46.58000 -23.73000 1.90000
-46.58000 -23.73000 1.90000
-46.58000 -23.73000 1.90000
-46.58000 -23.73000 1.90000
-46.58000 -23.73000 1.90000
-46.58000 -23.73000 1.90000
-45.83000 -23.73000 1.90000
-45.83000 -23.73000 1.90000
-45.83000 -23.73000 1.90000
-45.83000 -23.73000 1.90000
-45.08000 -23.73000 1.90000
-45.08000 -23.73000 1.90000
-45.08000 -23.73000 1.90000
-44.33000 -23.73000 1.90000
-44.33000 -23.73000 1.90000
-43.58000 -23.73000 1.90000
-42.83000 -23.73000 1.90000
-41.33000 -23.73000 1.90000
-39.83000 -23.73000 1.90000
-37.58000 -23.73000 1.90000
-33.83000 -17.73000 1.90000
-35.33000 -17.73000 1.90000
-35.33000 -17.73000 1.90000
-35.33000 -16.98000 1.90000
-35.33000 -16.98000 1.90000
-35.33000 -16.23000 1.90000
-35.33000 -16.23000 1.90000
-36.08000 -12.48000 1.90000
-36.83000 -12.48000 1.90000
-42.08000 -17.73000 1.90000
-42.08000 -17.73000 1.90000
-42.83000 -17.73000 1.90000
-42.83000 -17.73000 1.90000
-42.83000 -17.73000 1.90000
-43.58000 -17.73000 1.90000
-43.58000 -17.73000 1.90000
-43.58000 -17.73000 1.90000
-43.58000 -17.73000 1.90000
-43.58000 -17.73000 1.90000
-44.33000 -17.73000 1.90000
-44.33000 -17.73000 1.90000
-44.33000 -17.73000 1.90000
-44.33000 -17.73000 1.90000
-45.08000 -17.73000 1.90000
-45.08000 -17.73000 1.90000
-45.08000 -17.73000 1.90000
-45.08000 -17.73000 1.90000
-45.08000 -17.73000 1.90000
-45.83000 -17.73000 1.90000
-45.83000 -17.73000 1.90000
-45.83000 -17.73000 1.90000
-45.83000 -17.73000 1.90000
-45.83000 -17.73000 1.90000
-46.58000 -17.73000 1.90000
-46.58000 -17.73000 1.90000
-46.58000 -17.73000 1.90000
-46.58000 -17.73000 1.90000
-46.58000 -17.73000 1.90000
-47.33000 -17.73000 1.90000
-47.33000 -17.73000 1.90000
-47.33000 -17.73000 1.90000
-47.33000 -17.73000 1.90000
-48.08000 -17.73000 1.90000
-48.08000 -17.73000 1.90000
-48.08000 -17.73000 1.90000
-48.08000 -17.73000 1.90000
-48.08000 -17.73000 1.90000
-48.83000 -17.73000 1.90000
-48.83000 -17.73000 1.90000
-48.83000 -17.73000 1.90000
-49.58000 -17.73000 1.90000
-49.58000 -17.73000 1.90000
-50.33000 -17.73000 1.90000
-50.33000 -17.73000 1.90000
-50.33000 -17.73000 1.90000
-51.08000 -17.73000 1.90000
-51.08000 -17.73000 1.90000
-51.83000 -17.73000 1.90000
-51.83000 -17.73000 1.90000
-52.58000 -17.73000 1.90000
-53.33000 -17.73000 1.90000
-54.08000 -17.73000 1.90000
-54.83000 -17.73000 1.90000
-55.58000 -17.73000 1.90000
-56.33000 -17.73000 1.90000
-56.33000 -18.48000 1.90000
-56.33000 -19.23000 1.90000
-56.33000 -19.23000 1.90000
-56.33000 -19.23000 1.90000
-58.58000 -19.23000 1.90000
-58.58000 -19.98000 1.90000
-58.58000 -20.73000 1.90000
-58.58000 -20.73000 1.90000
-58.58000 -21.48000 1.90000
-58.58000 -21.48000 1.90000
-52.58000 -23.73000 1.90000
-51.08000 -23.73000 1.90000
-50.33000 -23.73000 1.90000
-49.58000 -23.73000 1.90000
-49.58000 -23.73000 1.90000
-48.83000 -23.73000 1.90000
-48.83000 -23.73000 1.90000
-48.83000 -23.73000 1.90000
-48.08000 -23.73000 1.90000
-48.08000 -23.73000 1.90000
-48.08000 -23.73000 1.90000
-48.08000 -23.73000 1.90000
-47.33000 -23.73000 1.90000
-47.33000 -23.73000 1.90000
-47.33000 -23.73000 1.90000
-47.33000 -23.73000 1.90000
-47.33000 -23.73000 1.90000
-47.33000 -23.73000 1.90000
-47.33000 -23.73000 1.90000
-47.33000 -23.73000 1.90000
-46.58000 -23.73000 1.90000
-46.58000 -23.73000 1.90000
-46.58000 -23.73000 1.90000
-46.58000 -23.73000 1.90000
-46.58000 -23.73000 1.90000
-46.58000 -23.73000 1.90000
-46.58000 -23.73000 1.90000
-46.58000 -23.73000 1.90000
-46.58000 -23.73000 1.90000
-46.58000 -23.73000 1.90000
-46.58000 -23.73000 1.90000
-46.58000 -23.73000 1.90000
-46.58000 -23.73000 1.90000
-45.83000 -23.73000 1.90000
-45.83000 -23.73000 1.90000
-45.83000 -23.73000 1.90000
-45.83000 -23.73000 1.90000
-45.83000 -23.73000 1.90000
-45.83000 -23.73000 1.90000
-45.83000 -23.73000 1.90000
-45.83000 -23.73000 1.90000
-45.83000 -23.73000 1.90000
-45.83000 -23.73000 1.90000
-45.83000 -23.73000 1.90000
-45.83000 -23.73000 1.90000
-45.83000 -23.73000 1.90000
-45.83000 -23.73000 1.90000
-45.83000 -23.73000 1.90000
-45.08000 -23.73000 1.90000
-45.08000 -23.73000 1.90000
-45.08000 -23.73000 1.90000
-45.08000 -23.73000 1.90000
-45.08000 -23.73000 1.90000
-45.08000 -23.73000 1.90000
-45.08000 -23.73000 1.90000
-45.08000 -23.73000 1.90000
-45.08000 -23.73000 1.90000
-45.08000 -23.73000 1.90000
-45.08000 -23.73000 1.90000
-45.08000 -23.73000 1.90000
-45.08000 -23.73000 1.90000
-44.33000 -23.73000 1.90000
-44.33000 -23.73000 1.90000
-44.33000 -23.73000 1.90000
-44.33000 -23.73000 1.90000
-44.33000 -23.73000 1.90000
-44.33000 -23.73000 1.90000
-44.33000 -23.73000 1.90000
-44.33000 -23.73000 1.90000
-43.58000 -23.73000 1.90000
-43.58000 -23.73000 1.90000
-43.58000 -23.73000 1.90000
-43.58000 -23.73000 1.90000
-42.83000 -23.73000 1.90000
-42.83000 -23.73000 1.90000
-42.83000 -23.73000 1.90000
-42.08000 -23.73000 1.90000
-42.08000 -23.73000 1.90000
-41.33000 -23.73000 1.90000
-40.58000 -23.73000 1.90000
-39.08000 -23.73000 1.90000
-37.58000 -23.73000 1.90000
-35.33000 -23.73000 1.90000
-30.08000 -18.48000 1.90000
-30.83000 -18.48000 1.90000
-30.83000 -18.48000 1.90000
-30.83000 -17.73000 1.90000
-30.83000 -16.98000 1.90000
-33.83000 -17.73000 1.90000
-34.58000 -17.73000 1.90000
-35.33000 -17.73000 1.90000
-35.33000 -17.73000 1.90000
-35.33000 -16.98000 1.90000
-35.33000 -16.98000 1.90000
-35.33000 -16.23000 1.90000
-35.33000 -16.23000 1.90000
-36.08000 -12.48000 1.90000
-36.83000 -12.48000 1.90000
-36.83000 -12.48000 1.90000
-37.58000 -12.48000 1.90000
-38.33000 -12.48000 1.90000
-38.33000 -12.48000 1.90000
-39.08000 -12.48000 1.90000
-39.08000 -12.48000 1.90000
-42.08000 -17.73000 1.90000
-42.08000 -17.73000 1.90000
-42.08000 -17.73000 1.90000
-42.08000 -17.73000 1.90000
-42.83000 -17.73000 1.90000
-42.83000 -17.73000 1.90000
-42.83000 -17.73000 1.90000
-42.83000 -17.73000 1.90000
-42.83000 -17.73000 1.90000
-43.58000 -17.73000 1.90000
-43.58000 -17.73000 1.90000
-43.58000 -17.73000 1.90000
-43.58000 -17.73000 1.90000
-43.58000 -17.73000 1.90000
-44.33000 -17.73000 1.90000
-44.33000 -17.73000 1.90000
-44.33000 -17.73000 1.90000
-44.33000 -17.73000 1.90000
-44.33000 -17.73000 1.90000
-45.08000 -17.73000 1.90000
-45.08000 -17.73000 1.90000
-45.08000 -17.73000 1.90000
-45.08000 -17.73000 1.90000
-45.83000 -17.73000 1.90000
-45.83000 -17.73000 1.90000
-45.83000 -17.73000 1.90000
-45.83000 -17.73000 1.90000
-45.83000 -17.73000 1.90000
-46.58000 -17.73000 1.90000
-46.58000 -17.73000 1.90000
-46.58000 -17.73000 1.90000
-47.33000 -17.73000 1.90000
-47.33000 -17.73000 1.90000
-48.08000 -17.73000 1.90000
-48.08000 -17.73000 1.90000
-48.08000 -17.73000 1.90000
-48.83000 -17.73000 1.90000
-48.83000 -17.73000 1.90000
-49.58000 -17.73000 1.90000
-49.58000 -17.73000 1.90000
-50.33000 -17.73000 1.90000
-51.08000 -17.73000 1.90000
-51.83000 -17.73000 1.90000
-52.58000 -17.73000 1.90000
-53.33000 -17.73000 1.90000
-54.08000 -17.73000 1.90000
-55.58000 -17.73000 1.90000
-56.33000 -18.48000 1.90000
-56.33000 -18.48000 1.90000
-56.33000 -19.23000 1.90000
-56.33000 -19.23000 1.90000
-51.83000 -23.73000 1.90000
-50.33000 -23.73000 1.90000
-48.83000 -23.73000 1.90000
-48.08000 -23.73000 1.90000
-47.33000 -23.73000 1.90000
-47.33000 -23.73000 1.90000
-46.58000 -23.73000 1.90000
-46.58000 -23.73000 1.90000
-46.58000 -23.73000 1.90000
-45.83000 -23.73000 1.90000
-45.83000 -23.73000 1.90000
-45.83000 -23.73000 1.90000
-45.83000 -23.73000 1.90000
-45.08000 -23.73000 1.90000
-45.08000 -23.73000 1.90000
-45.08000 -23.73000 1.90000
-45.08000 -23.73000 1.90000
-45.08000 -23.73000 1.90000
-45.08000 -23.73000 1.90000
-45.08000 -23.73000 1.90000
-45.08000 -23.73000 1.90000
-44.33000 -23.73000 1.90000
-44.33000 -23.73000 1.90000
-44.33000 -23.73000 1.90000
-44.33000 -23.73000 1.90000
-44.33000 -23.73000 1.90000
-44.33000 -23.73000 1.90000
-44.33000 -23.73000 1.90000
-44.33000 -23.73000 1.90000
-44.33000 -23.73000 1.90000
-44.33000 -23.73000 1.90000
-44.33000 -23.73000 1.90000
-44.33000 -23.73000 1.90000
-44.33000 -23.73000 1.90000
-43.58000 -23.73000 1.90000
-43.58000 -23.73000 1.90000
-43.58000 -23.73000 1.90000
-43.58000 -23.73000 1.90000
-43.58000 -23.73000 1.90000
-43.58000 -23.73000 1.90000
-43.58000 -23.73000 1.90000
-43.58000 -23.73000 1.90000
-43.58000 -23.73000 1.90000
-43.58000 -23.73000 1.90000
-43.58000 -23.73000 1.90000
-43.58000 -23.73000 1.90000
-43.58000 -23.73000 1.90000
-43.58000 -23.73000 1.90000
-43.58000 -23.73000 1.90000
-42.83000 -23.73000 1.90000
-42.83000 -23.73000 1.90000
-42.83000 -23.73000 1.90000
-42.83000 -23.73000 1.90000
-42.83000 -23.73000 1.90000
-42.83000 -23.73000 1.90000
-42.83000 -23.73000 1.90000
-42.83000 -23.73000 1.90000
-42.83000 -23.73000 1.90000
-42.83000 -23.73000 1.90000
-42.83000 -23.73000 1.90000
-42.83000 -23.73000 1.90000
-42.83000 -23.73000 1.90000
-42.08000 -23.73000 1.90000
-42.08000 -23.73000 1.90000
-42.08000 -23.73000 1.90000
-42.08000 -23.73000 1.90000
-42.08000 -23.73000 1.90000
-42.08000 -23.73000 1.90000
-42.08000 -23.73000 1.90000
-42.08000 -23.73000 1.90000
-41.33000 -23.73000 1.90000
-41.33000 -23.73000 1.90000
-41.33000 -23.73000 1.90000
-41.33000 -23.73000 1.90000
-40.58000 -23.73000 1.90000
-40.58000 -23.73000 1.90000
-40.58000 -23.73000 1.90000
-39.83000 -23.73000 1.90000
-39.83000 -23.73000 1.90000
-39.08000 -23.73000 1.90000
-38.33000 -23.73000 1.90000
-36.83000 -23.73000 1.90000
-35.33000 -23.73000 1.90000
-33.08000 -23.73000 1.90000
-27.83000 -18.48000 1.90000
-29.33000 -18.48000 1.90000
-30.83000 -18.48000 1.90000
-30.83000 -18.48000 1.90000
-30.83000 -17.73000 1.90000
-30.83000 -17.73000 1.90000
-30.83000 -16.98000 1.90000
-30.83000 -16.98000 1.90000
-33.83000 -17.73000 1.90000
-34.58000 -17.73000 1.90000
-35.33000 -17.73000 1.90000
-35.33000 -17.73000 1.90000
-35.33000 -17.73000 1.90000
-35.33000 -17.73000 1.90000
-35.33000 -16.98000 1.90000
-35.33000 -16.98000 1.90000
-35.33000 -16.23000 1.90000
-36.08000 -12.48000 1.90000
-36.08000 -12.48000 1.90000
-36.83000 -12.48000 1.90000
-36.83000 -12.48000 1.90000
-37.58000 -12.48000 1.90000
-37.58000 -12.48000 1.90000
-38.33000 -12.48000 1.90000
-38.33000 -12.48000 1.90000
-39.08000 -12.48000 1.90000
-39.08000 -12.48000 1.90000
-39.83000 -12.48000 1.90000
-39.83000 -12.48000 1.90000
-40.58000 -12.48000 1.90000
-40.58000 -12.48000 1.90000
-41.33000 -12.48000 1.90000
-41.33000 -12.48000 1.90000
-41.33000 -12.48000 1.90000
-42.08000 -16.98000 1.90000
-42.08000 -17.73000 1.90000
-42.08000 -17.73000 1.90000
-42.08000 -17.73000 1.90000
-42.08000 -17.73000 1.90000
-42.08000 -17.73000 1.90000
-42.83000 -17.73000 1.90000
-42.83000 -17.73000 1.90000
-42.83000 -17.73000 1.90000
-42.83000 -17.73000 1.90000
-43.58000 -17.73000 1.90000
-43.58000 -17.73000 1.90000
-43.58000 -17.73000 1.90000
-43.58000 -17.73000 1.90000
-43.58000 -17.73000 1.90000
-44.33000 -17.73000 1.90000
-44.33000 -17.73000 1.90000
-44.33000 -17.73000 1.90000
-45.08000 -17.73000 1.90000
-45.08000 -17.73000 1.90000
-45.83000 -17.73000 1.90000
-45.83000 -17.73000 1.90000
-45.83000 -17.73000 1.90000
-46.58000 -17.73000 1.90000
-46.58000 -17.73000 1.90000
-47.33000 -17.73000 1.90000
-47.33000 -17.73000 1.90000
-48.08000 -17.73000 1.90000
-48.83000 -17.73000 1.90000
-49.58000 -17.73000 1.90000
-50.33000 -17.73000 1.90000
-51.08000 -17.73000 1.90000
-51.83000 -17.73000 1.90000
-53.33000 -17.73000 1.90000
-54.08000 -17.73000 1.90000
-51.83000 -23.73000 1.90000
-49.58000 -23.73000 1.90000
-48.08000 -23.73000 1.90000
-46.58000 -23.73000 1.90000
-45.83000 -23.73000 1.90000
-45.08000 -23.73000 1.90000
-45.08000 -23.73000 1.90000
-44.33000 -23.73000 1.90000
-44.33000 -23.73000 1.90000
-44.33000 -23.73000 1.90000
-43.58000 -23.73000 1.90000
-43.58000 -23.73000 1.90000
-43.58000 -23.73000 1.90000
-43.58000 -23.73000 1.90000
-42.83000 -23.73000 1.90000
-42.83000 -23.73000 1.90000
-42.83000 -23.73000 1.90000
-42.83000 -23.73000 1.90000
-42.83000 -23.73000 1.90000
-42.83000 -23.73000 1.90000
-42.83000 -23.73000 1.90000
-42.83000 -23.73000 1.90000
-42.08000 -23.73000 1.90000
-42.08000 -23.73000 1.90000
-42.08000 -23.73000 1.90000
-42.08000 -23.73000 1.90000
-42.08000 -23.73000 1.90000
-42.08000 -23.73000 1.90000
-42.08000 -23.73000 1.90000
-42.08000 -23.73000 1.90000
-42.08000 -23.73000 1.90000
-42.08000 -23.73000 1.90000
-42.08000 -23.73000 1.90000
-42.08000 -23.73000 1.90000
-42.08000 -23.73000 1.90000
-41.33000 -23.73000 1.90000
-41.33000 -23.73000 1.90000
-41.33000 -23.73000 1.90000
-41.33000 -23.73000 1.90000
-41.33000 -23.73000 1.90000
-41.33000 -23.73000 1.90000
-41.33000 -23.73000 1.90000
-41.33000 -23.73000 1.90000
-41.33000 -23.73000 1.90000
-41.33000 -23.73000 1.90000
-41.33000 -23.73000 1.90000
-41.33000 -23.73000 1.90000
-41.33000 -23.73000 1.90000
-41.33000 -23.73000 1.90000
-41.33000 -23.73000 1.90000
-40.58000 -23.73000 1.90000
-40.58000 -23.73000 1.90000
-40.58000 -23.73000 1.90000
-40.58000 -23.73000 1.90000
-40.58000 -23.73000 1.90000
-40.58000 -23.73000 1.90000
-40.58000 -23.73000 1.90000
-40.58000 -23.73000 1.90000
-40.58000 -23.73000 1.90000
-40.58000 -23.73000 1.90000
-40.58000 -23.73000 1.90000
-40.58000 -23.73000 1.90000
-40.58000 -23.73000 1.90000
-39.83000 -23.73000 1.90000
-39.83000 -23.73000 1.90000
-39.83000 -23.73000 1.90000
-39.83000 -23.73000 1.90000
-39.83000 -23.73000 1.90000
-39.83000 -23.73000 1.90000
-39.83000 -23.73000 1.90000
-39.83000 -23.73000 1.90000
-39.08000 -23.73000 1.90000
-39.08000 -23.73000 1.90000
-39.08000 -23.73000 1.90000
-39.08000 -23.73000 1.90000
-38.33000 -23.73000 1.90000
-38.33000 -23.73000 1.90000
-38.33000 -23.73000 1.90000
-37.58000 -23.73000 1.90000
-37.58000 -23.73000 1.90000
-36.83000 -23.73000 1.90000
-36.08000 -23.73000 1.90000
-34.58000 -23.73000 1.90000
-33.08000 -23.73000 1.90000
-30.83000 -23.73000 1.90000
-25.58000 -18.48000 1.90000
-27.08000 -18.48000 1.90000
-28.58000 -18.48000 1.90000
-29.33000 -18.48000 1.90000
-30.08000 -18.48000 1.90000
-30.83000 -18.48000 1.90000
-30.83000 -18.48000 1.90000
-30.83000 -17.73000 1.90000
-30.83000 -17.73000 1.90000
-30.83000 -16.98000 1.90000
-30.83000 -16.98000 1.90000
-30.83000 -16.23000 1.90000
-33.83000 -17.73000 1.90000
-33.83000 -17.73000 1.90000
-34.58000 -17.73000 1.90000
-34.58000 -17.73000 1.90000
-34.58000 -17.73000 1.90000
-35.33000 -17.73000 1.90000
-35.33000 -17.73000 1.90000
-35.33000 -17.73000 1.90000
-35.33000 -17.73000 1.90000
-35.33000 -16.98000 1.90000
-35.33000 -16.98000 1.90000
-35.33000 -16.23000 1.90000
-36.08000 -12.48000 1.90000
-36.08000 -12.48000 1.90000
-36.83000 -12.48000 1.90000
-36.83000 -12.48000 1.90000
-37.58000 -12.48000 1.90000
-37.58000 -12.48000 1.90000
-38.33000 -12.48000 1.90000
-38.33000 -12.48000 1.90000
-39.08000 -12.48000 1.90000
-39.08000 -12.48000 1.90000
-39.08000 -12.48000 1.90000
-39.83000 -12.48000 1.90000
-39.83000 -12.48000 1.90000
-40.58000 -12.48000 1.90000
-40.58000 -12.48000 1.90000
-41.33000 -12.48000 1.90000
-41.33000 -12.48000 1.90000
-42.08000 -12.48000 1.90000
-42.08000 -12.48000 1.90000
-42.83000 -12.48000 1.90000
-42.83000 -12.48000 1.90000
-42.08000 -16.23000 1.90000
-42.08000 -16.98000 1.90000
-42.08000 -16.98000 1.90000
-42.08000 -17.73000 1.90000
-42.08000 -17.73000 1.90000
-42.08000 -17.73000 1.90000
-42.08000 -17.73000 1.90000
-42.08000 -17.73000 1.90000
-42.83000 -17.73000 1.90000
-42.83000 -17.73000 1.90000
-43.58000 -17.73000 1.90000
-43.58000 -17.73000 1.90000
-43.58000 -17.73000 1.90000
-44.33000 -17.73000 1.90000
-44.33000 -17.73000 1.90000
-45.08000 -17.73000 1.90000
-45.08000 -17.73000 1.90000
-45.83000 -17.73000 1.90000
-46.58000 -17.73000 1.90000
-47.33000 -17.73000 1.90000
-48.08000 -17.73000 1.90000
-48.83000 -17.73000 1.90000
-49.58000 -17.73000 1.90000
-51.08000 -17.73000 1.90000
-51.83000 -17.73000 1.90000
-49.58000 -23.73000 1.90000
-47.33000 -23.73000 1.90000
-45.83000 -23.73000 1.90000
-44.33000 -23.73000 1.90000
-43.58000 -23.73000 1.90000
-42.83000 -23.73000 1.90000
-42.83000 -23.73000 1.90000
-42.08000 -23.73000 1.90000
-42.08000 -23.73000 1.90000
-42.08000 -23.73000 1.90000
-41.33000 -23.73000 1.90000
-41.33000 -23.73000 1.90000
-41.33000 -23.73000 1.90000
-41.33000 -23.73000 1.90000
-40.58000 -23.73000 1.90000
-40.58000 -23.73000 1.90000
-40.58000 -23.73000 1.90000
-40.58000 -23.73000 1.90000
-40.58000 -23.73000 1.90000
-40.58000 -23.73000 1.90000
-40.58000 -23.73000 1.90000
-40.58000 -23.73000 1.90000
-39.83000 -23.73000 1.90000
-39.83000 -23.73000 1.90000
-39.83000 -23.73000 1.90000
-39.83000 -23.73000 1.90000
-39.83000 -23.73000 1.90000
-39.83000 -23.73000 1.90000
-39.83000 -23.73000 1.90000
-39.83000 -23.73000 1.90000
-39.83000 -23.73000 1.90000
-39.83000 -23.73000 1.90000
-39.83000 -23.73000 1.90000
-39.83000 -23.73000 1.90000
-39.83000 -23.73000 1.90000
-39.08000 -23.73000 1.90000
-39.08000 -23.73000 1.90000
-39.08000 -23.73000 1.90000
-39.08000 -23.73000 1.90000
-39.08000 -23.73000 1.90000
-39.08000 -23.73000 1.90000
-39.08000 -23.73000 1.90000
-39.08000 -23.73000 1.90000
-39.08000 -23.73000 1.90000
-39.08000 -23.73000 1.90000
-39.08000 -23.73000 1.90000
-39.08000 -23.73000 1.90000
-39.08000 -23.73000 1.90000
-39.08000 -23.73000 1.90000
-39.08000 -23.73000 1.90000
-38.33000 -23.73000 1.90000
-38.33000 -23.73000 1.90000
-38.33000 -23.73000 1.90000
-38.33000 -23.73000 1.90000
-38.33000 -23.73000 1.90000
-38.33000 -23.73000 1.90000
-38.33000 -23.73000 1.90000
-38.33000 -23.73000 1.90000
-38.33000 -23.73000 1.90000
-38.33000 -23.73000 1.90000
-38.33000 -23.73000 1.90000
-38.33000 -23.73000 1.90000
-38.33000 -23.73000 1.90000
-37.58000 -23.73000 1.90000
-37.58000 -23.73000 1.90000
-37.58000 -23.73000 1.90000
-37.58000 -23.73000 1.90000
-37.58000 -23.73000 1.90000
-37.58000 -23.73000 1.90000
-37.58000 -23.73000 1.90000
-37.58000 -23.73000 1.90000
-36.83000 -23.73000 1.90000
-36.83000 -23.73000 1.90000
-36.83000 -23.73000 1.90000
-36.83000 -23.73000 1.90000
-36.08000 -23.73000 1.90000
-36.08000 -23.73000 1.90000
-36.08000 -23.73000 1.90000
-35.33000 -23.73000 1.90000
-35.33000 -23.73000 1.90000
-34.58000 -23.73000 1.90000
-33.83000 -23.73000 1.90000
-32.33000 -23.73000 1.90000
-30.83000 -23.73000 1.90000
-28.58000 -23.73000 1.90000
-23.33000 -18.48000 1.90000
-24.83000 -18.48000 1.90000
-26.33000 -18.48000 1.90000
-27.08000 -18.48000 1.90000
-27.83000 -18.48000 1.90000
-28.58000 -18.48000 1.90000
-30.08000 -18.48000 1.90000
-30.08000 -18.48000 1.90000
-30.83000 -18.48000 1.90000
-30.83000 -18.48000 1.90000
-30.83000 -18.48000 1.90000
-30.83000 -17.73000 1.90000
-30.83000 -17.73000 1.90000
-30.83000 -17.73000 1.90000
-30.83000 -16.98000 1.90000
-30.83000 -16.98000 1.90000
-30.83000 -16.23000 1.90000
-30.83000 -15.48000 1.90000
-30.83000 -15.48000 1.90000
-33.83000 -17.73000 1.90000
-33.83000 -17.73000 1.90000
-33.83000 -17.73000 1.90000
-34.58000 -17.73000 1.90000
-34.58000 -17.73000 1.90000
-34.58000 -17.73000 1.90000
-34.58000 -17.73000 1.90000
-34.58000 -17.73000 1.90000
-35.33000 -17.73000 1.90000
-35.33000 -17.73000 1.90000
-35.33000 -17.73000 1.90000
-35.33000 -17.73000 1.90000
-35.33000 -17.73000 1.90000
-35.33000 -16.98000 1.90000
-36.08000 -12.48000 1.90000
-36.08000 -12.48000 1.90000
-36.83000 -12.48000 1.90000
-36.83000 -12.48000 1.90000
-36.83000 -12.48000 1.90000
-37.58000 -12.48000 1.90000
-37.58000 -12.48000 1.90000
-38.33000 -12.48000 1.90000
-38.33000 -12.48000 1.90000
-39.08000 -12.48000 1.90000
-39.08000 -12.48000 1.90000
-39.83000 -12.48000 1.90000
-39.83000 -12.48000 1.90000
-40.58000 -12.48000 1.90000
-40.58000 -12.48000 1.90000
-41.33000 -12.48000 1.90000
-41.33000 -12.48000 1.90000
-42.08000 -12.48000 1.90000
-42.08000 -12.48000 1.90000
-42.83000 -12.48000 1.90000
-43.58000 -12.48000 1.90000
-43.58000 -12.48000 1.90000
-44.33000 -12.48000 1.90000
-42.08000 -16.23000 1.90000
-42.08000 -16.98000 1.90000
-42.08000 -16.98000 1.90000
-42.08000 -16.98000 1.90000
-42.08000 -17.73000 1.90000
-42.08000 -17.73000 1.90000
-42.08000 -17.73000 1.90000
-42.83000 -17.73000 1.90000
-42.83000 -17.73000 1.90000
-43.58000 -17.73000 1.90000
-44.33000 -17.73000 1.90000
-45.08000 -17.73000 1.90000
-45.83000 -17.73000 1.90000
-46.58000 -17.73000 1.90000
-47.33000 -17.73000 1.90000
-48.83000 -17.73000 1.90000
-49.58000 -17.73000 1.90000
-47.33000 -23.73000 1.90000
-45.08000 -23.73000 1.90000
-43.58000 -23.73000 1.90000
-42.08000 -23.73000 1.90000
-41.33000 -23.73000 1.90000
-40.58000 -23.73000 1.90000
-40.58000 -23.73000 1.90000
-39.83000 -23.73000 1.90000
-39.83000 -23.73000 1.90000
-39.83000 -23.73000 1.90000
-39.08000 -23.73000 1.90000
-39.08000 -23.73000 1.90000
-39.08000 -23.73000 1.90000
-39.08000 -23.73000 1.90000
-38.33000 -23.73000 1.90000
-38.33000 -23.73000 1.90000
-38.33000 -23.73000 1.90000
-38.33000 -23.73000 1.90000
-38.33000 -23.73000 1.90000
-38.33000 -23.73000 1.90000
-38.33000 -23.73000 1.90000
-38.33000 -23.73000 1.90000
-37.58000 -23.73000 1.90000
-37.58000 -23.73000 1.90000
-37.58000 -23.73000 1.90000
-37.58000 -23.73000 1.90000
-37.58000 -23.73000 1.90000
-37.58000 -23.73000 1.90000
-37.58000 -23.73000 1.90000
-37.58000 -23.73000 1.90000
-37.58000 -23.73000 1.90000
-37.58000 -23.73000 1.90000
-37.58000 -23.73000 1.90000
-37.58000 -23.73000 1.90000
-37.58000 -23.73000 1.90000
-36.83000 -23.73000 1.90000
-36.83000 -23.73000 1.90000
-36.83000 -23.73000 1.90000
-36.83000 -23.73000 1.90000
-36.83000 -23.73000 1.90000
-36.83000 -23.73000 1.90000
-36.83000 -23.73000 1.90000
-36.83000 -23.73000 1.90000
-36.83000 -23.73000 1.90000
-36.83000 -23.73000 1.90000
-36.83000 -23.73000 1.90000
-36.83000 -23.73000 1.90000
-36.83000 -23.73000 1.90000
-36.83000 -23.73000 1.90000
-36.83000 -23.73000 1.90000
-36.08000 -23.73000 1.90000
-36.08000 -23.73000 1.90000
-36.08000 -23.73000 1.90000
-36.08000 -23.73000 1.90000
-36.08000 -23.73000 1.90000
-36.08000 -23.73000 1.90000
-36.08000 -23.73000 1.90000
-36.08000 -23.73000 1.90000
-36.08000 -23.73000 1.90000
-36.08000 -23.73000 1.90000
-36.08000 -23.73000 1.90000
-36.08000 -23.73000 1.90000
-36.08000 -23.73000 1.90000
-35.33000 -23.73000 1.90000
-35.33000 -23.73000 1.90000
-35.33000 -23.73000 1.90000
-35.33000 -23.73000 1.90000
-35.33000 -23.73000 1.90000
-35.33000 -23.73000 1.90000
-35.33000 -23.73000 1.90000
-35.33000 -23.73000 1.90000
-34.58000 -23.73000 1.90000
-34.58000 -23.73000 1.90000
-34.58000 -23.73000 1.90000
-34.58000 -23.73000 1.90000
-33.83000 -23.73000 1.90000
-33.83000 -23.73000 1.90000
-33.83000 -23.73000 1.90000
-33.08000 -23.73000 1.90000
-33.08000 -23.73000 1.90000
-32.33000 -23.73000 1.90000
-31.58000 -23.73000 1.90000
-30.08000 -23.73000 1.90000
-28.58000 -23.73000 1.90000
-26.33000 -23.73000 1.90000
-21.08000 -22.23000 1.90000
-21.08000 -21.48000 1.90000
-21.08000 -21.48000 1.90000
-21.08000 -20.73000 1.90000
-21.08000 -19.98000 1.90000
-21.08000 -19.98000 1.90000
-21.08000 -19.23000 1.90000
-21.08000 -19.23000 1.90000
-22.58000 -18.48000 1.90000
-24.08000 -18.48000 1.90000
-24.83000 -18.48000 1.90000
-25.58000 -18.48000 1.90000
-26.33000 -18.48000 1.90000
-27.83000 -18.48000 1.90000
-27.83000 -18.48000 1.90000
-28.58000 -18.48000 1.90000
-29.33000 -18.48000 1.90000
-29.33000 -18.48000 1.90000
-30.08000 -18.48000 1.90000
-30.08000 -18.48000 1.90000
-30.08000 -18.48000 1.90000
-30.83000 -18.48000 1.90000
-30.83000 -18.48000 1.90000
-30.83000 -18.48000 1.90000
-30.83000 -18.48000 1.90000
-30.83000 -17.73000 1.90000
-30.83000 -17.73000 1.90000
-30.83000 -17.73000 1.90000
-30.83000 -16.98000 1.90000
-30.83000 -16.98000 1.90000
-30.83000 -16.23000 1.90000
-30.83000 -15.48000 1.90000
-30.83000 -15.48000 1.90000
-30.83000 -13.98000 1.90000
-30.83000 -13.23000 1.90000
-30.83000 -12.48000 1.90000
-30.83000 -11.73000 1.90000
-30.83000 -10.23000 1.90000
-33.83000 -17.73000 1.90000
-33.83000 -17.73000 1.90000
-33.83000 -17.73000 1.90000
-33.83000 -17.73000 1.90000
-33.83000 -17.73000 1.90000
-34.58000 -17.73000 1.90000
-34.58000 -17.73000 1.90000
-34.58000 -17.73000 1.90000
-34.58000 -17.73000 1.90000
-34.58000 -17.73000 1.90000
-35.33000 -17.73000 1.90000
-35.33000 -17.73000 1.90000
-35.33000 -17.73000 1.90000
-35.33000 -17.73000 1.90000
-35.33000 -17.73000 1.90000
-37.58000 -12.48000 1.90000
-37.58000 -12.48000 1.90000
-38.33000 -12.48000 1.90000
-38.33000 -12.48000 1.90000
-39.08000 -12.48000 1.90000
-39.08000 -12.48000 1.90000
-39.83000 -12.48000 1.90000
-39.83000 -12.48000 1.90000
-40.58000 -12.48000 1.90000
-41.33000 -12.48000 1.90000
-41.33000 -12.48000 1.90000
-42.08000 -12.48000 1.90000
-42.83000 -12.48000 1.90000
-42.83000 -12.48000 1.90000
-43.58000 -12.48000 1.90000
-44.33000 -12.48000 1.90000
-42.08000 -16.23000 1.90000
-42.08000 -16.23000 1.90000
-42.08000 -16.98000 1.90000
-42.08000 -17.73000 1.90000
-42.08000 -17.73000 1.90000
-42.08000 -17.73000 1.90000
-42.83000 -17.73000 1.90000
-43.58000 -17.73000 1.90000
-44.33000 -17.73000 1.90000
-45.08000 -17.73000 1.90000
-46.58000 -17.73000 1.90000
-47.33000 -17.73000 1.90000
-45.08000 -23.73000 1.90000
-42.83000 -23.73000 1.90000
-41.33000 -23.73000 1.90000
-39.83000 -23.73000 1.90000
-39.08000 -23.73000 1.90000
-38.33000 -23.73000 1.90000
-38.33000 -23.73000 1.90000
-37.58000 -23.73000 1.90000
-37.58000 -23.73000 1.90000
-37.58000 -23.73000 1.90000
-36.83000 -23.73000 1.90000
-36.83000 -23.73000 1.90000
-36.83000 -23.73000 1.90000
-36.83000 -23.73000 1.90000
-36.08000 -23.73000 1.90000
-36.08000 -23.73000 1.90000
-36.08000 -23.73000 1.90000
-36.08000 -23.73000 1.90000
-36.08000 -23.73000 1.90000
-36.08000 -23.73000 1.90000
-36.08000 -23.73000 1.90000
-36.08000 -23.73000 1.90000
-35.33000 -23.73000 1.90000
-35.33000 -23.73000 1.90000
-35.33000 -23.73000 1.90000
-35.33000 -23.73000 1.90000
-35.33000 -23.73000 1.90000
-35.33000 -23.73000 1.90000
-35.33000 -23.73000 1.90000
-35.33000 -23.73000 1.90000
-35.33000 -23.73000 1.90000
-35.33000 -23.73000 1.90000
-35.33000 -23.73000 1.90000
-35.33000 -23.73000 1.90000
-35.33000 -23.73000 1.90000
-34.58000 -23.73000 1.90000
-34.58000 -23.73000 1.90000
-34.58000 -23.73000 1.90000
-34.58000 -23.73000 1.90000
-34.58000 -23.73000 1.90000
-34.58000 -23.73000 1.90000
-34.58000 -23.73000 1.90000
-34.58000 -23.73000 1.90000
-34.58000 -23.73000 1.90000
-34.58000 -23.73000 1.90000
-34.58000 -23.73000 1.90000
-34.58000 -23.73000 1.90000
-34.58000 -23.73000 1.90000
-34.58000 -23.73000 1.90000
-34.58000 -23.73000 1.90000
-33.83000 -23.73000 1.90000
-33.83000 -23.73000 1.90000
-33.83000 -23.73000 1.90000
-33.83000 -23.73000 1.90000
-33.83000 -23.73000 1.90000
-33.83000 -23.73000 1.90000
-33.83000 -23.73000 1.90000
-33.83000 -23.73000 1.90000
-33.83000 -23.73000 1.90000
-33.83000 -23.73000 1.90000
-33.83000 -23.73000 1.90000
-33.83000 -23.73000 1.90000
-33.83000 -23.73000 1.90000
-33.08000 -23.73000 1.90000
-33.08000 -23.73000 1.90000
-33.08000 -23.73000 1.90000
-33.08000 -23.73000 1.90000
-33.08000 -23.73000 1.90000
-33.08000 -23.73000 1.90000
-33.08000 -23.73000 1.90000
-33.08000 -23.73000 1.90000
-32.33000 -23.73000 1.90000
-32.33000 -23.73000 1.90000
-32.33000 -23.73000 1.90000
-32.33000 -23.73000 1.90000
-31.58000 -23.73000 1.90000
-31.58000 -23.73000 1.90000
-31.58000 -23.73000 1.90000
-30.83000 -23.73000 1.90000
-30.83000 -23.73000 1.90000
-30.08000 -23.73000 1.90000
-29.33000 -23.73000 1.90000
-27.83000 -23.73000 1.90000
-26.33000 -23.73000 1.90000
-24.08000 -23.73000 1.90000
-21.08000 -22.98000 1.90000
-21.08000 -22.98000 1.90000
-21.08000 -22.23000 1.90000
-21.08000 -21.48000 1.90000
-21.08000 -21.48000 1.90000
-21.08000 -20.73000 1.90000
-21.08000 -20.73000 1.90000
-21.08000 -19.98000 1.90000
-21.08000 -19.98000 1.90000
-21.08000 -19.23000 1.90000
-21.08000 -19.23000 1.90000
-21.83000 -18.48000 1.90000
-22.58000 -18.48000 1.90000
-23.33000 -18.48000 1.90000
-24.08000 -18.48000 1.90000
-25.58000 -18.48000 1.90000
-25.58000 -18.48000 1.90000
-26.33000 -18.48000 1.90000
-27.08000 -18.48000 1.90000
-27.08000 -18.48000 1.90000
-27.83000 -18.48000 1.90000
-27.83000 -18.48000 1.90000
-27.83000 -18.48000 1.90000
-28.58000 -18.48000 1.90000
-28.58000 -18.48000 1.90000
-28.58000 -18.48000 1.90000
-29.33000 -18.48000 1.90000
-29.33000 -18.48000 1.90000
-29.33000 -18.48000 1.90000
-29.33000 -18.48000 1.90000
-30.08000 -18.48000 1.90000
-30.08000 -18.48000 1.90000
-30.08000 -18.48000 1.90000
-30.08000 -18.48000 1.90000
-30.83000 -18.48000 1.90000
-30.83000 -18.48000 1.90000
-30.83000 -18.48000 1.90000
-30.83000 -18.48000 1.90000
-30.83000 -18.48000 1.90000
-30.83000 -18.48000 1.90000
-30.83000 -17.73000 1.90000
-30.83000 -16.98000 1.90000
-30.83000 -15.48000 1.90000
-30.83000 -13.98000 1.90000
-30.83000 -11.73000 1.90000
-33.83000 -16.98000 1.90000
-33.83000 -17.73000 1.90000
-33.83000 -17.73000 1.90000
-33.83000 -17.73000 1.90000
-33.83000 -17.73000 1.90000
-33.83000 -17.73000 1.90000
-34.58000 -17.73000 1.90000
-34.58000 -17.73000 1.90000
-34.58000 -17.73000 1.90000
-34.58000 -17.73000 1.90000
-34.58000 -17.73000 1.90000
-35.33000 -17.73000 1.90000
-35.33000 -17.73000 1.90000
-35.33000 -17.73000 1.90000
-40.58000 -12.48000 1.90000
-40.58000 -12.48000 1.90000
-41.33000 -12.48000 1.90000
-42.08000 -12.48000 1.90000
-42.83000 -12.48000 1.90000
-42.08000 -16.23000 1.90000
-42.08000 -16.98000 1.90000
-42.08000 -16.98000 1.90000
-42.08000 -17.73000 1.90000
-42.08000 -17.73000 1.90000
-42.83000 -17.73000 1.90000
-44.33000 -17.73000 1.90000
-45.08000 -17.73000 1.90000
-42.83000 -23.73000 1.90000
-40.58000 -23.73000 1.90000
-39.08000 -23.73000 1.90000
-37.58000 -23.73000 1.90000
-36.83000 -23.73000 1.90000
-36.08000 -23.73000 1.90000
-36.08000 -23.73000 1.90000
-35.33000 -23.73000 1.90000
-35.33000 -23.73000 1.90000
-35.33000 -23.73000 1.90000
-34.58000 -23.73000 1.90000
-34.58000 -23.73000 1.90000
-34.58000 -23.73000 1.90000
-34.58000 -23.73000 1.90000
-33.83000 -23.73000 1.90000
-33.83000 -23.73000 1.90000
-33.83000 -23.73000 1.90000
-33.83000 -23.73000 1.90000
-33.83000 -23.73000 1.90000
-33.83000 -23.73000 1.90000
-33.83000 -23.73000 1.90000
-33.83000 -23.73000 1.90000
-33.08000 -23.73000 1.90000
-33.08000 -23.73000 1.90000
-33.08000 -23.73000 1.90000
-33.08000 -23.73000 1.90000
-33.08000 -23.73000 1.90000
-33.08000 -23.73000 1.90000
-33.08000 -23.73000 1.90000
-33.08000 -23.73000 1.90000
-33.08000 -23.73000 1.90000
-33.08000 -23.73000 1.90000
-33.08000 -23.73000 1.90000
-33.08000 -23.73000 1.90000
-33.08000 -23.73000 1.90000
-32.33000 -23.73000 1.90000
-32.33000 -23.73000 1.90000
-32.33000 -23.73000 1.90000
-32.33000 -23.73000 1.90000
-32.33000 -23.73000 1.90000
-32.33000 -23.73000 1.90000
-32.33000 -23.73000 1.90000
-32.33000 -23.73000 1.90000
-32.33000 -23.73000 1.90000
-32.33000 -23.73000 1.90000
-32.33000 -23.73000 1.90000
-32.33000 -23.73000 1.90000
-32.33000 -23.73000 1.90000
-32.33000 -23.73000 1.90000
-32.33000 -23.73000 1.90000
-31.58000 -23.73000 1.90000
-31.58000 -23.73000 1.90000
-31.58000 -23.73000 1.90000
-31.58000 -23.73000 1.90000
-31.58000 -23.73000 1.90000
-31.58000 -23.73000 1.90000
-31.58000 -23.73000 1.90000
-31.58000 -23.73000 1.90000
-31.58000 -23.73000 1.90000
-31.58000 -23.73000 1.90000
-31.58000 -23.73000 1.90000
-31.58000 -23.73000 1.90000
-31.58000 -23.73000 1.90000
-30.83000 -23.73000 1.90000
-30.83000 -23.73000 1.90000
-30.83000 -23.73000 1.90000
-30.83000 -23.73000 1.90000
-30.83000 -23.73000 1.90000
-30.83000 -23.73000 1.90000
-30.83000 -23.73000 1.90000
-30.83000 -23.73000 1.90000
-30.08000 -23.73000 1.90000
-30.08000 -23.73000 1.90000
-30.08000 -23.73000 1.90000
-30.08000 -23.73000 1.90000
-29.33000 -23.73000 1.90000
-29.33000 -23.73000 1.90000
-29.33000 -23.73000 1.90000
-28.58000 -23.73000 1.90000
-28.58000 -23.73000 1.90000
-27.83000 -23.73000 1.90000
-27.08000 -23.73000 1.90000
-25.58000 -23.73000 1.90000
-24.08000 -23.73000 1.90000
-21.83000 -23.73000 1.90000
-21.08000 -22.98000 1.90000
-21.08000 -22.98000 1.90000
