<svg xmlns="http://www.w3.org/2000/svg" width="980" height="560" viewBox="0 0 980 560">
<rect width="100%" height="100%" fill="white"/>
<text x="490.0" y="30" text-anchor="middle" font-family="Times New Roman" font-size="20">ClimbPath Terminal Error Comparison</text>
<line x1="90.0" y1="445.0" x2="940.0" y2="445.0" stroke="#222"/>
<line x1="90.0" y1="55.0" x2="90.0" y2="445.0" stroke="#222"/>
<line x1="90.0" y1="445.0" x2="940.0" y2="445.0" stroke="#dddddd"/>
<text x="80.0" y="449.0" text-anchor="end" font-family="Times New Roman" font-size="12">0.0</text>
<line x1="90.0" y1="367.0" x2="940.0" y2="367.0" stroke="#dddddd"/>
<text x="80.0" y="371.0" text-anchor="end" font-family="Times New Roman" font-size="12">0.005</text>
<line x1="90.0" y1="289.0" x2="940.0" y2="289.0" stroke="#dddddd"/>
<text x="80.0" y="293.0" text-anchor="end" font-family="Times New Roman" font-size="12">0.01</text>
<line x1="90.0" y1="210.99999999999997" x2="940.0" y2="210.99999999999997" stroke="#dddddd"/>
<text x="80.0" y="214.99999999999997" text-anchor="end" font-family="Times New Roman" font-size="12">0.015</text>
<line x1="90.0" y1="133.0" x2="940.0" y2="133.0" stroke="#dddddd"/>
<text x="80.0" y="137.0" text-anchor="end" font-family="Times New Roman" font-size="12">0.02</text>
<line x1="90.0" y1="55.0" x2="940.0" y2="55.0" stroke="#dddddd"/>
<text x="80.0" y="59.0" text-anchor="end" font-family="Times New Roman" font-size="12">0.025</text>
<rect x="127.1875" y="435.7033375424428" width="138.125" height="9.296662457557227" fill="#1f77b4"/>
<text x="196.25" y="428.7033375424428" text-anchor="middle" font-family="Times New Roman" font-size="12">0.0006</text>
<text x="196.25" y="465.0" text-anchor="end" transform="rotate(-35 196.25 465.0)" font-family="Times New Roman" font-size="12">h_2_state_feedback</text>
<rect x="339.6875" y="390.11833366829507" width="138.125" height="54.88166633170495" fill="#d62728"/>
<text x="408.75" y="383.11833366829507" text-anchor="middle" font-family="Times New Roman" font-size="12">0.0036</text>
<text x="408.75" y="465.0" text-anchor="end" transform="rotate(-35 408.75 465.0)" font-family="Times New Roman" font-size="12">lqg</text>
<rect x="552.1875" y="105.86956521739125" width="138.125" height="339.13043478260875" fill="#2ca02c"/>
<text x="621.25" y="98.86956521739125" text-anchor="middle" font-family="Times New Roman" font-size="12">0.0221</text>
<text x="621.25" y="465.0" text-anchor="end" transform="rotate(-35 621.25 465.0)" font-family="Times New Roman" font-size="12">lqi</text>
<rect x="764.6875" y="403.28976567153984" width="138.125" height="41.71023432846018" fill="#9467bd"/>
<text x="833.75" y="396.28976567153984" text-anchor="middle" font-family="Times New Roman" font-size="12">0.0027</text>
<text x="833.75" y="465.0" text-anchor="end" transform="rotate(-35 833.75 465.0)" font-family="Times New Roman" font-size="12">lqr_baseline</text>
<text x="20" y="280.0" transform="rotate(-90 20 280.0)" text-anchor="middle" font-family="Times New Roman" font-size="14">Terminal Error (m)</text>
</svg>
