<svg xmlns="http://www.w3.org/2000/svg" width="920" height="520" viewBox="0 0 920 520">
<style>
text { font-family: Arial, 'Microsoft YaHei', sans-serif; fill: #1f2937; }
.title { font-size: 20px; font-weight: 700; }
.label { font-size: 13px; }
.tick { font-size: 12px; fill: #4b5563; }
.legend { font-size: 13px; fill: #374151; }
</style>
<rect x="0" y="0" width="100%" height="100%" fill="#ffffff"/>
<text x="460.00" y="26" text-anchor="middle" class="title">formation_triangle_figure8_linear_mpc_sysblock position error</text>
<line x1="82" y1="444" x2="892" y2="444" stroke="#2f3542" stroke-width="1.4"/>
<line x1="82" y1="54" x2="82" y2="444" stroke="#2f3542" stroke-width="1.4"/>
<line x1="82" y1="54.00" x2="892" y2="54.00" stroke="#d7dde8" stroke-width="0.8"/>
<text x="72" y="58.00" text-anchor="end" class="tick">0.161</text>
<line x1="82" y1="132.00" x2="892" y2="132.00" stroke="#d7dde8" stroke-width="0.8"/>
<text x="72" y="136.00" text-anchor="end" class="tick">0.125</text>
<line x1="82" y1="210.00" x2="892" y2="210.00" stroke="#d7dde8" stroke-width="0.8"/>
<text x="72" y="214.00" text-anchor="end" class="tick">0.0897</text>
<line x1="82" y1="288.00" x2="892" y2="288.00" stroke="#d7dde8" stroke-width="0.8"/>
<text x="72" y="292.00" text-anchor="end" class="tick">0.0541</text>
<line x1="82" y1="366.00" x2="892" y2="366.00" stroke="#d7dde8" stroke-width="0.8"/>
<text x="72" y="370.00" text-anchor="end" class="tick">0.0184</text>
<line x1="82" y1="444.00" x2="892" y2="444.00" stroke="#d7dde8" stroke-width="0.8"/>
<text x="72" y="448.00" text-anchor="end" class="tick">-0.0173</text>
<text x="82.00" y="466" text-anchor="middle" class="tick">-1.6</text>
<text x="244.00" y="466" text-anchor="middle" class="tick">15</text>
<text x="406.00" y="466" text-anchor="middle" class="tick">31.7</text>
<text x="568.00" y="466" text-anchor="middle" class="tick">48.3</text>
<text x="730.00" y="466" text-anchor="middle" class="tick">65</text>
<text x="892.00" y="466" text-anchor="middle" class="tick">81.6</text>
<text x="487.00" y="502" text-anchor="middle" class="label">time / s</text>
<text x="22" y="249.00" text-anchor="middle" class="label" transform="rotate(-90 22 249.00)">error / m</text>
<polyline points="97.58,406.26 97.77,390.89 97.97,375.53 98.16,360.19 98.36,344.92 98.55,329.78 98.75,314.83 98.94,300.16 99.13,285.84 99.33,271.95 99.52,258.55 99.72,245.69 99.91,233.41 100.11,221.73 100.30,210.65 100.50,200.18 100.69,190.30 100.89,181.00 101.08,172.27 101.28,164.08 101.47,156.41 101.67,149.24 101.86,142.54 102.06,136.31 102.25,130.53 102.44,125.18 102.64,120.26 102.83,115.76 103.03,111.66 103.22,107.97 103.42,104.68 103.61,101.77 103.81,99.25 104.00,97.11 104.20,95.34 104.39,93.93 104.59,92.87 104.78,92.16 104.98,91.79 105.17,91.74 105.37,92.01 105.56,92.59 105.75,93.46 105.95,94.62 106.14,96.05 106.34,97.75 106.53,99.70 106.73,101.90 106.92,104.33 107.12,106.99 107.31,109.86 107.51,112.94 107.70,116.22 107.90,119.68 108.09,123.32 108.29,127.14 108.48,131.11 108.68,135.24 108.87,139.52 109.06,143.93 109.26,148.46 109.45,153.12 109.65,157.89 109.84,162.76 110.04,167.72 110.23,172.78 110.43,177.91 110.62,183.12 110.82,188.39 111.01,193.73 111.21,199.11 111.40,204.54 111.60,210.00 111.79,215.50 111.99,221.02 112.18,226.56 112.38,232.12 112.57,237.68 112.76,243.24 112.96,248.80 113.15,254.35 113.35,259.89 113.54,265.41 113.74,270.90 113.93,276.36 114.13,281.79 114.32,287.18 114.52,292.53 114.71,297.83 114.91,303.08 115.10,308.28 115.30,313.42 115.49,318.49 115.69,323.50 115.88,328.44 116.07,333.31 116.27,338.09 116.46,342.80 116.66,347.43 116.85,351.96 117.05,356.40 117.24,360.74 117.44,364.97 117.63,369.09 117.83,373.08 118.02,376.93 118.22,380.62 118.41,384.10 118.61,387.33 118.80,390.22 119.00,392.62 119.19,394.33 119.38,395.10 119.58,394.85 119.77,393.71 119.97,391.95 120.16,389.83 120.36,387.52 120.55,385.12 120.75,382.69 120.94,380.27 121.14,377.88 121.33,375.55 121.53,373.28 121.72,371.07 121.92,368.93 122.11,366.88 122.31,364.89 122.50,362.99 122.69,361.17 122.89,359.43 123.08,357.78 123.28,356.20 123.47,354.70 123.67,353.29 123.86,351.95 124.06,350.69 124.25,349.51 124.45,348.41 124.64,347.38 124.84,346.43 125.03,345.55 125.23,344.74 125.42,344.00 125.62,343.34 125.81,342.73 126.00,342.20 126.20,341.73 126.39,341.32 126.59,340.97 126.78,340.69 126.98,340.46 127.17,340.29 127.37,340.17 127.56,340.11 127.76,340.10 127.95,340.14 128.15,340.22 128.34,340.36 128.54,340.54 128.73,340.76 128.93,341.03 129.12,341.33 129.31,341.68 129.51,342.06 129.70,342.48 129.90,342.93 130.09,343.41 130.29,343.93 130.48,344.47 130.68,345.05 130.87,345.64 131.07,346.27 131.26,346.92 131.46,347.58 131.65,348.27 131.85,348.98 132.04,349.71 132.24,350.45 132.43,351.21 132.62,351.98 132.82,352.77 133.01,353.56 133.21,354.37 133.40,355.18 133.60,356.01 133.79,356.83 133.99,357.67 134.18,358.51 134.38,359.35 134.57,360.19 134.77,361.04 134.96,361.88 135.16,362.73 135.35,363.57 135.55,364.41 135.74,365.25 135.94,366.08 136.13,366.91 136.32,367.73 136.52,368.55 136.71,369.35 136.91,370.15 137.10,370.94 137.30,371.73 137.49,372.50 137.69,373.26 137.88,374.01 138.08,374.75 138.27,375.47 138.47,376.19 138.66,376.89 138.86,377.58 139.05,378.25 139.25,378.91 139.44,379.55 139.63,380.18 139.83,380.80 140.02,381.39 140.22,381.98 140.41,382.54 140.61,383.09 140.80,383.63 141.00,384.15 141.19,384.65 141.39,385.13 141.58,385.60 141.78,386.05 141.97,386.48 142.17,386.90 142.36,387.30 142.56,387.68 142.75,388.05 142.94,388.40 143.14,388.73 143.33,389.05 143.53,389.35 143.72,389.63 143.92,389.90 144.11,390.15 144.31,390.39 144.50,390.61 144.70,390.82 144.89,391.01 145.09,391.19 145.28,391.35 145.48,391.50 145.67,391.63 145.87,391.75 146.06,391.86 146.25,391.96 146.45,392.04 146.64,392.11 146.84,392.17 147.03,392.22 147.23,392.26 147.42,392.28 147.62,392.30 147.81,392.30 148.01,392.30 148.20,392.28 148.40,392.25 148.59,392.22 148.79,392.17 148.98,392.12 149.18,392.06 149.37,391.99 149.56,391.91 149.76,391.82 149.95,391.73 150.15,391.63 150.34,391.52 150.54,391.40 150.73,391.28 150.93,391.15 151.12,391.02 151.32,390.87 151.51,390.73 151.71,390.57 151.90,390.41 152.10,390.25 152.29,390.08 152.49,389.90 152.68,389.73 152.88,389.54 153.07,389.35 153.26,389.16 153.46,388.97 153.65,388.77 153.85,388.56 154.04,388.36 154.24,388.15 154.43,387.94 154.63,387.72 154.82,387.51 155.02,387.29 155.21,387.07 155.41,386.85 155.60,386.62 155.80,386.40 155.99,386.17 156.19,385.94 156.38,385.71 156.57,385.49 156.77,385.26 156.96,385.03 157.16,384.80 157.35,384.57 157.55,384.34 157.74,384.11 157.94,383.88 158.13,383.65 158.33,383.42 158.52,383.19 158.72,382.97 158.91,382.74 159.11,382.52 159.30,382.30 159.50,382.08 159.69,381.86 159.88,381.64 160.08,381.42 160.27,381.21 160.47,381.00 160.66,380.79 160.86,380.58 161.05,380.37 161.25,380.17 161.44,379.97 161.64,379.77 161.83,379.57 162.03,379.38 162.22,379.19 162.42,379.00 162.61,378.81 162.81,378.63 163.00,378.45 163.19,378.27 163.39,378.09 163.58,377.92 163.78,377.75 163.97,377.59 164.17,377.42 164.36,377.26 164.56,377.10 164.75,376.95 164.95,376.79 165.14,376.64 165.34,376.50 165.53,376.35 165.73,376.21 165.92,376.07 166.12,375.94 166.31,375.80 166.50,375.67 166.70,375.54 166.89,375.42 167.09,375.30 167.28,375.18 167.48,375.06 167.67,374.95 167.87,374.83 168.06,374.73 168.26,374.62 168.45,374.52 168.65,374.41 168.84,374.32 169.04,374.22 169.23,374.12 169.43,374.03 169.62,373.94 169.81,373.85 170.01,373.77 170.20,373.69 170.40,373.61 170.59,373.53 170.79,373.45 170.98,373.37 171.18,373.30 171.37,373.23 171.57,373.16 171.76,373.09 171.96,373.03 172.15,372.96 172.35,372.90 172.54,372.84 172.74,372.78 172.93,372.72 173.12,372.67 173.32,372.61 173.51,372.56 173.71,372.50 173.90,372.45 174.10,372.40 174.29,372.35 174.49,372.31 174.68,372.26 174.88,372.22 175.07,372.17 175.27,372.13 175.46,372.08 175.66,372.04 175.85,372.00 176.05,371.96 176.24,371.92 176.44,371.88 176.63,371.85 176.82,371.81 177.02,371.77 177.21,371.74 177.41,371.70 177.60,371.67 177.80,371.64 177.99,371.60 178.19,371.57 178.38,371.53 178.58,371.50 178.77,371.47 178.97,371.44 179.16,371.41 179.36,371.37 179.55,371.34 179.75,371.31 179.94,371.28 180.13,371.25 180.33,371.22 180.52,371.19 180.72,371.15 180.91,371.12 181.11,371.09 181.30,371.06 181.50,371.03 181.69,371.00 181.89,370.97 182.08,370.94 182.28,370.91 182.47,370.88 182.67,370.84 182.86,370.81 183.06,370.78 183.25,370.75 183.44,370.72 183.64,370.69 183.83,370.65 184.03,370.62 184.22,370.59 184.42,370.56 184.61,370.52 184.81,370.49 185.00,370.46 185.20,370.43 185.39,370.39 185.59,370.36 185.78,370.32 185.98,370.29 186.17,370.25 186.37,370.22 186.56,370.18 186.75,370.15 186.95,370.11 187.14,370.08 187.34,370.04 187.53,370.00 187.73,369.97 187.92,369.93 188.12,369.89 188.31,369.86 188.51,369.82 188.70,369.78 188.90,369.74 189.09,369.70 189.29,369.67 189.48,369.63 189.68,369.59 189.87,369.55 190.06,369.51 190.26,369.47 190.45,369.43 190.65,369.39 190.84,369.35 191.04,369.31 191.23,369.27 191.43,369.23 191.62,369.19 191.82,369.15 192.01,369.11 192.21,369.07 192.40,369.03 192.60,368.99 192.79,368.95 192.99,368.91 193.18,368.87 193.38,368.83 193.57,368.78 193.76,368.74 193.96,368.70 194.15,368.66 194.35,368.62 194.54,368.58 194.74,368.54 194.93,368.50 195.13,368.45 195.32,368.41 195.52,368.37 195.71,368.33 195.91,368.29 196.10,368.25 196.30,368.21 196.49,368.16 196.69,368.12 196.88,368.08 197.07,368.04 197.27,368.00 197.46,367.96 197.66,367.92 197.85,367.88 198.05,367.84 198.24,367.80 198.44,367.76 198.63,367.72 198.83,367.68 199.02,367.64 199.22,367.60 199.41,367.56 199.61,367.52 199.80,367.48 200.00,367.44 200.19,367.40 200.38,367.36 200.58,367.33 200.77,367.29 200.97,367.25 201.16,367.21 201.36,367.18 201.55,367.14 201.75,367.10 201.94,367.07 202.14,367.03 202.33,366.99 202.53,366.96 202.72,366.92 202.92,366.89 203.11,366.85 203.31,366.82 203.50,366.78 203.69,366.75 203.89,366.72 204.08,366.68 204.28,366.65 204.47,366.62 204.67,366.58 204.86,366.55 205.06,366.52 205.25,366.49 205.45,366.46 205.64,366.43 205.84,366.40 206.03,366.37 206.23,366.34 206.42,366.31 206.62,366.28 206.81,366.25 207.00,366.22 207.20,366.19 207.39,366.16 207.59,366.14 207.78,366.11 207.98,366.08 208.17,366.05 208.37,366.03 208.56,366.00 208.76,365.98 208.95,365.95 209.15,365.93 209.34,365.90 209.54,365.88 209.73,365.85 209.93,365.83 210.12,365.80 210.31,365.78 210.51,365.76 210.70,365.74 210.90,365.71 211.09,365.69 211.29,365.67 211.48,365.65 211.68,365.63 211.87,365.61 212.07,365.59 212.26,365.57 212.46,365.55 212.65,365.53 212.85,365.51 213.04,365.49 213.24,365.47 213.43,365.45 213.62,365.44 213.82,365.42 214.01,365.40 214.21,365.38 214.40,365.37 214.60,365.35 214.79,365.34 214.99,365.32 215.18,365.31 215.38,365.29 215.57,365.28 215.77,365.26 215.96,365.25 216.16,365.23 216.35,365.22 216.55,365.21 216.74,365.19 216.94,365.18 217.13,365.17 217.32,365.16 217.52,365.14 217.71,365.13 217.91,365.12 218.10,365.11 218.30,365.10 218.49,365.09 218.69,365.08 218.88,365.07 219.08,365.06 219.27,365.05 219.47,365.04 219.66,365.03 219.86,365.02 220.05,365.02 220.25,365.01 220.44,365.00 220.63,364.99 220.83,364.99 221.02,364.98 221.22,364.98 221.41,364.97 221.61,364.96 221.80,364.96 222.00,364.95 222.19,364.95 222.39,364.94 222.58,364.94 222.78,364.93 222.97,364.93 223.17,364.93 223.36,364.92 223.56,364.92 223.75,364.91 223.94,364.91 224.14,364.91 224.33,364.91 224.53,364.90 224.72,364.90 224.92,364.90 225.11,364.90 225.31,364.90 225.50,364.90 225.70,364.90 225.89,364.90 226.09,364.90 226.28,364.90 226.48,364.90 226.67,364.90 226.87,364.90 227.06,364.90 227.25,364.90 227.45,364.90 227.64,364.90 227.84,364.91 228.03,364.91 228.23,364.91 228.42,364.92 228.62,364.92 228.81,364.92 229.01,364.92 229.20,364.93 229.40,364.93 229.59,364.94 229.79,364.94 229.98,364.95 230.18,364.95 230.37,364.96 230.56,364.96 230.76,364.97 230.95,364.97 231.15,364.98 231.34,364.99 231.54,364.99 231.73,365.00 231.93,365.01 232.12,365.01 232.32,365.02 232.51,365.03 232.71,365.04 232.90,365.05 233.10,365.06 233.29,365.07 233.49,365.08 233.68,365.09 233.88,365.10 234.07,365.11 234.26,365.11 234.46,365.13 234.65,365.14 234.85,365.15 235.04,365.16 235.24,365.17 235.43,365.18 235.63,365.19 235.82,365.20 236.02,365.22 236.21,365.23 236.41,365.24 236.60,365.25 236.80,365.27 236.99,365.28 237.19,365.29 237.38,365.31 237.57,365.32 237.77,365.34 237.96,365.35 238.16,365.37 238.35,365.38 238.55,365.40 238.74,365.41 238.94,365.43 239.13,365.44 239.33,365.46 239.52,365.48 239.72,365.49 239.91,365.51 240.11,365.53 240.30,365.54 240.50,365.56 240.69,365.58 240.88,365.60 241.08,365.62 241.27,365.63 241.47,365.65 241.66,365.67 241.86,365.69 242.05,365.71 242.25,365.73 242.44,365.75 242.64,365.77 242.83,365.79 243.03,365.81 243.22,365.83 243.42,365.85 243.61,365.88 243.81,365.90 244.00,365.92 244.19,365.94 244.39,365.96 244.58,365.99 244.78,366.01 244.97,366.03 245.17,366.06 245.36,366.08 245.56,366.10 245.75,366.13 245.95,366.15 246.14,366.18 246.34,366.20 246.53,366.23 246.73,366.25 246.92,366.28 247.12,366.30 247.31,366.33 247.50,366.36 247.70,366.38 247.89,366.41 248.09,366.44 248.28,366.46 248.48,366.49 248.67,366.52 248.87,366.55 249.06,366.58 249.26,366.60 249.45,366.63 249.65,366.66 249.84,366.69 250.04,366.72 250.23,366.75 250.43,366.78 250.62,366.81 250.81,366.84 251.01,366.87 251.20,366.90 251.40,366.94 251.59,366.97 251.79,367.00 251.98,367.03 252.18,367.06 252.37,367.10 252.57,367.13 252.76,367.16 252.96,367.19 253.15,367.23 253.35,367.26 253.54,367.29 253.74,367.33 253.93,367.36 254.13,367.40 254.32,367.43 254.51,367.46 254.71,367.50 254.90,367.54 255.10,367.57 255.29,367.61 255.49,367.64 255.68,367.68 255.88,367.71 256.07,367.75 256.27,367.79 256.46,367.83 256.66,367.86 256.85,367.90 257.05,367.94 257.24,367.98 257.44,368.02 257.63,368.05 257.82,368.09 258.02,368.13 258.21,368.17 258.41,368.21 258.60,368.25 258.80,368.29 258.99,368.33 259.19,368.37 259.38,368.42 259.58,368.46 259.77,368.50 259.97,368.54 260.16,368.58 260.36,368.62 260.55,368.66 260.75,368.71 260.94,368.75 261.13,368.79 261.33,368.83 261.52,368.88 261.72,368.92 261.91,368.96 262.11,369.01 262.30,369.05 262.50,369.10 262.69,369.14 262.89,369.18 263.08,369.23 263.28,369.27 263.47,369.32 263.67,369.37 263.86,369.41 264.06,369.46 264.25,369.50 264.44,369.55 264.64,369.60 264.83,369.64 265.03,369.69 265.22,369.74 265.42,369.78 265.61,369.83 265.81,369.88 266.00,369.93 266.20,369.98 266.39,370.02 266.59,370.07 266.78,370.12 266.98,370.17 267.17,370.22 267.37,370.27 267.56,370.32 267.75,370.37 267.95,370.42 268.14,370.47 268.34,370.52 268.53,370.57 268.73,370.62 268.92,370.67 269.12,370.72 269.31,370.78 269.51,370.83 269.70,370.88 269.90,370.93 270.09,370.98 270.29,371.04 270.48,371.09 270.68,371.14 270.87,371.20 271.06,371.25 271.26,371.30 271.45,371.36 271.65,371.41 271.84,371.46 272.04,371.52 272.23,371.57 272.43,371.63 272.62,371.68 272.82,371.74 273.01,371.79 273.21,371.85 273.40,371.90 273.60,371.96 273.79,372.02 273.99,372.07 274.18,372.13 274.38,372.18 274.57,372.24 274.76,372.30 274.96,372.35 275.15,372.41 275.35,372.47 275.54,372.53 275.74,372.59 275.93,372.65 276.13,372.70 276.32,372.76 276.52,372.82 276.71,372.88 276.91,372.94 277.10,373.00 277.30,373.06 277.49,373.12 277.69,373.18 277.88,373.24 278.07,373.30 278.27,373.36 278.46,373.42 278.66,373.48 278.85,373.54 279.05,373.60 279.24,373.66 279.44,373.72 279.63,373.78 279.83,373.85 280.02,373.91 280.22,373.97 280.41,374.03 280.61,374.09 280.80,374.16 281.00,374.22 281.19,374.28 281.38,374.35 281.58,374.41 281.77,374.47 281.97,374.54 282.16,374.60 282.36,374.66 282.55,374.73 282.75,374.79 282.94,374.86 283.14,374.92 283.33,374.99 283.53,375.05 283.72,375.12 283.92,375.18 284.11,375.25 284.31,375.31 284.50,375.38 284.69,375.45 284.89,375.51 285.08,375.58 285.28,375.64 285.47,375.71 285.67,375.78 285.86,375.85 286.06,375.91 286.25,375.98 286.45,376.05 286.64,376.11 286.84,376.18 287.03,376.25 287.23,376.32 287.42,376.39 287.62,376.45 287.81,376.52 288.00,376.59 288.20,376.66 288.39,376.73 288.59,376.80 288.78,376.87 288.98,376.94 289.17,377.01 289.37,377.07 289.56,377.14 289.76,377.21 289.95,377.28 290.15,377.35 290.34,377.42 290.54,377.49 290.73,377.56 290.93,377.64 291.12,377.71 291.31,377.78 291.51,377.85 291.70,377.92 291.90,377.99 292.09,378.06 292.29,378.13 292.48,378.20 292.68,378.28 292.87,378.35 293.07,378.42 293.26,378.49 293.46,378.56 293.65,378.64 293.85,378.71 294.04,378.78 294.24,378.86 294.43,378.93 294.63,379.00 294.82,379.07 295.01,379.15 295.21,379.22 295.40,379.29 295.60,379.37 295.79,379.44 295.99,379.52 296.18,379.59 296.38,379.66 296.57,379.74 296.77,379.81 296.96,379.89 297.16,379.96 297.35,380.04 297.55,380.11 297.74,380.19 297.94,380.26 298.13,380.34 298.32,380.41 298.52,380.49 298.71,380.56 298.91,380.64 299.10,380.71 299.30,380.79 299.49,380.87 299.69,380.94 299.88,381.02 300.08,381.09 300.27,381.17 300.47,381.25 300.66,381.32 300.86,381.40 301.05,381.48 301.25,381.55 301.44,381.63 301.63,381.71 301.83,381.78 302.02,381.86 302.22,381.94 302.41,382.01 302.61,382.09 302.80,382.17 303.00,382.24 303.19,382.32 303.39,382.40 303.58,382.48 303.78,382.55 303.97,382.63 304.17,382.71 304.36,382.79 304.56,382.86 304.75,382.94 304.94,383.02 305.14,383.10 305.33,383.18 305.53,383.25 305.72,383.33 305.92,383.41 306.11,383.49 306.31,383.57 306.50,383.65 306.70,383.72 306.89,383.80 307.09,383.88 307.28,383.96 307.48,384.04 307.67,384.12 307.87,384.20 308.06,384.28 308.25,384.35 308.45,384.43 308.64,384.51 308.84,384.59 309.03,384.67 309.23,384.75 309.42,384.83 309.62,384.91 309.81,384.98 310.01,385.06 310.20,385.14 310.40,385.22 310.59,385.30 310.79,385.38 310.98,385.46 311.18,385.54 311.37,385.62 311.56,385.70 311.76,385.77 311.95,385.85 312.15,385.93 312.34,386.01 312.54,386.09 312.73,386.17 312.93,386.25 313.12,386.33 313.32,386.41 313.51,386.49 313.71,386.56 313.90,386.64 314.10,386.72 314.29,386.80 314.49,386.88 314.68,386.96 314.88,387.04 315.07,387.12 315.26,387.20 315.46,387.28 315.65,387.35 315.85,387.43 316.04,387.51 316.24,387.59 316.43,387.67 316.63,387.75 316.82,387.82 317.02,387.90 317.21,387.98 317.41,388.06 317.60,388.14 317.80,388.21 317.99,388.29 318.19,388.37 318.38,388.45 318.57,388.52 318.77,388.60 318.96,388.68 319.16,388.76 319.35,388.83 319.55,388.91 319.74,388.99 319.94,389.06 320.13,389.14 320.33,389.22 320.52,389.30 320.72,389.37 320.91,389.45 321.11,389.52 321.30,389.60 321.50,389.68 321.69,389.75 321.88,389.83 322.08,389.90 322.27,389.98 322.47,390.05 322.66,390.13 322.86,390.20 323.05,390.28 323.25,390.35 323.44,390.43 323.64,390.50 323.83,390.57 324.03,390.65 324.22,390.72 324.42,390.79 324.61,390.87 324.81,390.94 325.00,391.01 325.19,391.09 325.39,391.16 325.58,391.23 325.78,391.30 325.97,391.37 326.17,391.44 326.36,391.52 326.56,391.59 326.75,391.66 326.95,391.73 327.14,391.80 327.34,391.87 327.53,391.94 327.73,392.01 327.92,392.07 328.12,392.14 328.31,392.21 328.50,392.28 328.70,392.35 328.89,392.41 329.09,392.48 329.28,392.55 329.48,392.61 329.67,392.68 329.87,392.75 330.06,392.81 330.26,392.88 330.45,392.94 330.65,393.00 330.84,393.07 331.04,393.13 331.23,393.19 331.43,393.26 331.62,393.32 331.81,393.38 332.01,393.44 332.20,393.50 332.40,393.56 332.59,393.62 332.79,393.68 332.98,393.74 333.18,393.80 333.37,393.85 333.57,393.91 333.76,393.97 333.96,394.02 334.15,394.08 334.35,394.13 334.54,394.19 334.74,394.24 334.93,394.29 335.13,394.35 335.32,394.40 335.51,394.45 335.71,394.50 335.90,394.55 336.10,394.60 336.29,394.65 336.49,394.70 336.68,394.75 336.88,394.79 337.07,394.84 337.27,394.89 337.46,394.93 337.66,394.98 337.85,395.02 338.05,395.06 338.24,395.10 338.44,395.15 338.63,395.19 338.82,395.23 339.02,395.27 339.21,395.30 339.41,395.34 339.60,395.38 339.80,395.41 339.99,395.45 340.19,395.48 340.38,395.52 340.58,395.55 340.77,395.58 340.97,395.61 341.16,395.64 341.36,395.67 341.55,395.70 341.75,395.73 341.94,395.75 342.13,395.78 342.33,395.80 342.52,395.83 342.72,395.85 342.91,395.87 343.11,395.89 343.30,395.91 343.50,395.93 343.69,395.95 343.89,395.97 344.08,395.98 344.28,396.00 344.47,396.01 344.67,396.03 344.86,396.04 345.06,396.05 345.25,396.06 345.44,396.07 345.64,396.08 345.83,396.09 346.03,396.09 346.22,396.10 346.42,396.10 346.61,396.10 346.81,396.11 347.00,396.11 347.20,396.11 347.39,396.11 347.59,396.11 347.78,396.10 347.98,396.10 348.17,396.09 348.37,396.09 348.56,396.08 348.75,396.07 348.95,396.06 349.14,396.05 349.34,396.04 349.53,396.03 349.73,396.02 349.92,396.01 350.12,395.99 350.31,395.98 350.51,395.96 350.70,395.94 350.90,395.92 351.09,395.90 351.29,395.88 351.48,395.86 351.68,395.84 351.87,395.81 352.06,395.79 352.26,395.76 352.45,395.74 352.65,395.71 352.84,395.68 353.04,395.65 353.23,395.62 353.43,395.59 353.62,395.56 353.82,395.53 354.01,395.50 354.21,395.46 354.40,395.43 354.60,395.39 354.79,395.35 354.99,395.32 355.18,395.28 355.38,395.24 355.57,395.20 355.76,395.16 355.96,395.12 356.15,395.08 356.35,395.04 356.54,394.99 356.74,394.95 356.93,394.90 357.13,394.86 357.32,394.81 357.52,394.77 357.71,394.72 357.91,394.67 358.10,394.62 358.30,394.57 358.49,394.52 358.69,394.47 358.88,394.42 359.07,394.37 359.27,394.31 359.46,394.26 359.66,394.21 359.85,394.15 360.05,394.10 360.24,394.04 360.44,393.98 360.63,393.93 360.83,393.87 361.02,393.81 361.22,393.76 361.41,393.70 361.61,393.64 361.80,393.58 362.00,393.52 362.19,393.46 362.38,393.40 362.58,393.34 362.77,393.28 362.97,393.21 363.16,393.15 363.36,393.09 363.55,393.02 363.75,392.96 363.94,392.90 364.14,392.83 364.33,392.77 364.53,392.70 364.72,392.64 364.92,392.57 365.11,392.51 365.31,392.44 365.50,392.37 365.69,392.31 365.89,392.24 366.08,392.17 366.28,392.10 366.47,392.03 366.67,391.96 366.86,391.89 367.06,391.82 367.25,391.75 367.45,391.68 367.64,391.61 367.84,391.54 368.03,391.47 368.23,391.40 368.42,391.33 368.62,391.25 368.81,391.18 369.00,391.11 369.20,391.04 369.39,390.96 369.59,390.89 369.78,390.82 369.98,390.74 370.17,390.67 370.37,390.60 370.56,390.52 370.76,390.45 370.95,390.37 371.15,390.30 371.34,390.22 371.54,390.15 371.73,390.07 371.93,390.00 372.12,389.92 372.31,389.84 372.51,389.77 372.70,389.69 372.90,389.62 373.09,389.54 373.29,389.46 373.48,389.39 373.68,389.31 373.87,389.23 374.07,389.16 374.26,389.08 374.46,389.00 374.65,388.92 374.85,388.85 375.04,388.77 375.24,388.69 375.43,388.61 375.63,388.54 375.82,388.46 376.01,388.38 376.21,388.30 376.40,388.23 376.60,388.15 376.79,388.07 376.99,387.99 377.18,387.91 377.38,387.84 377.57,387.76 377.77,387.68 377.96,387.60 378.16,387.52 378.35,387.45 378.55,387.37 378.74,387.29 378.94,387.21 379.13,387.13 379.32,387.05 379.52,386.97 379.71,386.89 379.91,386.82 380.10,386.74 380.30,386.66 380.49,386.58 380.69,386.50 380.88,386.42 381.08,386.34 381.27,386.27 381.47,386.19 381.66,386.11 381.86,386.03 382.05,385.95 382.25,385.87 382.44,385.79 382.63,385.71 382.83,385.63 383.02,385.55 383.22,385.48 383.41,385.40 383.61,385.32 383.80,385.24 384.00,385.16 384.19,385.08 384.39,385.00 384.58,384.92 384.78,384.85 384.97,384.77 385.17,384.69 385.36,384.61 385.56,384.53 385.75,384.45 385.94,384.37 386.14,384.29 386.33,384.22 386.53,384.14 386.72,384.06 386.92,383.98 387.11,383.90 387.31,383.82 387.50,383.74 387.70,383.67 387.89,383.59 388.09,383.51 388.28,383.43 388.48,383.35 388.67,383.28 388.87,383.20 389.06,383.12 389.25,383.04 389.45,382.97 389.64,382.89 389.84,382.81 390.03,382.74 390.23,382.66 390.42,382.58 390.62,382.50 390.81,382.42 391.01,382.35 391.20,382.27 391.40,382.19 391.59,382.12 391.79,382.04 391.98,381.96 392.18,381.88 392.37,381.81 392.56,381.73 392.76,381.65 392.95,381.58 393.15,381.50 393.34,381.42 393.54,381.35 393.73,381.27 393.93,381.19 394.12,381.12 394.32,381.04 394.51,380.97 394.71,380.89 394.90,380.81 395.10,380.74 395.29,380.66 395.49,380.59 395.68,380.51 395.88,380.44 396.07,380.36 396.26,380.28 396.46,380.21 396.65,380.13 396.85,380.06 397.04,379.99 397.24,379.91 397.43,379.84 397.63,379.76 397.82,379.69 398.02,379.61 398.21,379.54 398.41,379.47 398.60,379.39 398.80,379.32 398.99,379.24 399.19,379.17 399.38,379.10 399.57,379.02 399.77,378.95 399.96,378.88 400.16,378.81 400.35,378.73 400.55,378.66 400.74,378.59 400.94,378.51 401.13,378.44 401.33,378.37 401.52,378.30 401.72,378.23 401.91,378.16 402.11,378.08 402.30,378.01 402.50,377.94 402.69,377.87 402.88,377.80 403.08,377.73 403.27,377.66 403.47,377.59 403.66,377.52 403.86,377.44 404.05,377.37 404.25,377.30 404.44,377.24 404.64,377.17 404.83,377.10 405.03,377.03 405.22,376.96 405.42,376.89 405.61,376.82 405.81,376.75 406.00,376.68 406.19,376.61 406.39,376.54 406.58,376.48 406.78,376.41 406.97,376.34 407.17,376.27 407.36,376.20 407.56,376.13 407.75,376.07 407.95,376.00 408.14,375.93 408.34,375.87 408.53,375.80 408.73,375.73 408.92,375.67 409.12,375.60 409.31,375.53 409.50,375.47 409.70,375.40 409.89,375.33 410.09,375.27 410.28,375.20 410.48,375.14 410.67,375.07 410.87,375.01 411.06,374.94 411.26,374.88 411.45,374.81 411.65,374.75 411.84,374.68 412.04,374.62 412.23,374.56 412.43,374.49 412.62,374.43 412.81,374.37 413.01,374.30 413.20,374.24 413.40,374.18 413.59,374.12 413.79,374.05 413.98,373.99 414.18,373.93 414.37,373.87 414.57,373.81 414.76,373.74 414.96,373.68 415.15,373.62 415.35,373.56 415.54,373.50 415.74,373.44 415.93,373.38 416.12,373.32 416.32,373.26 416.51,373.20 416.71,373.14 416.90,373.08 417.10,373.02 417.29,372.96 417.49,372.90 417.68,372.84 417.88,372.78 418.07,372.72 418.27,372.67 418.46,372.61 418.66,372.55 418.85,372.49 419.05,372.43 419.24,372.38 419.44,372.32 419.63,372.26 419.82,372.21 420.02,372.15 420.21,372.09 420.41,372.04 420.60,371.98 420.80,371.92 420.99,371.87 421.19,371.81 421.38,371.76 421.58,371.70 421.77,371.65 421.97,371.59 422.16,371.54 422.36,371.48 422.55,371.43 422.75,371.38 422.94,371.32 423.13,371.27 423.33,371.22 423.52,371.16 423.72,371.11 423.91,371.06 424.11,371.00 424.30,370.95 424.50,370.90 424.69,370.85 424.89,370.80 425.08,370.75 425.28,370.70 425.47,370.64 425.67,370.59 425.86,370.54 426.06,370.49 426.25,370.44 426.44,370.39 426.64,370.34 426.83,370.29 427.03,370.24 427.22,370.19 427.42,370.14 427.61,370.09 427.81,370.05 428.00,370.00 428.20,369.95 428.39,369.90 428.59,369.85 428.78,369.81 428.98,369.76 429.17,369.71 429.37,369.67 429.56,369.62 429.75,369.57 429.95,369.53 430.14,369.48 430.34,369.43 430.53,369.39 430.73,369.34 430.92,369.30 431.12,369.25 431.31,369.21 431.51,369.16 431.70,369.12 431.90,369.08 432.09,369.03 432.29,368.99 432.48,368.94 432.68,368.90 432.87,368.86 433.06,368.82 433.26,368.77 433.45,368.73 433.65,368.69 433.84,368.65 434.04,368.61 434.23,368.57 434.43,368.52 434.62,368.48 434.82,368.44 435.01,368.40 435.21,368.36 435.40,368.32 435.60,368.28 435.79,368.24 435.99,368.20 436.18,368.16 436.38,368.12 436.57,368.08 436.76,368.04 436.96,368.01 437.15,367.97 437.35,367.93 437.54,367.89 437.74,367.85 437.93,367.82 438.13,367.78 438.32,367.74 438.52,367.70 438.71,367.67 438.91,367.63 439.10,367.60 439.30,367.56 439.49,367.52 439.69,367.49 439.88,367.45 440.07,367.42 440.27,367.38 440.46,367.35 440.66,367.31 440.85,367.28 441.05,367.25 441.24,367.22 441.44,367.18 441.63,367.15 441.83,367.12 442.02,367.08 442.22,367.05 442.41,367.02 442.61,366.99 442.80,366.96 443.00,366.92 443.19,366.89 443.38,366.86 443.58,366.83 443.77,366.80 443.97,366.77 444.16,366.74 444.36,366.71 444.55,366.68 444.75,366.65 444.94,366.62 445.14,366.59 445.33,366.56 445.53,366.54 445.72,366.51 445.92,366.48 446.11,366.45 446.31,366.43 446.50,366.40 446.69,366.37 446.89,366.35 447.08,366.32 447.28,366.29 447.47,366.27 447.67,366.24 447.86,366.22 448.06,366.19 448.25,366.17 448.45,366.14 448.64,366.12 448.84,366.10 449.03,366.07 449.23,366.05 449.42,366.02 449.62,366.00 449.81,365.98 450.00,365.95 450.20,365.93 450.39,365.91 450.59,365.89 450.78,365.87 450.98,365.85 451.17,365.82 451.37,365.80 451.56,365.78 451.76,365.76 451.95,365.74 452.15,365.72 452.34,365.70 452.54,365.68 452.73,365.67 452.93,365.65 453.12,365.63 453.31,365.61 453.51,365.59 453.70,365.57 453.90,365.56 454.09,365.54 454.29,365.52 454.48,365.50 454.68,365.49 454.87,365.47 455.07,365.45 455.26,365.44 455.46,365.42 455.65,365.41 455.85,365.39 456.04,365.38 456.24,365.36 456.43,365.35 456.63,365.33 456.82,365.32 457.01,365.31 457.21,365.29 457.40,365.28 457.60,365.27 457.79,365.25 457.99,365.24 458.18,365.23 458.38,365.22 458.57,365.20 458.77,365.19 458.96,365.18 459.16,365.17 459.35,365.16 459.55,365.15 459.74,365.14 459.94,365.13 460.13,365.12 460.32,365.11 460.52,365.10 460.71,365.09 460.91,365.08 461.10,365.07 461.30,365.07 461.49,365.06 461.69,365.05 461.88,365.04 462.08,365.03 462.27,365.03 462.47,365.02 462.66,365.01 462.86,365.01 463.05,365.00 463.25,365.00 463.44,364.99 463.63,364.99 463.83,364.98 464.02,364.98 464.22,364.97 464.41,364.97 464.61,364.96 464.80,364.96 465.00,364.96 465.19,364.95 465.39,364.95 465.58,364.95 465.78,364.95 465.97,364.94 466.17,364.94 466.36,364.94 466.56,364.94 466.75,364.94 466.94,364.94 467.14,364.93 467.33,364.93 467.53,364.94 467.72,364.94 467.92,364.94 468.11,364.94 468.31,364.94 468.50,364.94 468.70,364.94 468.89,364.94 469.09,364.94 469.28,364.95 469.48,364.95 469.67,364.95 469.87,364.95 470.06,364.96 470.25,364.96 470.45,364.96 470.64,364.97 470.84,364.97 471.03,364.98 471.23,364.98 471.42,364.99 471.62,364.99 471.81,365.00 472.01,365.00 472.20,365.01 472.40,365.01 472.59,365.02 472.79,365.03 472.98,365.03 473.18,365.04 473.37,365.05 473.56,365.05 473.76,365.06 473.95,365.07 474.15,365.08 474.34,365.09 474.54,365.10 474.73,365.11 474.93,365.11 475.12,365.12 475.32,365.13 475.51,365.15 475.71,365.16 475.90,365.17 476.10,365.18 476.29,365.19 476.49,365.20 476.68,365.21 476.88,365.22 477.07,365.23 477.26,365.25 477.46,365.26 477.65,365.27 477.85,365.29 478.04,365.30 478.24,365.31 478.43,365.33 478.63,365.34 478.82,365.36 479.02,365.37 479.21,365.39 479.41,365.40 479.60,365.42 479.80,365.43 479.99,365.45 480.19,365.46 480.38,365.48 480.57,365.50 480.77,365.51 480.96,365.53 481.16,365.55 481.35,365.57 481.55,365.59 481.74,365.60 481.94,365.62 482.13,365.64 482.33,365.66 482.52,365.68 482.72,365.70 482.91,365.72 483.11,365.74 483.30,365.76 483.50,365.78 483.69,365.80 483.88,365.82 484.08,365.84 484.27,365.86 484.47,365.89 484.66,365.91 484.86,365.93 485.05,365.95 485.25,365.97 485.44,366.00 485.64,366.02 485.83,366.04 486.03,366.07 486.22,366.09 486.42,366.12 486.61,366.14 486.81,366.17 487.00,366.19 487.19,366.22 487.39,366.24 487.58,366.27 487.78,366.29 487.97,366.32 488.17,366.34 488.36,366.37 488.56,366.40 488.75,366.43 488.95,366.45 489.14,366.48 489.34,366.51 489.53,366.54 489.73,366.57 489.92,366.60 490.12,366.62 490.31,366.65 490.50,366.68 490.70,366.71 490.89,366.74 491.09,366.77 491.28,366.80 491.48,366.83 491.67,366.86 491.87,366.89 492.06,366.93 492.26,366.96 492.45,366.99 492.65,367.02 492.84,367.05 493.04,367.09 493.23,367.12 493.43,367.15 493.62,367.18 493.81,367.22 494.01,367.25 494.20,367.29 494.40,367.32 494.59,367.36 494.79,367.39 494.98,367.43 495.18,367.46 495.37,367.50 495.57,367.53 495.76,367.57 495.96,367.60 496.15,367.64 496.35,367.68 496.54,367.72 496.74,367.75 496.93,367.79 497.13,367.83 497.32,367.86 497.51,367.90 497.71,367.94 497.90,367.98 498.10,368.02 498.29,368.06 498.49,368.10 498.68,368.14 498.88,368.17 499.07,368.22 499.27,368.26 499.46,368.30 499.66,368.34 499.85,368.38 500.05,368.42 500.24,368.46 500.44,368.50 500.63,368.54 500.82,368.59 501.02,368.63 501.21,368.67 501.41,368.71 501.60,368.76 501.80,368.80 501.99,368.84 502.19,368.89 502.38,368.93 502.58,368.98 502.77,369.02 502.97,369.07 503.16,369.11 503.36,369.16 503.55,369.20 503.75,369.25 503.94,369.29 504.13,369.34 504.33,369.38 504.52,369.43 504.72,369.48 504.91,369.52 505.11,369.57 505.30,369.62 505.50,369.67 505.69,369.71 505.89,369.76 506.08,369.81 506.28,369.86 506.47,369.91 506.67,369.96 506.86,370.01 507.06,370.06 507.25,370.11 507.44,370.16 507.64,370.21 507.83,370.26 508.03,370.31 508.22,370.36 508.42,370.41 508.61,370.46 508.81,370.51 509.00,370.56 509.20,370.62 509.39,370.67 509.59,370.72 509.78,370.77 509.98,370.83 510.17,370.88 510.37,370.93 510.56,370.98 510.75,371.04 510.95,371.09 511.14,371.15 511.34,371.20 511.53,371.25 511.73,371.31 511.92,371.36 512.12,371.42 512.31,371.47 512.51,371.53 512.70,371.58 512.90,371.64 513.09,371.70 513.29,371.75 513.48,371.81 513.68,371.87 513.87,371.92 514.06,371.98 514.26,372.04 514.45,372.10 514.65,372.15 514.84,372.21 515.04,372.27 515.23,372.33 515.43,372.39 515.62,372.45 515.82,372.50 516.01,372.56 516.21,372.62 516.40,372.68 516.60,372.75 516.79,372.81 516.99,372.87 517.18,372.93 517.38,372.99 517.57,373.05 517.76,373.11 517.96,373.17 518.15,373.23 518.35,373.30 518.54,373.36 518.74,373.42 518.93,373.48 519.13,373.55 519.32,373.61 519.52,373.67 519.71,373.74 519.91,373.80 520.10,373.86 520.30,373.93 520.49,373.99 520.69,374.06 520.88,374.12 521.07,374.19 521.27,374.25 521.46,374.32 521.66,374.38 521.85,374.45 522.05,374.51 522.24,374.58 522.44,374.64 522.63,374.71 522.83,374.78 523.02,374.85 523.22,374.91 523.41,374.98 523.61,375.05 523.80,375.11 524.00,375.18 524.19,375.25 524.38,375.32 524.58,375.39 524.77,375.46 524.97,375.52 525.16,375.59 525.36,375.66 525.55,375.73 525.75,375.80 525.94,375.87 526.14,375.94 526.33,376.01 526.53,376.08 526.72,376.15 526.92,376.22 527.11,376.29 527.31,376.36 527.50,376.43 527.69,376.51 527.89,376.58 528.08,376.65 528.28,376.72 528.47,376.79 528.67,376.87 528.86,376.94 529.06,377.01 529.25,377.08 529.45,377.16 529.64,377.23 529.84,377.30 530.03,377.38 530.23,377.45 530.42,377.52 530.62,377.60 530.81,377.67 531.00,377.75 531.20,377.82 531.39,377.90 531.59,377.97 531.78,378.05 531.98,378.12 532.17,378.20 532.37,378.27 532.56,378.35 532.76,378.42 532.95,378.50 533.15,378.58 533.34,378.65 533.54,378.73 533.73,378.80 533.93,378.88 534.12,378.96 534.31,379.04 534.51,379.11 534.70,379.19 534.90,379.27 535.09,379.35 535.29,379.43 535.48,379.51 535.68,379.58 535.87,379.66 536.07,379.74 536.26,379.82 536.46,379.90 536.65,379.98 536.85,380.06 537.04,380.14 537.24,380.22 537.43,380.30 537.63,380.38 537.82,380.46 538.01,380.54 538.21,380.62 538.40,380.70 538.60,380.78 538.79,380.86 538.99,380.94 539.18,381.02 539.38,381.11 539.57,381.19 539.77,381.27 539.96,381.35 540.16,381.43 540.35,381.52 540.55,381.60 540.74,381.68 540.94,381.76 541.13,381.85 541.32,381.93 541.52,382.01 541.71,382.10 541.91,382.18 542.10,382.26 542.30,382.35 542.49,382.43 542.69,382.52 542.88,382.60 543.08,382.68 543.27,382.77 543.47,382.85 543.66,382.94 543.86,383.02 544.05,383.11 544.25,383.19 544.44,383.28 544.63,383.37 544.83,383.45 545.02,383.54 545.22,383.62 545.41,383.71 545.61,383.80 545.80,383.88 546.00,383.97 546.19,384.06 546.39,384.15 546.58,384.23 546.78,384.32 546.97,384.41 547.17,384.49 547.36,384.58 547.56,384.67 547.75,384.76 547.94,384.85 548.14,384.93 548.33,385.02 548.53,385.11 548.72,385.20 548.92,385.29 549.11,385.38 549.31,385.47 549.50,385.56 549.70,385.65 549.89,385.73 550.09,385.82 550.28,385.91 550.48,386.00 550.67,386.09 550.87,386.18 551.06,386.27 551.25,386.36 551.45,386.45 551.64,386.54 551.84,386.64 552.03,386.73 552.23,386.82 552.42,386.91 552.62,387.00 552.81,387.09 553.01,387.18 553.20,387.28 553.40,387.37 553.59,387.46 553.79,387.55 553.98,387.64 554.18,387.74 554.37,387.83 554.56,387.92 554.76,388.01 554.95,388.11 555.15,388.20 555.34,388.29 555.54,388.38 555.73,388.48 555.93,388.57 556.12,388.66 556.32,388.75 556.51,388.85 556.71,388.94 556.90,389.03 557.10,389.13 557.29,389.22 557.49,389.32 557.68,389.41 557.88,389.50 558.07,389.60 558.26,389.69 558.46,389.79 558.65,389.88 558.85,389.98 559.04,390.07 559.24,390.17 559.43,390.26 559.63,390.36 559.82,390.45 560.02,390.55 560.21,390.64 560.41,390.74 560.60,390.83 560.80,390.93 560.99,391.02 561.19,391.12 561.38,391.21 561.57,391.31 561.77,391.41 561.96,391.50 562.16,391.60 562.35,391.70 562.55,391.79 562.74,391.89 562.94,391.98 563.13,392.08 563.33,392.18 563.52,392.27 563.72,392.37 563.91,392.47 564.11,392.57 564.30,392.66 564.50,392.76 564.69,392.86 564.88,392.96 565.08,393.05 565.27,393.15 565.47,393.25 565.66,393.35 565.86,393.44 566.05,393.54 566.25,393.64 566.44,393.74 566.64,393.84 566.83,393.93 567.03,394.03 567.22,394.13 567.42,394.23 567.61,394.33 567.81,394.43 568.00,394.52 568.19,394.62 568.39,394.72 568.58,394.82 568.78,394.92 568.97,395.02 569.17,395.12 569.36,395.22 569.56,395.32 569.75,395.42 569.95,395.52 570.14,395.61 570.34,395.71 570.53,395.81 570.73,395.91 570.92,396.01 571.12,396.11 571.31,396.21 571.50,396.31 571.70,396.41 571.89,396.51 572.09,396.61 572.28,396.71 572.48,396.81 572.67,396.91 572.87,397.01 573.06,397.11 573.26,397.21 573.45,397.31 573.65,397.41 573.84,397.51 574.04,397.61 574.23,397.71 574.43,397.81 574.62,397.91 574.81,398.01 575.01,398.11 575.20,398.22 575.40,398.32 575.59,398.42 575.79,398.52 575.98,398.62 576.18,398.72 576.37,398.82 576.57,398.92 576.76,399.03 576.96,399.13 577.15,399.23 577.35,399.33 577.54,399.43 577.74,399.53 577.93,399.63 578.12,399.74 578.32,399.84 578.51,399.94 578.71,400.04 578.90,400.14 579.10,400.25 579.29,400.35 579.49,400.45 579.68,400.55 579.88,400.65 580.07,400.76 580.27,400.86 580.46,400.96 580.66,401.06 580.85,401.16 581.05,401.27 581.24,401.37 581.44,401.47 581.63,401.57 581.82,401.68 582.02,401.78 582.21,401.88 582.41,401.98 582.60,402.09 582.80,402.19 582.99,402.29 583.19,402.39 583.38,402.49 583.58,402.60 583.77,402.70 583.97,402.80 584.16,402.91 584.36,403.01 584.55,403.11 584.75,403.21 584.94,403.32 585.13,403.42 585.33,403.52 585.52,403.62 585.72,403.73 585.91,403.83 586.11,403.93 586.30,404.03 586.50,404.14 586.69,404.24 586.89,404.34 587.08,404.44 587.28,404.55 587.47,404.65 587.67,404.75 587.86,404.85 588.06,404.96 588.25,405.06 588.44,405.16 588.64,405.27 588.83,405.37 589.03,405.47 589.22,405.57 589.42,405.67 589.61,405.78 589.81,405.88 590.00,405.98 590.20,406.07 590.39,406.15 590.59,406.16 590.78,406.09 590.98,405.99 591.17,405.90 591.37,405.80 591.56,405.69 591.75,405.59 591.95,405.49 592.14,405.39 592.34,405.29 592.53,405.18 592.73,405.08 592.92,404.98 593.12,404.87 593.31,404.77 593.51,404.67 593.70,404.57 593.90,404.46 594.09,404.36 594.29,404.26 594.48,404.15 594.68,404.05 594.87,403.95 595.06,403.85 595.26,403.74 595.45,403.64 595.65,403.54 595.84,403.43 596.04,403.33 596.23,403.23 596.43,403.13 596.62,403.02 596.82,402.92 597.01,402.82 597.21,402.71 597.40,402.61 597.60,402.51 597.79,402.41 597.99,402.30 598.18,402.20 598.38,402.10 598.57,402.00 598.76,401.89 598.96,401.79 599.15,401.69 599.35,401.59 599.54,401.48 599.74,401.38 599.93,401.28 600.13,401.17 600.32,401.07 600.52,400.97 600.71,400.87 600.91,400.77 601.10,400.66 601.30,400.56 601.49,400.46 601.69,400.36 601.88,400.26 602.07,400.15 602.27,400.05 602.46,399.95 602.66,399.85 602.85,399.74 603.05,399.64 603.24,399.54 603.44,399.44 603.63,399.34 603.83,399.23 604.02,399.13 604.22,399.03 604.41,398.93 604.61,398.82 604.80,398.72 605.00,398.62 605.19,398.52 605.38,398.42 605.58,398.32 605.77,398.21 605.97,398.11 606.16,398.01 606.36,397.91 606.55,397.81 606.75,397.71 606.94,397.61 607.14,397.51 607.33,397.41 607.53,397.31 607.72,397.21 607.92,397.11 608.11,397.01 608.31,396.90 608.50,396.80 608.69,396.71 608.89,396.60 609.08,396.50 609.28,396.40 609.47,396.30 609.67,396.20 609.86,396.10 610.06,396.00 610.25,395.90 610.45,395.80 610.64,395.70 610.84,395.60 611.03,395.50 611.23,395.40 611.42,395.30 611.62,395.20 611.81,395.10 612.00,395.00 612.20,394.91 612.39,394.81 612.59,394.71 612.78,394.61 612.98,394.51 613.17,394.41 613.37,394.31 613.56,394.21 613.76,394.11 613.95,394.01 614.15,393.92 614.34,393.82 614.54,393.72 614.73,393.62 614.93,393.52 615.12,393.42 615.31,393.32 615.51,393.23 615.70,393.13 615.90,393.03 616.09,392.93 616.29,392.83 616.48,392.74 616.68,392.64 616.87,392.54 617.07,392.45 617.26,392.35 617.46,392.25 617.65,392.15 617.85,392.06 618.04,391.96 618.24,391.86 618.43,391.77 618.63,391.67 618.82,391.57 619.01,391.48 619.21,391.38 619.40,391.29 619.60,391.19 619.79,391.09 619.99,391.00 620.18,390.90 620.38,390.81 620.57,390.71 620.77,390.61 620.96,390.52 621.16,390.42 621.35,390.33 621.55,390.23 621.74,390.14 621.94,390.04 622.13,389.95 622.32,389.85 622.52,389.76 622.71,389.66 622.91,389.57 623.10,389.48 623.30,389.38 623.49,389.29 623.69,389.19 623.88,389.10 624.08,389.01 624.27,388.91 624.47,388.82 624.66,388.73 624.86,388.63 625.05,388.54 625.25,388.45 625.44,388.35 625.63,388.26 625.83,388.17 626.02,388.08 626.22,387.98 626.41,387.89 626.61,387.80 626.80,387.71 627.00,387.61 627.19,387.52 627.39,387.43 627.58,387.34 627.78,387.25 627.97,387.16 628.17,387.07 628.36,386.98 628.56,386.88 628.75,386.79 628.94,386.70 629.14,386.61 629.33,386.52 629.53,386.43 629.72,386.34 629.92,386.25 630.11,386.16 630.31,386.07 630.50,385.98 630.70,385.89 630.89,385.80 631.09,385.71 631.28,385.62 631.48,385.53 631.67,385.44 631.87,385.35 632.06,385.26 632.25,385.18 632.45,385.09 632.64,385.00 632.84,384.91 633.03,384.82 633.23,384.73 633.42,384.65 633.62,384.56 633.81,384.47 634.01,384.38 634.20,384.30 634.40,384.21 634.59,384.12 634.79,384.04 634.98,383.95 635.18,383.86 635.37,383.78 635.56,383.69 635.76,383.60 635.95,383.52 636.15,383.43 636.34,383.35 636.54,383.26 636.73,383.18 636.93,383.09 637.12,383.00 637.32,382.92 637.51,382.83 637.71,382.75 637.90,382.67 638.10,382.58 638.29,382.50 638.49,382.41 638.68,382.33 638.88,382.24 639.07,382.16 639.26,382.08 639.46,381.99 639.65,381.91 639.85,381.83 640.04,381.74 640.24,381.66 640.43,381.58 640.63,381.50 640.82,381.41 641.02,381.33 641.21,381.25 641.41,381.17 641.60,381.09 641.80,381.00 641.99,380.92 642.19,380.84 642.38,380.76 642.57,380.68 642.77,380.60 642.96,380.52 643.16,380.44 643.35,380.36 643.55,380.28 643.74,380.20 643.94,380.12 644.13,380.04 644.33,379.96 644.52,379.88 644.72,379.80 644.91,379.72 645.11,379.64 645.30,379.56 645.50,379.49 645.69,379.41 645.88,379.33 646.08,379.25 646.27,379.17 646.47,379.10 646.66,379.02 646.86,378.94 647.05,378.86 647.25,378.79 647.44,378.71 647.64,378.64 647.83,378.56 648.03,378.48 648.22,378.41 648.42,378.33 648.61,378.26 648.81,378.18 649.00,378.11 649.19,378.03 649.39,377.96 649.58,377.88 649.78,377.81 649.97,377.73 650.17,377.66 650.36,377.58 650.56,377.51 650.75,377.43 650.95,377.36 651.14,377.29 651.34,377.21 651.53,377.14 651.73,377.07 651.92,376.99 652.12,376.92 652.31,376.85 652.50,376.77 652.70,376.70 652.89,376.63 653.09,376.56 653.28,376.49 653.48,376.41 653.67,376.34 653.87,376.27 654.06,376.20 654.26,376.13 654.45,376.06 654.65,375.99 654.84,375.92 655.04,375.85 655.23,375.78 655.43,375.71 655.62,375.64 655.81,375.57 656.01,375.50 656.20,375.43 656.40,375.36 656.59,375.29 656.79,375.23 656.98,375.16 657.18,375.09 657.37,375.02 657.57,374.96 657.76,374.89 657.96,374.82 658.15,374.75 658.35,374.69 658.54,374.62 658.74,374.56 658.93,374.49 659.13,374.42 659.32,374.36 659.51,374.29 659.71,374.23 659.90,374.16 660.10,374.10 660.29,374.03 660.49,373.97 660.68,373.91 660.88,373.84 661.07,373.78 661.27,373.71 661.46,373.65 661.66,373.59 661.85,373.52 662.05,373.46 662.24,373.40 662.44,373.34 662.63,373.27 662.82,373.21 663.02,373.15 663.21,373.09 663.41,373.03 663.60,372.97 663.80,372.91 663.99,372.84 664.19,372.78 664.38,372.72 664.58,372.66 664.77,372.60 664.97,372.54 665.16,372.48 665.36,372.43 665.55,372.37 665.75,372.31 665.94,372.25 666.13,372.19 666.33,372.13 666.52,372.07 666.72,372.02 666.91,371.96 667.11,371.90 667.30,371.84 667.50,371.79 667.69,371.73 667.89,371.68 668.08,371.62 668.28,371.56 668.47,371.51 668.67,371.45 668.86,371.40 669.06,371.34 669.25,371.29 669.44,371.23 669.64,371.18 669.83,371.12 670.03,371.07 670.22,371.02 670.42,370.96 670.61,370.91 670.81,370.86 671.00,370.80 671.20,370.75 671.39,370.70 671.59,370.65 671.78,370.59 671.98,370.54 672.17,370.49 672.37,370.44 672.56,370.39 672.75,370.34 672.95,370.29 673.14,370.24 673.34,370.19 673.53,370.14 673.73,370.09 673.92,370.04 674.12,369.99 674.31,369.94 674.51,369.89 674.70,369.84 674.90,369.79 675.09,369.74 675.29,369.69 675.48,369.65 675.68,369.60 675.87,369.55 676.06,369.50 676.26,369.46 676.45,369.41 676.65,369.36 676.84,369.31 677.04,369.27 677.23,369.22 677.43,369.18 677.62,369.13 677.82,369.09 678.01,369.04 678.21,369.00 678.40,368.95 678.60,368.91 678.79,368.86 678.99,368.82 679.18,368.78 679.38,368.73 679.57,368.69 679.76,368.65 679.96,368.60 680.15,368.56 680.35,368.52 680.54,368.48 680.74,368.44 680.93,368.39 681.13,368.35 681.32,368.31 681.52,368.27 681.71,368.23 681.91,368.19 682.10,368.15 682.30,368.11 682.49,368.07 682.69,368.03 682.88,367.99 683.07,367.95 683.27,367.91 683.46,367.87 683.66,367.84 683.85,367.80 684.05,367.76 684.24,367.72 684.44,367.69 684.63,367.65 684.83,367.61 685.02,367.58 685.22,367.54 685.41,367.51 685.61,367.47 685.80,367.43 686.00,367.40 686.19,367.36 686.38,367.33 686.58,367.29 686.77,367.26 686.97,367.23 687.16,367.19 687.36,367.16 687.55,367.13 687.75,367.09 687.94,367.06 688.14,367.03 688.33,367.00 688.53,366.96 688.72,366.93 688.92,366.90 689.11,366.87 689.31,366.84 689.50,366.81 689.69,366.78 689.89,366.75 690.08,366.72 690.28,366.69 690.47,366.66 690.67,366.63 690.86,366.60 691.06,366.57 691.25,366.54 691.45,366.51 691.64,366.48 691.84,366.46 692.03,366.43 692.23,366.40 692.42,366.37 692.62,366.35 692.81,366.32 693.00,366.29 693.20,366.27 693.39,366.24 693.59,366.22 693.78,366.19 693.98,366.17 694.17,366.14 694.37,366.12 694.56,366.09 694.76,366.07 694.95,366.05 695.15,366.02 695.34,366.00 695.54,365.97 695.73,365.95 695.93,365.93 696.12,365.91 696.31,365.89 696.51,365.86 696.70,365.84 696.90,365.82 697.09,365.80 697.29,365.78 697.48,365.76 697.68,365.74 697.87,365.72 698.07,365.70 698.26,365.68 698.46,365.66 698.65,365.64 698.85,365.62 699.04,365.60 699.24,365.58 699.43,365.56 699.63,365.55 699.82,365.53 700.01,365.51 700.21,365.49 700.40,365.48 700.60,365.46 700.79,365.44 700.99,365.43 701.18,365.41 701.38,365.39 701.57,365.38 701.77,365.36 701.96,365.35 702.16,365.34 702.35,365.32 702.55,365.31 702.74,365.29 702.94,365.28 703.13,365.27 703.32,365.25 703.52,365.24 703.71,365.23 703.91,365.21 704.10,365.20 704.30,365.19 704.49,365.18 704.69,365.17 704.88,365.15 705.08,365.14 705.27,365.13 705.47,365.12 705.66,365.11 705.86,365.10 706.05,365.09 706.25,365.08 706.44,365.07 706.63,365.06 706.83,365.05 707.02,365.05 707.22,365.04 707.41,365.03 707.61,365.02 707.80,365.01 708.00,365.01 708.19,365.00 708.39,364.99 708.58,364.99 708.78,364.98 708.97,364.98 709.17,364.97 709.36,364.97 709.56,364.96 709.75,364.96 709.94,364.95 710.14,364.95 710.33,364.94 710.53,364.94 710.72,364.94 710.92,364.93 711.11,364.93 711.31,364.93 711.50,364.92 711.70,364.92 711.89,364.92 712.09,364.92 712.28,364.92 712.48,364.92 712.67,364.91 712.87,364.91 713.06,364.91 713.25,364.91 713.45,364.91 713.64,364.91 713.84,364.91 714.03,364.91 714.23,364.92 714.42,364.92 714.62,364.92 714.81,364.92 715.01,364.92 715.20,364.92 715.40,364.93 715.59,364.93 715.79,364.93 715.98,364.93 716.18,364.94 716.37,364.94 716.56,364.95 716.76,364.95 716.95,364.95 717.15,364.96 717.34,364.96 717.54,364.97 717.73,364.98 717.93,364.98 718.12,364.99 718.32,364.99 718.51,365.00 718.71,365.01 718.90,365.01 719.10,365.02 719.29,365.03 719.49,365.04 719.68,365.04 719.88,365.05 720.07,365.06 720.26,365.07 720.46,365.08 720.65,365.09 720.85,365.10 721.04,365.11 721.24,365.12 721.43,365.13 721.63,365.14 721.82,365.15 722.02,365.16 722.21,365.17 722.41,365.18 722.60,365.20 722.80,365.21 722.99,365.22 723.19,365.23 723.38,365.25 723.57,365.26 723.77,365.27 723.96,365.29 724.16,365.30 724.35,365.31 724.55,365.33 724.74,365.34 724.94,365.36 725.13,365.37 725.33,365.39 725.52,365.40 725.72,365.42 725.91,365.43 726.11,365.45 726.30,365.47 726.50,365.48 726.69,365.50 726.88,365.52 727.08,365.53 727.27,365.55 727.47,365.57 727.66,365.59 727.86,365.61 728.05,365.63 728.25,365.64 728.44,365.66 728.64,365.68 728.83,365.70 729.03,365.72 729.22,365.74 729.42,365.76 729.61,365.78 729.81,365.80 730.00,365.83 730.19,365.85 730.39,365.87 730.58,365.89 730.78,365.91 730.97,365.94 731.17,365.96 731.36,365.98 731.56,366.00 731.75,366.03 731.95,366.05 732.14,366.08 732.34,366.10 732.53,366.13 732.73,366.15 732.92,366.17 733.12,366.20 733.31,366.23 733.50,366.25 733.70,366.28 733.89,366.30 734.09,366.33 734.28,366.35 734.48,366.38 734.67,366.41 734.87,366.44 735.06,366.46 735.26,366.49 735.45,366.52 735.65,366.55 735.84,366.57 736.04,366.60 736.23,366.63 736.43,366.66 736.62,366.69 736.81,366.72 737.01,366.75 737.20,366.78 737.40,366.81 737.59,366.84 737.79,366.87 737.98,366.90 738.18,366.93 738.37,366.97 738.57,367.00 738.76,367.03 738.96,367.06 739.15,367.09 739.35,367.13 739.54,367.16 739.74,367.19 739.93,367.23 740.12,367.26 740.32,367.30 740.51,367.33 740.71,367.36 740.90,367.40 741.10,367.43 741.29,367.47 741.49,367.50 741.68,367.54 741.88,367.58 742.07,367.61 742.27,367.65 742.46,367.69 742.66,367.72 742.85,367.76 743.05,367.80 743.24,367.83 743.44,367.87 743.63,367.91 743.82,367.95 744.02,367.98 744.21,368.02 744.41,368.06 744.60,368.10 744.80,368.14 744.99,368.18 745.19,368.22 745.38,368.26 745.58,368.30 745.77,368.34 745.97,368.38 746.16,368.42 746.36,368.46 746.55,368.50 746.75,368.54 746.94,368.58 747.13,368.62 747.33,368.67 747.52,368.71 747.72,368.75 747.91,368.79 748.11,368.83 748.30,368.88 748.50,368.92 748.69,368.96 748.89,369.01 749.08,369.05 749.28,369.10 749.47,369.14 749.67,369.19 749.86,369.23 750.06,369.28 750.25,369.32 750.44,369.37 750.64,369.41 750.83,369.46 751.03,369.50 751.22,369.55 751.42,369.60 751.61,369.64 751.81,369.69 752.00,369.74 752.20,369.78 752.39,369.83 752.59,369.88 752.78,369.93 752.98,369.98 753.17,370.03 753.37,370.07 753.56,370.12 753.75,370.17 753.95,370.22 754.14,370.27 754.34,370.32 754.53,370.37 754.73,370.42 754.92,370.47 755.12,370.52 755.31,370.57 755.51,370.62 755.70,370.67 755.90,370.72 756.09,370.77 756.29,370.83 756.48,370.88 756.68,370.93 756.87,370.98 757.06,371.04 757.26,371.09 757.45,371.14 757.65,371.19 757.84,371.25 758.04,371.30 758.23,371.35 758.43,371.41 758.62,371.46 758.82,371.52 759.01,371.57 759.21,371.63 759.40,371.68 759.60,371.74 759.79,371.79 759.99,371.85 760.18,371.90 760.38,371.96 760.57,372.02 760.76,372.07 760.96,372.13 761.15,372.18 761.35,372.24 761.54,372.30 761.74,372.36 761.93,372.41 762.13,372.47 762.32,372.53 762.52,372.59 762.71,372.64 762.91,372.70 763.10,372.76 763.30,372.82 763.49,372.88 763.69,372.94 763.88,373.00 764.07,373.06 764.27,373.12 764.46,373.18 764.66,373.23 764.85,373.30 765.05,373.36 765.24,373.42 765.44,373.48 765.63,373.54 765.83,373.60 766.02,373.66 766.22,373.73 766.41,373.79 766.61,373.85 766.80,373.91 767.00,373.97 767.19,374.03 767.38,374.10 767.58,374.16 767.77,374.22 767.97,374.29 768.16,374.35 768.36,374.41 768.55,374.47 768.75,374.54 768.94,374.60 769.14,374.67 769.33,374.73 769.53,374.79 769.72,374.86 769.92,374.92 770.11,374.99 770.31,375.05 770.50,375.12 770.69,375.18 770.89,375.25 771.08,375.31 771.28,375.38 771.47,375.45 771.67,375.51 771.86,375.58 772.06,375.64 772.25,375.71 772.45,375.78 772.64,375.84 772.84,375.91 773.03,375.98 773.23,376.05 773.42,376.11 773.62,376.18 773.81,376.25 774.00,376.32 774.20,376.38 774.39,376.45 774.59,376.52 774.78,376.59 774.98,376.66 775.17,376.73 775.37,376.80 775.56,376.87 775.76,376.93 775.95,377.00 776.15,377.07 776.34,377.14 776.54,377.21 776.73,377.28 776.93,377.35 777.12,377.42 777.31,377.49 777.51,377.56 777.70,377.63 777.90,377.70 778.09,377.77 778.29,377.85 778.48,377.92 778.68,377.99 778.87,378.06 779.07,378.13 779.26,378.20 779.46,378.27 779.65,378.35 779.85,378.42 780.04,378.49 780.24,378.56 780.43,378.64 780.62,378.71 780.82,378.78 781.01,378.85 781.21,378.93 781.40,379.00 781.60,379.07 781.79,379.15 781.99,379.22 782.18,379.29 782.38,379.37 782.57,379.44 782.77,379.51 782.96,379.59 783.16,379.66 783.35,379.74 783.55,379.81 783.74,379.89 783.94,379.96 784.13,380.03 784.32,380.11 784.52,380.18 784.71,380.26 784.91,380.33 785.10,380.41 785.30,380.49 785.49,380.56 785.69,380.64 785.88,380.71 786.08,380.79 786.27,380.86 786.47,380.94 786.66,381.01 786.86,381.09 787.05,381.17 787.25,381.24 787.44,381.32 787.63,381.40 787.83,381.47 788.02,381.55 788.22,381.63 788.41,381.70 788.61,381.78 788.80,381.86 789.00,381.93 789.19,382.01 789.39,382.09 789.58,382.17 789.78,382.24 789.97,382.32 790.17,382.40 790.36,382.47 790.56,382.55 790.75,382.63 790.94,382.71 791.14,382.78 791.33,382.86 791.53,382.94 791.72,383.02 791.92,383.10 792.11,383.17 792.31,383.25 792.50,383.33 792.70,383.41 792.89,383.49 793.09,383.57 793.28,383.65 793.48,383.72 793.67,383.80 793.87,383.88 794.06,383.96 794.25,384.04 794.45,384.12 794.64,384.20 794.84,384.28 795.03,384.35 795.23,384.43 795.42,384.51 795.62,384.59 795.81,384.67 796.01,384.75 796.20,384.83 796.40,384.90 796.59,384.98 796.79,385.06 796.98,385.14 797.18,385.22 797.37,385.30 797.56,385.38 797.76,385.46 797.95,385.54 798.15,385.62 798.34,385.70 798.54,385.77 798.73,385.85 798.93,385.93 799.12,386.01 799.32,386.09 799.51,386.17 799.71,386.25 799.90,386.33 800.10,386.41 800.29,386.48 800.49,386.56 800.68,386.64 800.88,386.72 801.07,386.80 801.26,386.88 801.46,386.96 801.65,387.04 801.85,387.11 802.04,387.19 802.24,387.27 802.43,387.35 802.63,387.43 802.82,387.51 803.02,387.59 803.21,387.66 803.41,387.74 803.60,387.82 803.80,387.90 803.99,387.98 804.19,388.06 804.38,388.13 804.57,388.21 804.77,388.29 804.96,388.37 805.16,388.45 805.35,388.52 805.55,388.60 805.74,388.68 805.94,388.76 806.13,388.83 806.33,388.91 806.52,388.99 806.72,389.06 806.91,389.14 807.11,389.22 807.30,389.29 807.50,389.37 807.69,389.45 807.88,389.52 808.08,389.60 808.27,389.68 808.47,389.75 808.66,389.83 808.86,389.90 809.05,389.98 809.25,390.05 809.44,390.13 809.64,390.20 809.83,390.28 810.03,390.35 810.22,390.43 810.42,390.50 810.61,390.57 810.81,390.65 811.00,390.72 811.19,390.79 811.39,390.87 811.58,390.94 811.78,391.01 811.97,391.09 812.17,391.16 812.36,391.23 812.56,391.30 812.75,391.37 812.95,391.44 813.14,391.52 813.34,391.59 813.53,391.66 813.73,391.73 813.92,391.80 814.12,391.87 814.31,391.94 814.50,392.00 814.70,392.07 814.89,392.14 815.09,392.21 815.28,392.28 815.48,392.35 815.67,392.41 815.87,392.48 816.06,392.55 816.26,392.61 816.45,392.68 816.65,392.74 816.84,392.81 817.04,392.87 817.23,392.94 817.43,393.00 817.62,393.07 817.81,393.13 818.01,393.19 818.20,393.25 818.40,393.32 818.59,393.38 818.79,393.44 818.98,393.50 819.18,393.56 819.37,393.62 819.57,393.68 819.76,393.74 819.96,393.79 820.15,393.85 820.35,393.91 820.54,393.97 820.74,394.02 820.93,394.08 821.13,394.13 821.32,394.19 821.51,394.24 821.71,394.29 821.90,394.35 822.10,394.40 822.29,394.45 822.49,394.50 822.68,394.55 822.88,394.60 823.07,394.65 823.27,394.70 823.46,394.75 823.66,394.79 823.85,394.84 824.05,394.89 824.24,394.93 824.44,394.98 824.63,395.02 824.82,395.06 825.02,395.10 825.21,395.15 825.41,395.19 825.60,395.23 825.80,395.27 825.99,395.30 826.19,395.34 826.38,395.38 826.58,395.41 826.77,395.45 826.97,395.48 827.16,395.52 827.36,395.55 827.55,395.58 827.75,395.61 827.94,395.64 828.13,395.67 828.33,395.70 828.52,395.73 828.72,395.76 828.91,395.78 829.11,395.81 829.30,395.83 829.50,395.85 829.69,395.87 829.89,395.90 830.08,395.92 830.28,395.93 830.47,395.95 830.67,395.97 830.86,395.99 831.06,396.00 831.25,396.02 831.44,396.03 831.64,396.04 831.83,396.05 832.03,396.06 832.22,396.07 832.42,396.08 832.61,396.09 832.81,396.09 833.00,396.10 833.20,396.10 833.39,396.11 833.59,396.11 833.78,396.11 833.98,396.11 834.17,396.11 834.37,396.11 834.56,396.10 834.75,396.10 834.95,396.09 835.14,396.09 835.34,396.08 835.53,396.07 835.73,396.07 835.92,396.06 836.12,396.04 836.31,396.03 836.51,396.02 836.70,396.01 836.90,395.99 837.09,395.97 837.29,395.96 837.48,395.94 837.68,395.92 837.87,395.90 838.06,395.88 838.26,395.86 838.45,395.84 838.65,395.81 838.84,395.79 839.04,395.76 839.23,395.74 839.43,395.71 839.62,395.68 839.82,395.66 840.01,395.63 840.21,395.59 840.40,395.56 840.60,395.53 840.79,395.50 840.99,395.46 841.18,395.43 841.38,395.39 841.57,395.36 841.76,395.32 841.96,395.28 842.15,395.24 842.35,395.20 842.54,395.16 842.74,395.12 842.93,395.08 843.13,395.04 843.32,394.99 843.52,394.95 843.71,394.90 843.91,394.86 844.10,394.81 844.30,394.76 844.49,394.72 844.69,394.67 844.88,394.62 845.07,394.57 845.27,394.52 845.46,394.47 845.66,394.42 845.85,394.37 846.05,394.31 846.24,394.26 846.44,394.21 846.63,394.15 846.83,394.10 847.02,394.04 847.22,393.99 847.41,393.93 847.61,393.87 847.80,393.82 848.00,393.76 848.19,393.70 848.38,393.64 848.58,393.58 848.77,393.52 848.97,393.46 849.16,393.40 849.36,393.34 849.55,393.28 849.75,393.21 849.94,393.15 850.14,393.09 850.33,393.02 850.53,392.96 850.72,392.90 850.92,392.83 851.11,392.76 851.31,392.70 851.50,392.63 851.69,392.57 851.89,392.50 852.08,392.43 852.28,392.37 852.47,392.30 852.67,392.23 852.86,392.16 853.06,392.09 853.25,392.02 853.45,391.96 853.64,391.89 853.84,391.82 854.03,391.75 854.23,391.68 854.42,391.61 854.62,391.54 854.81,391.46 855.00,391.39 855.20,391.32 855.39,391.25 855.59,391.18 855.78,391.11 855.98,391.03 856.17,390.96 856.37,390.89 856.56,390.81 856.76,390.74 856.95,390.67 857.15,390.59 857.34,390.52 857.54,390.45 857.73,390.37 857.93,390.30 858.12,390.22 858.31,390.15 858.51,390.07 858.70,390.00 858.90,389.92 859.09,389.85 859.29,389.77 859.48,389.69 859.68,389.62 859.87,389.54 860.07,389.47 860.26,389.39 860.46,389.31 860.65,389.24 860.85,389.16 861.04,389.08 861.24,389.01 861.43,388.93 861.63,388.85 861.82,388.77 862.01,388.70 862.21,388.62 862.40,388.54 862.60,388.46 862.79,388.39 862.99,388.31 863.18,388.23 863.38,388.15 863.57,388.07 863.77,388.00 863.96,387.92 864.16,387.84 864.35,387.76 864.55,387.68 864.74,387.61 864.94,387.53 865.13,387.45 865.32,387.37 865.52,387.29 865.71,387.21 865.91,387.13 866.10,387.06 866.30,386.98 866.49,386.90 866.69,386.82 866.88,386.74 867.08,386.66 867.27,386.58 867.47,386.50 867.66,386.42 867.86,386.35 868.05,386.27 868.25,386.19 868.44,386.11 868.63,386.03 868.83,385.95 869.02,385.87 869.22,385.79 869.41,385.72 869.61,385.64 869.80,385.56 870.00,385.48 870.19,385.40 870.39,385.32 870.58,385.24 870.78,385.16 870.97,385.08 871.17,385.00 871.36,384.92 871.56,384.84 871.75,384.76 871.94,384.68 872.14,384.61 872.33,384.53 872.53,384.45 872.72,384.37 872.92,384.29 873.11,384.21 873.31,384.13 873.50,384.05 873.70,383.98 873.89,383.90 874.09,383.82 874.28,383.74 874.48,383.66 874.67,383.58 874.87,383.50 875.06,383.42 875.25,383.35 875.45,383.27 875.64,383.19 875.84,383.11 876.03,383.03 876.23,382.96 876.42,382.88" fill="none" stroke="#2ca02c" stroke-width="2.2"/>
<line x1="82" y1="30" x2="110" y2="30" stroke="#2ca02c" stroke-width="3"/>
<text x="118" y="35" class="legend">position error</text>
</svg>
