ply
format ascii 1.0
element vertex 161
property float x
property float y
property float z
end_header
-42.08000 -17.73000 1.90000
-42.83000 -17.73000 1.90000
-43.58000 -17.73000 1.90000
-44.33000 -17.73000 1.90000
-44.33000 -17.73000 1.90000
-45.08000 -17.73000 1.90000
-45.08000 -17.73000 1.90000
-45.83000 -17.73000 1.90000
-45.83000 -17.73000 1.90000
-45.83000 -17.73000 1.90000
-46.58000 -17.73000 1.90000
-46.58000 -17.73000 1.90000
-47.33000 -17.73000 1.90000
-47.33000 -17.73000 1.90000
-47.33000 -17.73000 1.90000
-48.08000 -17.73000 1.90000
-48.08000 -17.73000 1.90000
-48.08000 -17.73000 1.90000
-48.08000 -17.73000 1.90000
-48.08000 -17.73000 1.90000
-48.83000 -17.73000 1.90000
-48.83000 -17.73000 1.90000
-48.83000 -17.73000 1.90000
-48.83000 -17.73000 1.90000
-49.58000 -17.73000 1.90000
-49.58000 -17.73000 1.90000
-49.58000 -17.73000 1.90000
-49.58000 -17.73000 1.90000
-49.58000 -17.73000 1.90000
-50.33000 -17.73000 1.90000
-50.33000 -17.73000 1.90000
-50.33000 -17.73000 1.90000
-50.33000 -17.73000 1.90000
-50.33000 -17.73000 1.90000
-51.08000 -17.73000 1.90000
-51.08000 -17.73000 1.90000
-51.08000 -17.73000 1.90000
-51.08000 -17.73000 1.90000
-51.08000 -17.73000 1.90000
-51.83000 -17.73000 1.90000
-51.83000 -17.73000 1.90000
-51.83000 -17.73000 1.90000
-51.83000 -17.73000 1.90000
-52.58000 -17.73000 1.90000
-52.58000 -17.73000 1.90000
-52.58000 -17.73000 1.90000
-52.58000 -17.73000 1.90000
-52.58000 -17.73000 1.90000
-53.33000 -17.73000 1.90000
-53.33000 -17.73000 1.90000
-53.33000 -17.73000 1.90000
-54.08000 -17.73000 1.90000
-54.08000 -17.73000 1.90000
-54.83000 -17.73000 1.90000
-54.83000 -17.73000 1.90000
-54.83000 -17.73000 1.90000
-55.58000 -17.73000 1.90000
-55.58000 -17.73000 1.90000
-56.33000 -17.73000 1.90000
-56.33000 -18.48000 1.90000
-56.33000 -18.48000 1.90000
-56.33000 -19.23000 1.90000
-56.33000 -19.23000 1.90000
-56.33000 -19.23000 1.90000
-56.33000 -19.23000 1.90000
-57.08000 -19.23000 1.90000
-57.83000 -19.23000 1.90000
-58.58000 -19.23000 1.90000
-58.58000 -19.98000 1.90000
-58.58000 -19.98000 1.90000
-58.58000 -20.73000 1.90000
-58.58000 -20.73000 1.90000
-58.58000 -20.73000 1.90000
-58.58000 -21.48000 1.90000
-58.58000 -21.48000 1.90000
-60.83000 -21.48000 1.90000
-63.08000 -22.23000 1.90000
-63.08000 -22.98000 1.90000
-63.08000 -22.98000 1.90000
-63.08000 -25.23000 1.90000
-62.33000 -25.23000 1.90000
-62.33000 -25.98000 1.90000
-62.33000 -25.98000 1.90000
-53.33000 -23.73000 1.90000
-53.33000 -23.73000 1.90000
-53.33000 -23.73000 1.90000
-52.58000 -23.73000 1.90000
-52.58000 -23.73000 1.90000
-52.58000 -23.73000 1.90000
-52.58000 -23.73000 1.90000
-51.83000 -23.73000 1.90000
-51.83000 -23.73000 1.90000
-51.83000 -23.73000 1.90000
-51.83000 -23.73000 1.90000
-51.83000 -23.73000 1.90000
-51.83000 -23.73000 1.90000
-51.83000 -23.73000 1.90000
-51.83000 -23.73000 1.90000
-51.08000 -23.73000 1.90000
-51.08000 -23.73000 1.90000
-51.08000 -23.73000 1.90000
-51.08000 -23.73000 1.90000
-51.08000 -23.73000 1.90000
-51.08000 -23.73000 1.90000
-51.08000 -23.73000 1.90000
-51.08000 -23.73000 1.90000
-51.08000 -23.73000 1.90000
-51.08000 -23.73000 1.90000
-51.08000 -23.73000 1.90000
-51.08000 -23.73000 1.90000
-51.08000 -23.73000 1.90000
-50.33000 -23.73000 1.90000
-50.33000 -23.73000 1.90000
-50.33000 -23.73000 1.90000
-50.33000 -23.73000 1.90000
-50.33000 -23.73000 1.90000
-50.33000 -23.73000 1.90000
-50.33000 -23.73000 1.90000
-50.33000 -23.73000 1.90000
-50.33000 -23.73000 1.90000
-50.33000 -23.73000 1.90000
-50.33000 -23.73000 1.90000
-50.33000 -23.73000 1.90000
-50.33000 -23.73000 1.90000
-50.33000 -23.73000 1.90000
-50.33000 -23.73000 1.90000
-49.58000 -23.73000 1.90000
-49.58000 -23.73000 1.90000
-49.58000 -23.73000 1.90000
-49.58000 -23.73000 1.90000
-49.58000 -23.73000 1.90000
-49.58000 -23.73000 1.90000
-49.58000 -23.73000 1.90000
-49.58000 -23.73000 1.90000
-49.58000 -23.73000 1.90000
-49.58000 -23.73000 1.90000
-49.58000 -23.73000 1.90000
-49.58000 -23.73000 1.90000
-49.58000 -23.73000 1.90000
-48.83000 -23.73000 1.90000
-48.83000 -23.73000 1.90000
-48.83000 -23.73000 1.90000
-48.83000 -23.73000 1.90000
-48.83000 -23.73000 1.90000
-48.83000 -23.73000 1.90000
-48.83000 -23.73000 1.90000
-48.83000 -23.73000 1.90000
-48.08000 -23.73000 1.90000
-48.08000 -23.73000 1.90000
-48.08000 -23.73000 1.90000
-48.08000 -23.73000 1.90000
-47.33000 -23.73000 1.90000
-47.33000 -23.73000 1.90000
-47.33000 -23.73000 1.90000
-46.58000 -23.73000 1.90000
-46.58000 -23.73000 1.90000
-45.83000 -23.73000 1.90000
-45.08000 -23.73000 1.90000
-43.58000 -23.73000 1.90000
-42.08000 -23.73000 1.90000
-39.83000 -23.73000 1.90000
