ply
format ascii 1.0
element vertex 155
property float x
property float y
property float z
end_header
-25.58000 -18.48000 1.90000
-27.08000 -18.48000 1.90000
-28.58000 -18.48000 1.90000
-29.33000 -18.48000 1.90000
-30.08000 -18.48000 1.90000
-30.83000 -18.48000 1.90000
-30.83000 -18.48000 1.90000
-30.83000 -17.73000 1.90000
-30.83000 -17.73000 1.90000
-30.83000 -16.98000 1.90000
-30.83000 -16.98000 1.90000
-30.83000 -16.23000 1.90000
-33.83000 -17.73000 1.90000
-33.83000 -17.73000 1.90000
-34.58000 -17.73000 1.90000
-34.58000 -17.73000 1.90000
-34.58000 -17.73000 1.90000
-35.33000 -17.73000 1.90000
-35.33000 -17.73000 1.90000
-35.33000 -17.73000 1.90000
-35.33000 -17.73000 1.90000
-35.33000 -16.98000 1.90000
-35.33000 -16.98000 1.90000
-35.33000 -16.23000 1.90000
-36.08000 -12.48000 1.90000
-36.08000 -12.48000 1.90000
-36.83000 -12.48000 1.90000
-36.83000 -12.48000 1.90000
-37.58000 -12.48000 1.90000
-37.58000 -12.48000 1.90000
-38.33000 -12.48000 1.90000
-38.33000 -12.48000 1.90000
-39.08000 -12.48000 1.90000
-39.08000 -12.48000 1.90000
-39.08000 -12.48000 1.90000
-39.83000 -12.48000 1.90000
-39.83000 -12.48000 1.90000
-40.58000 -12.48000 1.90000
-40.58000 -12.48000 1.90000
-41.33000 -12.48000 1.90000
-41.33000 -12.48000 1.90000
-42.08000 -12.48000 1.90000
-42.08000 -12.48000 1.90000
-42.83000 -12.48000 1.90000
-42.83000 -12.48000 1.90000
-42.08000 -16.23000 1.90000
-42.08000 -16.98000 1.90000
-42.08000 -16.98000 1.90000
-42.08000 -17.73000 1.90000
-42.08000 -17.73000 1.90000
-42.08000 -17.73000 1.90000
-42.08000 -17.73000 1.90000
-42.08000 -17.73000 1.90000
-42.83000 -17.73000 1.90000
-42.83000 -17.73000 1.90000
-43.58000 -17.73000 1.90000
-43.58000 -17.73000 1.90000
-43.58000 -17.73000 1.90000
-44.33000 -17.73000 1.90000
-44.33000 -17.73000 1.90000
-45.08000 -17.73000 1.90000
-45.08000 -17.73000 1.90000
-45.83000 -17.73000 1.90000
-46.58000 -17.73000 1.90000
-47.33000 -17.73000 1.90000
-48.08000 -17.73000 1.90000
-48.83000 -17.73000 1.90000
-49.58000 -17.73000 1.90000
-51.08000 -17.73000 1.90000
-51.83000 -17.73000 1.90000
-49.58000 -23.73000 1.90000
-47.33000 -23.73000 1.90000
-45.83000 -23.73000 1.90000
-44.33000 -23.73000 1.90000
-43.58000 -23.73000 1.90000
-42.83000 -23.73000 1.90000
-42.83000 -23.73000 1.90000
-42.08000 -23.73000 1.90000
-42.08000 -23.73000 1.90000
-42.08000 -23.73000 1.90000
-41.33000 -23.73000 1.90000
-41.33000 -23.73000 1.90000
-41.33000 -23.73000 1.90000
-41.33000 -23.73000 1.90000
-40.58000 -23.73000 1.90000
-40.58000 -23.73000 1.90000
-40.58000 -23.73000 1.90000
-40.58000 -23.73000 1.90000
-40.58000 -23.73000 1.90000
-40.58000 -23.73000 1.90000
-40.58000 -23.73000 1.90000
-40.58000 -23.73000 1.90000
-39.83000 -23.73000 1.90000
-39.83000 -23.73000 1.90000
-39.83000 -23.73000 1.90000
-39.83000 -23.73000 1.90000
-39.83000 -23.73000 1.90000
-39.83000 -23.73000 1.90000
-39.83000 -23.73000 1.90000
-39.83000 -23.73000 1.90000
-39.83000 -23.73000 1.90000
-39.83000 -23.73000 1.90000
-39.83000 -23.73000 1.90000
-39.83000 -23.73000 1.90000
-39.83000 -23.73000 1.90000
-39.08000 -23.73000 1.90000
-39.08000 -23.73000 1.90000
-39.08000 -23.73000 1.90000
-39.08000 -23.73000 1.90000
-39.08000 -23.73000 1.90000
-39.08000 -23.73000 1.90000
-39.08000 -23.73000 1.90000
-39.08000 -23.73000 1.90000
-39.08000 -23.73000 1.90000
-39.08000 -23.73000 1.90000
-39.08000 -23.73000 1.90000
-39.08000 -23.73000 1.90000
-39.08000 -23.73000 1.90000
-39.08000 -23.73000 1.90000
-39.08000 -23.73000 1.90000
-38.33000 -23.73000 1.90000
-38.33000 -23.73000 1.90000
-38.33000 -23.73000 1.90000
-38.33000 -23.73000 1.90000
-38.33000 -23.73000 1.90000
-38.33000 -23.73000 1.90000
-38.33000 -23.73000 1.90000
-38.33000 -23.73000 1.90000
-38.33000 -23.73000 1.90000
-38.33000 -23.73000 1.90000
-38.33000 -23.73000 1.90000
-38.33000 -23.73000 1.90000
-38.33000 -23.73000 1.90000
-37.58000 -23.73000 1.90000
-37.58000 -23.73000 1.90000
-37.58000 -23.73000 1.90000
-37.58000 -23.73000 1.90000
-37.58000 -23.73000 1.90000
-37.58000 -23.73000 1.90000
-37.58000 -23.73000 1.90000
-37.58000 -23.73000 1.90000
-36.83000 -23.73000 1.90000
-36.83000 -23.73000 1.90000
-36.83000 -23.73000 1.90000
-36.83000 -23.73000 1.90000
-36.08000 -23.73000 1.90000
-36.08000 -23.73000 1.90000
-36.08000 -23.73000 1.90000
-35.33000 -23.73000 1.90000
-35.33000 -23.73000 1.90000
-34.58000 -23.73000 1.90000
-33.83000 -23.73000 1.90000
-32.33000 -23.73000 1.90000
-30.83000 -23.73000 1.90000
-28.58000 -23.73000 1.90000
