ply
format ascii 1.0
element vertex 168
property float x
property float y
property float z
end_header
-21.08000 -22.23000 1.90000
-21.08000 -21.48000 1.90000
-21.08000 -21.48000 1.90000
-21.08000 -20.73000 1.90000
-21.08000 -19.98000 1.90000
-21.08000 -19.98000 1.90000
-21.08000 -19.23000 1.90000
-21.08000 -19.23000 1.90000
-22.58000 -18.48000 1.90000
-24.08000 -18.48000 1.90000
-24.83000 -18.48000 1.90000
-25.58000 -18.48000 1.90000
-26.33000 -18.48000 1.90000
-27.83000 -18.48000 1.90000
-27.83000 -18.48000 1.90000
-28.58000 -18.48000 1.90000
-29.33000 -18.48000 1.90000
-29.33000 -18.48000 1.90000
-30.08000 -18.48000 1.90000
-30.08000 -18.48000 1.90000
-30.08000 -18.48000 1.90000
-30.83000 -18.48000 1.90000
-30.83000 -18.48000 1.90000
-30.83000 -18.48000 1.90000
-30.83000 -18.48000 1.90000
-30.83000 -17.73000 1.90000
-30.83000 -17.73000 1.90000
-30.83000 -17.73000 1.90000
-30.83000 -16.98000 1.90000
-30.83000 -16.98000 1.90000
-30.83000 -16.23000 1.90000
-30.83000 -15.48000 1.90000
-30.83000 -15.48000 1.90000
-30.83000 -13.98000 1.90000
-30.83000 -13.23000 1.90000
-30.83000 -12.48000 1.90000
-30.83000 -11.73000 1.90000
-30.83000 -10.23000 1.90000
-33.83000 -17.73000 1.90000
-33.83000 -17.73000 1.90000
-33.83000 -17.73000 1.90000
-33.83000 -17.73000 1.90000
-33.83000 -17.73000 1.90000
-34.58000 -17.73000 1.90000
-34.58000 -17.73000 1.90000
-34.58000 -17.73000 1.90000
-34.58000 -17.73000 1.90000
-34.58000 -17.73000 1.90000
-35.33000 -17.73000 1.90000
-35.33000 -17.73000 1.90000
-35.33000 -17.73000 1.90000
-35.33000 -17.73000 1.90000
-35.33000 -17.73000 1.90000
-37.58000 -12.48000 1.90000
-37.58000 -12.48000 1.90000
-38.33000 -12.48000 1.90000
-38.33000 -12.48000 1.90000
-39.08000 -12.48000 1.90000
-39.08000 -12.48000 1.90000
-39.83000 -12.48000 1.90000
-39.83000 -12.48000 1.90000
-40.58000 -12.48000 1.90000
-41.33000 -12.48000 1.90000
-41.33000 -12.48000 1.90000
-42.08000 -12.48000 1.90000
-42.83000 -12.48000 1.90000
-42.83000 -12.48000 1.90000
-43.58000 -12.48000 1.90000
-44.33000 -12.48000 1.90000
-42.08000 -16.23000 1.90000
-42.08000 -16.23000 1.90000
-42.08000 -16.98000 1.90000
-42.08000 -17.73000 1.90000
-42.08000 -17.73000 1.90000
-42.08000 -17.73000 1.90000
-42.83000 -17.73000 1.90000
-43.58000 -17.73000 1.90000
-44.33000 -17.73000 1.90000
-45.08000 -17.73000 1.90000
-46.58000 -17.73000 1.90000
-47.33000 -17.73000 1.90000
-45.08000 -23.73000 1.90000
-42.83000 -23.73000 1.90000
-41.33000 -23.73000 1.90000
-39.83000 -23.73000 1.90000
-39.08000 -23.73000 1.90000
-38.33000 -23.73000 1.90000
-38.33000 -23.73000 1.90000
-37.58000 -23.73000 1.90000
-37.58000 -23.73000 1.90000
-37.58000 -23.73000 1.90000
-36.83000 -23.73000 1.90000
-36.83000 -23.73000 1.90000
-36.83000 -23.73000 1.90000
-36.83000 -23.73000 1.90000
-36.08000 -23.73000 1.90000
-36.08000 -23.73000 1.90000
-36.08000 -23.73000 1.90000
-36.08000 -23.73000 1.90000
-36.08000 -23.73000 1.90000
-36.08000 -23.73000 1.90000
-36.08000 -23.73000 1.90000
-36.08000 -23.73000 1.90000
-35.33000 -23.73000 1.90000
-35.33000 -23.73000 1.90000
-35.33000 -23.73000 1.90000
-35.33000 -23.73000 1.90000
-35.33000 -23.73000 1.90000
-35.33000 -23.73000 1.90000
-35.33000 -23.73000 1.90000
-35.33000 -23.73000 1.90000
-35.33000 -23.73000 1.90000
-35.33000 -23.73000 1.90000
-35.33000 -23.73000 1.90000
-35.33000 -23.73000 1.90000
-35.33000 -23.73000 1.90000
-34.58000 -23.73000 1.90000
-34.58000 -23.73000 1.90000
-34.58000 -23.73000 1.90000
-34.58000 -23.73000 1.90000
-34.58000 -23.73000 1.90000
-34.58000 -23.73000 1.90000
-34.58000 -23.73000 1.90000
-34.58000 -23.73000 1.90000
-34.58000 -23.73000 1.90000
-34.58000 -23.73000 1.90000
-34.58000 -23.73000 1.90000
-34.58000 -23.73000 1.90000
-34.58000 -23.73000 1.90000
-34.58000 -23.73000 1.90000
-34.58000 -23.73000 1.90000
-33.83000 -23.73000 1.90000
-33.83000 -23.73000 1.90000
-33.83000 -23.73000 1.90000
-33.83000 -23.73000 1.90000
-33.83000 -23.73000 1.90000
-33.83000 -23.73000 1.90000
-33.83000 -23.73000 1.90000
-33.83000 -23.73000 1.90000
-33.83000 -23.73000 1.90000
-33.83000 -23.73000 1.90000
-33.83000 -23.73000 1.90000
-33.83000 -23.73000 1.90000
-33.83000 -23.73000 1.90000
-33.08000 -23.73000 1.90000
-33.08000 -23.73000 1.90000
-33.08000 -23.73000 1.90000
-33.08000 -23.73000 1.90000
-33.08000 -23.73000 1.90000
-33.08000 -23.73000 1.90000
-33.08000 -23.73000 1.90000
-33.08000 -23.73000 1.90000
-32.33000 -23.73000 1.90000
-32.33000 -23.73000 1.90000
-32.33000 -23.73000 1.90000
-32.33000 -23.73000 1.90000
-31.58000 -23.73000 1.90000
-31.58000 -23.73000 1.90000
-31.58000 -23.73000 1.90000
-30.83000 -23.73000 1.90000
-30.83000 -23.73000 1.90000
-30.08000 -23.73000 1.90000
-29.33000 -23.73000 1.90000
-27.83000 -23.73000 1.90000
-26.33000 -23.73000 1.90000
-24.08000 -23.73000 1.90000
-21.08000 -22.98000 1.90000
-21.08000 -22.98000 1.90000
