<svg xmlns="http://www.w3.org/2000/svg" width="980" height="620" viewBox="0 0 980 620">
<rect width="100%" height="100%" fill="white"/>
<line x1="140.0" y1="505.0" x2="940.0" y2="505.0" stroke="#222"/>
<line x1="140.0" y1="55.0" x2="140.0" y2="505.0" stroke="#222"/>
<line x1="140.0" y1="505.0" x2="940.0" y2="505.0" stroke="#dddddd"/>
<text x="130.0" y="511.0" text-anchor="end" font-family="Times New Roman" font-size="16">0.0</text>
<line x1="140.0" y1="415.0" x2="940.0" y2="415.0" stroke="#dddddd"/>
<text x="130.0" y="421.0" text-anchor="end" font-family="Times New Roman" font-size="16">192650.781</text>
<line x1="140.0" y1="325.0" x2="940.0" y2="325.0" stroke="#dddddd"/>
<text x="130.0" y="331.0" text-anchor="end" font-family="Times New Roman" font-size="16">385301.562</text>
<line x1="140.0" y1="235.0" x2="940.0" y2="235.0" stroke="#dddddd"/>
<text x="130.0" y="241.0" text-anchor="end" font-family="Times New Roman" font-size="16">577952.343</text>
<line x1="140.0" y1="145.0" x2="940.0" y2="145.0" stroke="#dddddd"/>
<text x="130.0" y="151.0" text-anchor="end" font-family="Times New Roman" font-size="16">770603.124</text>
<line x1="140.0" y1="55.0" x2="940.0" y2="55.0" stroke="#dddddd"/>
<text x="130.0" y="61.0" text-anchor="end" font-family="Times New Roman" font-size="16">963253.905</text>
<rect x="189.0" y="118.0" width="110.0" height="387.0" fill="#1f77b4"/>
<text x="244.0" y="108.0" text-anchor="middle" font-family="Times New Roman" font-size="16">836031.77</text>
<text x="244.0" y="535.0" text-anchor="end" transform="rotate(-45 244.0 535.0)" font-family="Times New Roman" font-size="18">AdaptiveBS</text>
<rect x="339.0" y="118.0" width="110.0" height="387.0" fill="#d62728"/>
<text x="394.0" y="108.0" text-anchor="middle" font-family="Times New Roman" font-size="16">835910.98</text>
<text x="394.0" y="535.0" text-anchor="end" transform="rotate(-45 394.0 535.0)" font-family="Times New Roman" font-size="18">BSBaseline</text>
<rect x="489.0" y="117.5" width="110.0" height="387.5" fill="#2ca02c"/>
<text x="544.0" y="107.5" text-anchor="middle" font-family="Times New Roman" font-size="16">837202.60</text>
<text x="544.0" y="535.0" text-anchor="end" transform="rotate(-45 544.0 535.0)" font-family="Times New Roman" font-size="18">FeedbackLin</text>
<rect x="639.0" y="117.5" width="110.0" height="387.5" fill="#9467bd"/>
<text x="694.0" y="107.5" text-anchor="middle" font-family="Times New Roman" font-size="16">837612.09</text>
<text x="694.0" y="535.0" text-anchor="end" transform="rotate(-45 694.0 535.0)" font-family="Times New Roman" font-size="18">NDI</text>
<rect x="789.0" y="117.5" width="110.0" height="387.5" fill="#ff7f0e"/>
<text x="844.0" y="107.5" text-anchor="middle" font-family="Times New Roman" font-size="16">837202.60</text>
<text x="844.0" y="535.0" text-anchor="end" transform="rotate(-45 844.0 535.0)" font-family="Times New Roman" font-size="18">PassivityCtrl</text>
<text x="30" y="280.0" transform="rotate(-90 30 280.0)" text-anchor="middle" font-family="Times New Roman" font-size="18">Control Energy</text>
</svg>
