ply
format ascii 1.0
element vertex 174
property float x
property float y
property float z
end_header
88.94000 33.54046 2.20000
88.94000 33.54046 2.20000
88.94000 33.89046 2.20000
88.94000 33.89046 2.20000
88.94000 33.89046 2.20000
88.94000 33.89046 2.20000
88.94000 34.24046 2.20000
88.94000 34.24046 2.20000
88.94000 34.24046 2.20000
88.94000 34.24046 2.20000
88.94000 34.59046 2.20000
88.94000 34.59046 2.20000
88.94000 34.59046 2.20000
94.54000 37.74046 2.20000
93.84000 37.74046 2.20000
93.14000 37.74046 2.20000
92.79000 37.74046 2.20000
92.09000 37.74046 2.20000
90.34000 36.69046 2.20000
89.99000 36.69046 2.20000
89.64000 36.69046 2.20000
89.64000 36.69046 2.20000
89.29000 36.69046 2.20000
88.94000 36.69046 2.20000
88.94000 36.69046 2.20000
88.59000 36.69046 2.20000
88.59000 36.69046 2.20000
88.24000 36.69046 2.20000
88.24000 36.69046 2.20000
88.24000 36.69046 2.20000
87.89000 36.69046 2.20000
87.89000 36.69046 2.20000
87.54000 36.69046 2.20000
87.54000 36.69046 2.20000
87.54000 36.69046 2.20000
87.19000 36.69046 2.20000
87.19000 36.69046 2.20000
86.84000 36.69046 2.20000
86.84000 36.69046 2.20000
86.84000 36.69046 2.20000
86.84000 36.69046 2.20000
86.49000 36.69046 2.20000
86.49000 36.69046 2.20000
86.49000 36.69046 2.20000
86.14000 36.69046 2.20000
86.14000 36.69046 2.20000
86.14000 36.69046 2.20000
85.79000 36.69046 2.20000
85.79000 36.69046 2.20000
85.79000 36.69046 2.20000
85.44000 36.69046 2.20000
85.44000 36.69046 2.20000
85.44000 36.69046 2.20000
85.44000 36.69046 2.20000
85.09000 36.69046 2.20000
85.09000 36.69046 2.20000
84.74000 36.69046 2.20000
84.74000 36.34046 2.20000
84.74000 36.34046 2.20000
84.74000 36.34046 2.20000
84.39000 36.34046 2.20000
84.39000 36.34046 2.20000
84.39000 36.34046 2.20000
84.04000 36.34046 2.20000
84.04000 36.34046 2.20000
84.04000 36.34046 2.20000
83.69000 36.34046 2.20000
83.69000 36.34046 2.20000
83.34000 36.34046 2.20000
82.99000 36.34046 2.20000
82.99000 36.34046 2.20000
82.64000 36.34046 2.20000
81.94000 36.69046 2.20000
81.59000 36.69046 2.20000
81.24000 36.69046 2.20000
85.09000 33.89046 2.20000
85.09000 33.89046 2.20000
85.09000 33.89046 2.20000
85.09000 33.89046 2.20000
85.09000 33.89046 2.20000
85.09000 33.89046 2.20000
85.09000 33.89046 2.20000
85.09000 33.89046 2.20000
85.09000 33.89046 2.20000
85.09000 33.89046 2.20000
85.09000 33.89046 2.20000
85.09000 33.54046 2.20000
85.09000 33.54046 2.20000
85.09000 33.54046 2.20000
85.09000 33.54046 2.20000
85.09000 33.54046 2.20000
85.09000 33.54046 2.20000
85.09000 33.54046 2.20000
85.09000 33.54046 2.20000
85.09000 33.54046 2.20000
85.09000 33.19046 2.20000
85.09000 33.19046 2.20000
85.09000 33.19046 2.20000
85.09000 33.19046 2.20000
85.09000 33.19046 2.20000
85.09000 33.19046 2.20000
85.09000 33.19046 2.20000
85.09000 33.19046 2.20000
85.09000 33.19046 2.20000
85.09000 33.19046 2.20000
85.09000 32.84046 2.20000
85.09000 32.84046 2.20000
85.09000 32.84046 2.20000
85.09000 32.84046 2.20000
85.09000 32.84046 2.20000
85.09000 32.84046 2.20000
85.09000 32.84046 2.20000
85.09000 32.84046 2.20000
85.09000 32.49046 2.20000
85.09000 32.49046 2.20000
85.09000 32.49046 2.20000
85.09000 32.14046 2.20000
85.09000 32.14046 2.20000
85.09000 32.14046 2.20000
85.09000 32.14046 2.20000
85.09000 32.14046 2.20000
85.09000 31.79046 2.20000
85.09000 31.79046 2.20000
85.09000 31.44046 2.20000
85.09000 31.44046 2.20000
85.09000 31.09046 2.20000
85.09000 30.74046 2.20000
85.09000 30.39046 2.20000
85.09000 30.04046 2.20000
85.09000 29.34046 2.20000
85.09000 28.64046 2.20000
85.44000 27.59046 2.20000
85.44000 27.59046 2.20000
85.79000 27.59046 2.20000
85.79000 27.59046 2.20000
86.14000 27.59046 2.20000
86.49000 27.59046 2.20000
86.49000 27.59046 2.20000
89.29000 24.09046 2.20000
88.94000 26.19046 2.20000
88.94000 26.89046 2.20000
88.94000 27.59046 2.20000
88.94000 27.94046 2.20000
88.94000 28.64046 2.20000
88.94000 28.99046 2.20000
88.94000 29.34046 2.20000
88.94000 29.69046 2.20000
88.94000 29.69046 2.20000
88.94000 30.04046 2.20000
88.94000 30.39046 2.20000
88.94000 30.39046 2.20000
88.94000 30.74046 2.20000
88.94000 31.09046 2.20000
88.94000 31.09046 2.20000
88.94000 31.44046 2.20000
88.94000 31.44046 2.20000
88.94000 31.44046 2.20000
88.94000 31.79046 2.20000
88.94000 31.79046 2.20000
88.94000 31.79046 2.20000
88.94000 32.14046 2.20000
88.94000 32.14046 2.20000
88.94000 32.49046 2.20000
88.94000 32.49046 2.20000
88.94000 32.49046 2.20000
88.94000 32.84046 2.20000
88.94000 32.84046 2.20000
88.94000 32.84046 2.20000
88.94000 32.84046 2.20000
88.94000 33.19046 2.20000
88.94000 33.19046 2.20000
88.94000 33.19046 2.20000
88.94000 33.19046 2.20000
88.94000 33.54046 2.20000
