ply
format ascii 1.0
element vertex 165
property float x
property float y
property float z
end_header
88.94000 22.34046 2.20000
88.94000 22.34046 2.20000
88.94000 22.34046 2.20000
88.94000 22.34046 2.20000
88.94000 22.69046 2.20000
88.94000 22.69046 2.20000
88.94000 22.69046 2.20000
88.94000 22.69046 2.20000
88.94000 22.69046 2.20000
88.94000 22.69046 2.20000
88.94000 22.69046 2.20000
88.94000 22.69046 2.20000
88.94000 23.04046 2.20000
88.94000 23.04046 2.20000
88.94000 23.04046 2.20000
88.94000 23.04046 2.20000
88.94000 23.04046 2.20000
88.94000 23.39046 2.20000
88.94000 23.39046 2.20000
88.94000 23.39046 2.20000
88.94000 23.39046 2.20000
88.94000 23.39046 2.20000
88.94000 23.39046 2.20000
89.29000 24.09046 2.20000
89.29000 24.09046 2.20000
89.29000 24.44046 2.20000
89.29000 24.44046 2.20000
89.29000 24.44046 2.20000
89.29000 24.79046 2.20000
89.29000 24.79046 2.20000
89.29000 25.14046 2.20000
89.29000 25.49046 2.20000
89.29000 25.49046 2.20000
88.94000 25.84046 2.20000
88.94000 25.84046 2.20000
88.94000 25.84046 2.20000
88.94000 26.19046 2.20000
88.94000 26.54046 2.20000
88.94000 27.24046 2.20000
88.94000 28.29046 2.20000
88.94000 29.34046 2.20000
88.94000 31.09046 2.20000
86.49000 27.24046 2.20000
86.49000 26.54046 2.20000
86.49000 25.84046 2.20000
86.49000 25.49046 2.20000
86.49000 25.14046 2.20000
86.49000 24.79046 2.20000
86.49000 24.44046 2.20000
86.49000 24.44046 2.20000
86.49000 24.09046 2.20000
86.49000 24.09046 2.20000
86.49000 24.09046 2.20000
86.49000 23.74046 2.20000
86.49000 23.74046 2.20000
86.49000 23.74046 2.20000
86.49000 23.74046 2.20000
86.49000 23.39046 2.20000
86.49000 23.39046 2.20000
86.49000 23.39046 2.20000
86.49000 23.04046 2.20000
86.49000 23.04046 2.20000
86.49000 23.04046 2.20000
86.49000 23.04046 2.20000
86.49000 23.04046 2.20000
86.49000 23.04046 2.20000
86.49000 23.04046 2.20000
86.49000 23.04046 2.20000
86.49000 22.69046 2.20000
86.49000 22.69046 2.20000
86.49000 22.69046 2.20000
86.49000 22.69046 2.20000
86.49000 22.69046 2.20000
86.49000 22.69046 2.20000
86.49000 22.69046 2.20000
86.49000 22.69046 2.20000
86.49000 22.69046 2.20000
86.49000 22.69046 2.20000
86.49000 22.34046 2.20000
86.49000 22.34046 2.20000
86.49000 22.34046 2.20000
86.49000 22.34046 2.20000
86.49000 22.34046 2.20000
86.49000 22.34046 2.20000
86.49000 22.34046 2.20000
86.49000 22.34046 2.20000
86.49000 22.34046 2.20000
86.49000 21.99046 2.20000
86.49000 21.99046 2.20000
86.49000 21.99046 2.20000
86.49000 21.99046 2.20000
86.49000 21.99046 2.20000
86.49000 21.99046 2.20000
86.49000 21.99046 2.20000
86.49000 21.99046 2.20000
86.49000 21.99046 2.20000
86.49000 21.99046 2.20000
86.49000 21.99046 2.20000
86.49000 21.64046 2.20000
86.49000 21.64046 2.20000
86.49000 21.64046 2.20000
86.49000 21.64046 2.20000
86.49000 21.64046 2.20000
86.49000 21.64046 2.20000
86.49000 21.64046 2.20000
86.49000 21.29046 2.20000
86.49000 21.29046 2.20000
86.49000 21.29046 2.20000
86.49000 20.94046 2.20000
86.49000 20.94046 2.20000
86.49000 20.94046 2.20000
86.49000 20.94046 2.20000
85.44000 18.49046 2.20000
85.44000 18.49046 2.20000
85.79000 18.49046 2.20000
85.79000 18.49046 2.20000
86.14000 18.49046 2.20000
86.14000 18.49046 2.20000
86.14000 18.49046 2.20000
86.49000 18.49046 2.20000
86.49000 18.49046 2.20000
86.84000 18.49046 2.20000
86.84000 18.49046 2.20000
86.84000 18.49046 2.20000
87.19000 18.49046 2.20000
87.19000 18.49046 2.20000
87.54000 18.49046 2.20000
87.54000 18.49046 2.20000
87.54000 18.49046 2.20000
87.89000 18.49046 2.20000
87.89000 18.49046 2.20000
88.24000 18.49046 2.20000
88.24000 18.49046 2.20000
88.24000 18.49046 2.20000
88.59000 18.49046 2.20000
88.59000 18.49046 2.20000
88.94000 18.49046 2.20000
88.94000 18.49046 2.20000
88.94000 18.49046 2.20000
89.29000 18.49046 2.20000
89.29000 19.19046 2.20000
89.29000 19.19046 2.20000
89.29000 19.19046 2.20000
89.64000 19.19046 2.20000
89.64000 19.19046 2.20000
89.64000 19.19046 2.20000
89.99000 19.19046 2.20000
89.99000 19.19046 2.20000
90.34000 19.19046 2.20000
90.34000 19.19046 2.20000
90.69000 19.19046 2.20000
91.04000 19.19046 2.20000
91.04000 19.19046 2.20000
91.39000 19.19046 2.20000
91.74000 19.19046 2.20000
92.09000 19.19046 2.20000
92.44000 19.19046 2.20000
92.79000 19.19046 2.20000
93.14000 19.19046 2.20000
93.84000 19.19046 2.20000
94.19000 19.19046 2.20000
94.89000 19.19046 2.20000
88.94000 22.34046 2.20000
88.94000 22.34046 2.20000
88.94000 22.34046 2.20000
