ply
format ascii 1.0
element vertex 169
property float x
property float y
property float z
end_header
89.29000 25.14046 2.20000
89.29000 25.14046 2.20000
89.29000 25.14046 2.20000
89.29000 25.49046 2.20000
89.29000 25.49046 2.20000
89.29000 25.49046 2.20000
89.29000 25.49046 2.20000
89.29000 25.49046 2.20000
89.29000 25.49046 2.20000
89.29000 25.84046 2.20000
88.94000 25.84046 2.20000
88.94000 25.84046 2.20000
88.94000 25.84046 2.20000
88.94000 25.84046 2.20000
88.94000 25.84046 2.20000
88.94000 25.84046 2.20000
88.94000 25.84046 2.20000
88.94000 26.19046 2.20000
88.94000 26.19046 2.20000
88.94000 26.19046 2.20000
88.94000 26.19046 2.20000
88.94000 26.19046 2.20000
88.94000 26.19046 2.20000
88.94000 26.54046 2.20000
88.94000 26.54046 2.20000
88.94000 26.54046 2.20000
88.94000 26.89046 2.20000
88.94000 26.89046 2.20000
88.94000 26.89046 2.20000
88.94000 27.24046 2.20000
88.94000 27.24046 2.20000
88.94000 27.59046 2.20000
88.94000 27.59046 2.20000
88.94000 27.94046 2.20000
88.94000 28.29046 2.20000
88.94000 28.64046 2.20000
88.94000 28.99046 2.20000
88.94000 29.34046 2.20000
88.94000 30.04046 2.20000
88.94000 31.09046 2.20000
88.94000 32.14046 2.20000
88.94000 33.89046 2.20000
85.09000 33.19046 2.20000
85.09000 32.14046 2.20000
86.49000 27.59046 2.20000
86.49000 27.24046 2.20000
86.49000 27.24046 2.20000
86.49000 26.89046 2.20000
86.49000 26.89046 2.20000
86.49000 26.89046 2.20000
86.49000 26.54046 2.20000
86.49000 26.54046 2.20000
86.49000 26.54046 2.20000
86.49000 26.54046 2.20000
86.49000 26.19046 2.20000
86.49000 26.19046 2.20000
86.49000 26.19046 2.20000
86.49000 25.84046 2.20000
86.49000 25.84046 2.20000
86.49000 25.84046 2.20000
86.49000 25.84046 2.20000
86.49000 25.84046 2.20000
86.49000 25.84046 2.20000
86.49000 25.84046 2.20000
86.49000 25.84046 2.20000
86.49000 25.49046 2.20000
86.49000 25.49046 2.20000
86.49000 25.49046 2.20000
86.49000 25.49046 2.20000
86.49000 25.49046 2.20000
86.49000 25.49046 2.20000
86.49000 25.49046 2.20000
86.49000 25.49046 2.20000
86.49000 25.49046 2.20000
86.49000 25.49046 2.20000
86.49000 25.14046 2.20000
86.49000 25.14046 2.20000
86.49000 25.14046 2.20000
86.49000 25.14046 2.20000
86.49000 25.14046 2.20000
86.49000 25.14046 2.20000
86.49000 25.14046 2.20000
86.49000 25.14046 2.20000
86.49000 25.14046 2.20000
86.49000 24.79046 2.20000
86.49000 24.79046 2.20000
86.49000 24.79046 2.20000
86.49000 24.79046 2.20000
86.49000 24.79046 2.20000
86.49000 24.79046 2.20000
86.49000 24.79046 2.20000
86.49000 24.79046 2.20000
86.49000 24.79046 2.20000
86.49000 24.79046 2.20000
86.49000 24.79046 2.20000
86.49000 24.44046 2.20000
86.49000 24.44046 2.20000
86.49000 24.44046 2.20000
86.49000 24.44046 2.20000
86.49000 24.44046 2.20000
86.49000 24.44046 2.20000
86.49000 24.44046 2.20000
86.49000 24.09046 2.20000
86.49000 24.09046 2.20000
86.49000 24.09046 2.20000
86.49000 23.74046 2.20000
86.49000 23.74046 2.20000
86.49000 23.74046 2.20000
86.49000 23.74046 2.20000
86.49000 23.39046 2.20000
86.49000 23.39046 2.20000
86.49000 23.39046 2.20000
86.49000 23.04046 2.20000
86.49000 23.04046 2.20000
86.49000 22.69046 2.20000
86.49000 22.34046 2.20000
86.49000 21.99046 2.20000
86.49000 21.64046 2.20000
86.49000 20.94046 2.20000
86.49000 18.49046 2.20000
86.49000 18.49046 2.20000
86.84000 18.49046 2.20000
87.19000 18.49046 2.20000
87.19000 18.49046 2.20000
87.54000 18.49046 2.20000
87.89000 18.49046 2.20000
87.89000 18.49046 2.20000
88.24000 18.49046 2.20000
88.59000 18.49046 2.20000
88.59000 18.49046 2.20000
88.94000 18.49046 2.20000
89.29000 18.84046 2.20000
89.29000 19.19046 2.20000
89.29000 19.19046 2.20000
89.64000 19.19046 2.20000
89.99000 19.19046 2.20000
88.94000 22.34046 2.20000
88.94000 22.69046 2.20000
88.94000 22.69046 2.20000
88.94000 23.04046 2.20000
88.94000 23.04046 2.20000
88.94000 23.39046 2.20000
88.94000 23.39046 2.20000
88.94000 23.39046 2.20000
88.94000 23.39046 2.20000
88.94000 23.39046 2.20000
89.29000 23.39046 2.20000
89.29000 23.39046 2.20000
89.29000 23.74046 2.20000
89.29000 23.74046 2.20000
89.29000 23.74046 2.20000
89.29000 23.74046 2.20000
89.29000 24.09046 2.20000
89.29000 24.09046 2.20000
89.29000 24.09046 2.20000
89.29000 24.09046 2.20000
89.29000 24.44046 2.20000
89.29000 24.44046 2.20000
89.29000 24.44046 2.20000
89.29000 24.44046 2.20000
89.29000 24.44046 2.20000
89.29000 24.79046 2.20000
89.29000 24.79046 2.20000
89.29000 24.79046 2.20000
89.29000 24.79046 2.20000
89.29000 24.79046 2.20000
89.29000 24.79046 2.20000
89.29000 25.14046 2.20000
89.29000 25.14046 2.20000
