ply
format ascii 1.0
element vertex 172
property float x
property float y
property float z
end_header
90.34000 36.69046 2.20000
89.64000 36.69046 2.20000
89.29000 36.69046 2.20000
88.94000 36.69046 2.20000
88.59000 36.69046 2.20000
87.89000 36.69046 2.20000
87.89000 36.69046 2.20000
87.54000 36.69046 2.20000
87.19000 36.69046 2.20000
87.19000 36.69046 2.20000
86.84000 36.69046 2.20000
86.84000 36.69046 2.20000
86.84000 36.69046 2.20000
86.49000 36.69046 2.20000
86.49000 36.69046 2.20000
86.49000 36.69046 2.20000
86.14000 36.69046 2.20000
86.14000 36.69046 2.20000
86.14000 36.69046 2.20000
86.14000 36.69046 2.20000
85.79000 36.69046 2.20000
85.79000 36.69046 2.20000
85.79000 36.69046 2.20000
85.79000 36.69046 2.20000
85.44000 36.69046 2.20000
85.44000 36.69046 2.20000
85.44000 36.69046 2.20000
85.44000 36.69046 2.20000
85.44000 36.69046 2.20000
85.09000 36.69046 2.20000
85.09000 36.69046 2.20000
85.09000 36.69046 2.20000
85.09000 36.69046 2.20000
85.09000 36.69046 2.20000
84.74000 36.34046 2.20000
84.74000 36.34046 2.20000
84.74000 36.34046 2.20000
84.74000 36.34046 2.20000
84.74000 36.34046 2.20000
84.74000 36.34046 2.20000
84.74000 36.34046 2.20000
84.39000 36.34046 2.20000
84.39000 36.34046 2.20000
84.39000 36.34046 2.20000
84.39000 36.34046 2.20000
84.39000 36.34046 2.20000
84.39000 36.34046 2.20000
84.39000 36.34046 2.20000
84.39000 36.34046 2.20000
84.04000 36.34046 2.20000
84.04000 36.34046 2.20000
84.04000 36.34046 2.20000
84.04000 36.34046 2.20000
84.04000 36.34046 2.20000
83.69000 36.34046 2.20000
83.69000 36.34046 2.20000
83.69000 36.34046 2.20000
83.69000 36.34046 2.20000
83.69000 36.34046 2.20000
83.69000 36.34046 2.20000
83.34000 36.34046 2.20000
83.34000 36.34046 2.20000
83.34000 36.34046 2.20000
82.99000 36.34046 2.20000
82.99000 36.34046 2.20000
82.99000 36.34046 2.20000
82.64000 36.34046 2.20000
82.64000 36.34046 2.20000
81.59000 36.69046 2.20000
81.59000 36.69046 2.20000
80.89000 36.69046 2.20000
80.54000 36.69046 2.20000
80.19000 36.69046 2.20000
79.84000 36.69046 2.20000
79.49000 36.34046 2.20000
79.49000 36.34046 2.20000
78.79000 36.34046 2.20000
77.74000 36.34046 2.20000
75.99000 36.34046 2.20000
74.59000 35.99046 2.20000
74.59000 35.64046 2.20000
74.59000 35.29046 2.20000
74.59000 34.94046 2.20000
79.84000 34.59046 2.20000
82.29000 34.59046 2.20000
82.29000 34.59046 2.20000
82.29000 34.59046 2.20000
82.29000 34.59046 2.20000
82.29000 34.59046 2.20000
82.29000 34.24046 2.20000
82.29000 34.24046 2.20000
82.29000 34.24046 2.20000
82.29000 34.24046 2.20000
82.64000 33.89046 2.20000
82.64000 33.89046 2.20000
82.99000 33.89046 2.20000
82.99000 33.89046 2.20000
83.34000 33.89046 2.20000
83.34000 33.89046 2.20000
83.34000 33.89046 2.20000
83.34000 33.89046 2.20000
83.34000 33.89046 2.20000
83.69000 33.89046 2.20000
83.69000 33.89046 2.20000
83.69000 33.89046 2.20000
84.04000 33.89046 2.20000
84.04000 33.89046 2.20000
84.04000 33.89046 2.20000
84.04000 33.89046 2.20000
84.04000 33.89046 2.20000
84.04000 33.89046 2.20000
84.04000 33.89046 2.20000
84.04000 33.89046 2.20000
84.39000 33.89046 2.20000
84.39000 33.89046 2.20000
84.39000 33.89046 2.20000
84.39000 33.89046 2.20000
84.39000 33.89046 2.20000
84.39000 33.89046 2.20000
84.39000 33.89046 2.20000
84.39000 33.89046 2.20000
84.39000 33.89046 2.20000
84.39000 33.89046 2.20000
84.74000 33.89046 2.20000
84.74000 33.89046 2.20000
84.74000 33.89046 2.20000
84.74000 33.89046 2.20000
84.74000 33.89046 2.20000
84.74000 33.89046 2.20000
84.74000 33.89046 2.20000
84.74000 33.89046 2.20000
84.74000 33.89046 2.20000
85.09000 33.89046 2.20000
85.09000 33.89046 2.20000
85.09000 33.89046 2.20000
85.09000 33.89046 2.20000
85.09000 33.89046 2.20000
85.09000 33.89046 2.20000
85.09000 33.89046 2.20000
85.09000 33.89046 2.20000
85.09000 33.89046 2.20000
85.09000 33.89046 2.20000
88.94000 27.94046 2.20000
88.94000 28.29046 2.20000
88.94000 28.99046 2.20000
88.94000 29.34046 2.20000
88.94000 29.69046 2.20000
88.94000 30.04046 2.20000
88.94000 30.39046 2.20000
88.94000 30.74046 2.20000
88.94000 31.09046 2.20000
88.94000 31.44046 2.20000
88.94000 31.44046 2.20000
88.94000 31.79046 2.20000
88.94000 31.79046 2.20000
88.94000 32.14046 2.20000
88.94000 32.49046 2.20000
88.94000 32.49046 2.20000
88.94000 32.84046 2.20000
88.94000 32.84046 2.20000
88.94000 33.19046 2.20000
88.94000 33.19046 2.20000
88.94000 33.54046 2.20000
88.94000 33.54046 2.20000
88.94000 33.89046 2.20000
88.94000 33.89046 2.20000
88.94000 34.24046 2.20000
88.94000 34.24046 2.20000
88.94000 34.24046 2.20000
88.94000 34.59046 2.20000
88.94000 34.59046 2.20000
89.64000 34.59046 2.20000
