0
SECTION
2
ENTITIES
0
3DFACE
62
163
10
0.002954
20
-0.000521
30
0.043000
11
0.003000
21
0.000000
31
0.043000
12
0.003000
22
0.000000
32
0.045000
0
3DFACE
62
163
10
0.002954
20
-0.000521
30
0.043000
11
0.003000
21
0.000000
31
0.045000
12
0.002954
22
-0.000521
32
0.045000
0
3DFACE
62
163
10
0.002819
20
-0.001026
30
0.043000
11
0.002954
21
-0.000521
31
0.045000
12
0.002819
22
-0.001026
32
0.045000
0
3DFACE
62
163
10
0.002819
20
-0.001026
30
0.043000
11
0.002954
21
-0.000521
31
0.043000
12
0.002954
22
-0.000521
32
0.045000
0
3DFACE
62
163
10
0.002598
20
-0.001500
30
0.043000
11
0.002819
21
-0.001026
31
0.045000
12
0.002598
22
-0.001500
32
0.045000
0
3DFACE
62
163
10
0.002598
20
-0.001500
30
0.043000
11
0.002819
21
-0.001026
31
0.043000
12
0.002819
22
-0.001026
32
0.045000
0
3DFACE
62
163
10
0.002298
20
-0.001928
30
0.043000
11
0.002598
21
-0.001500
31
0.045000
12
0.002298
22
-0.001928
32
0.045000
0
3DFACE
62
163
10
0.002298
20
-0.001928
30
0.043000
11
0.002598
21
-0.001500
31
0.043000
12
0.002598
22
-0.001500
32
0.045000
0
3DFACE
62
163
10
0.001928
20
-0.002298
30
0.043000
11
0.002298
21
-0.001928
31
0.045000
12
0.001928
22
-0.002298
32
0.045000
0
3DFACE
62
163
10
0.001928
20
-0.002298
30
0.043000
11
0.002298
21
-0.001928
31
0.043000
12
0.002298
22
-0.001928
32
0.045000
0
3DFACE
62
163
10
0.001500
20
-0.002598
30
0.043000
11
0.001928
21
-0.002298
31
0.045000
12
0.001500
22
-0.002598
32
0.045000
0
3DFACE
62
163
10
0.001500
20
-0.002598
30
0.043000
11
0.001928
21
-0.002298
31
0.043000
12
0.001928
22
-0.002298
32
0.045000
0
3DFACE
62
163
10
0.001026
20
-0.002819
30
0.043000
11
0.001500
21
-0.002598
31
0.045000
12
0.001026
22
-0.002819
32
0.045000
0
3DFACE
62
163
10
0.001026
20
-0.002819
30
0.043000
11
0.001500
21
-0.002598
31
0.043000
12
0.001500
22
-0.002598
32
0.045000
0
3DFACE
62
163
10
0.000521
20
-0.002954
30
0.043000
11
0.001026
21
-0.002819
31
0.045000
12
0.000521
22
-0.002954
32
0.045000
0
3DFACE
62
163
10
0.000521
20
-0.002954
30
0.043000
11
0.001026
21
-0.002819
31
0.043000
12
0.001026
22
-0.002819
32
0.045000
0
3DFACE
62
163
10
0.000000
20
-0.003000
30
0.043000
11
0.000521
21
-0.002954
31
0.045000
12
0.000000
22
-0.003000
32
0.045000
0
3DFACE
62
163
10
0.000000
20
-0.003000
30
0.043000
11
0.000521
21
-0.002954
31
0.043000
12
0.000521
22
-0.002954
32
0.045000
0
3DFACE
62
163
10
-0.000521
20
-0.002954
30
0.043000
11
0.000000
21
-0.003000
31
0.045000
12
-0.000521
22
-0.002954
32
0.045000
0
3DFACE
62
163
10
-0.000521
20
-0.002954
30
0.043000
11
0.000000
21
-0.003000
31
0.043000
12
0.000000
22
-0.003000
32
0.045000
0
3DFACE
62
163
10
-0.001026
20
-0.002819
30
0.043000
11
-0.001026
21
-0.002819
31
0.045000
12
-0.001500
22
-0.002598
32
0.045000
0
3DFACE
62
163
10
-0.001026
20
-0.002819
30
0.043000
11
-0.000521
21
-0.002954
31
0.045000
12
-0.001026
22
-0.002819
32
0.045000
0
3DFACE
62
163
10
-0.001026
20
-0.002819
30
0.043000
11
-0.000521
21
-0.002954
31
0.043000
12
-0.000521
22
-0.002954
32
0.045000
0
3DFACE
62
163
10
-0.001500
20
-0.002598
30
0.043000
11
-0.001026
21
-0.002819
31
0.043000
12
-0.001500
22
-0.002598
32
0.045000
0
3DFACE
62
163
10
-0.001928
20
-0.002298
30
0.043000
11
-0.001500
21
-0.002598
31
0.045000
12
-0.001928
22
-0.002298
32
0.045000
0
3DFACE
62
163
10
-0.001928
20
-0.002298
30
0.043000
11
-0.001500
21
-0.002598
31
0.043000
12
-0.001500
22
-0.002598
32
0.045000
0
3DFACE
62
163
10
-0.002298
20
-0.001928
30
0.043000
11
-0.002298
21
-0.001928
31
0.045000
12
-0.002598
22
-0.001500
32
0.045000
0
3DFACE
62
163
10
-0.002298
20
-0.001928
30
0.043000
11
-0.001928
21
-0.002298
31
0.045000
12
-0.002298
22
-0.001928
32
0.045000
0
3DFACE
62
163
10
-0.002298
20
-0.001928
30
0.043000
11
-0.001928
21
-0.002298
31
0.043000
12
-0.001928
22
-0.002298
32
0.045000
0
3DFACE
62
163
10
-0.002598
20
-0.001500
30
0.043000
11
-0.002298
21
-0.001928
31
0.043000
12
-0.002598
22
-0.001500
32
0.045000
0
3DFACE
62
163
10
-0.002819
20
-0.001026
30
0.043000
11
-0.002598
21
-0.001500
31
0.043000
12
-0.002598
22
-0.001500
32
0.045000
0
3DFACE
62
163
10
-0.002819
20
-0.001026
30
0.043000
11
-0.002598
21
-0.001500
31
0.045000
12
-0.002819
22
-0.001026
32
0.045000
0
3DFACE
62
163
10
-0.002954
20
-0.000521
30
0.043000
11
-0.002819
21
-0.001026
31
0.043000
12
-0.002819
22
-0.001026
32
0.045000
0
3DFACE
62
163
10
-0.002954
20
-0.000521
30
0.043000
11
-0.002819
21
-0.001026
31
0.045000
12
-0.002954
22
-0.000521
32
0.045000
0
3DFACE
62
163
10
-0.003000
20
0.000000
30
0.043000
11
-0.002954
21
-0.000521
31
0.043000
12
-0.002954
22
-0.000521
32
0.045000
0
3DFACE
62
163
10
-0.003000
20
0.000000
30
0.043000
11
-0.002954
21
-0.000521
31
0.045000
12
-0.003000
22
0.000000
32
0.045000
0
3DFACE
62
163
10
-0.007833
20
0.001381
30
0.043000
11
-0.007954
21
0.000000
31
0.045000
12
-0.007833
22
0.001381
32
0.045000
0
3DFACE
62
163
10
-0.007833
20
0.001381
30
0.043000
11
-0.007954
21
0.000000
31
0.043000
12
-0.007954
22
0.000000
32
0.045000
0
3DFACE
62
163
10
-0.007474
20
0.002720
30
0.043000
11
-0.007833
21
0.001381
31
0.045000
12
-0.007474
22
0.002720
32
0.045000
0
3DFACE
62
163
10
-0.007474
20
0.002720
30
0.043000
11
-0.007833
21
0.001381
31
0.043000
12
-0.007833
22
0.001381
32
0.045000
0
3DFACE
62
163
10
-0.006888
20
0.003977
30
0.043000
11
-0.007474
21
0.002720
31
0.045000
12
-0.006888
22
0.003977
32
0.045000
0
3DFACE
62
163
10
-0.006888
20
0.003977
30
0.043000
11
-0.007474
21
0.002720
31
0.043000
12
-0.007474
22
0.002720
32
0.045000
0
3DFACE
62
163
10
-0.006093
20
0.005113
30
0.043000
11
-0.006888
21
0.003977
31
0.045000
12
-0.006093
22
0.005113
32
0.045000
0
3DFACE
62
163
10
-0.006093
20
0.005113
30
0.043000
11
-0.006888
21
0.003977
31
0.043000
12
-0.006888
22
0.003977
32
0.045000
0
3DFACE
62
163
10
-0.005113
20
0.006093
30
0.043000
11
-0.006093
21
0.005113
31
0.045000
12
-0.005113
22
0.006093
32
0.045000
0
3DFACE
62
163
10
-0.005113
20
0.006093
30
0.043000
11
-0.006093
21
0.005113
31
0.043000
12
-0.006093
22
0.005113
32
0.045000
0
3DFACE
62
163
10
-0.003977
20
0.006888
30
0.043000
11
-0.005113
21
0.006093
31
0.045000
12
-0.003977
22
0.006888
32
0.045000
0
3DFACE
62
163
10
-0.003977
20
0.006888
30
0.043000
11
-0.005113
21
0.006093
31
0.043000
12
-0.005113
22
0.006093
32
0.045000
0
3DFACE
62
163
10
-0.002720
20
0.007474
30
0.043000
11
-0.003977
21
0.006888
31
0.045000
12
-0.002720
22
0.007474
32
0.045000
0
3DFACE
62
163
10
-0.002720
20
0.007474
30
0.043000
11
-0.003977
21
0.006888
31
0.043000
12
-0.003977
22
0.006888
32
0.045000
0
3DFACE
62
163
10
-0.001381
20
0.007833
30
0.043000
11
-0.001381
21
0.007833
31
0.045000
12
0.000000
22
0.007954
32
0.045000
0
3DFACE
62
163
10
-0.001381
20
0.007833
30
0.043000
11
-0.002720
21
0.007474
31
0.045000
12
-0.001381
22
0.007833
32
0.045000
0
3DFACE
62
163
10
-0.001381
20
0.007833
30
0.043000
11
-0.002720
21
0.007474
31
0.043000
12
-0.002720
22
0.007474
32
0.045000
0
3DFACE
62
163
10
0.000000
20
0.007954
30
0.043000
11
-0.001381
21
0.007833
31
0.043000
12
0.000000
22
0.007954
32
0.045000
0
3DFACE
62
163
10
0.001381
20
0.007833
30
0.043000
11
0.000000
21
0.007954
31
0.045000
12
0.001381
22
0.007833
32
0.045000
0
3DFACE
62
163
10
0.001381
20
0.007833
30
0.043000
11
0.000000
21
0.007954
31
0.043000
12
0.000000
22
0.007954
32
0.045000
0
3DFACE
62
163
10
0.002720
20
0.007474
30
0.043000
11
0.001381
21
0.007833
31
0.045000
12
0.002720
22
0.007474
32
0.045000
0
3DFACE
62
163
10
0.002720
20
0.007474
30
0.043000
11
0.001381
21
0.007833
31
0.043000
12
0.001381
22
0.007833
32
0.045000
0
3DFACE
62
163
10
0.003977
20
0.006888
30
0.043000
11
0.002720
21
0.007474
31
0.045000
12
0.003977
22
0.006888
32
0.045000
0
3DFACE
62
163
10
0.003977
20
0.006888
30
0.043000
11
0.002720
21
0.007474
31
0.043000
12
0.002720
22
0.007474
32
0.045000
0
3DFACE
62
163
10
0.005113
20
0.006093
30
0.043000
11
0.003977
21
0.006888
31
0.045000
12
0.005113
22
0.006093
32
0.045000
0
3DFACE
62
163
10
0.005113
20
0.006093
30
0.043000
11
0.003977
21
0.006888
31
0.043000
12
0.003977
22
0.006888
32
0.045000
0
3DFACE
62
163
10
0.006093
20
0.005113
30
0.043000
11
0.006093
21
0.005113
31
0.045000
12
0.006888
22
0.003977
32
0.045000
0
3DFACE
62
163
10
0.006093
20
0.005113
30
0.043000
11
0.005113
21
0.006093
31
0.045000
12
0.006093
22
0.005113
32
0.045000
0
3DFACE
62
163
10
0.006093
20
0.005113
30
0.043000
11
0.005113
21
0.006093
31
0.043000
12
0.005113
22
0.006093
32
0.045000
0
3DFACE
62
163
10
0.006888
20
0.003977
30
0.043000
11
0.006093
21
0.005113
31
0.043000
12
0.006888
22
0.003977
32
0.045000
0
3DFACE
62
163
10
0.007474
20
0.002720
30
0.043000
11
0.006888
21
0.003977
31
0.045000
12
0.007474
22
0.002720
32
0.045000
0
3DFACE
62
163
10
0.007474
20
0.002720
30
0.043000
11
0.006888
21
0.003977
31
0.043000
12
0.006888
22
0.003977
32
0.045000
0
3DFACE
62
163
10
0.007833
20
0.001381
30
0.043000
11
0.007833
21
0.001381
31
0.045000
12
0.007954
22
0.000000
32
0.045000
0
3DFACE
62
163
10
0.007833
20
0.001381
30
0.043000
11
0.007474
21
0.002720
31
0.045000
12
0.007833
22
0.001381
32
0.045000
0
3DFACE
62
163
10
0.007833
20
0.001381
30
0.043000
11
0.007474
21
0.002720
31
0.043000
12
0.007474
22
0.002720
32
0.045000
0
3DFACE
62
163
10
0.007954
20
0.000000
30
0.043000
11
0.007833
21
0.001381
31
0.043000
12
0.007954
22
0.000000
32
0.045000
0
3DFACE
62
163
10
-0.001928
20
-0.002298
30
0.045000
11
-0.006093
21
-0.005113
31
0.045000
12
-0.005113
22
-0.006093
32
0.045000
0
3DFACE
62
163
10
-0.001928
20
-0.002298
30
0.045000
11
-0.002298
21
-0.001928
31
0.045000
12
-0.006093
22
-0.005113
32
0.045000
0
3DFACE
62
163
10
-0.002598
20
-0.001500
30
0.045000
11
-0.006888
21
-0.003977
31
0.045000
12
-0.006093
22
-0.005113
32
0.045000
0
3DFACE
62
163
10
-0.002598
20
-0.001500
30
0.045000
11
-0.006093
21
-0.005113
31
0.045000
12
-0.002298
22
-0.001928
32
0.045000
0
3DFACE
62
163
10
-0.001500
20
-0.002598
30
0.045000
11
-0.005113
21
-0.006093
31
0.045000
12
-0.003977
22
-0.006888
32
0.045000
0
3DFACE
62
163
10
-0.001500
20
-0.002598
30
0.045000
11
-0.001928
21
-0.002298
31
0.045000
12
-0.005113
22
-0.006093
32
0.045000
0
3DFACE
62
163
10
-0.001026
20
-0.002819
30
0.045000
11
-0.003977
21
-0.006888
31
0.045000
12
-0.002720
22
-0.007474
32
0.045000
0
3DFACE
62
163
10
-0.001026
20
-0.002819
30
0.045000
11
-0.001500
21
-0.002598
31
0.045000
12
-0.003977
22
-0.006888
32
0.045000
0
3DFACE
62
163
10
-0.002819
20
-0.001026
30
0.045000
11
-0.007474
21
-0.002720
31
0.045000
12
-0.006888
22
-0.003977
32
0.045000
0
3DFACE
62
163
10
-0.002819
20
-0.001026
30
0.045000
11
-0.006888
21
-0.003977
31
0.045000
12
-0.002598
22
-0.001500
32
0.045000
0
3DFACE
62
163
10
-0.000521
20
-0.002954
30
0.045000
11
-0.002720
21
-0.007474
31
0.045000
12
-0.001381
22
-0.007833
32
0.045000
0
3DFACE
62
163
10
-0.000521
20
-0.002954
30
0.045000
11
-0.001026
21
-0.002819
31
0.045000
12
-0.002720
22
-0.007474
32
0.045000
0
3DFACE
62
163
10
-0.002954
20
-0.000521
30
0.045000
11
-0.007833
21
-0.001381
31
0.045000
12
-0.007474
22
-0.002720
32
0.045000
0
3DFACE
62
163
10
-0.002954
20
-0.000521
30
0.045000
11
-0.007474
21
-0.002720
31
0.045000
12
-0.002819
22
-0.001026
32
0.045000
0
3DFACE
62
163
10
0.000000
20
-0.003000
30
0.045000
11
-0.001381
21
-0.007833
31
0.045000
12
-0.000000
22
-0.007954
32
0.045000
0
3DFACE
62
163
10
0.000000
20
-0.003000
30
0.045000
11
-0.000000
21
-0.007954
31
0.045000
12
0.001381
22
-0.007833
32
0.045000
0
3DFACE
62
163
10
0.000000
20
-0.003000
30
0.045000
11
-0.000521
21
-0.002954
31
0.045000
12
-0.001381
22
-0.007833
32
0.045000
0
3DFACE
62
163
10
-0.003000
20
0.000000
30
0.045000
11
-0.007954
21
0.000000
31
0.045000
12
-0.007833
22
-0.001381
32
0.045000
0
3DFACE
62
163
10
-0.003000
20
0.000000
30
0.045000
11
-0.007833
21
-0.001381
31
0.045000
12
-0.002954
22
-0.000521
32
0.045000
0
3DFACE
62
163
10
0.000521
20
-0.002954
30
0.045000
11
0.001381
21
-0.007833
31
0.045000
12
0.002720
22
-0.007474
32
0.045000
0
3DFACE
62
163
10
0.000521
20
-0.002954
30
0.045000
11
0.000000
21
-0.003000
31
0.045000
12
0.001381
22
-0.007833
32
0.045000
0
3DFACE
62
163
10
-0.002954
20
0.000521
30
0.045000
11
-0.007474
21
0.002720
31
0.045000
12
-0.007833
22
0.001381
32
0.045000
0
3DFACE
62
163
10
-0.002954
20
0.000521
30
0.045000
11
-0.007833
21
0.001381
31
0.045000
12
-0.007954
22
0.000000
32
0.045000
0
3DFACE
62
163
10
-0.002954
20
0.000521
30
0.045000
11
-0.007954
21
0.000000
31
0.045000
12
-0.003000
22
0.000000
32
0.045000
0
3DFACE
62
163
10
0.001026
20
-0.002819
30
0.045000
11
0.000521
21
-0.002954
31
0.045000
12
0.002720
22
-0.007474
32
0.045000
0
3DFACE
62
163
10
-0.002819
20
0.001026
30
0.045000
11
-0.007474
21
0.002720
31
0.045000
12
-0.002954
22
0.000521
32
0.045000
0
3DFACE
62
163
10
0.001500
20
-0.002598
30
0.045000
11
0.002720
21
-0.007474
31
0.045000
12
0.003977
22
-0.006888
32
0.045000
0
3DFACE
62
163
10
0.001500
20
-0.002598
30
0.045000
11
0.001026
21
-0.002819
31
0.045000
12
0.002720
22
-0.007474
32
0.045000
0
3DFACE
62
163
10
-0.002598
20
0.001500
30
0.045000
11
-0.007474
21
0.002720
31
0.045000
12
-0.002819
22
0.001026
32
0.045000
0
3DFACE
62
163
10
-0.002598
20
0.001500
30
0.045000
11
-0.006888
21
0.003977
31
0.045000
12
-0.007474
22
0.002720
32
0.045000
0
3DFACE
62
163
10
0.001928
20
-0.002298
30
0.045000
11
0.003977
21
-0.006888
31
0.045000
12
0.005113
22
-0.006093
32
0.045000
0
3DFACE
62
163
10
0.001928
20
-0.002298
30
0.045000
11
0.001500
21
-0.002598
31
0.045000
12
0.003977
22
-0.006888
32
0.045000
0
3DFACE
62
163
10
-0.002298
20
0.001928
30
0.045000
11
-0.006093
21
0.005113
31
0.045000
12
-0.006888
22
0.003977
32
0.045000
0
3DFACE
62
163
10
-0.002298
20
0.001928
30
0.045000
11
-0.006888
21
0.003977
31
0.045000
12
-0.002598
22
0.001500
32
0.045000
0
3DFACE
62
163
10
0.006093
20
-0.005113
30
0.045000
11
0.001928
21
-0.002298
31
0.045000
12
0.005113
22
-0.006093
32
0.045000
0
3DFACE
62
163
10
0.006093
20
-0.005113
30
0.045000
11
0.002298
21
-0.001928
31
0.045000
12
0.001928
22
-0.002298
32
0.045000
0
3DFACE
62
163
10
-0.005113
20
0.006093
30
0.045000
11
-0.006093
21
0.005113
31
0.045000
12
-0.002298
22
0.001928
32
0.045000
0
3DFACE
62
163
10
-0.005113
20
0.006093
30
0.045000
11
-0.002298
21
0.001928
31
0.045000
12
-0.001928
22
0.002298
32
0.045000
0
3DFACE
62
163
10
0.006888
20
-0.003977
30
0.045000
11
0.002598
21
-0.001500
31
0.045000
12
0.002298
22
-0.001928
32
0.045000
0
3DFACE
62
163
10
0.006888
20
-0.003977
30
0.045000
11
0.002819
21
-0.001026
31
0.045000
12
0.002598
22
-0.001500
32
0.045000
0
3DFACE
62
163
10
0.006888
20
-0.003977
30
0.045000
11
0.002298
21
-0.001928
31
0.045000
12
0.006093
22
-0.005113
32
0.045000
0
3DFACE
62
163
10
-0.003977
20
0.006888
30
0.045000
11
-0.005113
21
0.006093
31
0.045000
12
-0.001928
22
0.002298
32
0.045000
0
3DFACE
62
163
10
-0.003977
20
0.006888
30
0.045000
11
-0.001928
21
0.002298
31
0.045000
12
-0.001500
22
0.002598
32
0.045000
0
3DFACE
62
163
10
0.007474
20
-0.002720
30
0.045000
11
0.002954
21
-0.000521
31
0.045000
12
0.002819
22
-0.001026
32
0.045000
0
3DFACE
62
163
10
0.007474
20
-0.002720
30
0.045000
11
0.002819
21
-0.001026
31
0.045000
12
0.006888
22
-0.003977
32
0.045000
0
3DFACE
62
163
10
-0.002720
20
0.007474
30
0.045000
11
-0.001500
21
0.002598
31
0.045000
12
-0.001026
22
0.002819
32
0.045000
0
3DFACE
62
163
10
-0.002720
20
0.007474
30
0.045000
11
-0.003977
21
0.006888
31
0.045000
12
-0.001500
22
0.002598
32
0.045000
0
3DFACE
62
163
10
0.007833
20
-0.001381
30
0.045000
11
0.002954
21
-0.000521
31
0.045000
12
0.007474
22
-0.002720
32
0.045000
0
3DFACE
62
163
10
-0.001381
20
0.007833
30
0.045000
11
-0.000521
21
0.002954
31
0.045000
12
0.000000
22
0.003000
32
0.045000
0
3DFACE
62
163
10
-0.001381
20
0.007833
30
0.045000
11
-0.001026
21
0.002819
31
0.045000
12
-0.000521
22
0.002954
32
0.045000
0
3DFACE
62
163
10
-0.001381
20
0.007833
30
0.045000
11
-0.002720
21
0.007474
31
0.045000
12
-0.001026
22
0.002819
32
0.045000
0
3DFACE
62
163
10
0.007954
20
0.000000
30
0.045000
11
0.003000
21
0.000000
31
0.045000
12
0.002954
22
-0.000521
32
0.045000
0
3DFACE
62
163
10
0.007954
20
0.000000
30
0.045000
11
0.002954
21
-0.000521
31
0.045000
12
0.007833
22
-0.001381
32
0.045000
0
3DFACE
62
163
10
0.000000
20
0.007954
30
0.045000
11
-0.001381
21
0.007833
31
0.045000
12
0.000000
22
0.003000
32
0.045000
0
3DFACE
62
163
10
0.007833
20
0.001381
30
0.045000
11
0.002954
21
0.000521
31
0.045000
12
0.003000
22
0.000000
32
0.045000
0
3DFACE
62
163
10
0.007833
20
0.001381
30
0.045000
11
0.002819
21
0.001026
31
0.045000
12
0.002954
22
0.000521
32
0.045000
0
3DFACE
62
163
10
0.007833
20
0.001381
30
0.045000
11
0.003000
21
0.000000
31
0.045000
12
0.007954
22
0.000000
32
0.045000
0
3DFACE
62
163
10
0.001381
20
0.007833
30
0.045000
11
0.000521
21
0.002954
31
0.045000
12
0.001026
22
0.002819
32
0.045000
0
3DFACE
62
163
10
0.001381
20
0.007833
30
0.045000
11
0.000000
21
0.003000
31
0.045000
12
0.000521
22
0.002954
32
0.045000
0
3DFACE
62
163
10
0.001381
20
0.007833
30
0.045000
11
0.000000
21
0.007954
31
0.045000
12
0.000000
22
0.003000
32
0.045000
0
3DFACE
62
163
10
0.007474
20
0.002720
30
0.045000
11
0.002819
21
0.001026
31
0.045000
12
0.007833
22
0.001381
32
0.045000
0
3DFACE
62
163
10
0.002720
20
0.007474
30
0.045000
11
0.001381
21
0.007833
31
0.045000
12
0.001026
22
0.002819
32
0.045000
0
3DFACE
62
163
10
0.002720
20
0.007474
30
0.045000
11
0.001026
21
0.002819
31
0.045000
12
0.001500
22
0.002598
32
0.045000
0
3DFACE
62
163
10
0.006888
20
0.003977
30
0.045000
11
0.002819
21
0.001026
31
0.045000
12
0.007474
22
0.002720
32
0.045000
0
3DFACE
62
163
10
0.006888
20
0.003977
30
0.045000
11
0.002598
21
0.001500
31
0.045000
12
0.002819
22
0.001026
32
0.045000
0
3DFACE
62
163
10
0.003977
20
0.006888
30
0.045000
11
0.002720
21
0.007474
31
0.045000
12
0.001500
22
0.002598
32
0.045000
0
3DFACE
62
163
10
0.006093
20
0.005113
30
0.045000
11
0.002298
21
0.001928
31
0.045000
12
0.002598
22
0.001500
32
0.045000
0
3DFACE
62
163
10
0.006093
20
0.005113
30
0.045000
11
0.001928
21
0.002298
31
0.045000
12
0.002298
22
0.001928
32
0.045000
0
3DFACE
62
163
10
0.006093
20
0.005113
30
0.045000
11
0.002598
21
0.001500
31
0.045000
12
0.006888
22
0.003977
32
0.045000
0
3DFACE
62
163
10
0.005113
20
0.006093
30
0.045000
11
0.003977
21
0.006888
31
0.045000
12
0.001500
22
0.002598
32
0.045000
0
3DFACE
62
163
10
0.005113
20
0.006093
30
0.045000
11
0.001928
21
0.002298
31
0.045000
12
0.006093
22
0.005113
32
0.045000
0
3DFACE
62
163
10
0.005113
20
0.006093
30
0.045000
11
0.001500
21
0.002598
31
0.045000
12
0.001928
22
0.002298
32
0.045000
0
3DFACE
62
163
10
-0.001928
20
-0.002298
30
0.043000
11
-0.006093
21
-0.005113
31
0.043000
12
-0.005113
22
-0.006093
32
0.043000
0
3DFACE
62
163
10
-0.001928
20
-0.002298
30
0.043000
11
-0.002298
21
-0.001928
31
0.043000
12
-0.006093
22
-0.005113
32
0.043000
0
3DFACE
62
163
10
-0.002598
20
-0.001500
30
0.043000
11
-0.006888
21
-0.003977
31
0.043000
12
-0.006093
22
-0.005113
32
0.043000
0
3DFACE
62
163
10
-0.002598
20
-0.001500
30
0.043000
11
-0.006093
21
-0.005113
31
0.043000
12
-0.002298
22
-0.001928
32
0.043000
0
3DFACE
62
163
10
-0.001500
20
-0.002598
30
0.043000
11
-0.001928
21
-0.002298
31
0.043000
12
-0.005113
22
-0.006093
32
0.043000
0
3DFACE
62
163
10
-0.001500
20
-0.002598
30
0.043000
11
-0.005113
21
-0.006093
31
0.043000
12
-0.003977
22
-0.006888
32
0.043000
0
3DFACE
62
163
10
-0.001026
20
-0.002819
30
0.043000
11
-0.001500
21
-0.002598
31
0.043000
12
-0.003977
22
-0.006888
32
0.043000
0
3DFACE
62
163
10
-0.001026
20
-0.002819
30
0.043000
11
-0.003977
21
-0.006888
31
0.043000
12
-0.002720
22
-0.007474
32
0.043000
0
3DFACE
62
163
10
-0.002819
20
-0.001026
30
0.043000
11
-0.006888
21
-0.003977
31
0.043000
12
-0.002598
22
-0.001500
32
0.043000
0
3DFACE
62
163
10
-0.002819
20
-0.001026
30
0.043000
11
-0.007474
21
-0.002720
31
0.043000
12
-0.006888
22
-0.003977
32
0.043000
0
3DFACE
62
163
10
-0.000521
20
-0.002954
30
0.043000
11
-0.002720
21
-0.007474
31
0.043000
12
-0.001381
22
-0.007833
32
0.043000
0
3DFACE
62
163
10
-0.000521
20
-0.002954
30
0.043000
11
-0.001026
21
-0.002819
31
0.043000
12
-0.002720
22
-0.007474
32
0.043000
0
3DFACE
62
163
10
-0.002954
20
-0.000521
30
0.043000
11
-0.007833
21
-0.001381
31
0.043000
12
-0.007474
22
-0.002720
32
0.043000
0
3DFACE
62
163
10
-0.002954
20
-0.000521
30
0.043000
11
-0.007474
21
-0.002720
31
0.043000
12
-0.002819
22
-0.001026
32
0.043000
0
3DFACE
62
163
10
0.000000
20
-0.003000
30
0.043000
11
-0.000521
21
-0.002954
31
0.043000
12
-0.001381
22
-0.007833
32
0.043000
0
3DFACE
62
163
10
0.000000
20
-0.003000
30
0.043000
11
-0.001381
21
-0.007833
31
0.043000
12
-0.000000
22
-0.007954
32
0.043000
0
3DFACE
62
163
10
0.000000
20
-0.003000
30
0.043000
11
-0.000000
21
-0.007954
31
0.043000
12
0.001381
22
-0.007833
32
0.043000
0
3DFACE
62
163
10
-0.003000
20
0.000000
30
0.043000
11
-0.007833
21
-0.001381
31
0.043000
12
-0.002954
22
-0.000521
32
0.043000
0
3DFACE
62
163
10
-0.003000
20
0.000000
30
0.043000
11
-0.007954
21
0.000000
31
0.043000
12
-0.007833
22
-0.001381
32
0.043000
0
3DFACE
62
163
10
0.000521
20
-0.002954
30
0.043000
11
0.000000
21
-0.003000
31
0.043000
12
0.001381
22
-0.007833
32
0.043000
0
3DFACE
62
163
10
0.000521
20
-0.002954
30
0.043000
11
0.001381
21
-0.007833
31
0.043000
12
0.002720
22
-0.007474
32
0.043000
0
3DFACE
62
163
10
-0.002954
20
0.000521
30
0.043000
11
-0.007474
21
0.002720
31
0.043000
12
-0.007833
22
0.001381
32
0.043000
0
3DFACE
62
163
10
-0.002954
20
0.000521
30
0.043000
11
-0.007833
21
0.001381
31
0.043000
12
-0.007954
22
0.000000
32
0.043000
0
3DFACE
62
163
10
-0.002954
20
0.000521
30
0.043000
11
-0.007954
21
0.000000
31
0.043000
12
-0.003000
22
0.000000
32
0.043000
0
3DFACE
62
163
10
0.001026
20
-0.002819
30
0.043000
11
0.000521
21
-0.002954
31
0.043000
12
0.002720
22
-0.007474
32
0.043000
0
3DFACE
62
163
10
-0.002819
20
0.001026
30
0.043000
11
-0.007474
21
0.002720
31
0.043000
12
-0.002954
22
0.000521
32
0.043000
0
3DFACE
62
163
10
0.001500
20
-0.002598
30
0.043000
11
0.002720
21
-0.007474
31
0.043000
12
0.003977
22
-0.006888
32
0.043000
0
3DFACE
62
163
10
0.001500
20
-0.002598
30
0.043000
11
0.001026
21
-0.002819
31
0.043000
12
0.002720
22
-0.007474
32
0.043000
0
3DFACE
62
163
10
-0.002598
20
0.001500
30
0.043000
11
-0.006888
21
0.003977
31
0.043000
12
-0.007474
22
0.002720
32
0.043000
0
3DFACE
62
163
10
-0.002598
20
0.001500
30
0.043000
11
-0.007474
21
0.002720
31
0.043000
12
-0.002819
22
0.001026
32
0.043000
0
3DFACE
62
163
10
0.001928
20
-0.002298
30
0.043000
11
0.003977
21
-0.006888
31
0.043000
12
0.005113
22
-0.006093
32
0.043000
0
3DFACE
62
163
10
0.001928
20
-0.002298
30
0.043000
11
0.001500
21
-0.002598
31
0.043000
12
0.003977
22
-0.006888
32
0.043000
0
3DFACE
62
163
10
-0.002298
20
0.001928
30
0.043000
11
-0.006888
21
0.003977
31
0.043000
12
-0.002598
22
0.001500
32
0.043000
0
3DFACE
62
163
10
-0.002298
20
0.001928
30
0.043000
11
-0.006093
21
0.005113
31
0.043000
12
-0.006888
22
0.003977
32
0.043000
0
3DFACE
62
163
10
0.006093
20
-0.005113
30
0.043000
11
0.001928
21
-0.002298
31
0.043000
12
0.005113
22
-0.006093
32
0.043000
0
3DFACE
62
163
10
0.006093
20
-0.005113
30
0.043000
11
0.002298
21
-0.001928
31
0.043000
12
0.001928
22
-0.002298
32
0.043000
0
3DFACE
62
163
10
-0.005113
20
0.006093
30
0.043000
11
-0.006093
21
0.005113
31
0.043000
12
-0.002298
22
0.001928
32
0.043000
0
3DFACE
62
163
10
-0.005113
20
0.006093
30
0.043000
11
-0.002298
21
0.001928
31
0.043000
12
-0.001928
22
0.002298
32
0.043000
0
3DFACE
62
163
10
0.006888
20
-0.003977
30
0.043000
11
0.002298
21
-0.001928
31
0.043000
12
0.006093
22
-0.005113
32
0.043000
0
3DFACE
62
163
10
0.006888
20
-0.003977
30
0.043000
11
0.002598
21
-0.001500
31
0.043000
12
0.002298
22
-0.001928
32
0.043000
0
3DFACE
62
163
10
0.006888
20
-0.003977
30
0.043000
11
0.002819
21
-0.001026
31
0.043000
12
0.002598
22
-0.001500
32
0.043000
0
3DFACE
62
163
10
-0.003977
20
0.006888
30
0.043000
11
-0.001928
21
0.002298
31
0.043000
12
-0.001500
22
0.002598
32
0.043000
0
3DFACE
62
163
10
-0.003977
20
0.006888
30
0.043000
11
-0.005113
21
0.006093
31
0.043000
12
-0.001928
22
0.002298
32
0.043000
0
3DFACE
62
163
10
0.007474
20
-0.002720
30
0.043000
11
0.002819
21
-0.001026
31
0.043000
12
0.006888
22
-0.003977
32
0.043000
0
3DFACE
62
163
10
0.007474
20
-0.002720
30
0.043000
11
0.002954
21
-0.000521
31
0.043000
12
0.002819
22
-0.001026
32
0.043000
0
3DFACE
62
163
10
-0.002720
20
0.007474
30
0.043000
11
-0.001500
21
0.002598
31
0.043000
12
-0.001026
22
0.002819
32
0.043000
0
3DFACE
62
163
10
-0.002720
20
0.007474
30
0.043000
11
-0.003977
21
0.006888
31
0.043000
12
-0.001500
22
0.002598
32
0.043000
0
3DFACE
62
163
10
0.007833
20
-0.001381
30
0.043000
11
0.002954
21
-0.000521
31
0.043000
12
0.007474
22
-0.002720
32
0.043000
0
3DFACE
62
163
10
-0.001381
20
0.007833
30
0.043000
11
-0.000521
21
0.002954
31
0.043000
12
0.000000
22
0.003000
32
0.043000
0
3DFACE
62
163
10
-0.001381
20
0.007833
30
0.043000
11
-0.001026
21
0.002819
31
0.043000
12
-0.000521
22
0.002954
32
0.043000
0
3DFACE
62
163
10
-0.001381
20
0.007833
30
0.043000
11
-0.002720
21
0.007474
31
0.043000
12
-0.001026
22
0.002819
32
0.043000
0
3DFACE
62
163
10
0.000000
20
0.007954
30
0.043000
11
-0.001381
21
0.007833
31
0.043000
12
0.000000
22
0.003000
32
0.043000
0
3DFACE
62
163
10
0.007954
20
0.000000
30
0.043000
11
0.003000
21
0.000000
31
0.043000
12
0.002954
22
-0.000521
32
0.043000
0
3DFACE
62
163
10
0.007954
20
0.000000
30
0.043000
11
0.002954
21
-0.000521
31
0.043000
12
0.007833
22
-0.001381
32
0.043000
0
3DFACE
62
163
10
0.001381
20
0.007833
30
0.043000
11
0.000521
21
0.002954
31
0.043000
12
0.001026
22
0.002819
32
0.043000
0
3DFACE
62
163
10
0.001381
20
0.007833
30
0.043000
11
0.000000
21
0.003000
31
0.043000
12
0.000521
22
0.002954
32
0.043000
0
3DFACE
62
163
10
0.001381
20
0.007833
30
0.043000
11
0.000000
21
0.007954
31
0.043000
12
0.000000
22
0.003000
32
0.043000
0
3DFACE
62
163
10
0.007833
20
0.001381
30
0.043000
11
0.002954
21
0.000521
31
0.043000
12
0.003000
22
0.000000
32
0.043000
0
3DFACE
62
163
10
0.007833
20
0.001381
30
0.043000
11
0.002819
21
0.001026
31
0.043000
12
0.002954
22
0.000521
32
0.043000
0
3DFACE
62
163
10
0.007833
20
0.001381
30
0.043000
11
0.003000
21
0.000000
31
0.043000
12
0.007954
22
0.000000
32
0.043000
0
3DFACE
62
163
10
0.002720
20
0.007474
30
0.043000
11
0.001026
21
0.002819
31
0.043000
12
0.001500
22
0.002598
32
0.043000
0
3DFACE
62
163
10
0.002720
20
0.007474
30
0.043000
11
0.001381
21
0.007833
31
0.043000
12
0.001026
22
0.002819
32
0.043000
0
3DFACE
62
163
10
0.007474
20
0.002720
30
0.043000
11
0.002819
21
0.001026
31
0.043000
12
0.007833
22
0.001381
32
0.043000
0
3DFACE
62
163
10
0.006888
20
0.003977
30
0.043000
11
0.002819
21
0.001026
31
0.043000
12
0.007474
22
0.002720
32
0.043000
0
3DFACE
62
163
10
0.006888
20
0.003977
30
0.043000
11
0.002598
21
0.001500
31
0.043000
12
0.002819
22
0.001026
32
0.043000
0
3DFACE
62
163
10
0.003977
20
0.006888
30
0.043000
11
0.002720
21
0.007474
31
0.043000
12
0.001500
22
0.002598
32
0.043000
0
3DFACE
62
163
10
0.006093
20
0.005113
30
0.043000
11
0.002598
21
0.001500
31
0.043000
12
0.006888
22
0.003977
32
0.043000
0
3DFACE
62
163
10
0.006093
20
0.005113
30
0.043000
11
0.002298
21
0.001928
31
0.043000
12
0.002598
22
0.001500
32
0.043000
0
3DFACE
62
163
10
0.006093
20
0.005113
30
0.043000
11
0.001928
21
0.002298
31
0.043000
12
0.002298
22
0.001928
32
0.043000
0
3DFACE
62
163
10
0.005113
20
0.006093
30
0.043000
11
0.001928
21
0.002298
31
0.043000
12
0.006093
22
0.005113
32
0.043000
0
3DFACE
62
163
10
0.005113
20
0.006093
30
0.043000
11
0.001500
21
0.002598
31
0.043000
12
0.001928
22
0.002298
32
0.043000
0
3DFACE
62
163
10
0.005113
20
0.006093
30
0.043000
11
0.003977
21
0.006888
31
0.043000
12
0.001500
22
0.002598
32
0.043000
0
3DFACE
62
163
10
0.007833
20
-0.001381
30
0.043000
11
0.007954
21
0.000000
31
0.043000
12
0.007954
22
0.000000
32
0.045000
0
3DFACE
62
163
10
0.007833
20
-0.001381
30
0.043000
11
0.007954
21
0.000000
31
0.045000
12
0.007833
22
-0.001381
32
0.045000
0
3DFACE
62
163
10
0.007474
20
-0.002720
30
0.043000
11
0.007833
21
-0.001381
31
0.045000
12
0.007474
22
-0.002720
32
0.045000
0
3DFACE
62
163
10
0.007474
20
-0.002720
30
0.043000
11
0.007833
21
-0.001381
31
0.043000
12
0.007833
22
-0.001381
32
0.045000
0
3DFACE
62
163
10
0.006888
20
-0.003977
30
0.043000
11
0.007474
21
-0.002720
31
0.045000
12
0.006888
22
-0.003977
32
0.045000
0
3DFACE
62
163
10
0.006888
20
-0.003977
30
0.043000
11
0.007474
21
-0.002720
31
0.043000
12
0.007474
22
-0.002720
32
0.045000
0
3DFACE
62
163
10
0.006093
20
-0.005113
30
0.043000
11
0.006093
21
-0.005113
31
0.045000
12
0.005113
22
-0.006093
32
0.045000
0
3DFACE
62
163
10
0.006093
20
-0.005113
30
0.043000
11
0.006888
21
-0.003977
31
0.045000
12
0.006093
22
-0.005113
32
0.045000
0
3DFACE
62
163
10
0.006093
20
-0.005113
30
0.043000
11
0.006888
21
-0.003977
31
0.043000
12
0.006888
22
-0.003977
32
0.045000
0
3DFACE
62
163
10
0.005113
20
-0.006093
30
0.043000
11
0.006093
21
-0.005113
31
0.043000
12
0.005113
22
-0.006093
32
0.045000
0
3DFACE
62
163
10
0.003977
20
-0.006888
30
0.043000
11
0.003977
21
-0.006888
31
0.045000
12
0.002720
22
-0.007474
32
0.045000
0
3DFACE
62
163
10
0.003977
20
-0.006888
30
0.043000
11
0.005113
21
-0.006093
31
0.045000
12
0.003977
22
-0.006888
32
0.045000
0
3DFACE
62
163
10
0.003977
20
-0.006888
30
0.043000
11
0.005113
21
-0.006093
31
0.043000
12
0.005113
22
-0.006093
32
0.045000
0
3DFACE
62
163
10
0.002720
20
-0.007474
30
0.043000
11
0.003977
21
-0.006888
31
0.043000
12
0.002720
22
-0.007474
32
0.045000
0
3DFACE
62
163
10
0.001381
20
-0.007833
30
0.043000
11
0.001381
21
-0.007833
31
0.045000
12
-0.000000
22
-0.007954
32
0.045000
0
3DFACE
62
163
10
0.001381
20
-0.007833
30
0.043000
11
0.002720
21
-0.007474
31
0.045000
12
0.001381
22
-0.007833
32
0.045000
0
3DFACE
62
163
10
0.001381
20
-0.007833
30
0.043000
11
0.002720
21
-0.007474
31
0.043000
12
0.002720
22
-0.007474
32
0.045000
0
3DFACE
62
163
10
-0.000000
20
-0.007954
30
0.043000
11
0.001381
21
-0.007833
31
0.043000
12
-0.000000
22
-0.007954
32
0.045000
0
3DFACE
62
163
10
-0.001381
20
-0.007833
30
0.043000
11
-0.000000
21
-0.007954
31
0.045000
12
-0.001381
22
-0.007833
32
0.045000
0
3DFACE
62
163
10
-0.001381
20
-0.007833
30
0.043000
11
-0.000000
21
-0.007954
31
0.043000
12
-0.000000
22
-0.007954
32
0.045000
0
3DFACE
62
163
10
-0.002720
20
-0.007474
30
0.043000
11
-0.001381
21
-0.007833
31
0.045000
12
-0.002720
22
-0.007474
32
0.045000
0
3DFACE
62
163
10
-0.002720
20
-0.007474
30
0.043000
11
-0.001381
21
-0.007833
31
0.043000
12
-0.001381
22
-0.007833
32
0.045000
0
3DFACE
62
163
10
-0.003977
20
-0.006888
30
0.043000
11
-0.002720
21
-0.007474
31
0.045000
12
-0.003977
22
-0.006888
32
0.045000
0
3DFACE
62
163
10
-0.003977
20
-0.006888
30
0.043000
11
-0.002720
21
-0.007474
31
0.043000
12
-0.002720
22
-0.007474
32
0.045000
0
3DFACE
62
163
10
-0.005113
20
-0.006093
30
0.043000
11
-0.003977
21
-0.006888
31
0.045000
12
-0.005113
22
-0.006093
32
0.045000
0
3DFACE
62
163
10
-0.005113
20
-0.006093
30
0.043000
11
-0.003977
21
-0.006888
31
0.043000
12
-0.003977
22
-0.006888
32
0.045000
0
3DFACE
62
163
10
-0.006093
20
-0.005113
30
0.043000
11
-0.006093
21
-0.005113
31
0.045000
12
-0.006888
22
-0.003977
32
0.045000
0
3DFACE
62
163
10
-0.006093
20
-0.005113
30
0.043000
11
-0.005113
21
-0.006093
31
0.045000
12
-0.006093
22
-0.005113
32
0.045000
0
3DFACE
62
163
10
-0.006093
20
-0.005113
30
0.043000
11
-0.005113
21
-0.006093
31
0.043000
12
-0.005113
22
-0.006093
32
0.045000
0
3DFACE
62
163
10
-0.006888
20
-0.003977
30
0.043000
11
-0.006093
21
-0.005113
31
0.043000
12
-0.006888
22
-0.003977
32
0.045000
0
3DFACE
62
163
10
-0.007474
20
-0.002720
30
0.043000
11
-0.006888
21
-0.003977
31
0.045000
12
-0.007474
22
-0.002720
32
0.045000
0
3DFACE
62
163
10
-0.007474
20
-0.002720
30
0.043000
11
-0.006888
21
-0.003977
31
0.043000
12
-0.006888
22
-0.003977
32
0.045000
0
3DFACE
62
163
10
-0.007833
20
-0.001381
30
0.043000
11
-0.007833
21
-0.001381
31
0.045000
12
-0.007954
22
0.000000
32
0.045000
0
3DFACE
62
163
10
-0.007833
20
-0.001381
30
0.043000
11
-0.007474
21
-0.002720
31
0.045000
12
-0.007833
22
-0.001381
32
0.045000
0
3DFACE
62
163
10
-0.007833
20
-0.001381
30
0.043000
11
-0.007474
21
-0.002720
31
0.043000
12
-0.007474
22
-0.002720
32
0.045000
0
3DFACE
62
163
10
-0.007954
20
0.000000
30
0.043000
11
-0.007833
21
-0.001381
31
0.043000
12
-0.007954
22
0.000000
32
0.045000
0
3DFACE
62
163
10
-0.002954
20
0.000521
30
0.043000
11
-0.003000
21
0.000000
31
0.043000
12
-0.003000
22
0.000000
32
0.045000
0
3DFACE
62
163
10
-0.002954
20
0.000521
30
0.043000
11
-0.003000
21
0.000000
31
0.045000
12
-0.002954
22
0.000521
32
0.045000
0
3DFACE
62
163
10
-0.002819
20
0.001026
30
0.043000
11
-0.002954
21
0.000521
31
0.045000
12
-0.002819
22
0.001026
32
0.045000
0
3DFACE
62
163
10
-0.002819
20
0.001026
30
0.043000
11
-0.002954
21
0.000521
31
0.043000
12
-0.002954
22
0.000521
32
0.045000
0
3DFACE
62
163
10
-0.002598
20
0.001500
30
0.043000
11
-0.002819
21
0.001026
31
0.045000
12
-0.002598
22
0.001500
32
0.045000
0
3DFACE
62
163
10
-0.002598
20
0.001500
30
0.043000
11
-0.002819
21
0.001026
31
0.043000
12
-0.002819
22
0.001026
32
0.045000
0
3DFACE
62
163
10
-0.002298
20
0.001928
30
0.043000
11
-0.002598
21
0.001500
31
0.045000
12
-0.002298
22
0.001928
32
0.045000
0
3DFACE
62
163
10
-0.002298
20
0.001928
30
0.043000
11
-0.002598
21
0.001500
31
0.043000
12
-0.002598
22
0.001500
32
0.045000
0
3DFACE
62
163
10
-0.001928
20
0.002298
30
0.043000
11
-0.002298
21
0.001928
31
0.045000
12
-0.001928
22
0.002298
32
0.045000
0
3DFACE
62
163
10
-0.001928
20
0.002298
30
0.043000
11
-0.002298
21
0.001928
31
0.043000
12
-0.002298
22
0.001928
32
0.045000
0
3DFACE
62
163
10
-0.001500
20
0.002598
30
0.043000
11
-0.001928
21
0.002298
31
0.045000
12
-0.001500
22
0.002598
32
0.045000
0
3DFACE
62
163
10
-0.001500
20
0.002598
30
0.043000
11
-0.001928
21
0.002298
31
0.043000
12
-0.001928
22
0.002298
32
0.045000
0
3DFACE
62
163
10
-0.001026
20
0.002819
30
0.043000
11
-0.001500
21
0.002598
31
0.045000
12
-0.001026
22
0.002819
32
0.045000
0
3DFACE
62
163
10
-0.001026
20
0.002819
30
0.043000
11
-0.001500
21
0.002598
31
0.043000
12
-0.001500
22
0.002598
32
0.045000
0
3DFACE
62
163
10
-0.000521
20
0.002954
30
0.043000
11
-0.001026
21
0.002819
31
0.045000
12
-0.000521
22
0.002954
32
0.045000
0
3DFACE
62
163
10
-0.000521
20
0.002954
30
0.043000
11
-0.001026
21
0.002819
31
0.043000
12
-0.001026
22
0.002819
32
0.045000
0
3DFACE
62
163
10
0.000000
20
0.003000
30
0.043000
11
-0.000521
21
0.002954
31
0.045000
12
0.000000
22
0.003000
32
0.045000
0
3DFACE
62
163
10
0.000000
20
0.003000
30
0.043000
11
-0.000521
21
0.002954
31
0.043000
12
-0.000521
22
0.002954
32
0.045000
0
3DFACE
62
163
10
0.000521
20
0.002954
30
0.043000
11
0.000000
21
0.003000
31
0.045000
12
0.000521
22
0.002954
32
0.045000
0
3DFACE
62
163
10
0.000521
20
0.002954
30
0.043000
11
0.000000
21
0.003000
31
0.043000
12
0.000000
22
0.003000
32
0.045000
0
3DFACE
62
163
10
0.001026
20
0.002819
30
0.043000
11
0.000521
21
0.002954
31
0.045000
12
0.001026
22
0.002819
32
0.045000
0
3DFACE
62
163
10
0.001026
20
0.002819
30
0.043000
11
0.000521
21
0.002954
31
0.043000
12
0.000521
22
0.002954
32
0.045000
0
3DFACE
62
163
10
0.001500
20
0.002598
30
0.043000
11
0.001026
21
0.002819
31
0.045000
12
0.001500
22
0.002598
32
0.045000
0
3DFACE
62
163
10
0.001500
20
0.002598
30
0.043000
11
0.001026
21
0.002819
31
0.043000
12
0.001026
22
0.002819
32
0.045000
0
3DFACE
62
163
10
0.001928
20
0.002298
30
0.043000
11
0.001500
21
0.002598
31
0.045000
12
0.001928
22
0.002298
32
0.045000
0
3DFACE
62
163
10
0.001928
20
0.002298
30
0.043000
11
0.001500
21
0.002598
31
0.043000
12
0.001500
22
0.002598
32
0.045000
0
3DFACE
62
163
10
0.002298
20
0.001928
30
0.043000
11
0.001928
21
0.002298
31
0.045000
12
0.002298
22
0.001928
32
0.045000
0
3DFACE
62
163
10
0.002298
20
0.001928
30
0.043000
11
0.001928
21
0.002298
31
0.043000
12
0.001928
22
0.002298
32
0.045000
0
3DFACE
62
163
10
0.002598
20
0.001500
30
0.043000
11
0.002298
21
0.001928
31
0.043000
12
0.002298
22
0.001928
32
0.045000
0
3DFACE
62
163
10
0.002598
20
0.001500
30
0.043000
11
0.002298
21
0.001928
31
0.045000
12
0.002598
22
0.001500
32
0.045000
0
3DFACE
62
163
10
0.002819
20
0.001026
30
0.043000
11
0.002598
21
0.001500
31
0.043000
12
0.002598
22
0.001500
32
0.045000
0
3DFACE
62
163
10
0.002819
20
0.001026
30
0.043000
11
0.002598
21
0.001500
31
0.045000
12
0.002819
22
0.001026
32
0.045000
0
3DFACE
62
163
10
0.002954
20
0.000521
30
0.043000
11
0.002819
21
0.001026
31
0.043000
12
0.002819
22
0.001026
32
0.045000
0
3DFACE
62
163
10
0.002954
20
0.000521
30
0.043000
11
0.002819
21
0.001026
31
0.045000
12
0.002954
22
0.000521
32
0.045000
0
3DFACE
62
163
10
0.003000
20
0.000000
30
0.043000
11
0.002954
21
0.000521
31
0.043000
12
0.002954
22
0.000521
32
0.045000
0
3DFACE
62
163
10
0.003000
20
0.000000
30
0.043000
11
0.002954
21
0.000521
31
0.045000
12
0.003000
22
0.000000
32
0.045000
0
3DFACE
62
163
10
0.118434
20
0.023813
30
-0.035140
11
0.119199
21
0.024527
31
-0.036081
12
0.112377
22
0.031838
32
-0.036081
0
3DFACE
62
163
10
0.118434
20
0.023813
30
-0.035140
11
0.112377
21
0.031838
31
-0.036081
12
0.111612
22
0.031124
32
-0.035140
0
3DFACE
62
163
10
0.117561
20
0.022998
30
-0.034394
11
0.111612
21
0.031124
31
-0.035140
12
0.110739
22
0.030310
32
-0.034394
0
3DFACE
62
163
10
0.117561
20
0.022998
30
-0.034394
11
0.118434
21
0.023813
31
-0.035140
12
0.111612
22
0.031124
32
-0.035140
0
3DFACE
62
163
10
0.116607
20
0.022108
30
-0.033867
11
0.109785
21
0.029419
31
-0.033867
12
0.108778
22
0.028480
32
-0.033575
0
3DFACE
62
163
10
0.116607
20
0.022108
30
-0.033867
11
0.110739
21
0.030310
31
-0.034394
12
0.109785
22
0.029419
32
-0.033867
0
3DFACE
62
163
10
0.116607
20
0.022108
30
-0.033867
11
0.117561
21
0.022998
31
-0.034394
12
0.110739
22
0.030310
32
-0.034394
0
3DFACE
62
163
10
0.115600
20
0.021169
30
-0.033575
11
0.116607
21
0.022108
31
-0.033867
12
0.108778
22
0.028480
32
-0.033575
0
3DFACE
62
163
10
0.114572
20
0.020209
30
-0.033526
11
0.108778
21
0.028480
31
-0.033575
12
0.107750
22
0.027520
32
-0.033526
0
3DFACE
62
163
10
0.114572
20
0.020209
30
-0.033526
11
0.115600
21
0.021169
31
-0.033575
12
0.108778
22
0.028480
32
-0.033575
0
3DFACE
62
163
10
0.113553
20
0.019258
30
-0.033723
11
0.107750
21
0.027520
31
-0.033526
12
0.106730
22
0.026569
32
-0.033723
0
3DFACE
62
163
10
0.113553
20
0.019258
30
-0.033723
11
0.114572
21
0.020209
31
-0.033526
12
0.107750
22
0.027520
32
-0.033526
0
3DFACE
62
163
10
0.112574
20
0.018345
30
-0.034158
11
0.106730
21
0.026569
31
-0.033723
12
0.105752
22
0.025656
32
-0.034158
0
3DFACE
62
163
10
0.112574
20
0.018345
30
-0.034158
11
0.113553
21
0.019258
31
-0.033723
12
0.106730
22
0.026569
32
-0.033723
0
3DFACE
62
163
10
0.111666
20
0.017497
30
-0.034819
11
0.105752
21
0.025656
31
-0.034158
12
0.104843
22
0.024809
32
-0.034819
0
3DFACE
62
163
10
0.111666
20
0.017497
30
-0.034819
11
0.112574
21
0.018345
31
-0.034158
12
0.105752
22
0.025656
32
-0.034158
0
3DFACE
62
163
10
0.110855
20
0.016741
30
-0.035686
11
0.104033
21
0.024052
31
-0.035686
12
0.103344
22
0.023410
32
-0.036732
0
3DFACE
62
163
10
0.110855
20
0.016741
30
-0.035686
11
0.104843
21
0.024809
31
-0.034819
12
0.104033
22
0.024052
32
-0.035686
0
3DFACE
62
163
10
0.110855
20
0.016741
30
-0.035686
11
0.111666
21
0.017497
31
-0.034819
12
0.104843
22
0.024809
32
-0.034819
0
3DFACE
62
163
10
0.110166
20
0.016098
30
-0.036732
11
0.110855
21
0.016741
31
-0.035686
12
0.103344
22
0.023410
32
-0.036732
0
3DFACE
62
163
10
0.109621
20
0.015590
30
-0.037926
11
0.103344
21
0.023410
31
-0.036732
12
0.102799
22
0.022901
32
-0.037926
0
3DFACE
62
163
10
0.109621
20
0.015590
30
-0.037926
11
0.110166
21
0.016098
31
-0.036732
12
0.103344
22
0.023410
32
-0.036732
0
3DFACE
62
163
10
0.109236
20
0.015230
30
-0.039231
11
0.102799
21
0.022901
31
-0.037926
12
0.102414
22
0.022542
32
-0.039231
0
3DFACE
62
163
10
0.109236
20
0.015230
30
-0.039231
11
0.109621
21
0.015590
31
-0.037926
12
0.102799
22
0.022901
32
-0.037926
0
3DFACE
62
163
10
0.109022
20
0.015031
30
-0.040608
11
0.102414
21
0.022542
31
-0.039231
12
0.102200
22
0.022342
32
-0.040608
0
3DFACE
62
163
10
0.109022
20
0.015031
30
-0.040608
11
0.109236
21
0.015230
31
-0.039231
12
0.102414
22
0.022542
32
-0.039231
0
3DFACE
62
163
10
0.108987
20
0.014998
30
-0.042015
11
0.102200
21
0.022342
31
-0.040608
12
0.102165
22
0.022309
32
-0.042015
0
3DFACE
62
163
10
0.108987
20
0.014998
30
-0.042015
11
0.109022
21
0.015031
31
-0.040608
12
0.102200
22
0.022342
32
-0.040608
0
3DFACE
62
163
10
0.109130
20
0.015132
30
-0.043409
11
0.108987
21
0.014998
31
-0.042015
12
0.102165
22
0.022309
32
-0.042015
0
3DFACE
62
163
10
0.109130
20
0.015132
30
-0.043409
11
0.102165
21
0.022309
31
-0.042015
12
0.102308
22
0.022443
32
-0.043409
0
3DFACE
62
163
10
0.109449
20
0.015429
30
-0.044747
11
0.109130
21
0.015132
31
-0.043409
12
0.102308
22
0.022443
32
-0.043409
0
3DFACE
62
163
10
0.109449
20
0.015429
30
-0.044747
11
0.102626
21
0.022740
31
-0.044747
12
0.103110
22
0.023191
32
-0.045990
0
3DFACE
62
163
10
0.109449
20
0.015429
30
-0.044747
11
0.102308
21
0.022443
31
-0.043409
12
0.102626
22
0.022740
32
-0.044747
0
3DFACE
62
163
10
0.109932
20
0.015880
30
-0.045990
11
0.109449
21
0.015429
31
-0.044747
12
0.103110
22
0.023191
32
-0.045990
0
3DFACE
62
163
10
0.110566
20
0.016471
30
-0.047099
11
0.109932
21
0.015880
31
-0.045990
12
0.103110
22
0.023191
32
-0.045990
0
3DFACE
62
163
10
0.110566
20
0.016471
30
-0.047099
11
0.103110
21
0.023191
31
-0.045990
12
0.103744
22
0.023783
32
-0.047099
0
3DFACE
62
163
10
0.106161
20
0.012361
30
-0.052720
11
0.099339
21
0.019673
31
-0.052720
12
0.100885
22
0.021115
32
-0.054622
0
3DFACE
62
163
10
0.107707
20
0.013803
30
-0.054622
11
0.106161
21
0.012361
31
-0.052720
12
0.100885
22
0.021115
32
-0.054622
0
3DFACE
62
163
10
0.109471
20
0.015449
30
-0.056129
11
0.100885
21
0.021115
31
-0.054622
12
0.102648
22
0.022760
32
-0.056129
0
3DFACE
62
163
10
0.109471
20
0.015449
30
-0.056129
11
0.107707
21
0.013803
31
-0.054622
12
0.100885
22
0.021115
32
-0.054622
0
3DFACE
62
163
10
0.111399
20
0.017248
30
-0.057193
11
0.104576
21
0.024560
31
-0.057193
12
0.106610
22
0.026457
32
-0.057784
0
3DFACE
62
163
10
0.111399
20
0.017248
30
-0.057193
11
0.102648
21
0.022760
31
-0.056129
12
0.104576
22
0.024560
32
-0.057193
0
3DFACE
62
163
10
0.111399
20
0.017248
30
-0.057193
11
0.109471
21
0.015449
31
-0.056129
12
0.102648
22
0.022760
32
-0.056129
0
3DFACE
62
163
10
0.113433
20
0.019146
30
-0.057784
11
0.111399
21
0.017248
31
-0.057193
12
0.106610
22
0.026457
32
-0.057784
0
3DFACE
62
163
10
0.115511
20
0.021085
30
-0.057882
11
0.106610
21
0.026457
31
-0.057784
12
0.108688
22
0.028396
32
-0.057882
0
3DFACE
62
163
10
0.115511
20
0.021085
30
-0.057882
11
0.113433
21
0.019146
31
-0.057784
12
0.106610
22
0.026457
32
-0.057784
0
3DFACE
62
163
10
0.117570
20
0.023006
30
-0.057485
11
0.110747
21
0.030318
31
-0.057485
12
0.112725
22
0.032163
32
-0.056606
0
3DFACE
62
163
10
0.117570
20
0.023006
30
-0.057485
11
0.108688
21
0.028396
31
-0.057882
12
0.110747
22
0.030318
32
-0.057485
0
3DFACE
62
163
10
0.117570
20
0.023006
30
-0.057485
11
0.115511
21
0.021085
31
-0.057882
12
0.108688
22
0.028396
32
-0.057882
0
3DFACE
62
163
10
0.119547
20
0.024851
30
-0.056606
11
0.117570
21
0.023006
31
-0.057485
12
0.112725
22
0.032163
32
-0.056606
0
3DFACE
62
163
10
0.121382
20
0.026564
30
-0.055270
11
0.112725
21
0.032163
31
-0.056606
12
0.114560
22
0.033875
32
-0.055270
0
3DFACE
62
163
10
0.121382
20
0.026564
30
-0.055270
11
0.119547
21
0.024851
31
-0.056606
12
0.112725
22
0.032163
32
-0.056606
0
3DFACE
62
163
10
0.123020
20
0.028092
30
-0.053518
11
0.116198
21
0.035404
31
-0.053518
12
0.117589
22
0.036701
32
-0.051404
0
3DFACE
62
163
10
0.123020
20
0.028092
30
-0.053518
11
0.114560
21
0.033875
31
-0.055270
12
0.116198
22
0.035404
32
-0.053518
0
3DFACE
62
163
10
0.123020
20
0.028092
30
-0.053518
11
0.121382
21
0.026564
31
-0.055270
12
0.114560
22
0.033875
32
-0.055270
0
3DFACE
62
163
10
0.124411
20
0.029390
30
-0.051404
11
0.123020
21
0.028092
31
-0.053518
12
0.117589
22
0.036701
32
-0.051404
0
3DFACE
62
163
10
0.125512
20
0.030418
30
-0.048992
11
0.117589
21
0.036701
31
-0.051404
12
0.118690
22
0.037729
32
-0.048992
0
3DFACE
62
163
10
0.125512
20
0.030418
30
-0.048992
11
0.124411
21
0.029390
31
-0.051404
12
0.117589
22
0.036701
32
-0.051404
0
3DFACE
62
163
10
0.126291
20
0.031144
30
-0.046355
11
0.119469
21
0.038455
31
-0.046355
12
0.119900
22
0.038858
32
-0.043573
0
3DFACE
62
163
10
0.126291
20
0.031144
30
-0.046355
11
0.118690
21
0.037729
31
-0.048992
12
0.119469
22
0.038455
32
-0.046355
0
3DFACE
62
163
10
0.126291
20
0.031144
30
-0.046355
11
0.125512
21
0.030418
31
-0.048992
12
0.118690
22
0.037729
32
-0.048992
0
3DFACE
62
163
10
0.126722
20
0.031547
30
-0.043573
11
0.126291
21
0.031144
31
-0.046355
12
0.119900
22
0.038858
32
-0.043573
0
3DFACE
62
163
10
0.126794
20
0.031614
30
-0.040731
11
0.119900
21
0.038858
31
-0.043573
12
0.119972
22
0.038925
32
-0.040731
0
3DFACE
62
163
10
0.126794
20
0.031614
30
-0.040731
11
0.126722
21
0.031547
31
-0.043573
12
0.119900
22
0.038858
32
-0.043573
0
3DFACE
62
163
10
0.126504
20
0.031343
30
-0.037915
11
0.126794
21
0.031614
31
-0.040731
12
0.119972
22
0.038925
32
-0.040731
0
3DFACE
62
163
10
0.126504
20
0.031343
30
-0.037915
11
0.119972
21
0.038925
31
-0.040731
12
0.119682
22
0.038655
32
-0.037915
0
3DFACE
62
163
10
0.125861
20
0.030743
30
-0.035211
11
0.126504
21
0.031343
31
-0.037915
12
0.119682
22
0.038655
32
-0.037915
0
3DFACE
62
163
10
0.125861
20
0.030743
30
-0.035211
11
0.119682
21
0.038655
31
-0.037915
12
0.119039
22
0.038054
32
-0.035211
0
3DFACE
62
163
10
0.124885
20
0.029832
30
-0.032700
11
0.119039
21
0.038054
31
-0.035211
12
0.118062
22
0.037143
32
-0.032700
0
3DFACE
62
163
10
0.124885
20
0.029832
30
-0.032700
11
0.125861
21
0.030743
31
-0.035211
12
0.119039
22
0.038054
32
-0.035211
0
3DFACE
62
163
10
0.123604
20
0.028637
30
-0.030460
11
0.118062
21
0.037143
31
-0.032700
12
0.116782
22
0.035948
32
-0.030460
0
3DFACE
62
163
10
0.123604
20
0.028637
30
-0.030460
11
0.124885
21
0.029832
31
-0.032700
12
0.118062
22
0.037143
32
-0.032700
0
3DFACE
62
163
10
0.102200
20
0.022342
30
-0.040608
11
0.096149
21
0.016696
31
-0.042449
12
0.096221
22
0.016763
32
-0.039607
0
3DFACE
62
163
10
0.102200
20
0.022342
30
-0.040608
11
0.102165
21
0.022309
31
-0.042015
12
0.096149
22
0.016696
32
-0.042449
0
3DFACE
62
163
10
0.102414
20
0.022542
30
-0.039231
11
0.096221
21
0.016763
31
-0.039607
12
0.096652
22
0.017165
32
-0.036825
0
3DFACE
62
163
10
0.102414
20
0.022542
30
-0.039231
11
0.102200
21
0.022342
31
-0.040608
12
0.096221
22
0.016763
32
-0.039607
0
3DFACE
62
163
10
0.102308
20
0.022443
30
-0.043409
11
0.096439
21
0.016966
31
-0.045265
12
0.096149
22
0.016696
32
-0.042449
0
3DFACE
62
163
10
0.102308
20
0.022443
30
-0.043409
11
0.096149
21
0.016696
31
-0.042449
12
0.102165
22
0.022309
32
-0.042015
0
3DFACE
62
163
10
0.102799
20
0.022901
30
-0.037926
11
0.096652
21
0.017165
31
-0.036825
12
0.097431
22
0.017892
32
-0.034188
0
3DFACE
62
163
10
0.102799
20
0.022901
30
-0.037926
11
0.097431
21
0.017892
31
-0.034188
12
0.098532
22
0.018919
32
-0.031776
0
3DFACE
62
163
10
0.102799
20
0.022901
30
-0.037926
11
0.102414
21
0.022542
31
-0.039231
12
0.096652
22
0.017165
32
-0.036825
0
3DFACE
62
163
10
0.102626
20
0.022740
30
-0.044747
11
0.097082
21
0.017566
31
-0.047969
12
0.096439
22
0.016966
32
-0.045265
0
3DFACE
62
163
10
0.102626
20
0.022740
30
-0.044747
11
0.096439
21
0.016966
31
-0.045265
12
0.102308
22
0.022443
32
-0.043409
0
3DFACE
62
163
10
0.103344
20
0.023410
30
-0.036732
11
0.102799
21
0.022901
31
-0.037926
12
0.098532
22
0.018919
32
-0.031776
0
3DFACE
62
163
10
0.103110
20
0.023191
30
-0.045990
11
0.098058
21
0.018478
31
-0.050480
12
0.097082
22
0.017566
32
-0.047969
0
3DFACE
62
163
10
0.103110
20
0.023191
30
-0.045990
11
0.097082
21
0.017566
31
-0.047969
12
0.102626
22
0.022740
32
-0.044747
0
3DFACE
62
163
10
0.104033
20
0.024052
30
-0.035686
11
0.098532
21
0.018919
31
-0.031776
12
0.099923
22
0.020217
32
-0.029662
0
3DFACE
62
163
10
0.104033
20
0.024052
30
-0.035686
11
0.103344
21
0.023410
31
-0.036732
12
0.098532
22
0.018919
32
-0.031776
0
3DFACE
62
163
10
0.103744
20
0.023783
30
-0.047099
11
0.098058
21
0.018478
31
-0.050480
12
0.103110
22
0.023191
32
-0.045990
0
3DFACE
62
163
10
0.103744
20
0.023783
30
-0.047099
11
0.099339
21
0.019673
31
-0.052720
12
0.098058
22
0.018478
32
-0.050480
0
3DFACE
62
163
10
0.104843
20
0.024809
30
-0.034819
11
0.104033
21
0.024052
31
-0.035686
12
0.099923
22
0.020217
32
-0.029662
0
3DFACE
62
163
10
0.104843
20
0.024809
30
-0.034819
11
0.099923
21
0.020217
31
-0.029662
12
0.101561
22
0.021746
32
-0.027910
0
3DFACE
62
163
10
0.104509
20
0.024496
30
-0.048040
11
0.100885
21
0.021115
31
-0.054622
12
0.099339
22
0.019673
32
-0.052720
0
3DFACE
62
163
10
0.104509
20
0.024496
30
-0.048040
11
0.099339
21
0.019673
31
-0.052720
12
0.103744
22
0.023783
32
-0.047099
0
3DFACE
62
163
10
0.105752
20
0.025656
30
-0.034158
11
0.101561
21
0.021746
31
-0.027910
12
0.103396
22
0.023458
32
-0.026574
0
3DFACE
62
163
10
0.105752
20
0.025656
30
-0.034158
11
0.104843
21
0.024809
31
-0.034819
12
0.101561
22
0.021746
32
-0.027910
0
3DFACE
62
163
10
0.105382
20
0.025311
30
-0.048786
11
0.100885
21
0.021115
31
-0.054622
12
0.104509
22
0.024496
32
-0.048040
0
3DFACE
62
163
10
0.105382
20
0.025311
30
-0.048786
11
0.102648
21
0.022760
31
-0.056129
12
0.100885
22
0.021115
32
-0.054622
0
3DFACE
62
163
10
0.106730
20
0.026569
30
-0.033723
11
0.103396
21
0.023458
31
-0.026574
12
0.105373
22
0.025303
32
-0.025695
0
3DFACE
62
163
10
0.106730
20
0.026569
30
-0.033723
11
0.105752
21
0.025656
31
-0.034158
12
0.103396
22
0.023458
32
-0.026574
0
3DFACE
62
163
10
0.106336
20
0.026201
30
-0.049313
11
0.104576
21
0.024560
31
-0.057193
12
0.102648
22
0.022760
32
-0.056129
0
3DFACE
62
163
10
0.106336
20
0.026201
30
-0.049313
11
0.102648
21
0.022760
31
-0.056129
12
0.105382
22
0.025311
32
-0.048786
0
3DFACE
62
163
10
0.107750
20
0.027520
30
-0.033526
11
0.105373
21
0.025303
31
-0.025695
12
0.107432
22
0.027224
32
-0.025298
0
3DFACE
62
163
10
0.107750
20
0.027520
30
-0.033526
11
0.106730
21
0.026569
31
-0.033723
12
0.105373
22
0.025303
32
-0.025695
0
3DFACE
62
163
10
0.107343
20
0.027141
30
-0.049605
11
0.104576
21
0.024560
31
-0.057193
12
0.106336
22
0.026201
32
-0.049313
0
3DFACE
62
163
10
0.107343
20
0.027141
30
-0.049605
11
0.106610
21
0.026457
31
-0.057784
12
0.104576
22
0.024560
32
-0.057193
0
3DFACE
62
163
10
0.108778
20
0.028480
30
-0.033575
11
0.107750
21
0.027520
31
-0.033526
12
0.107432
22
0.027224
32
-0.025298
0
3DFACE
62
163
10
0.108371
20
0.028100
30
-0.049654
11
0.106610
21
0.026457
31
-0.057784
12
0.107343
22
0.027141
32
-0.049605
0
3DFACE
62
163
10
0.109510
20
0.029163
30
-0.025396
11
0.108778
21
0.028480
31
-0.033575
12
0.107432
22
0.027224
32
-0.025298
0
3DFACE
62
163
10
0.108688
20
0.028396
30
-0.057882
11
0.106610
21
0.026457
31
-0.057784
12
0.108371
22
0.028100
32
-0.049654
0
3DFACE
62
163
10
0.109390
20
0.029051
30
-0.049457
11
0.108688
21
0.028396
31
-0.057882
12
0.108371
22
0.028100
32
-0.049654
0
3DFACE
62
163
10
0.111544
20
0.031061
30
-0.025987
11
0.108778
21
0.028480
31
-0.033575
12
0.109510
22
0.029163
32
-0.025396
0
3DFACE
62
163
10
0.111544
20
0.031061
30
-0.025987
11
0.109785
21
0.029419
31
-0.033867
12
0.108778
22
0.028480
32
-0.033575
0
3DFACE
62
163
10
0.110747
20
0.030318
30
-0.057485
11
0.108688
21
0.028396
31
-0.057882
12
0.109390
22
0.029051
32
-0.049457
0
3DFACE
62
163
10
0.113472
20
0.032860
30
-0.027051
11
0.109785
21
0.029419
31
-0.033867
12
0.111544
22
0.031061
32
-0.025987
0
3DFACE
62
163
10
0.113472
20
0.032860
30
-0.027051
11
0.110739
21
0.030310
31
-0.034394
12
0.109785
22
0.029419
32
-0.033867
0
3DFACE
62
163
10
0.112725
20
0.032163
30
-0.056606
11
0.110747
21
0.030318
31
-0.057485
12
0.109390
22
0.029051
32
-0.049457
0
3DFACE
62
163
10
0.112725
20
0.032163
30
-0.056606
11
0.110369
21
0.029965
31
-0.049022
12
0.111277
22
0.030812
32
-0.048361
0
3DFACE
62
163
10
0.112725
20
0.032163
30
-0.056606
11
0.109390
21
0.029051
31
-0.049457
12
0.110369
22
0.029965
32
-0.049022
0
3DFACE
62
163
10
0.115236
20
0.034506
30
-0.028558
11
0.111612
21
0.031124
31
-0.035140
12
0.110739
22
0.030310
32
-0.034394
0
3DFACE
62
163
10
0.115236
20
0.034506
30
-0.028558
11
0.112377
21
0.031838
31
-0.036081
12
0.111612
22
0.031124
32
-0.035140
0
3DFACE
62
163
10
0.115236
20
0.034506
30
-0.028558
11
0.110739
21
0.030310
31
-0.034394
12
0.113472
22
0.032860
32
-0.027051
0
3DFACE
62
163
10
0.114560
20
0.033875
30
-0.055270
11
0.111277
21
0.030812
31
-0.048361
12
0.112088
22
0.031569
32
-0.047494
0
3DFACE
62
163
10
0.114560
20
0.033875
30
-0.055270
11
0.112725
21
0.032163
31
-0.056606
12
0.111277
22
0.030812
32
-0.048361
0
3DFACE
62
163
10
0.116782
20
0.035948
30
-0.030460
11
0.112377
21
0.031838
31
-0.036081
12
0.115236
22
0.034506
32
-0.028558
0
3DFACE
62
163
10
0.116198
20
0.035404
30
-0.053518
11
0.112088
21
0.031569
31
-0.047494
12
0.112777
22
0.032211
32
-0.046448
0
3DFACE
62
163
10
0.116198
20
0.035404
30
-0.053518
11
0.114560
21
0.033875
31
-0.055270
12
0.112088
22
0.031569
32
-0.047494
0
3DFACE
62
163
10
0.118062
20
0.037143
30
-0.032700
11
0.113011
21
0.032430
31
-0.037190
12
0.112377
22
0.031838
32
-0.036081
0
3DFACE
62
163
10
0.118062
20
0.037143
30
-0.032700
11
0.112377
21
0.031838
31
-0.036081
12
0.116782
22
0.035948
32
-0.030460
0
3DFACE
62
163
10
0.117589
20
0.036701
30
-0.051404
11
0.116198
21
0.035404
31
-0.053518
12
0.112777
22
0.032211
32
-0.046448
0
3DFACE
62
163
10
0.119039
20
0.038054
30
-0.035211
11
0.113011
21
0.032430
31
-0.037190
12
0.118062
22
0.037143
32
-0.032700
0
3DFACE
62
163
10
0.119039
20
0.038054
30
-0.035211
11
0.113494
21
0.032881
31
-0.038433
12
0.113011
22
0.032430
32
-0.037190
0
3DFACE
62
163
10
0.118690
20
0.037729
30
-0.048992
11
0.117589
21
0.036701
31
-0.051404
12
0.112777
22
0.032211
32
-0.046448
0
3DFACE
62
163
10
0.118690
20
0.037729
30
-0.048992
11
0.113322
21
0.032720
31
-0.045254
12
0.113707
22
0.033079
32
-0.043949
0
3DFACE
62
163
10
0.118690
20
0.037729
30
-0.048992
11
0.112777
21
0.032211
31
-0.046448
12
0.113322
22
0.032720
32
-0.045254
0
3DFACE
62
163
10
0.119682
20
0.038655
30
-0.037915
11
0.113494
21
0.032881
31
-0.038433
12
0.119039
22
0.038054
32
-0.035211
0
3DFACE
62
163
10
0.119682
20
0.038655
30
-0.037915
11
0.113813
21
0.033178
31
-0.039771
12
0.113494
22
0.032881
32
-0.038433
0
3DFACE
62
163
10
0.119469
20
0.038455
30
-0.046355
11
0.118690
21
0.037729
31
-0.048992
12
0.113707
22
0.033079
32
-0.043949
0
3DFACE
62
163
10
0.119469
20
0.038455
30
-0.046355
11
0.113707
21
0.033079
31
-0.043949
12
0.113921
22
0.033279
32
-0.042572
0
3DFACE
62
163
10
0.119972
20
0.038925
30
-0.040731
11
0.113956
21
0.033312
31
-0.041165
12
0.113813
22
0.033178
32
-0.039771
0
3DFACE
62
163
10
0.119972
20
0.038925
30
-0.040731
11
0.113921
21
0.033279
31
-0.042572
12
0.113956
22
0.033312
32
-0.041165
0
3DFACE
62
163
10
0.119972
20
0.038925
30
-0.040731
11
0.113813
21
0.033178
31
-0.039771
12
0.119682
22
0.038655
32
-0.037915
0
3DFACE
62
163
10
0.119900
20
0.038858
30
-0.043573
11
0.113921
21
0.033279
31
-0.042572
12
0.119972
22
0.038925
32
-0.040731
0
3DFACE
62
163
10
0.119900
20
0.038858
30
-0.043573
11
0.119469
21
0.038455
31
-0.046355
12
0.113921
22
0.033279
32
-0.042572
0
3DFACE
62
163
10
0.109022
20
0.015031
30
-0.040608
11
0.102971
21
0.009384
31
-0.042449
12
0.103043
22
0.009451
32
-0.039607
0
3DFACE
62
163
10
0.109022
20
0.015031
30
-0.040608
11
0.108987
21
0.014998
31
-0.042015
12
0.102971
22
0.009384
32
-0.042449
0
3DFACE
62
163
10
0.109236
20
0.015230
30
-0.039231
11
0.103043
21
0.009451
31
-0.039607
12
0.103474
22
0.009854
32
-0.036825
0
3DFACE
62
163
10
0.109236
20
0.015230
30
-0.039231
11
0.109022
21
0.015031
31
-0.040608
12
0.103043
22
0.009451
32
-0.039607
0
3DFACE
62
163
10
0.109130
20
0.015132
30
-0.043409
11
0.103261
21
0.009655
31
-0.045265
12
0.102971
22
0.009384
32
-0.042449
0
3DFACE
62
163
10
0.109130
20
0.015132
30
-0.043409
11
0.102971
21
0.009384
31
-0.042449
12
0.108987
22
0.014998
32
-0.042015
0
3DFACE
62
163
10
0.109621
20
0.015590
30
-0.037926
11
0.103474
21
0.009854
31
-0.036825
12
0.104253
22
0.010580
32
-0.034188
0
3DFACE
62
163
10
0.109621
20
0.015590
30
-0.037926
11
0.104253
21
0.010580
31
-0.034188
12
0.105354
22
0.011608
32
-0.031776
0
3DFACE
62
163
10
0.109621
20
0.015590
30
-0.037926
11
0.109236
21
0.015230
31
-0.039231
12
0.103474
22
0.009854
32
-0.036825
0
3DFACE
62
163
10
0.109449
20
0.015429
30
-0.044747
11
0.103261
21
0.009655
31
-0.045265
12
0.109130
22
0.015132
32
-0.043409
0
3DFACE
62
163
10
0.109449
20
0.015429
30
-0.044747
11
0.103904
21
0.010255
31
-0.047969
12
0.103261
22
0.009655
32
-0.045265
0
3DFACE
62
163
10
0.110166
20
0.016098
30
-0.036732
11
0.109621
21
0.015590
31
-0.037926
12
0.105354
22
0.011608
32
-0.031776
0
3DFACE
62
163
10
0.109932
20
0.015880
30
-0.045990
11
0.103904
21
0.010255
31
-0.047969
12
0.109449
22
0.015429
32
-0.044747
0
3DFACE
62
163
10
0.109932
20
0.015880
30
-0.045990
11
0.104881
21
0.011166
31
-0.050480
12
0.103904
22
0.010255
32
-0.047969
0
3DFACE
62
163
10
0.110855
20
0.016741
30
-0.035686
11
0.105354
21
0.011608
31
-0.031776
12
0.106745
22
0.012906
32
-0.029662
0
3DFACE
62
163
10
0.110855
20
0.016741
30
-0.035686
11
0.110166
21
0.016098
31
-0.036732
12
0.105354
22
0.011608
32
-0.031776
0
3DFACE
62
163
10
0.110566
20
0.016471
30
-0.047099
11
0.104881
21
0.011166
31
-0.050480
12
0.109932
22
0.015880
32
-0.045990
0
3DFACE
62
163
10
0.110566
20
0.016471
30
-0.047099
11
0.106161
21
0.012361
31
-0.052720
12
0.104881
22
0.011166
32
-0.050480
0
3DFACE
62
163
10
0.111666
20
0.017497
30
-0.034819
11
0.110855
21
0.016741
31
-0.035686
12
0.106745
22
0.012906
32
-0.029662
0
3DFACE
62
163
10
0.111666
20
0.017497
30
-0.034819
11
0.106745
21
0.012906
31
-0.029662
12
0.108383
22
0.014434
32
-0.027910
0
3DFACE
62
163
10
0.111331
20
0.017185
30
-0.048040
11
0.107707
21
0.013803
31
-0.054622
12
0.106161
22
0.012361
32
-0.052720
0
3DFACE
62
163
10
0.111331
20
0.017185
30
-0.048040
11
0.106161
21
0.012361
31
-0.052720
12
0.110566
22
0.016471
32
-0.047099
0
3DFACE
62
163
10
0.112574
20
0.018345
30
-0.034158
11
0.111666
21
0.017497
31
-0.034819
12
0.108383
22
0.014434
32
-0.027910
0
3DFACE
62
163
10
0.112574
20
0.018345
30
-0.034158
11
0.108383
21
0.014434
31
-0.027910
12
0.110218
22
0.016147
32
-0.026574
0
3DFACE
62
163
10
0.112204
20
0.017999
30
-0.048786
11
0.109471
21
0.015449
31
-0.056129
12
0.107707
22
0.013803
32
-0.054622
0
3DFACE
62
163
10
0.112204
20
0.017999
30
-0.048786
11
0.107707
21
0.013803
31
-0.054622
12
0.111331
22
0.017185
32
-0.048040
0
3DFACE
62
163
10
0.113553
20
0.019258
30
-0.033723
11
0.110218
21
0.016147
31
-0.026574
12
0.112196
22
0.017992
32
-0.025695
0
3DFACE
62
163
10
0.113553
20
0.019258
30
-0.033723
11
0.112574
21
0.018345
31
-0.034158
12
0.110218
22
0.016147
32
-0.026574
0
3DFACE
62
163
10
0.113158
20
0.018890
30
-0.049313
11
0.111399
21
0.017248
31
-0.057193
12
0.109471
22
0.015449
32
-0.056129
0
3DFACE
62
163
10
0.113158
20
0.018890
30
-0.049313
11
0.109471
21
0.015449
31
-0.056129
12
0.112204
22
0.017999
32
-0.048786
0
3DFACE
62
163
10
0.114572
20
0.020209
30
-0.033526
11
0.112196
21
0.017992
31
-0.025695
12
0.114255
22
0.019913
32
-0.025298
0
3DFACE
62
163
10
0.114572
20
0.020209
30
-0.033526
11
0.113553
21
0.019258
31
-0.033723
12
0.112196
22
0.017992
32
-0.025695
0
3DFACE
62
163
10
0.114165
20
0.019829
30
-0.049605
11
0.111399
21
0.017248
31
-0.057193
12
0.113158
22
0.018890
32
-0.049313
0
3DFACE
62
163
10
0.114165
20
0.019829
30
-0.049605
11
0.113433
21
0.019146
31
-0.057784
12
0.111399
22
0.017248
32
-0.057193
0
3DFACE
62
163
10
0.115600
20
0.021169
30
-0.033575
11
0.114572
21
0.020209
31
-0.033526
12
0.114255
22
0.019913
32
-0.025298
0
3DFACE
62
163
10
0.115193
20
0.020789
30
-0.049654
11
0.113433
21
0.019146
31
-0.057784
12
0.114165
22
0.019829
32
-0.049605
0
3DFACE
62
163
10
0.116333
20
0.021852
30
-0.025396
11
0.115600
21
0.021169
31
-0.033575
12
0.114255
22
0.019913
32
-0.025298
0
3DFACE
62
163
10
0.115511
20
0.021085
30
-0.057882
11
0.113433
21
0.019146
31
-0.057784
12
0.115193
22
0.020789
32
-0.049654
0
3DFACE
62
163
10
0.116213
20
0.021740
30
-0.049457
11
0.115511
21
0.021085
31
-0.057882
12
0.115193
22
0.020789
32
-0.049654
0
3DFACE
62
163
10
0.118367
20
0.023750
30
-0.025987
11
0.115600
21
0.021169
31
-0.033575
12
0.116333
22
0.021852
32
-0.025396
0
3DFACE
62
163
10
0.118367
20
0.023750
30
-0.025987
11
0.116607
21
0.022108
31
-0.033867
12
0.115600
22
0.021169
32
-0.033575
0
3DFACE
62
163
10
0.117570
20
0.023006
30
-0.057485
11
0.115511
21
0.021085
31
-0.057882
12
0.116213
22
0.021740
32
-0.049457
0
3DFACE
62
163
10
0.120295
20
0.025549
30
-0.027051
11
0.116607
21
0.022108
31
-0.033867
12
0.118367
22
0.023750
32
-0.025987
0
3DFACE
62
163
10
0.120295
20
0.025549
30
-0.027051
11
0.117561
21
0.022998
31
-0.034394
12
0.116607
22
0.022108
32
-0.033867
0
3DFACE
62
163
10
0.119547
20
0.024851
30
-0.056606
11
0.117191
21
0.022653
31
-0.049022
12
0.118100
22
0.023501
32
-0.048361
0
3DFACE
62
163
10
0.119547
20
0.024851
30
-0.056606
11
0.116213
21
0.021740
31
-0.049457
12
0.117191
22
0.022653
32
-0.049022
0
3DFACE
62
163
10
0.119547
20
0.024851
30
-0.056606
11
0.117570
21
0.023006
31
-0.057485
12
0.116213
22
0.021740
32
-0.049457
0
3DFACE
62
163
10
0.122058
20
0.027195
30
-0.028558
11
0.117561
21
0.022998
31
-0.034394
12
0.120295
22
0.025549
32
-0.027051
0
3DFACE
62
163
10
0.122058
20
0.027195
30
-0.028558
11
0.118434
21
0.023813
31
-0.035140
12
0.117561
22
0.022998
32
-0.034394
0
3DFACE
62
163
10
0.121382
20
0.026564
30
-0.055270
11
0.118100
21
0.023501
31
-0.048361
12
0.118910
22
0.024257
32
-0.047494
0
3DFACE
62
163
10
0.121382
20
0.026564
30
-0.055270
11
0.119547
21
0.024851
31
-0.056606
12
0.118100
22
0.023501
32
-0.048361
0
3DFACE
62
163
10
0.123020
20
0.028092
30
-0.053518
11
0.118910
21
0.024257
31
-0.047494
12
0.119599
22
0.024900
32
-0.046448
0
3DFACE
62
163
10
0.123020
20
0.028092
30
-0.053518
11
0.121382
21
0.026564
31
-0.055270
12
0.118910
22
0.024257
32
-0.047494
0
3DFACE
62
163
10
0.123604
20
0.028637
30
-0.030460
11
0.119199
21
0.024527
31
-0.036081
12
0.118434
22
0.023813
32
-0.035140
0
3DFACE
62
163
10
0.123604
20
0.028637
30
-0.030460
11
0.118434
21
0.023813
31
-0.035140
12
0.122058
22
0.027195
32
-0.028558
0
3DFACE
62
163
10
0.124411
20
0.029390
30
-0.051404
11
0.123020
21
0.028092
31
-0.053518
12
0.119599
22
0.024900
32
-0.046448
0
3DFACE
62
163
10
0.124885
20
0.029832
30
-0.032700
11
0.119833
21
0.025118
31
-0.037190
12
0.119199
22
0.024527
32
-0.036081
0
3DFACE
62
163
10
0.124885
20
0.029832
30
-0.032700
11
0.119199
21
0.024527
31
-0.036081
12
0.123604
22
0.028637
32
-0.030460
0
3DFACE
62
163
10
0.125512
20
0.030418
30
-0.048992
11
0.124411
21
0.029390
31
-0.051404
12
0.119599
22
0.024900
32
-0.046448
0
3DFACE
62
163
10
0.125512
20
0.030418
30
-0.048992
11
0.120144
21
0.025408
31
-0.045254
12
0.120529
22
0.025768
32
-0.043949
0
3DFACE
62
163
10
0.125512
20
0.030418
30
-0.048992
11
0.119599
21
0.024900
31
-0.046448
12
0.120144
22
0.025408
32
-0.045254
0
3DFACE
62
163
10
0.125861
20
0.030743
30
-0.035211
11
0.119833
21
0.025118
31
-0.037190
12
0.124885
22
0.029832
32
-0.032700
0
3DFACE
62
163
10
0.125861
20
0.030743
30
-0.035211
11
0.120317
21
0.025569
31
-0.038433
12
0.119833
22
0.025118
32
-0.037190
0
3DFACE
62
163
10
0.126504
20
0.031343
30
-0.037915
11
0.120635
21
0.025866
31
-0.039771
12
0.120317
22
0.025569
32
-0.038433
0
3DFACE
62
163
10
0.126504
20
0.031343
30
-0.037915
11
0.120317
21
0.025569
31
-0.038433
12
0.125861
22
0.030743
32
-0.035211
0
3DFACE
62
163
10
0.126291
20
0.031144
30
-0.046355
11
0.125512
21
0.030418
31
-0.048992
12
0.120529
22
0.025768
32
-0.043949
0
3DFACE
62
163
10
0.126291
20
0.031144
30
-0.046355
11
0.120529
21
0.025768
31
-0.043949
12
0.120743
22
0.025967
32
-0.042572
0
3DFACE
62
163
10
0.126794
20
0.031614
30
-0.040731
11
0.120635
21
0.025866
31
-0.039771
12
0.126504
22
0.031343
32
-0.037915
0
3DFACE
62
163
10
0.126794
20
0.031614
30
-0.040731
11
0.120778
21
0.026000
31
-0.041165
12
0.120635
22
0.025866
32
-0.039771
0
3DFACE
62
163
10
0.126794
20
0.031614
30
-0.040731
11
0.120743
21
0.025967
31
-0.042572
12
0.120778
22
0.026000
32
-0.041165
0
3DFACE
62
163
10
0.126722
20
0.031547
30
-0.043573
11
0.126291
21
0.031144
31
-0.046355
12
0.120743
22
0.025967
32
-0.042572
0
3DFACE
62
163
10
0.126722
20
0.031547
30
-0.043573
11
0.120743
21
0.025967
31
-0.042572
12
0.126794
22
0.031614
32
-0.040731
0
3DFACE
62
163
10
0.122058
20
0.027195
30
-0.028558
11
0.123604
21
0.028637
31
-0.030460
12
0.116782
22
0.035948
32
-0.030460
0
3DFACE
62
163
10
0.122058
20
0.027195
30
-0.028558
11
0.116782
21
0.035948
31
-0.030460
12
0.115236
22
0.034506
32
-0.028558
0
3DFACE
62
163
10
0.120295
20
0.025549
30
-0.027051
11
0.115236
21
0.034506
31
-0.028558
12
0.113472
22
0.032860
32
-0.027051
0
3DFACE
62
163
10
0.120295
20
0.025549
30
-0.027051
11
0.122058
21
0.027195
31
-0.028558
12
0.115236
22
0.034506
32
-0.028558
0
3DFACE
62
163
10
0.118367
20
0.023750
30
-0.025987
11
0.111544
21
0.031061
31
-0.025987
12
0.109510
22
0.029163
32
-0.025396
0
3DFACE
62
163
10
0.118367
20
0.023750
30
-0.025987
11
0.113472
21
0.032860
31
-0.027051
12
0.111544
22
0.031061
32
-0.025987
0
3DFACE
62
163
10
0.118367
20
0.023750
30
-0.025987
11
0.120295
21
0.025549
31
-0.027051
12
0.113472
22
0.032860
32
-0.027051
0
3DFACE
62
163
10
0.116333
20
0.021852
30
-0.025396
11
0.109510
21
0.029163
31
-0.025396
12
0.107432
22
0.027224
32
-0.025298
0
3DFACE
62
163
10
0.116333
20
0.021852
30
-0.025396
11
0.118367
21
0.023750
31
-0.025987
12
0.109510
22
0.029163
32
-0.025396
0
3DFACE
62
163
10
0.114255
20
0.019913
30
-0.025298
11
0.116333
21
0.021852
31
-0.025396
12
0.107432
22
0.027224
32
-0.025298
0
3DFACE
62
163
10
0.112196
20
0.017992
30
-0.025695
11
0.107432
21
0.027224
31
-0.025298
12
0.105373
22
0.025303
32
-0.025695
0
3DFACE
62
163
10
0.112196
20
0.017992
30
-0.025695
11
0.114255
21
0.019913
31
-0.025298
12
0.107432
22
0.027224
32
-0.025298
0
3DFACE
62
163
10
0.110218
20
0.016147
30
-0.026574
11
0.105373
21
0.025303
31
-0.025695
12
0.103396
22
0.023458
32
-0.026574
0
3DFACE
62
163
10
0.110218
20
0.016147
30
-0.026574
11
0.112196
21
0.017992
31
-0.025695
12
0.105373
22
0.025303
32
-0.025695
0
3DFACE
62
163
10
0.108383
20
0.014434
30
-0.027910
11
0.103396
21
0.023458
31
-0.026574
12
0.101561
22
0.021746
32
-0.027910
0
3DFACE
62
163
10
0.108383
20
0.014434
30
-0.027910
11
0.110218
21
0.016147
31
-0.026574
12
0.103396
22
0.023458
32
-0.026574
0
3DFACE
62
163
10
0.106745
20
0.012906
30
-0.029662
11
0.101561
21
0.021746
31
-0.027910
12
0.099923
22
0.020217
32
-0.029662
0
3DFACE
62
163
10
0.106745
20
0.012906
30
-0.029662
11
0.108383
21
0.014434
31
-0.027910
12
0.101561
22
0.021746
32
-0.027910
0
3DFACE
62
163
10
0.105354
20
0.011608
30
-0.031776
11
0.099923
21
0.020217
31
-0.029662
12
0.098532
22
0.018919
32
-0.031776
0
3DFACE
62
163
10
0.105354
20
0.011608
30
-0.031776
11
0.106745
21
0.012906
31
-0.029662
12
0.099923
22
0.020217
32
-0.029662
0
3DFACE
62
163
10
0.104253
20
0.010580
30
-0.034188
11
0.098532
21
0.018919
31
-0.031776
12
0.097431
22
0.017892
32
-0.034188
0
3DFACE
62
163
10
0.104253
20
0.010580
30
-0.034188
11
0.105354
21
0.011608
31
-0.031776
12
0.098532
22
0.018919
32
-0.031776
0
3DFACE
62
163
10
0.103474
20
0.009854
30
-0.036825
11
0.097431
21
0.017892
31
-0.034188
12
0.096652
22
0.017165
32
-0.036825
0
3DFACE
62
163
10
0.103474
20
0.009854
30
-0.036825
11
0.104253
21
0.010580
31
-0.034188
12
0.097431
22
0.017892
32
-0.034188
0
3DFACE
62
163
10
0.103043
20
0.009451
30
-0.039607
11
0.096221
21
0.016763
31
-0.039607
12
0.096149
22
0.016696
32
-0.042449
0
3DFACE
62
163
10
0.103043
20
0.009451
30
-0.039607
11
0.096652
21
0.017165
31
-0.036825
12
0.096221
22
0.016763
32
-0.039607
0
3DFACE
62
163
10
0.103043
20
0.009451
30
-0.039607
11
0.103474
21
0.009854
31
-0.036825
12
0.096652
22
0.017165
32
-0.036825
0
3DFACE
62
163
10
0.102971
20
0.009384
30
-0.042449
11
0.103043
21
0.009451
31
-0.039607
12
0.096149
22
0.016696
32
-0.042449
0
3DFACE
62
163
10
0.103261
20
0.009655
30
-0.045265
11
0.102971
21
0.009384
31
-0.042449
12
0.096149
22
0.016696
32
-0.042449
0
3DFACE
62
163
10
0.103261
20
0.009655
30
-0.045265
11
0.096149
21
0.016696
31
-0.042449
12
0.096439
22
0.016966
32
-0.045265
0
3DFACE
62
163
10
0.103904
20
0.010255
30
-0.047969
11
0.103261
21
0.009655
31
-0.045265
12
0.096439
22
0.016966
32
-0.045265
0
3DFACE
62
163
10
0.103904
20
0.010255
30
-0.047969
11
0.096439
21
0.016966
31
-0.045265
12
0.097082
22
0.017566
32
-0.047969
0
3DFACE
62
163
10
0.104881
20
0.011166
30
-0.050480
11
0.097082
21
0.017566
31
-0.047969
12
0.098058
22
0.018478
32
-0.050480
0
3DFACE
62
163
10
0.104881
20
0.011166
30
-0.050480
11
0.103904
21
0.010255
31
-0.047969
12
0.097082
22
0.017566
32
-0.047969
0
3DFACE
62
163
10
0.106161
20
0.012361
30
-0.052720
11
0.098058
21
0.018478
31
-0.050480
12
0.099339
22
0.019673
32
-0.052720
0
3DFACE
62
163
10
0.106161
20
0.012361
30
-0.052720
11
0.104881
21
0.011166
31
-0.050480
12
0.098058
22
0.018478
32
-0.050480
0
3DFACE
62
163
10
0.111331
20
0.017185
30
-0.048040
11
0.110566
21
0.016471
31
-0.047099
12
0.103744
22
0.023783
32
-0.047099
0
3DFACE
62
163
10
0.111331
20
0.017185
30
-0.048040
11
0.103744
21
0.023783
31
-0.047099
12
0.104509
22
0.024496
32
-0.048040
0
3DFACE
62
163
10
0.112204
20
0.017999
30
-0.048786
11
0.105382
21
0.025311
31
-0.048786
12
0.106336
22
0.026201
32
-0.049313
0
3DFACE
62
163
10
0.112204
20
0.017999
30
-0.048786
11
0.104509
21
0.024496
31
-0.048040
12
0.105382
22
0.025311
32
-0.048786
0
3DFACE
62
163
10
0.112204
20
0.017999
30
-0.048786
11
0.111331
21
0.017185
31
-0.048040
12
0.104509
22
0.024496
32
-0.048040
0
3DFACE
62
163
10
0.113158
20
0.018890
30
-0.049313
11
0.112204
21
0.017999
31
-0.048786
12
0.106336
22
0.026201
32
-0.049313
0
3DFACE
62
163
10
0.114165
20
0.019829
30
-0.049605
11
0.107343
21
0.027141
31
-0.049605
12
0.108371
22
0.028100
32
-0.049654
0
3DFACE
62
163
10
0.114165
20
0.019829
30
-0.049605
11
0.106336
21
0.026201
31
-0.049313
12
0.107343
22
0.027141
32
-0.049605
0
3DFACE
62
163
10
0.114165
20
0.019829
30
-0.049605
11
0.113158
21
0.018890
31
-0.049313
12
0.106336
22
0.026201
32
-0.049313
0
3DFACE
62
163
10
0.115193
20
0.020789
30
-0.049654
11
0.114165
21
0.019829
31
-0.049605
12
0.108371
22
0.028100
32
-0.049654
0
3DFACE
62
163
10
0.116213
20
0.021740
30
-0.049457
11
0.108371
21
0.028100
31
-0.049654
12
0.109390
22
0.029051
32
-0.049457
0
3DFACE
62
163
10
0.116213
20
0.021740
30
-0.049457
11
0.115193
21
0.020789
31
-0.049654
12
0.108371
22
0.028100
32
-0.049654
0
3DFACE
62
163
10
0.117191
20
0.022653
30
-0.049022
11
0.109390
21
0.029051
31
-0.049457
12
0.110369
22
0.029965
32
-0.049022
0
3DFACE
62
163
10
0.117191
20
0.022653
30
-0.049022
11
0.116213
21
0.021740
31
-0.049457
12
0.109390
22
0.029051
32
-0.049457
0
3DFACE
62
163
10
0.118100
20
0.023501
30
-0.048361
11
0.110369
21
0.029965
31
-0.049022
12
0.111277
22
0.030812
32
-0.048361
0
3DFACE
62
163
10
0.118100
20
0.023501
30
-0.048361
11
0.117191
21
0.022653
31
-0.049022
12
0.110369
22
0.029965
32
-0.049022
0
3DFACE
62
163
10
0.118910
20
0.024257
30
-0.047494
11
0.111277
21
0.030812
31
-0.048361
12
0.112088
22
0.031569
32
-0.047494
0
3DFACE
62
163
10
0.118910
20
0.024257
30
-0.047494
11
0.118100
21
0.023501
31
-0.048361
12
0.111277
22
0.030812
32
-0.048361
0
3DFACE
62
163
10
0.119599
20
0.024900
30
-0.046448
11
0.112088
21
0.031569
31
-0.047494
12
0.112777
22
0.032211
32
-0.046448
0
3DFACE
62
163
10
0.119599
20
0.024900
30
-0.046448
11
0.118910
21
0.024257
31
-0.047494
12
0.112088
22
0.031569
32
-0.047494
0
3DFACE
62
163
10
0.120144
20
0.025408
30
-0.045254
11
0.113322
21
0.032720
31
-0.045254
12
0.113707
22
0.033079
32
-0.043949
0
3DFACE
62
163
10
0.120144
20
0.025408
30
-0.045254
11
0.112777
21
0.032211
31
-0.046448
12
0.113322
22
0.032720
32
-0.045254
0
3DFACE
62
163
10
0.120144
20
0.025408
30
-0.045254
11
0.119599
21
0.024900
31
-0.046448
12
0.112777
22
0.032211
32
-0.046448
0
3DFACE
62
163
10
0.120529
20
0.025768
30
-0.043949
11
0.120144
21
0.025408
31
-0.045254
12
0.113707
22
0.033079
32
-0.043949
0
3DFACE
62
163
10
0.120743
20
0.025967
30
-0.042572
11
0.113707
21
0.033079
31
-0.043949
12
0.113921
22
0.033279
32
-0.042572
0
3DFACE
62
163
10
0.120743
20
0.025967
30
-0.042572
11
0.120529
21
0.025768
31
-0.043949
12
0.113707
22
0.033079
32
-0.043949
0
3DFACE
62
163
10
0.120778
20
0.026000
30
-0.041165
11
0.113921
21
0.033279
31
-0.042572
12
0.113956
22
0.033312
32
-0.041165
0
3DFACE
62
163
10
0.120778
20
0.026000
30
-0.041165
11
0.120743
21
0.025967
31
-0.042572
12
0.113921
22
0.033279
32
-0.042572
0
3DFACE
62
163
10
0.120635
20
0.025866
30
-0.039771
11
0.120778
21
0.026000
31
-0.041165
12
0.113956
22
0.033312
32
-0.041165
0
3DFACE
62
163
10
0.120635
20
0.025866
30
-0.039771
11
0.113956
21
0.033312
31
-0.041165
12
0.113813
22
0.033178
32
-0.039771
0
3DFACE
62
163
10
0.120317
20
0.025569
30
-0.038433
11
0.120635
21
0.025866
31
-0.039771
12
0.113813
22
0.033178
32
-0.039771
0
3DFACE
62
163
10
0.120317
20
0.025569
30
-0.038433
11
0.113813
21
0.033178
31
-0.039771
12
0.113494
22
0.032881
32
-0.038433
0
3DFACE
62
163
10
0.119833
20
0.025118
30
-0.037190
11
0.120317
21
0.025569
31
-0.038433
12
0.113494
22
0.032881
32
-0.038433
0
3DFACE
62
163
10
0.119833
20
0.025118
30
-0.037190
11
0.113494
21
0.032881
31
-0.038433
12
0.113011
22
0.032430
32
-0.037190
0
3DFACE
62
163
10
0.119199
20
0.024527
30
-0.036081
11
0.119833
21
0.025118
31
-0.037190
12
0.113011
22
0.032430
32
-0.037190
0
3DFACE
62
163
10
0.119199
20
0.024527
30
-0.036081
11
0.113011
21
0.032430
31
-0.037190
12
0.112377
22
0.031838
32
-0.036081
0
3DFACE
62
163
10
-0.044937
20
-0.016256
30
-0.060513
11
-0.025877
21
-0.005255
31
-0.058889
12
-0.026163
22
-0.004787
32
-0.060513
0
3DFACE
62
163
10
-0.044937
20
-0.016256
30
-0.060513
11
-0.044651
21
-0.016724
31
-0.058889
12
-0.025877
22
-0.005255
32
-0.058889
0
3DFACE
62
163
10
-0.045072
20
-0.016036
30
-0.062207
11
-0.026163
21
-0.004787
31
-0.060513
12
-0.026298
22
-0.004567
32
-0.062207
0
3DFACE
62
163
10
-0.045072
20
-0.016036
30
-0.062207
11
-0.026298
21
-0.004567
31
-0.062207
12
-0.026277
22
-0.004601
32
-0.063921
0
3DFACE
62
163
10
-0.045072
20
-0.016036
30
-0.062207
11
-0.044937
21
-0.016256
31
-0.060513
12
-0.026163
22
-0.004787
32
-0.060513
0
3DFACE
62
163
10
-0.045051
20
-0.016070
30
-0.063921
11
-0.045072
21
-0.016036
31
-0.062207
12
-0.026277
22
-0.004601
32
-0.063921
0
3DFACE
62
163
10
-0.044875
20
-0.016358
30
-0.065602
11
-0.026277
21
-0.004601
31
-0.063921
12
-0.026102
22
-0.004888
32
-0.065602
0
3DFACE
62
163
10
-0.044875
20
-0.016358
30
-0.065602
11
-0.026102
21
-0.004888
31
-0.065602
12
-0.025776
22
-0.005420
32
-0.067198
0
3DFACE
62
163
10
-0.044875
20
-0.016358
30
-0.065602
11
-0.045051
21
-0.016070
31
-0.063921
12
-0.026277
22
-0.004601
32
-0.063921
0
3DFACE
62
163
10
-0.044550
20
-0.016890
30
-0.067198
11
-0.044875
21
-0.016358
31
-0.065602
12
-0.025776
22
-0.005420
32
-0.067198
0
3DFACE
62
163
10
-0.044086
20
-0.017650
30
-0.068662
11
-0.025776
21
-0.005420
31
-0.067198
12
-0.025312
22
-0.006181
32
-0.068662
0
3DFACE
62
163
10
-0.044086
20
-0.017650
30
-0.068662
11
-0.044550
21
-0.016890
31
-0.067198
12
-0.025776
22
-0.005420
32
-0.067198
0
3DFACE
62
163
10
-0.043495
20
-0.018616
30
-0.069949
11
-0.025312
21
-0.006181
31
-0.068662
12
-0.024722
22
-0.007147
32
-0.069949
0
3DFACE
62
163
10
-0.043495
20
-0.018616
30
-0.069949
11
-0.044086
21
-0.017650
31
-0.068662
12
-0.025312
22
-0.006181
32
-0.068662
0
3DFACE
62
163
10
-0.042798
20
-0.019758
30
-0.071020
11
-0.024722
21
-0.007147
31
-0.069949
12
-0.024024
22
-0.008289
32
-0.071020
0
3DFACE
62
163
10
-0.042798
20
-0.019758
30
-0.071020
11
-0.024024
21
-0.008289
31
-0.071020
12
-0.023240
22
-0.009573
32
-0.071842
0
3DFACE
62
163
10
-0.042798
20
-0.019758
30
-0.071020
11
-0.043495
21
-0.018616
31
-0.069949
12
-0.024722
22
-0.007147
32
-0.069949
0
3DFACE
62
163
10
-0.042014
20
-0.021042
30
-0.071842
11
-0.023240
21
-0.009573
31
-0.071842
12
-0.022393
22
-0.010958
32
-0.072391
0
3DFACE
62
163
10
-0.042014
20
-0.021042
30
-0.071842
11
-0.042798
21
-0.019758
31
-0.071020
12
-0.023240
22
-0.009573
32
-0.071842
0
3DFACE
62
163
10
-0.041167
20
-0.022428
30
-0.072391
11
-0.042014
21
-0.021042
31
-0.071842
12
-0.022393
22
-0.010958
32
-0.072391
0
3DFACE
62
163
10
-0.040284
20
-0.023874
30
-0.072649
11
-0.022393
21
-0.010958
31
-0.072391
12
-0.021510
22
-0.012404
32
-0.072649
0
3DFACE
62
163
10
-0.040284
20
-0.023874
30
-0.072649
11
-0.041167
21
-0.022428
31
-0.072391
12
-0.022393
22
-0.010958
32
-0.072391
0
3DFACE
62
163
10
-0.039390
20
-0.025336
30
-0.072609
11
-0.021510
21
-0.012404
31
-0.072649
12
-0.020617
22
-0.013867
32
-0.072609
0
3DFACE
62
163
10
-0.039390
20
-0.025336
30
-0.072609
11
-0.040284
21
-0.023874
31
-0.072649
12
-0.021510
22
-0.012404
32
-0.072649
0
3DFACE
62
163
10
-0.038514
20
-0.026770
30
-0.072272
11
-0.020617
21
-0.013867
31
-0.072609
12
-0.019741
22
-0.015301
32
-0.072272
0
3DFACE
62
163
10
-0.038514
20
-0.026770
30
-0.072272
11
-0.019741
21
-0.015301
31
-0.072272
12
-0.018908
22
-0.016663
32
-0.071648
0
3DFACE
62
163
10
-0.038514
20
-0.026770
30
-0.072272
11
-0.039390
21
-0.025336
31
-0.072609
12
-0.020617
22
-0.013867
32
-0.072609
0
3DFACE
62
163
10
-0.037682
20
-0.028132
30
-0.071648
11
-0.038514
21
-0.026770
31
-0.072272
12
-0.018908
22
-0.016663
32
-0.071648
0
3DFACE
62
163
10
-0.036919
20
-0.029382
30
-0.070757
11
-0.037682
21
-0.028132
31
-0.071648
12
-0.018908
22
-0.016663
32
-0.071648
0
3DFACE
62
163
10
-0.036919
20
-0.029382
30
-0.070757
11
-0.018908
21
-0.016663
31
-0.071648
12
-0.018145
22
-0.017912
32
-0.070757
0
3DFACE
62
163
10
-0.036248
20
-0.030480
30
-0.069625
11
-0.036919
21
-0.029382
31
-0.070757
12
-0.018145
22
-0.017912
32
-0.070757
0
3DFACE
62
163
10
-0.036248
20
-0.030480
30
-0.069625
11
-0.018145
21
-0.017912
31
-0.070757
12
-0.017474
22
-0.019011
32
-0.069625
0
3DFACE
62
163
10
-0.036248
20
-0.030480
30
-0.069625
11
-0.017474
21
-0.019011
31
-0.069625
12
-0.016916
22
-0.019924
32
-0.068287
0
3DFACE
62
163
10
-0.035690
20
-0.031394
30
-0.068287
11
-0.036248
21
-0.030480
31
-0.069625
12
-0.016916
22
-0.019924
32
-0.068287
0
3DFACE
62
163
10
-0.035261
20
-0.032095
30
-0.066783
11
-0.035690
21
-0.031394
31
-0.068287
12
-0.016916
22
-0.019924
32
-0.068287
0
3DFACE
62
163
10
-0.035261
20
-0.032095
30
-0.066783
11
-0.016916
21
-0.019924
31
-0.068287
12
-0.016487
22
-0.020626
32
-0.066783
0
3DFACE
62
163
10
-0.002542
20
-0.005089
30
-0.064159
11
-0.019609
21
-0.015516
31
-0.064159
12
-0.019753
22
-0.015281
32
-0.064663
0
3DFACE
62
163
10
-0.002685
20
-0.004854
30
-0.064663
11
-0.002542
21
-0.005089
31
-0.064159
12
-0.019753
22
-0.015281
32
-0.064663
0
3DFACE
62
163
10
-0.002873
20
-0.004548
30
-0.065111
11
-0.019753
21
-0.015281
31
-0.064663
12
-0.019940
22
-0.014975
32
-0.065111
0
3DFACE
62
163
10
-0.002873
20
-0.004548
30
-0.065111
11
-0.002685
21
-0.004854
31
-0.064663
12
-0.019753
22
-0.015281
32
-0.064663
0
3DFACE
62
163
10
-0.003097
20
-0.004180
30
-0.065490
11
-0.020164
21
-0.014607
31
-0.065490
12
-0.020420
22
-0.014188
32
-0.065789
0
3DFACE
62
163
10
-0.003097
20
-0.004180
30
-0.065490
11
-0.019940
21
-0.014975
31
-0.065111
12
-0.020164
22
-0.014607
32
-0.065490
0
3DFACE
62
163
10
-0.003097
20
-0.004180
30
-0.065490
11
-0.002873
21
-0.004548
31
-0.065111
12
-0.019940
22
-0.014975
32
-0.065111
0
3DFACE
62
163
10
-0.003353
20
-0.003761
30
-0.065789
11
-0.003097
21
-0.004180
31
-0.065490
12
-0.020420
22
-0.014188
32
-0.065789
0
3DFACE
62
163
10
-0.003632
20
-0.003305
30
-0.065998
11
-0.020420
21
-0.014188
31
-0.065789
12
-0.020699
22
-0.013731
32
-0.065998
0
3DFACE
62
163
10
-0.003632
20
-0.003305
30
-0.065998
11
-0.003353
21
-0.003761
31
-0.065789
12
-0.020420
22
-0.014188
32
-0.065789
0
3DFACE
62
163
10
-0.003926
20
-0.002824
30
-0.066111
11
-0.020699
21
-0.013731
31
-0.065998
12
-0.020993
22
-0.013251
32
-0.066111
0
3DFACE
62
163
10
-0.003926
20
-0.002824
30
-0.066111
11
-0.003632
21
-0.003305
31
-0.065998
12
-0.020699
22
-0.013731
32
-0.065998
0
3DFACE
62
163
10
-0.004225
20
-0.002334
30
-0.066124
11
-0.021292
21
-0.012761
31
-0.066124
12
-0.021588
22
-0.012276
32
-0.066038
0
3DFACE
62
163
10
-0.004225
20
-0.002334
30
-0.066124
11
-0.020993
21
-0.013251
31
-0.066111
12
-0.021292
22
-0.012761
32
-0.066124
0
3DFACE
62
163
10
-0.004225
20
-0.002334
30
-0.066124
11
-0.003926
21
-0.002824
31
-0.066111
12
-0.020993
22
-0.013251
32
-0.066111
0
3DFACE
62
163
10
-0.004521
20
-0.001850
30
-0.066038
11
-0.004225
21
-0.002334
31
-0.066124
12
-0.021588
22
-0.012276
32
-0.066038
0
3DFACE
62
163
10
-0.004805
20
-0.001385
30
-0.065854
11
-0.021588
21
-0.012276
31
-0.066038
12
-0.021872
22
-0.011812
32
-0.065854
0
3DFACE
62
163
10
-0.004805
20
-0.001385
30
-0.065854
11
-0.004521
21
-0.001850
31
-0.066038
12
-0.021588
22
-0.012276
32
-0.066038
0
3DFACE
62
163
10
-0.005067
20
-0.000955
30
-0.065578
11
-0.021872
21
-0.011812
31
-0.065854
12
-0.022135
22
-0.011382
32
-0.065578
0
3DFACE
62
163
10
-0.005067
20
-0.000955
30
-0.065578
11
-0.004805
21
-0.001385
31
-0.065854
12
-0.021872
22
-0.011812
32
-0.065854
0
3DFACE
62
163
10
-0.005301
20
-0.000573
30
-0.065220
11
-0.022135
21
-0.011382
31
-0.065578
12
-0.022368
22
-0.010999
32
-0.065220
0
3DFACE
62
163
10
-0.005301
20
-0.000573
30
-0.065220
11
-0.005067
21
-0.000955
31
-0.065578
12
-0.022135
22
-0.011382
32
-0.065578
0
3DFACE
62
163
10
-0.005499
20
-0.000249
30
-0.064788
11
-0.022368
21
-0.010999
31
-0.065220
12
-0.022566
22
-0.010676
32
-0.064788
0
3DFACE
62
163
10
-0.005499
20
-0.000249
30
-0.064788
11
-0.005301
21
-0.000573
31
-0.065220
12
-0.022368
22
-0.010999
32
-0.065220
0
3DFACE
62
163
10
-0.005655
20
0.000006
30
-0.064298
11
-0.022722
21
-0.010421
31
-0.064298
12
-0.022831
22
-0.010242
32
-0.063763
0
3DFACE
62
163
10
-0.005655
20
0.000006
30
-0.064298
11
-0.022566
21
-0.010676
31
-0.064788
12
-0.022722
22
-0.010421
32
-0.064298
0
3DFACE
62
163
10
-0.005655
20
0.000006
30
-0.064298
11
-0.005499
21
-0.000249
31
-0.064788
12
-0.022566
22
-0.010676
32
-0.064788
0
3DFACE
62
163
10
-0.005764
20
0.000184
30
-0.063763
11
-0.022831
21
-0.010242
31
-0.063763
12
-0.022890
22
-0.010146
32
-0.063200
0
3DFACE
62
163
10
-0.005764
20
0.000184
30
-0.063763
11
-0.005655
21
0.000006
31
-0.064298
12
-0.022831
22
-0.010242
32
-0.063763
0
3DFACE
62
163
10
-0.005822
20
0.000281
30
-0.063200
11
-0.022890
21
-0.010146
31
-0.063200
12
-0.022897
22
-0.010135
32
-0.062625
0
3DFACE
62
163
10
-0.005822
20
0.000281
30
-0.063200
11
-0.005764
21
0.000184
31
-0.063763
12
-0.022890
22
-0.010146
32
-0.063200
0
3DFACE
62
163
10
-0.005829
20
0.000292
30
-0.062625
11
-0.005822
21
0.000281
31
-0.063200
12
-0.022897
22
-0.010135
32
-0.062625
0
3DFACE
62
163
10
-0.005784
20
0.000218
30
-0.062058
11
-0.022851
21
-0.010208
31
-0.062058
12
-0.022756
22
-0.010365
32
-0.061513
0
3DFACE
62
163
10
-0.005784
20
0.000218
30
-0.062058
11
-0.022897
21
-0.010135
31
-0.062625
12
-0.022851
22
-0.010208
32
-0.062058
0
3DFACE
62
163
10
-0.005784
20
0.000218
30
-0.062058
11
-0.005829
21
0.000292
31
-0.062625
12
-0.022897
22
-0.010135
32
-0.062625
0
3DFACE
62
163
10
-0.005689
20
0.000061
30
-0.061513
11
-0.005784
21
0.000218
31
-0.062058
12
-0.022756
22
-0.010365
32
-0.061513
0
3DFACE
62
163
10
-0.005545
20
-0.000174
30
-0.061009
11
-0.005689
21
0.000061
31
-0.061513
12
-0.022756
22
-0.010365
32
-0.061513
0
3DFACE
62
163
10
-0.005545
20
-0.000174
30
-0.061009
11
-0.022756
21
-0.010365
31
-0.061513
12
-0.022612
22
-0.010600
32
-0.061009
0
3DFACE
62
163
10
-0.005358
20
-0.000480
30
-0.060561
11
-0.022425
21
-0.010907
31
-0.060561
12
-0.022200
22
-0.011275
32
-0.060182
0
3DFACE
62
163
10
-0.005358
20
-0.000480
30
-0.060561
11
-0.022612
21
-0.010600
31
-0.061009
12
-0.022425
22
-0.010907
32
-0.060561
0
3DFACE
62
163
10
-0.005358
20
-0.000480
30
-0.060561
11
-0.005545
21
-0.000174
31
-0.061009
12
-0.022612
22
-0.010600
32
-0.061009
0
3DFACE
62
163
10
-0.005133
20
-0.000848
30
-0.060182
11
-0.005358
21
-0.000480
31
-0.060561
12
-0.022200
22
-0.011275
32
-0.060182
0
3DFACE
62
163
10
-0.004877
20
-0.001267
30
-0.059883
11
-0.022200
21
-0.011275
31
-0.060182
12
-0.021944
22
-0.011693
32
-0.059883
0
3DFACE
62
163
10
-0.004877
20
-0.001267
30
-0.059883
11
-0.005133
21
-0.000848
31
-0.060182
12
-0.022200
22
-0.011275
32
-0.060182
0
3DFACE
62
163
10
-0.004598
20
-0.001723
30
-0.059674
11
-0.021665
21
-0.012150
31
-0.059674
12
-0.021372
22
-0.012630
32
-0.059561
0
3DFACE
62
163
10
-0.004598
20
-0.001723
30
-0.059674
11
-0.021944
21
-0.011693
31
-0.059883
12
-0.021665
22
-0.012150
32
-0.059674
0
3DFACE
62
163
10
-0.004598
20
-0.001723
30
-0.059674
11
-0.004877
21
-0.001267
31
-0.059883
12
-0.021944
22
-0.011693
32
-0.059883
0
3DFACE
62
163
10
-0.004305
20
-0.002204
30
-0.059561
11
-0.021372
21
-0.012630
31
-0.059561
12
-0.021072
22
-0.013120
32
-0.059548
0
3DFACE
62
163
10
-0.004305
20
-0.002204
30
-0.059561
11
-0.004598
21
-0.001723
31
-0.059674
12
-0.021372
22
-0.012630
32
-0.059561
0
3DFACE
62
163
10
-0.004005
20
-0.002694
30
-0.059548
11
-0.021072
21
-0.013120
31
-0.059548
12
-0.020776
22
-0.013605
32
-0.059634
0
3DFACE
62
163
10
-0.004005
20
-0.002694
30
-0.059548
11
-0.004305
21
-0.002204
31
-0.059561
12
-0.021072
22
-0.013120
32
-0.059548
0
3DFACE
62
163
10
-0.003709
20
-0.003178
30
-0.059634
11
-0.004005
21
-0.002694
31
-0.059548
12
-0.020776
22
-0.013605
32
-0.059634
0
3DFACE
62
163
10
-0.003426
20
-0.003643
30
-0.059818
11
-0.020776
21
-0.013605
31
-0.059634
12
-0.020493
22
-0.014069
32
-0.059818
0
3DFACE
62
163
10
-0.003426
20
-0.003643
30
-0.059818
11
-0.003709
21
-0.003178
31
-0.059634
12
-0.020776
22
-0.013605
32
-0.059634
0
3DFACE
62
163
10
-0.003163
20
-0.004073
30
-0.060094
11
-0.020493
21
-0.014069
31
-0.059818
12
-0.020230
22
-0.014499
32
-0.060094
0
3DFACE
62
163
10
-0.003163
20
-0.004073
30
-0.060094
11
-0.003426
21
-0.003643
31
-0.059818
12
-0.020493
22
-0.014069
32
-0.059818
0
3DFACE
62
163
10
-0.002929
20
-0.004455
30
-0.060452
11
-0.019996
21
-0.014882
31
-0.060452
12
-0.019799
22
-0.015206
32
-0.060884
0
3DFACE
62
163
10
-0.002929
20
-0.004455
30
-0.060452
11
-0.020230
21
-0.014499
31
-0.060094
12
-0.019996
22
-0.014882
32
-0.060452
0
3DFACE
62
163
10
-0.002929
20
-0.004455
30
-0.060452
11
-0.003163
21
-0.004073
31
-0.060094
12
-0.020230
22
-0.014499
32
-0.060094
0
3DFACE
62
163
10
-0.002731
20
-0.004779
30
-0.060884
11
-0.002929
21
-0.004455
31
-0.060452
12
-0.019799
22
-0.015206
32
-0.060884
0
3DFACE
62
163
10
-0.002576
20
-0.005034
30
-0.061374
11
-0.019799
21
-0.015206
31
-0.060884
12
-0.019643
22
-0.015461
32
-0.061374
0
3DFACE
62
163
10
-0.002576
20
-0.005034
30
-0.061374
11
-0.002731
21
-0.004779
31
-0.060884
12
-0.019799
22
-0.015206
32
-0.060884
0
3DFACE
62
163
10
-0.002467
20
-0.005212
30
-0.061909
11
-0.019643
21
-0.015461
31
-0.061374
12
-0.019534
22
-0.015639
32
-0.061909
0
3DFACE
62
163
10
-0.002467
20
-0.005212
30
-0.061909
11
-0.002576
21
-0.005034
31
-0.061374
12
-0.019643
22
-0.015461
32
-0.061374
0
3DFACE
62
163
10
-0.002408
20
-0.005309
30
-0.062472
11
-0.002467
21
-0.005212
31
-0.061909
12
-0.019534
22
-0.015639
32
-0.061909
0
3DFACE
62
163
10
-0.002408
20
-0.005309
30
-0.062472
11
-0.019475
21
-0.015735
31
-0.062472
12
-0.019468
22
-0.015747
32
-0.063047
0
3DFACE
62
163
10
-0.002408
20
-0.005309
30
-0.062472
11
-0.019534
21
-0.015639
31
-0.061909
12
-0.019475
22
-0.015735
32
-0.062472
0
3DFACE
62
163
10
-0.002401
20
-0.005320
30
-0.063047
11
-0.002408
21
-0.005309
31
-0.062472
12
-0.019468
22
-0.015747
32
-0.063047
0
3DFACE
62
163
10
-0.002446
20
-0.005246
30
-0.063614
11
-0.019513
21
-0.015673
31
-0.063614
12
-0.019609
22
-0.015516
32
-0.064159
0
3DFACE
62
163
10
-0.002446
20
-0.005246
30
-0.063614
11
-0.019468
21
-0.015747
31
-0.063047
12
-0.019513
22
-0.015673
32
-0.063614
0
3DFACE
62
163
10
-0.002446
20
-0.005246
30
-0.063614
11
-0.002401
21
-0.005320
31
-0.063047
12
-0.019468
22
-0.015747
32
-0.063047
0
3DFACE
62
163
10
-0.002542
20
-0.005089
30
-0.064159
11
-0.002446
21
-0.005246
31
-0.063614
12
-0.019609
22
-0.015516
32
-0.064159
0
3DFACE
62
163
10
-0.002731
20
-0.004779
30
-0.060884
11
-0.002467
21
-0.005212
31
-0.061909
12
-0.002576
22
-0.005034
32
-0.061374
0
3DFACE
62
163
10
-0.003163
20
-0.004073
30
-0.060094
11
-0.002731
21
-0.004779
31
-0.060884
12
-0.002929
22
-0.004455
32
-0.060452
0
3DFACE
62
163
10
-0.003709
20
-0.003178
30
-0.059634
11
-0.003163
21
-0.004073
31
-0.060094
12
-0.003426
22
-0.003643
32
-0.059818
0
3DFACE
62
163
10
-0.002685
20
-0.004854
30
-0.064663
11
-0.002542
21
-0.005089
31
-0.064159
12
-0.002446
22
-0.005246
32
-0.063614
0
3DFACE
62
163
10
-0.002873
20
-0.004548
30
-0.065111
11
-0.002446
21
-0.005246
31
-0.063614
12
-0.002401
22
-0.005320
32
-0.063047
0
3DFACE
62
163
10
-0.002873
20
-0.004548
30
-0.065111
11
-0.002401
21
-0.005320
31
-0.063047
12
-0.002408
22
-0.005309
32
-0.062472
0
3DFACE
62
163
10
-0.002873
20
-0.004548
30
-0.065111
11
-0.002408
21
-0.005309
31
-0.062472
12
-0.002467
22
-0.005212
32
-0.061909
0
3DFACE
62
163
10
-0.002873
20
-0.004548
30
-0.065111
11
-0.002467
21
-0.005212
31
-0.061909
12
-0.002731
22
-0.004779
32
-0.060884
0
3DFACE
62
163
10
-0.002873
20
-0.004548
30
-0.065111
11
-0.002685
21
-0.004854
31
-0.064663
12
-0.002446
22
-0.005246
32
-0.063614
0
3DFACE
62
163
10
-0.003353
20
-0.003761
30
-0.065789
11
-0.003097
21
-0.004180
31
-0.065490
12
-0.002873
22
-0.004548
32
-0.065111
0
3DFACE
62
163
10
-0.003353
20
-0.003761
30
-0.065789
11
-0.002873
21
-0.004548
31
-0.065111
12
-0.002731
22
-0.004779
32
-0.060884
0
3DFACE
62
163
10
-0.004877
20
-0.001267
30
-0.059883
11
-0.003709
21
-0.003178
31
-0.059634
12
-0.004005
22
-0.002694
32
-0.059548
0
3DFACE
62
163
10
-0.004877
20
-0.001267
30
-0.059883
11
-0.004005
21
-0.002694
31
-0.059548
12
-0.004305
22
-0.002204
32
-0.059561
0
3DFACE
62
163
10
-0.004877
20
-0.001267
30
-0.059883
11
-0.004305
21
-0.002204
31
-0.059561
12
-0.004598
22
-0.001723
32
-0.059674
0
3DFACE
62
163
10
-0.004877
20
-0.001267
30
-0.059883
11
-0.002731
21
-0.004779
31
-0.060884
12
-0.003163
22
-0.004073
32
-0.060094
0
3DFACE
62
163
10
-0.004877
20
-0.001267
30
-0.059883
11
-0.003163
21
-0.004073
31
-0.060094
12
-0.003709
22
-0.003178
32
-0.059634
0
3DFACE
62
163
10
-0.003926
20
-0.002824
30
-0.066111
11
-0.003632
21
-0.003305
31
-0.065998
12
-0.003353
22
-0.003761
32
-0.065789
0
3DFACE
62
163
10
-0.005358
20
-0.000480
30
-0.060561
11
-0.004877
21
-0.001267
31
-0.059883
12
-0.005133
22
-0.000848
32
-0.060182
0
3DFACE
62
163
10
-0.004225
20
-0.002334
30
-0.066124
11
-0.003926
21
-0.002824
31
-0.066111
12
-0.003353
22
-0.003761
32
-0.065789
0
3DFACE
62
163
10
-0.004805
20
-0.001385
30
-0.065854
11
-0.004521
21
-0.001850
31
-0.066038
12
-0.004225
22
-0.002334
32
-0.066124
0
3DFACE
62
163
10
-0.005784
20
0.000218
30
-0.062058
11
-0.005358
21
-0.000480
31
-0.060561
12
-0.005545
22
-0.000174
32
-0.061009
0
3DFACE
62
163
10
-0.005784
20
0.000218
30
-0.062058
11
-0.005545
21
-0.000174
31
-0.061009
12
-0.005689
22
0.000061
32
-0.061513
0
3DFACE
62
163
10
-0.005784
20
0.000218
30
-0.062058
11
-0.004877
21
-0.001267
31
-0.059883
12
-0.005358
22
-0.000480
32
-0.060561
0
3DFACE
62
163
10
-0.005301
20
-0.000573
30
-0.065220
11
-0.005067
21
-0.000955
31
-0.065578
12
-0.004805
22
-0.001385
32
-0.065854
0
3DFACE
62
163
10
-0.005764
20
0.000184
30
-0.063763
11
-0.005784
21
0.000218
31
-0.062058
12
-0.005829
22
0.000292
32
-0.062625
0
3DFACE
62
163
10
-0.005764
20
0.000184
30
-0.063763
11
-0.005829
21
0.000292
31
-0.062625
12
-0.005822
22
0.000281
32
-0.063200
0
3DFACE
62
163
10
-0.005764
20
0.000184
30
-0.063763
11
-0.002731
21
-0.004779
31
-0.060884
12
-0.004877
22
-0.001267
32
-0.059883
0
3DFACE
62
163
10
-0.005764
20
0.000184
30
-0.063763
11
-0.003353
21
-0.003761
31
-0.065789
12
-0.002731
22
-0.004779
32
-0.060884
0
3DFACE
62
163
10
-0.005764
20
0.000184
30
-0.063763
11
-0.004225
21
-0.002334
31
-0.066124
12
-0.003353
22
-0.003761
32
-0.065789
0
3DFACE
62
163
10
-0.005764
20
0.000184
30
-0.063763
11
-0.004877
21
-0.001267
31
-0.059883
12
-0.005784
22
0.000218
32
-0.062058
0
3DFACE
62
163
10
-0.005655
20
0.000006
30
-0.064298
11
-0.005499
21
-0.000249
31
-0.064788
12
-0.005301
22
-0.000573
32
-0.065220
0
3DFACE
62
163
10
-0.005655
20
0.000006
30
-0.064298
11
-0.004225
21
-0.002334
31
-0.066124
12
-0.005764
22
0.000184
32
-0.063763
0
3DFACE
62
163
10
-0.005655
20
0.000006
30
-0.064298
11
-0.005301
21
-0.000573
31
-0.065220
12
-0.004805
22
-0.001385
32
-0.065854
0
3DFACE
62
163
10
-0.005655
20
0.000006
30
-0.064298
11
-0.004805
21
-0.001385
31
-0.065854
12
-0.004225
22
-0.002334
32
-0.066124
0
3DFACE
62
163
10
-0.019643
20
-0.015461
30
-0.061374
11
-0.016588
21
-0.020461
31
-0.058474
12
-0.017053
22
-0.019700
32
-0.057010
0
3DFACE
62
163
10
-0.019534
20
-0.015639
30
-0.061909
11
-0.016263
21
-0.020993
31
-0.060070
12
-0.016588
22
-0.020461
32
-0.058474
0
3DFACE
62
163
10
-0.019534
20
-0.015639
30
-0.061909
11
-0.016588
21
-0.020461
31
-0.058474
12
-0.019643
22
-0.015461
32
-0.061374
0
3DFACE
62
163
10
-0.019799
20
-0.015206
30
-0.060884
11
-0.019643
21
-0.015461
31
-0.061374
12
-0.017053
22
-0.019700
32
-0.057010
0
3DFACE
62
163
10
-0.019475
20
-0.015735
30
-0.062472
11
-0.016087
21
-0.021280
31
-0.061751
12
-0.016263
22
-0.020993
32
-0.060070
0
3DFACE
62
163
10
-0.019475
20
-0.015735
30
-0.062472
11
-0.016263
21
-0.020993
31
-0.060070
12
-0.019534
22
-0.015639
32
-0.061909
0
3DFACE
62
163
10
-0.019996
20
-0.014882
30
-0.060452
11
-0.019799
21
-0.015206
31
-0.060884
12
-0.017053
22
-0.019700
32
-0.057010
0
3DFACE
62
163
10
-0.019996
20
-0.014882
30
-0.060452
11
-0.017053
21
-0.019700
31
-0.057010
12
-0.017643
22
-0.018734
32
-0.055723
0
3DFACE
62
163
10
-0.019468
20
-0.015747
30
-0.063047
11
-0.016067
21
-0.021314
31
-0.063465
12
-0.016087
22
-0.021280
32
-0.061751
0
3DFACE
62
163
10
-0.019468
20
-0.015747
30
-0.063047
11
-0.016087
21
-0.021280
31
-0.061751
12
-0.019475
22
-0.015735
32
-0.062472
0
3DFACE
62
163
10
-0.020230
20
-0.014499
30
-0.060094
11
-0.017643
21
-0.018734
31
-0.055723
12
-0.018341
22
-0.017592
32
-0.054652
0
3DFACE
62
163
10
-0.020230
20
-0.014499
30
-0.060094
11
-0.019996
21
-0.014882
31
-0.060452
12
-0.017643
22
-0.018734
32
-0.055723
0
3DFACE
62
163
10
-0.019513
20
-0.015673
30
-0.063614
11
-0.016201
21
-0.021094
31
-0.065159
12
-0.016067
22
-0.021314
32
-0.063465
0
3DFACE
62
163
10
-0.019513
20
-0.015673
30
-0.063614
11
-0.016067
21
-0.021314
31
-0.063465
12
-0.019468
22
-0.015747
32
-0.063047
0
3DFACE
62
163
10
-0.020493
20
-0.014069
30
-0.059818
11
-0.018341
21
-0.017592
31
-0.054652
12
-0.019125
22
-0.016309
32
-0.053830
0
3DFACE
62
163
10
-0.020493
20
-0.014069
30
-0.059818
11
-0.020230
21
-0.014499
31
-0.060094
12
-0.018341
22
-0.017592
32
-0.054652
0
3DFACE
62
163
10
-0.019609
20
-0.015516
30
-0.064159
11
-0.016487
21
-0.020626
31
-0.066783
12
-0.016201
22
-0.021094
32
-0.065159
0
3DFACE
62
163
10
-0.019609
20
-0.015516
30
-0.064159
11
-0.016916
21
-0.019924
31
-0.068287
12
-0.016487
22
-0.020626
32
-0.066783
0
3DFACE
62
163
10
-0.019609
20
-0.015516
30
-0.064159
11
-0.016201
21
-0.021094
31
-0.065159
12
-0.019513
22
-0.015673
32
-0.063614
0
3DFACE
62
163
10
-0.020776
20
-0.013605
30
-0.059634
11
-0.019125
21
-0.016309
31
-0.053830
12
-0.019971
22
-0.014923
32
-0.053281
0
3DFACE
62
163
10
-0.020776
20
-0.013605
30
-0.059634
11
-0.020493
21
-0.014069
31
-0.059818
12
-0.019125
22
-0.016309
32
-0.053830
0
3DFACE
62
163
10
-0.019753
20
-0.015281
30
-0.064663
11
-0.016916
21
-0.019924
31
-0.068287
12
-0.019609
22
-0.015516
32
-0.064159
0
3DFACE
62
163
10
-0.021072
20
-0.013120
30
-0.059548
11
-0.019971
21
-0.014923
31
-0.053281
12
-0.020855
22
-0.013477
32
-0.053023
0
3DFACE
62
163
10
-0.021072
20
-0.013120
30
-0.059548
11
-0.020776
21
-0.013605
31
-0.059634
12
-0.019971
22
-0.014923
32
-0.053281
0
3DFACE
62
163
10
-0.019940
20
-0.014975
30
-0.065111
11
-0.016916
21
-0.019924
31
-0.068287
12
-0.019753
22
-0.015281
32
-0.064663
0
3DFACE
62
163
10
-0.019940
20
-0.014975
30
-0.065111
11
-0.017474
21
-0.019011
31
-0.069625
12
-0.016916
22
-0.019924
32
-0.068287
0
3DFACE
62
163
10
-0.021372
20
-0.012630
30
-0.059561
11
-0.020855
21
-0.013477
31
-0.053023
12
-0.021748
22
-0.012015
32
-0.053063
0
3DFACE
62
163
10
-0.021372
20
-0.012630
30
-0.059561
11
-0.021072
21
-0.013120
31
-0.059548
12
-0.020855
22
-0.013477
32
-0.053023
0
3DFACE
62
163
10
-0.020164
20
-0.014607
30
-0.065490
11
-0.018145
21
-0.017912
31
-0.070757
12
-0.017474
22
-0.019011
32
-0.069625
0
3DFACE
62
163
10
-0.020164
20
-0.014607
30
-0.065490
11
-0.017474
21
-0.019011
31
-0.069625
12
-0.019940
22
-0.014975
32
-0.065111
0
3DFACE
62
163
10
-0.021665
20
-0.012150
30
-0.059674
11
-0.021372
21
-0.012630
31
-0.059561
12
-0.021748
22
-0.012015
32
-0.053063
0
3DFACE
62
163
10
-0.021665
20
-0.012150
30
-0.059674
11
-0.021748
21
-0.012015
31
-0.053063
12
-0.022624
22
-0.010581
32
-0.053400
0
3DFACE
62
163
10
-0.020420
20
-0.014188
30
-0.065789
11
-0.018145
21
-0.017912
31
-0.070757
12
-0.020164
22
-0.014607
32
-0.065490
0
3DFACE
62
163
10
-0.020420
20
-0.014188
30
-0.065789
11
-0.018908
21
-0.016663
31
-0.071648
12
-0.018145
22
-0.017912
32
-0.070757
0
3DFACE
62
163
10
-0.023456
20
-0.009218
30
-0.054024
11
-0.021665
21
-0.012150
31
-0.059674
12
-0.022624
22
-0.010581
32
-0.053400
0
3DFACE
62
163
10
-0.023456
20
-0.009218
30
-0.054024
11
-0.021944
21
-0.011693
31
-0.059883
12
-0.021665
22
-0.012150
32
-0.059674
0
3DFACE
62
163
10
-0.019741
20
-0.015301
30
-0.072272
11
-0.018908
21
-0.016663
31
-0.071648
12
-0.020420
22
-0.014188
32
-0.065789
0
3DFACE
62
163
10
-0.019741
20
-0.015301
30
-0.072272
11
-0.020420
21
-0.014188
31
-0.065789
12
-0.020699
22
-0.013731
32
-0.065998
0
3DFACE
62
163
10
-0.024220
20
-0.007969
30
-0.054915
11
-0.021944
21
-0.011693
31
-0.059883
12
-0.023456
22
-0.009218
32
-0.054024
0
3DFACE
62
163
10
-0.024220
20
-0.007969
30
-0.054915
11
-0.022200
21
-0.011275
31
-0.060182
12
-0.021944
22
-0.011693
32
-0.059883
0
3DFACE
62
163
10
-0.020617
20
-0.013867
30
-0.072609
11
-0.020699
21
-0.013731
31
-0.065998
12
-0.020993
22
-0.013251
32
-0.066111
0
3DFACE
62
163
10
-0.020617
20
-0.013867
30
-0.072609
11
-0.019741
21
-0.015301
31
-0.072272
12
-0.020699
22
-0.013731
32
-0.065998
0
3DFACE
62
163
10
-0.024891
20
-0.006871
30
-0.056047
11
-0.022200
21
-0.011275
31
-0.060182
12
-0.024220
22
-0.007969
32
-0.054915
0
3DFACE
62
163
10
-0.024891
20
-0.006871
30
-0.056047
11
-0.022425
21
-0.010907
31
-0.060561
12
-0.022200
22
-0.011275
32
-0.060182
0
3DFACE
62
163
10
-0.024891
20
-0.006871
30
-0.056047
11
-0.022612
21
-0.010600
31
-0.061009
12
-0.022425
22
-0.010907
32
-0.060561
0
3DFACE
62
163
10
-0.021510
20
-0.012404
30
-0.072649
11
-0.021292
21
-0.012761
31
-0.066124
12
-0.021588
22
-0.012276
32
-0.066038
0
3DFACE
62
163
10
-0.021510
20
-0.012404
30
-0.072649
11
-0.020993
21
-0.013251
31
-0.066111
12
-0.021292
22
-0.012761
32
-0.066124
0
3DFACE
62
163
10
-0.021510
20
-0.012404
30
-0.072649
11
-0.020617
21
-0.013867
31
-0.072609
12
-0.020993
22
-0.013251
32
-0.066111
0
3DFACE
62
163
10
-0.025449
20
-0.005957
30
-0.057385
11
-0.022612
21
-0.010600
31
-0.061009
12
-0.024891
22
-0.006871
32
-0.056047
0
3DFACE
62
163
10
-0.022393
20
-0.010958
30
-0.072391
11
-0.021510
21
-0.012404
31
-0.072649
12
-0.021588
22
-0.012276
32
-0.066038
0
3DFACE
62
163
10
-0.025877
20
-0.005255
30
-0.058889
11
-0.022756
21
-0.010365
31
-0.061513
12
-0.022612
22
-0.010600
32
-0.061009
0
3DFACE
62
163
10
-0.025877
20
-0.005255
30
-0.058889
11
-0.022612
21
-0.010600
31
-0.061009
12
-0.025449
22
-0.005957
32
-0.057385
0
3DFACE
62
163
10
-0.023240
20
-0.009573
30
-0.071842
11
-0.021588
21
-0.012276
31
-0.066038
12
-0.021872
22
-0.011812
32
-0.065854
0
3DFACE
62
163
10
-0.023240
20
-0.009573
30
-0.071842
11
-0.022393
21
-0.010958
31
-0.072391
12
-0.021588
22
-0.012276
32
-0.066038
0
3DFACE
62
163
10
-0.026163
20
-0.004787
30
-0.060513
11
-0.022851
21
-0.010208
31
-0.062058
12
-0.022756
22
-0.010365
32
-0.061513
0
3DFACE
62
163
10
-0.026163
20
-0.004787
30
-0.060513
11
-0.022756
21
-0.010365
31
-0.061513
12
-0.025877
22
-0.005255
32
-0.058889
0
3DFACE
62
163
10
-0.024024
20
-0.008289
30
-0.071020
11
-0.022135
21
-0.011382
31
-0.065578
12
-0.022368
22
-0.010999
32
-0.065220
0
3DFACE
62
163
10
-0.024024
20
-0.008289
30
-0.071020
11
-0.021872
21
-0.011812
31
-0.065854
12
-0.022135
22
-0.011382
32
-0.065578
0
3DFACE
62
163
10
-0.024024
20
-0.008289
30
-0.071020
11
-0.023240
21
-0.009573
31
-0.071842
12
-0.021872
22
-0.011812
32
-0.065854
0
3DFACE
62
163
10
-0.026298
20
-0.004567
30
-0.062207
11
-0.022897
21
-0.010135
31
-0.062625
12
-0.022851
22
-0.010208
32
-0.062058
0
3DFACE
62
163
10
-0.026298
20
-0.004567
30
-0.062207
11
-0.022851
21
-0.010208
31
-0.062058
12
-0.026163
22
-0.004787
32
-0.060513
0
3DFACE
62
163
10
-0.024722
20
-0.007147
30
-0.069949
11
-0.024024
21
-0.008289
31
-0.071020
12
-0.022368
22
-0.010999
32
-0.065220
0
3DFACE
62
163
10
-0.026277
20
-0.004601
30
-0.063921
11
-0.022897
21
-0.010135
31
-0.062625
12
-0.026298
22
-0.004567
32
-0.062207
0
3DFACE
62
163
10
-0.026277
20
-0.004601
30
-0.063921
11
-0.022890
21
-0.010146
31
-0.063200
12
-0.022897
22
-0.010135
32
-0.062625
0
3DFACE
62
163
10
-0.025312
20
-0.006181
30
-0.068662
11
-0.024722
21
-0.007147
31
-0.069949
12
-0.022368
22
-0.010999
32
-0.065220
0
3DFACE
62
163
10
-0.025312
20
-0.006181
30
-0.068662
11
-0.022368
21
-0.010999
31
-0.065220
12
-0.022566
22
-0.010676
32
-0.064788
0
3DFACE
62
163
10
-0.026102
20
-0.004888
30
-0.065602
11
-0.022831
21
-0.010242
31
-0.063763
12
-0.022890
22
-0.010146
32
-0.063200
0
3DFACE
62
163
10
-0.026102
20
-0.004888
30
-0.065602
11
-0.022890
21
-0.010146
31
-0.063200
12
-0.026277
22
-0.004601
32
-0.063921
0
3DFACE
62
163
10
-0.025776
20
-0.005420
30
-0.067198
11
-0.025312
21
-0.006181
31
-0.068662
12
-0.022566
22
-0.010676
32
-0.064788
0
3DFACE
62
163
10
-0.025776
20
-0.005420
30
-0.067198
11
-0.022831
21
-0.010242
31
-0.063763
12
-0.026102
22
-0.004888
32
-0.065602
0
3DFACE
62
163
10
-0.025776
20
-0.005420
30
-0.067198
11
-0.022722
21
-0.010421
31
-0.064298
12
-0.022831
22
-0.010242
32
-0.063763
0
3DFACE
62
163
10
-0.025776
20
-0.005420
30
-0.067198
11
-0.022566
21
-0.010676
31
-0.064788
12
-0.022722
22
-0.010421
32
-0.064298
0
3DFACE
62
163
10
-0.034975
20
-0.032563
30
-0.065159
11
-0.035261
21
-0.032095
31
-0.066783
12
-0.016487
22
-0.020626
32
-0.066783
0
3DFACE
62
163
10
-0.034975
20
-0.032563
30
-0.065159
11
-0.016487
21
-0.020626
31
-0.066783
12
-0.016201
22
-0.021094
32
-0.065159
0
3DFACE
62
163
10
-0.034840
20
-0.032784
30
-0.063465
11
-0.016201
21
-0.021094
31
-0.065159
12
-0.016067
22
-0.021314
32
-0.063465
0
3DFACE
62
163
10
-0.034840
20
-0.032784
30
-0.063465
11
-0.034975
21
-0.032563
31
-0.065159
12
-0.016201
22
-0.021094
32
-0.065159
0
3DFACE
62
163
10
-0.034861
20
-0.032750
30
-0.061751
11
-0.016067
21
-0.021314
31
-0.063465
12
-0.016087
22
-0.021280
32
-0.061751
0
3DFACE
62
163
10
-0.034861
20
-0.032750
30
-0.061751
11
-0.034840
21
-0.032784
31
-0.063465
12
-0.016067
22
-0.021314
32
-0.063465
0
3DFACE
62
163
10
-0.035037
20
-0.032462
30
-0.060070
11
-0.016087
21
-0.021280
31
-0.061751
12
-0.016263
22
-0.020993
32
-0.060070
0
3DFACE
62
163
10
-0.035037
20
-0.032462
30
-0.060070
11
-0.016263
21
-0.020993
31
-0.060070
12
-0.016588
22
-0.020461
32
-0.058474
0
3DFACE
62
163
10
-0.035037
20
-0.032462
30
-0.060070
11
-0.034861
21
-0.032750
31
-0.061751
12
-0.016087
22
-0.021280
32
-0.061751
0
3DFACE
62
163
10
-0.035362
20
-0.031930
30
-0.058474
11
-0.035037
21
-0.032462
31
-0.060070
12
-0.016588
22
-0.020461
32
-0.058474
0
3DFACE
62
163
10
-0.035827
20
-0.031169
30
-0.057010
11
-0.016588
21
-0.020461
31
-0.058474
12
-0.017053
22
-0.019700
32
-0.057010
0
3DFACE
62
163
10
-0.035827
20
-0.031169
30
-0.057010
11
-0.017053
21
-0.019700
31
-0.057010
12
-0.017643
22
-0.018734
32
-0.055723
0
3DFACE
62
163
10
-0.035827
20
-0.031169
30
-0.057010
11
-0.035362
21
-0.031930
31
-0.058474
12
-0.016588
22
-0.020461
32
-0.058474
0
3DFACE
62
163
10
-0.036417
20
-0.030203
30
-0.055723
11
-0.035827
21
-0.031169
31
-0.057010
12
-0.017643
22
-0.018734
32
-0.055723
0
3DFACE
62
163
10
-0.037114
20
-0.029061
30
-0.054652
11
-0.017643
21
-0.018734
31
-0.055723
12
-0.018341
22
-0.017592
32
-0.054652
0
3DFACE
62
163
10
-0.037114
20
-0.029061
30
-0.054652
11
-0.036417
21
-0.030203
31
-0.055723
12
-0.017643
22
-0.018734
32
-0.055723
0
3DFACE
62
163
10
-0.037899
20
-0.027778
30
-0.053830
11
-0.018341
21
-0.017592
31
-0.054652
12
-0.019125
22
-0.016309
32
-0.053830
0
3DFACE
62
163
10
-0.037899
20
-0.027778
30
-0.053830
11
-0.019125
21
-0.016309
31
-0.053830
12
-0.019971
22
-0.014923
32
-0.053281
0
3DFACE
62
163
10
-0.037899
20
-0.027778
30
-0.053830
11
-0.037114
21
-0.029061
31
-0.054652
12
-0.018341
22
-0.017592
32
-0.054652
0
3DFACE
62
163
10
-0.038745
20
-0.026392
30
-0.053281
11
-0.019971
21
-0.014923
31
-0.053281
12
-0.020855
22
-0.013477
32
-0.053023
0
3DFACE
62
163
10
-0.038745
20
-0.026392
30
-0.053281
11
-0.037899
21
-0.027778
31
-0.053830
12
-0.019971
22
-0.014923
32
-0.053281
0
3DFACE
62
163
10
-0.039628
20
-0.024946
30
-0.053023
11
-0.038745
21
-0.026392
31
-0.053281
12
-0.020855
22
-0.013477
32
-0.053023
0
3DFACE
62
163
10
-0.040522
20
-0.023484
30
-0.053063
11
-0.020855
21
-0.013477
31
-0.053023
12
-0.021748
22
-0.012015
32
-0.053063
0
3DFACE
62
163
10
-0.040522
20
-0.023484
30
-0.053063
11
-0.021748
21
-0.012015
31
-0.053063
12
-0.022624
22
-0.010581
32
-0.053400
0
3DFACE
62
163
10
-0.040522
20
-0.023484
30
-0.053063
11
-0.039628
21
-0.024946
31
-0.053023
12
-0.020855
22
-0.013477
32
-0.053023
0
3DFACE
62
163
10
-0.041398
20
-0.022050
30
-0.053400
11
-0.040522
21
-0.023484
31
-0.053063
12
-0.022624
22
-0.010581
32
-0.053400
0
3DFACE
62
163
10
-0.042230
20
-0.020687
30
-0.054024
11
-0.022624
21
-0.010581
31
-0.053400
12
-0.023456
22
-0.009218
32
-0.054024
0
3DFACE
62
163
10
-0.042230
20
-0.020687
30
-0.054024
11
-0.041398
21
-0.022050
31
-0.053400
12
-0.022624
22
-0.010581
32
-0.053400
0
3DFACE
62
163
10
-0.042993
20
-0.019438
30
-0.054915
11
-0.023456
21
-0.009218
31
-0.054024
12
-0.024220
22
-0.007969
32
-0.054915
0
3DFACE
62
163
10
-0.042993
20
-0.019438
30
-0.054915
11
-0.042230
21
-0.020687
31
-0.054024
12
-0.023456
22
-0.009218
32
-0.054024
0
3DFACE
62
163
10
-0.043664
20
-0.018340
30
-0.056047
11
-0.042993
21
-0.019438
31
-0.054915
12
-0.024220
22
-0.007969
32
-0.054915
0
3DFACE
62
163
10
-0.043664
20
-0.018340
30
-0.056047
11
-0.024220
21
-0.007969
31
-0.054915
12
-0.024891
22
-0.006871
32
-0.056047
0
3DFACE
62
163
10
-0.044223
20
-0.017426
30
-0.057385
11
-0.043664
21
-0.018340
31
-0.056047
12
-0.024891
22
-0.006871
32
-0.056047
0
3DFACE
62
163
10
-0.044223
20
-0.017426
30
-0.057385
11
-0.024891
21
-0.006871
31
-0.056047
12
-0.025449
22
-0.005957
32
-0.057385
0
3DFACE
62
163
10
-0.044223
20
-0.017426
30
-0.057385
11
-0.025449
21
-0.005957
31
-0.057385
12
-0.025877
22
-0.005255
32
-0.058889
0
3DFACE
62
163
10
-0.044651
20
-0.016724
30
-0.058889
11
-0.044223
21
-0.017426
31
-0.057385
12
-0.025877
22
-0.005255
32
-0.058889
0
3DFACE
62
163
10
-0.035827
20
-0.031169
30
-0.057010
11
-0.035037
21
-0.032462
31
-0.060070
12
-0.035362
22
-0.031930
32
-0.058474
0
3DFACE
62
163
10
-0.034861
20
-0.032750
30
-0.061751
11
-0.035037
21
-0.032462
31
-0.060070
12
-0.035827
22
-0.031169
32
-0.057010
0
3DFACE
62
163
10
-0.037114
20
-0.029061
30
-0.054652
11
-0.034840
21
-0.032784
31
-0.063465
12
-0.034861
22
-0.032750
32
-0.061751
0
3DFACE
62
163
10
-0.037114
20
-0.029061
30
-0.054652
11
-0.035827
21
-0.031169
31
-0.057010
12
-0.036417
22
-0.030203
32
-0.055723
0
3DFACE
62
163
10
-0.037114
20
-0.029061
30
-0.054652
11
-0.034861
21
-0.032750
31
-0.061751
12
-0.035827
22
-0.031169
32
-0.057010
0
3DFACE
62
163
10
-0.035690
20
-0.031394
30
-0.068287
11
-0.035261
21
-0.032095
31
-0.066783
12
-0.034975
22
-0.032563
32
-0.065159
0
3DFACE
62
163
10
-0.035690
20
-0.031394
30
-0.068287
11
-0.034975
21
-0.032563
31
-0.065159
12
-0.034840
22
-0.032784
32
-0.063465
0
3DFACE
62
163
10
-0.035690
20
-0.031394
30
-0.068287
11
-0.037114
21
-0.029061
31
-0.054652
12
-0.037899
22
-0.027778
32
-0.053830
0
3DFACE
62
163
10
-0.035690
20
-0.031394
30
-0.068287
11
-0.034840
21
-0.032784
31
-0.063465
12
-0.037114
22
-0.029061
32
-0.054652
0
3DFACE
62
163
10
-0.036919
20
-0.029382
30
-0.070757
11
-0.036248
21
-0.030480
31
-0.069625
12
-0.035690
22
-0.031394
32
-0.068287
0
3DFACE
62
163
10
-0.036919
20
-0.029382
30
-0.070757
11
-0.037899
21
-0.027778
31
-0.053830
12
-0.038745
22
-0.026392
32
-0.053281
0
3DFACE
62
163
10
-0.036919
20
-0.029382
30
-0.070757
11
-0.035690
21
-0.031394
31
-0.068287
12
-0.037899
22
-0.027778
32
-0.053830
0
3DFACE
62
163
10
-0.042230
20
-0.020687
30
-0.054024
11
-0.040522
21
-0.023484
31
-0.053063
12
-0.041398
22
-0.022050
32
-0.053400
0
3DFACE
62
163
10
-0.042993
20
-0.019438
30
-0.054915
11
-0.039628
21
-0.024946
31
-0.053023
12
-0.040522
22
-0.023484
32
-0.053063
0
3DFACE
62
163
10
-0.042993
20
-0.019438
30
-0.054915
11
-0.040522
21
-0.023484
31
-0.053063
12
-0.042230
22
-0.020687
32
-0.054024
0
3DFACE
62
163
10
-0.039390
20
-0.025336
30
-0.072609
11
-0.038514
21
-0.026770
31
-0.072272
12
-0.037682
22
-0.028132
32
-0.071648
0
3DFACE
62
163
10
-0.039390
20
-0.025336
30
-0.072609
11
-0.037682
21
-0.028132
31
-0.071648
12
-0.036919
22
-0.029382
32
-0.070757
0
3DFACE
62
163
10
-0.044223
20
-0.017426
30
-0.057385
11
-0.038745
21
-0.026392
31
-0.053281
12
-0.039628
22
-0.024946
32
-0.053023
0
3DFACE
62
163
10
-0.044223
20
-0.017426
30
-0.057385
11
-0.042993
21
-0.019438
31
-0.054915
12
-0.043664
22
-0.018340
32
-0.056047
0
3DFACE
62
163
10
-0.044223
20
-0.017426
30
-0.057385
11
-0.039628
21
-0.024946
31
-0.053023
12
-0.042993
22
-0.019438
32
-0.054915
0
3DFACE
62
163
10
-0.042014
20
-0.021042
30
-0.071842
11
-0.041167
21
-0.022428
31
-0.072391
12
-0.040284
22
-0.023874
32
-0.072649
0
3DFACE
62
163
10
-0.042014
20
-0.021042
30
-0.071842
11
-0.040284
21
-0.023874
31
-0.072649
12
-0.039390
22
-0.025336
32
-0.072609
0
3DFACE
62
163
10
-0.044651
20
-0.016724
30
-0.058889
11
-0.036919
21
-0.029382
31
-0.070757
12
-0.038745
22
-0.026392
32
-0.053281
0
3DFACE
62
163
10
-0.044651
20
-0.016724
30
-0.058889
11
-0.039390
21
-0.025336
31
-0.072609
12
-0.036919
22
-0.029382
32
-0.070757
0
3DFACE
62
163
10
-0.044651
20
-0.016724
30
-0.058889
11
-0.038745
21
-0.026392
31
-0.053281
12
-0.044223
22
-0.017426
32
-0.057385
0
3DFACE
62
163
10
-0.043495
20
-0.018616
30
-0.069949
11
-0.042798
21
-0.019758
31
-0.071020
12
-0.042014
22
-0.021042
32
-0.071842
0
3DFACE
62
163
10
-0.045051
20
-0.016070
30
-0.063921
11
-0.044651
21
-0.016724
31
-0.058889
12
-0.044937
22
-0.016256
32
-0.060513
0
3DFACE
62
163
10
-0.045051
20
-0.016070
30
-0.063921
11
-0.044937
21
-0.016256
31
-0.060513
12
-0.045072
22
-0.016036
32
-0.062207
0
3DFACE
62
163
10
-0.044875
20
-0.016358
30
-0.065602
11
-0.044651
21
-0.016724
31
-0.058889
12
-0.045051
22
-0.016070
32
-0.063921
0
3DFACE
62
163
10
-0.044875
20
-0.016358
30
-0.065602
11
-0.042014
21
-0.021042
31
-0.071842
12
-0.039390
22
-0.025336
32
-0.072609
0
3DFACE
62
163
10
-0.044875
20
-0.016358
30
-0.065602
11
-0.039390
21
-0.025336
31
-0.072609
12
-0.044651
22
-0.016724
32
-0.058889
0
3DFACE
62
163
10
-0.044550
20
-0.016890
30
-0.067198
11
-0.042014
21
-0.021042
31
-0.071842
12
-0.044875
22
-0.016358
32
-0.065602
0
3DFACE
62
163
10
-0.044550
20
-0.016890
30
-0.067198
11
-0.044086
21
-0.017650
31
-0.068662
12
-0.043495
22
-0.018616
32
-0.069949
0
3DFACE
62
163
10
-0.044550
20
-0.016890
30
-0.067198
11
-0.043495
21
-0.018616
31
-0.069949
12
-0.042014
22
-0.021042
32
-0.071842
0
3DFACE
62
163
10
0.053659
20
0.020869
30
0.045000
11
0.053151
21
0.020745
31
0.045000
12
0.053151
22
0.020745
32
0.047000
0
3DFACE
62
163
10
0.053659
20
0.020869
30
0.045000
11
0.053151
21
0.020745
31
0.047000
12
0.053659
22
0.020869
32
0.047000
0
3DFACE
62
163
10
0.054181
20
0.020903
30
0.045000
11
0.053659
21
0.020869
31
0.047000
12
0.054181
22
0.020903
32
0.047000
0
3DFACE
62
163
10
0.054181
20
0.020903
30
0.045000
11
0.053659
21
0.020869
31
0.045000
12
0.053659
22
0.020869
32
0.047000
0
3DFACE
62
163
10
0.054701
20
0.020846
30
0.045000
11
0.054181
21
0.020903
31
0.047000
12
0.054701
22
0.020846
32
0.047000
0
3DFACE
62
163
10
0.054701
20
0.020846
30
0.045000
11
0.054181
21
0.020903
31
0.045000
12
0.054181
22
0.020903
32
0.047000
0
3DFACE
62
163
10
0.055203
20
0.020700
30
0.045000
11
0.054701
21
0.020846
31
0.047000
12
0.055203
22
0.020700
32
0.047000
0
3DFACE
62
163
10
0.055203
20
0.020700
30
0.045000
11
0.054701
21
0.020846
31
0.045000
12
0.054701
22
0.020846
32
0.047000
0
3DFACE
62
163
10
0.055672
20
0.020468
30
0.045000
11
0.055203
21
0.020700
31
0.047000
12
0.055672
22
0.020468
32
0.047000
0
3DFACE
62
163
10
0.055672
20
0.020468
30
0.045000
11
0.055203
21
0.020700
31
0.045000
12
0.055203
22
0.020700
32
0.047000
0
3DFACE
62
163
10
0.056094
20
0.020159
30
0.045000
11
0.055672
21
0.020468
31
0.047000
12
0.056094
22
0.020159
32
0.047000
0
3DFACE
62
163
10
0.056094
20
0.020159
30
0.045000
11
0.055672
21
0.020468
31
0.045000
12
0.055672
22
0.020468
32
0.047000
0
3DFACE
62
163
10
0.056455
20
0.019781
30
0.045000
11
0.056094
21
0.020159
31
0.047000
12
0.056455
22
0.019781
32
0.047000
0
3DFACE
62
163
10
0.056455
20
0.019781
30
0.045000
11
0.056094
21
0.020159
31
0.045000
12
0.056094
22
0.020159
32
0.047000
0
3DFACE
62
163
10
0.056746
20
0.019346
30
0.045000
11
0.056455
21
0.019781
31
0.047000
12
0.056746
22
0.019346
32
0.047000
0
3DFACE
62
163
10
0.056746
20
0.019346
30
0.045000
11
0.056455
21
0.019781
31
0.045000
12
0.056455
22
0.019781
32
0.047000
0
3DFACE
62
163
10
0.056956
20
0.018868
30
0.045000
11
0.056746
21
0.019346
31
0.047000
12
0.056956
22
0.018868
32
0.047000
0
3DFACE
62
163
10
0.056956
20
0.018868
30
0.045000
11
0.056746
21
0.019346
31
0.045000
12
0.056746
22
0.019346
32
0.047000
0
3DFACE
62
163
10
0.057080
20
0.018360
30
0.045000
11
0.056956
21
0.018868
31
0.047000
12
0.057080
22
0.018360
32
0.047000
0
3DFACE
62
163
10
0.057080
20
0.018360
30
0.045000
11
0.056956
21
0.018868
31
0.045000
12
0.056956
22
0.018868
32
0.047000
0
3DFACE
62
163
10
0.057114
20
0.017838
30
0.045000
11
0.057114
21
0.017838
31
0.047000
12
0.057057
22
0.017318
32
0.047000
0
3DFACE
62
163
10
0.057114
20
0.017838
30
0.045000
11
0.057080
21
0.018360
31
0.047000
12
0.057114
22
0.017838
32
0.047000
0
3DFACE
62
163
10
0.057114
20
0.017838
30
0.045000
11
0.057080
21
0.018360
31
0.045000
12
0.057080
22
0.018360
32
0.047000
0
3DFACE
62
163
10
0.057057
20
0.017318
30
0.045000
11
0.057114
21
0.017838
31
0.045000
12
0.057057
22
0.017318
32
0.047000
0
3DFACE
62
163
10
0.056911
20
0.016816
30
0.045000
11
0.057057
21
0.017318
31
0.047000
12
0.056911
22
0.016816
32
0.047000
0
3DFACE
62
163
10
0.056911
20
0.016816
30
0.045000
11
0.057057
21
0.017318
31
0.045000
12
0.057057
22
0.017318
32
0.047000
0
3DFACE
62
163
10
0.056680
20
0.016347
30
0.045000
11
0.056680
21
0.016347
31
0.047000
12
0.056370
22
0.015926
32
0.047000
0
3DFACE
62
163
10
0.056680
20
0.016347
30
0.045000
11
0.056911
21
0.016816
31
0.047000
12
0.056680
22
0.016347
32
0.047000
0
3DFACE
62
163
10
0.056680
20
0.016347
30
0.045000
11
0.056911
21
0.016816
31
0.045000
12
0.056911
22
0.016816
32
0.047000
0
3DFACE
62
163
10
0.056370
20
0.015926
30
0.045000
11
0.056680
21
0.016347
31
0.045000
12
0.056370
22
0.015926
32
0.047000
0
3DFACE
62
163
10
0.055992
20
0.015564
30
0.045000
11
0.056370
21
0.015926
31
0.045000
12
0.056370
22
0.015926
32
0.047000
0
3DFACE
62
163
10
0.055992
20
0.015564
30
0.045000
11
0.056370
21
0.015926
31
0.047000
12
0.055992
22
0.015564
32
0.047000
0
3DFACE
62
163
10
0.055558
20
0.015274
30
0.045000
11
0.055992
21
0.015564
31
0.045000
12
0.055992
22
0.015564
32
0.047000
0
3DFACE
62
163
10
0.055558
20
0.015274
30
0.045000
11
0.055992
21
0.015564
31
0.047000
12
0.055558
22
0.015274
32
0.047000
0
3DFACE
62
163
10
0.055079
20
0.015063
30
0.045000
11
0.055558
21
0.015274
31
0.045000
12
0.055558
22
0.015274
32
0.047000
0
3DFACE
62
163
10
0.055079
20
0.015063
30
0.045000
11
0.055558
21
0.015274
31
0.047000
12
0.055079
22
0.015063
32
0.047000
0
3DFACE
62
163
10
0.055323
20
0.010042
30
0.045000
11
0.056670
21
0.010372
31
0.047000
12
0.055323
22
0.010042
32
0.047000
0
3DFACE
62
163
10
0.055323
20
0.010042
30
0.045000
11
0.056670
21
0.010372
31
0.045000
12
0.056670
22
0.010372
32
0.047000
0
3DFACE
62
163
10
0.053940
20
0.009952
30
0.045000
11
0.055323
21
0.010042
31
0.047000
12
0.053940
22
0.009952
32
0.047000
0
3DFACE
62
163
10
0.053940
20
0.009952
30
0.045000
11
0.055323
21
0.010042
31
0.045000
12
0.055323
22
0.010042
32
0.047000
0
3DFACE
62
163
10
0.052562
20
0.010103
30
0.045000
11
0.053940
21
0.009952
31
0.047000
12
0.052562
22
0.010103
32
0.047000
0
3DFACE
62
163
10
0.052562
20
0.010103
30
0.045000
11
0.053940
21
0.009952
31
0.045000
12
0.053940
22
0.009952
32
0.047000
0
3DFACE
62
163
10
0.051231
20
0.010492
30
0.045000
11
0.052562
21
0.010103
31
0.047000
12
0.051231
22
0.010492
32
0.047000
0
3DFACE
62
163
10
0.051231
20
0.010492
30
0.045000
11
0.052562
21
0.010103
31
0.045000
12
0.052562
22
0.010103
32
0.047000
0
3DFACE
62
163
10
0.049987
20
0.011105
30
0.045000
11
0.051231
21
0.010492
31
0.047000
12
0.049987
22
0.011105
32
0.047000
0
3DFACE
62
163
10
0.049987
20
0.011105
30
0.045000
11
0.051231
21
0.010492
31
0.045000
12
0.051231
22
0.010492
32
0.047000
0
3DFACE
62
163
10
0.048869
20
0.011925
30
0.045000
11
0.049987
21
0.011105
31
0.047000
12
0.048869
22
0.011925
32
0.047000
0
3DFACE
62
163
10
0.048869
20
0.011925
30
0.045000
11
0.049987
21
0.011105
31
0.045000
12
0.049987
22
0.011105
32
0.047000
0
3DFACE
62
163
10
0.047911
20
0.012927
30
0.045000
11
0.048869
21
0.011925
31
0.047000
12
0.047911
22
0.012927
32
0.047000
0
3DFACE
62
163
10
0.047911
20
0.012927
30
0.045000
11
0.048869
21
0.011925
31
0.045000
12
0.048869
22
0.011925
32
0.047000
0
3DFACE
62
163
10
0.047141
20
0.014080
30
0.045000
11
0.047141
21
0.014080
31
0.047000
12
0.046583
22
0.015349
32
0.047000
0
3DFACE
62
163
10
0.047141
20
0.014080
30
0.045000
11
0.047911
21
0.012927
31
0.047000
12
0.047141
22
0.014080
32
0.047000
0
3DFACE
62
163
10
0.047141
20
0.014080
30
0.045000
11
0.047911
21
0.012927
31
0.045000
12
0.047911
22
0.012927
32
0.047000
0
3DFACE
62
163
10
0.046583
20
0.015349
30
0.045000
11
0.047141
21
0.014080
31
0.045000
12
0.046583
22
0.015349
32
0.047000
0
3DFACE
62
163
10
0.046253
20
0.016696
30
0.045000
11
0.046583
21
0.015349
31
0.047000
12
0.046253
22
0.016696
32
0.047000
0
3DFACE
62
163
10
0.046253
20
0.016696
30
0.045000
11
0.046583
21
0.015349
31
0.045000
12
0.046583
22
0.015349
32
0.047000
0
3DFACE
62
163
10
0.046163
20
0.018079
30
0.045000
11
0.046253
21
0.016696
31
0.047000
12
0.046163
22
0.018079
32
0.047000
0
3DFACE
62
163
10
0.046163
20
0.018079
30
0.045000
11
0.046253
21
0.016696
31
0.045000
12
0.046253
22
0.016696
32
0.047000
0
3DFACE
62
163
10
0.046314
20
0.019457
30
0.045000
11
0.046163
21
0.018079
31
0.047000
12
0.046314
22
0.019457
32
0.047000
0
3DFACE
62
163
10
0.046314
20
0.019457
30
0.045000
11
0.046163
21
0.018079
31
0.045000
12
0.046163
22
0.018079
32
0.047000
0
3DFACE
62
163
10
0.046703
20
0.020788
30
0.045000
11
0.046314
21
0.019457
31
0.047000
12
0.046703
22
0.020788
32
0.047000
0
3DFACE
62
163
10
0.046703
20
0.020788
30
0.045000
11
0.046314
21
0.019457
31
0.045000
12
0.046314
22
0.019457
32
0.047000
0
3DFACE
62
163
10
0.047316
20
0.022032
30
0.045000
11
0.047316
21
0.022032
31
0.047000
12
0.048136
22
0.023150
32
0.047000
0
3DFACE
62
163
10
0.047316
20
0.022032
30
0.045000
11
0.046703
21
0.020788
31
0.047000
12
0.047316
22
0.022032
32
0.047000
0
3DFACE
62
163
10
0.047316
20
0.022032
30
0.045000
11
0.046703
21
0.020788
31
0.045000
12
0.046703
22
0.020788
32
0.047000
0
3DFACE
62
163
10
0.048136
20
0.023150
30
0.045000
11
0.047316
21
0.022032
31
0.045000
12
0.048136
22
0.023150
32
0.047000
0
3DFACE
62
163
10
0.049138
20
0.024108
30
0.045000
11
0.048136
21
0.023150
31
0.047000
12
0.049138
22
0.024108
32
0.047000
0
3DFACE
62
163
10
0.049138
20
0.024108
30
0.045000
11
0.048136
21
0.023150
31
0.045000
12
0.048136
22
0.023150
32
0.047000
0
3DFACE
62
163
10
0.050291
20
0.024878
30
0.045000
11
0.050291
21
0.024878
31
0.047000
12
0.051560
22
0.025436
32
0.047000
0
3DFACE
62
163
10
0.050291
20
0.024878
30
0.045000
11
0.049138
21
0.024108
31
0.047000
12
0.050291
22
0.024878
32
0.047000
0
3DFACE
62
163
10
0.050291
20
0.024878
30
0.045000
11
0.049138
21
0.024108
31
0.045000
12
0.049138
22
0.024108
32
0.047000
0
3DFACE
62
163
10
0.051560
20
0.025436
30
0.045000
11
0.050291
21
0.024878
31
0.045000
12
0.051560
22
0.025436
32
0.047000
0
3DFACE
62
163
10
0.056911
20
0.016816
30
0.047000
11
0.060914
21
0.013776
31
0.047000
12
0.061528
22
0.015020
32
0.047000
0
3DFACE
62
163
10
0.056911
20
0.016816
30
0.047000
11
0.056680
21
0.016347
31
0.047000
12
0.060914
22
0.013776
32
0.047000
0
3DFACE
62
163
10
0.056370
20
0.015926
30
0.047000
11
0.060094
21
0.012658
31
0.047000
12
0.060914
22
0.013776
32
0.047000
0
3DFACE
62
163
10
0.056370
20
0.015926
30
0.047000
11
0.060914
21
0.013776
31
0.047000
12
0.056680
22
0.016347
32
0.047000
0
3DFACE
62
163
10
0.057057
20
0.017318
30
0.047000
11
0.061528
21
0.015020
31
0.047000
12
0.061916
22
0.016351
32
0.047000
0
3DFACE
62
163
10
0.057057
20
0.017318
30
0.047000
11
0.056911
21
0.016816
31
0.047000
12
0.061528
22
0.015020
32
0.047000
0
3DFACE
62
163
10
0.057114
20
0.017838
30
0.047000
11
0.061916
21
0.016351
31
0.047000
12
0.062067
22
0.017729
32
0.047000
0
3DFACE
62
163
10
0.057114
20
0.017838
30
0.047000
11
0.057057
21
0.017318
31
0.047000
12
0.061916
22
0.016351
32
0.047000
0
3DFACE
62
163
10
0.055992
20
0.015564
30
0.047000
11
0.059092
21
0.011700
31
0.047000
12
0.060094
22
0.012658
32
0.047000
0
3DFACE
62
163
10
0.055992
20
0.015564
30
0.047000
11
0.060094
21
0.012658
31
0.047000
12
0.056370
22
0.015926
32
0.047000
0
3DFACE
62
163
10
0.057080
20
0.018360
30
0.047000
11
0.062067
21
0.017729
31
0.047000
12
0.061977
22
0.019112
32
0.047000
0
3DFACE
62
163
10
0.057080
20
0.018360
30
0.047000
11
0.057114
21
0.017838
31
0.047000
12
0.062067
22
0.017729
32
0.047000
0
3DFACE
62
163
10
0.055558
20
0.015274
30
0.047000
11
0.057939
21
0.010930
31
0.047000
12
0.059092
22
0.011700
32
0.047000
0
3DFACE
62
163
10
0.055558
20
0.015274
30
0.047000
11
0.059092
21
0.011700
31
0.047000
12
0.055992
22
0.015564
32
0.047000
0
3DFACE
62
163
10
0.056956
20
0.018868
30
0.047000
11
0.061977
21
0.019112
31
0.047000
12
0.061648
22
0.020459
32
0.047000
0
3DFACE
62
163
10
0.056956
20
0.018868
30
0.047000
11
0.061648
21
0.020459
31
0.047000
12
0.061089
22
0.021728
32
0.047000
0
3DFACE
62
163
10
0.056956
20
0.018868
30
0.047000
11
0.057080
21
0.018360
31
0.047000
12
0.061977
22
0.019112
32
0.047000
0
3DFACE
62
163
10
0.055079
20
0.015063
30
0.047000
11
0.056670
21
0.010372
31
0.047000
12
0.057939
22
0.010930
32
0.047000
0
3DFACE
62
163
10
0.055079
20
0.015063
30
0.047000
11
0.057939
21
0.010930
31
0.047000
12
0.055558
22
0.015274
32
0.047000
0
3DFACE
62
163
10
0.056746
20
0.019346
30
0.047000
11
0.061089
21
0.021728
31
0.047000
12
0.060319
22
0.022881
32
0.047000
0
3DFACE
62
163
10
0.056746
20
0.019346
30
0.047000
11
0.056956
21
0.018868
31
0.047000
12
0.061089
22
0.021728
32
0.047000
0
3DFACE
62
163
10
0.054571
20
0.014939
30
0.047000
11
0.053940
21
0.009952
31
0.047000
12
0.055323
22
0.010042
32
0.047000
0
3DFACE
62
163
10
0.054571
20
0.014939
30
0.047000
11
0.055323
21
0.010042
31
0.047000
12
0.056670
22
0.010372
32
0.047000
0
3DFACE
62
163
10
0.054571
20
0.014939
30
0.047000
11
0.056670
21
0.010372
31
0.047000
12
0.055079
22
0.015063
32
0.047000
0
3DFACE
62
163
10
0.056455
20
0.019781
30
0.047000
11
0.056746
21
0.019346
31
0.047000
12
0.060319
22
0.022881
32
0.047000
0
3DFACE
62
163
10
0.054049
20
0.014905
30
0.047000
11
0.053940
21
0.009952
31
0.047000
12
0.054571
22
0.014939
32
0.047000
0
3DFACE
62
163
10
0.056094
20
0.020159
30
0.047000
11
0.060319
21
0.022881
31
0.047000
12
0.059361
22
0.023883
32
0.047000
0
3DFACE
62
163
10
0.056094
20
0.020159
30
0.047000
11
0.056455
21
0.019781
31
0.047000
12
0.060319
22
0.022881
32
0.047000
0
3DFACE
62
163
10
0.053529
20
0.014962
30
0.047000
11
0.053940
21
0.009952
31
0.047000
12
0.054049
22
0.014905
32
0.047000
0
3DFACE
62
163
10
0.053529
20
0.014962
30
0.047000
11
0.052562
21
0.010103
31
0.047000
12
0.053940
22
0.009952
32
0.047000
0
3DFACE
62
163
10
0.055672
20
0.020468
30
0.047000
11
0.059361
21
0.023883
31
0.047000
12
0.058243
22
0.024703
32
0.047000
0
3DFACE
62
163
10
0.055672
20
0.020468
30
0.047000
11
0.056094
21
0.020159
31
0.047000
12
0.059361
22
0.023883
32
0.047000
0
3DFACE
62
163
10
0.053027
20
0.015108
30
0.047000
11
0.051231
21
0.010492
31
0.047000
12
0.052562
22
0.010103
32
0.047000
0
3DFACE
62
163
10
0.053027
20
0.015108
30
0.047000
11
0.052562
21
0.010103
31
0.047000
12
0.053529
22
0.014962
32
0.047000
0
3DFACE
62
163
10
0.056999
20
0.025317
30
0.047000
11
0.055672
21
0.020468
31
0.047000
12
0.058243
22
0.024703
32
0.047000
0
3DFACE
62
163
10
0.056999
20
0.025317
30
0.047000
11
0.055203
21
0.020700
31
0.047000
12
0.055672
22
0.020468
32
0.047000
0
3DFACE
62
163
10
0.049987
20
0.011105
30
0.047000
11
0.051231
21
0.010492
31
0.047000
12
0.053027
22
0.015108
32
0.047000
0
3DFACE
62
163
10
0.049987
20
0.011105
30
0.047000
11
0.053027
21
0.015108
31
0.047000
12
0.052558
22
0.015340
32
0.047000
0
3DFACE
62
163
10
0.055668
20
0.025705
30
0.047000
11
0.054701
21
0.020846
31
0.047000
12
0.055203
22
0.020700
32
0.047000
0
3DFACE
62
163
10
0.055668
20
0.025705
30
0.047000
11
0.054181
21
0.020903
31
0.047000
12
0.054701
22
0.020846
32
0.047000
0
3DFACE
62
163
10
0.055668
20
0.025705
30
0.047000
11
0.055203
21
0.020700
31
0.047000
12
0.056999
22
0.025317
32
0.047000
0
3DFACE
62
163
10
0.048869
20
0.011925
30
0.047000
11
0.049987
21
0.011105
31
0.047000
12
0.052558
22
0.015340
32
0.047000
0
3DFACE
62
163
10
0.048869
20
0.011925
30
0.047000
11
0.052558
21
0.015340
31
0.047000
12
0.052137
22
0.015649
32
0.047000
0
3DFACE
62
163
10
0.054290
20
0.025856
30
0.047000
11
0.053659
21
0.020869
31
0.047000
12
0.054181
22
0.020903
32
0.047000
0
3DFACE
62
163
10
0.054290
20
0.025856
30
0.047000
11
0.054181
21
0.020903
31
0.047000
12
0.055668
22
0.025705
32
0.047000
0
3DFACE
62
163
10
0.047911
20
0.012927
30
0.047000
11
0.052137
21
0.015649
31
0.047000
12
0.051775
22
0.016027
32
0.047000
0
3DFACE
62
163
10
0.047911
20
0.012927
30
0.047000
11
0.048869
21
0.011925
31
0.047000
12
0.052137
22
0.015649
32
0.047000
0
3DFACE
62
163
10
0.052907
20
0.025766
30
0.047000
11
0.053659
21
0.020869
31
0.047000
12
0.054290
22
0.025856
32
0.047000
0
3DFACE
62
163
10
0.047141
20
0.014080
30
0.047000
11
0.051485
21
0.016462
31
0.047000
12
0.051274
22
0.016940
32
0.047000
0
3DFACE
62
163
10
0.047141
20
0.014080
30
0.047000
11
0.051775
21
0.016027
31
0.047000
12
0.051485
22
0.016462
32
0.047000
0
3DFACE
62
163
10
0.047141
20
0.014080
30
0.047000
11
0.047911
21
0.012927
31
0.047000
12
0.051775
22
0.016027
32
0.047000
0
3DFACE
62
163
10
0.051560
20
0.025436
30
0.047000
11
0.053151
21
0.020745
31
0.047000
12
0.053659
22
0.020869
32
0.047000
0
3DFACE
62
163
10
0.051560
20
0.025436
30
0.047000
11
0.053659
21
0.020869
31
0.047000
12
0.052907
22
0.025766
32
0.047000
0
3DFACE
62
163
10
0.046583
20
0.015349
30
0.047000
11
0.047141
21
0.014080
31
0.047000
12
0.051274
22
0.016940
32
0.047000
0
3DFACE
62
163
10
0.050291
20
0.024878
30
0.047000
11
0.052673
21
0.020535
31
0.047000
12
0.053151
22
0.020745
32
0.047000
0
3DFACE
62
163
10
0.050291
20
0.024878
30
0.047000
11
0.052238
21
0.020244
31
0.047000
12
0.052673
22
0.020535
32
0.047000
0
3DFACE
62
163
10
0.050291
20
0.024878
30
0.047000
11
0.053151
21
0.020745
31
0.047000
12
0.051560
22
0.025436
32
0.047000
0
3DFACE
62
163
10
0.046253
20
0.016696
30
0.047000
11
0.051150
21
0.017448
31
0.047000
12
0.051116
22
0.017970
32
0.047000
0
3DFACE
62
163
10
0.046253
20
0.016696
30
0.047000
11
0.051274
21
0.016940
31
0.047000
12
0.051150
22
0.017448
32
0.047000
0
3DFACE
62
163
10
0.046253
20
0.016696
30
0.047000
11
0.046583
21
0.015349
31
0.047000
12
0.051274
22
0.016940
32
0.047000
0
3DFACE
62
163
10
0.049138
20
0.024108
30
0.047000
11
0.052238
21
0.020244
31
0.047000
12
0.050291
22
0.024878
32
0.047000
0
3DFACE
62
163
10
0.046163
20
0.018079
30
0.047000
11
0.046253
21
0.016696
31
0.047000
12
0.051116
22
0.017970
32
0.047000
0
3DFACE
62
163
10
0.046163
20
0.018079
30
0.047000
11
0.051116
21
0.017970
31
0.047000
12
0.051173
22
0.018490
32
0.047000
0
3DFACE
62
163
10
0.048136
20
0.023150
30
0.047000
11
0.052238
21
0.020244
31
0.047000
12
0.049138
22
0.024108
32
0.047000
0
3DFACE
62
163
10
0.048136
20
0.023150
30
0.047000
11
0.051860
21
0.019883
31
0.047000
12
0.052238
22
0.020244
32
0.047000
0
3DFACE
62
163
10
0.046314
20
0.019457
30
0.047000
11
0.046163
21
0.018079
31
0.047000
12
0.051173
22
0.018490
32
0.047000
0
3DFACE
62
163
10
0.047316
20
0.022032
30
0.047000
11
0.051551
21
0.019461
31
0.047000
12
0.051860
22
0.019883
32
0.047000
0
3DFACE
62
163
10
0.047316
20
0.022032
30
0.047000
11
0.051319
21
0.018992
31
0.047000
12
0.051551
22
0.019461
32
0.047000
0
3DFACE
62
163
10
0.047316
20
0.022032
30
0.047000
11
0.051860
21
0.019883
31
0.047000
12
0.048136
22
0.023150
32
0.047000
0
3DFACE
62
163
10
0.046703
20
0.020788
30
0.047000
11
0.046314
21
0.019457
31
0.047000
12
0.051173
22
0.018490
32
0.047000
0
3DFACE
62
163
10
0.046703
20
0.020788
30
0.047000
11
0.051319
21
0.018992
31
0.047000
12
0.047316
22
0.022032
32
0.047000
0
3DFACE
62
163
10
0.046703
20
0.020788
30
0.047000
11
0.051173
21
0.018490
31
0.047000
12
0.051319
22
0.018992
32
0.047000
0
3DFACE
62
163
10
0.056911
20
0.016816
30
0.045000
11
0.060914
21
0.013776
31
0.045000
12
0.061528
22
0.015020
32
0.045000
0
3DFACE
62
163
10
0.056911
20
0.016816
30
0.045000
11
0.056680
21
0.016347
31
0.045000
12
0.060914
22
0.013776
32
0.045000
0
3DFACE
62
163
10
0.056370
20
0.015926
30
0.045000
11
0.060094
21
0.012658
31
0.045000
12
0.060914
22
0.013776
32
0.045000
0
3DFACE
62
163
10
0.056370
20
0.015926
30
0.045000
11
0.060914
21
0.013776
31
0.045000
12
0.056680
22
0.016347
32
0.045000
0
3DFACE
62
163
10
0.057057
20
0.017318
30
0.045000
11
0.056911
21
0.016816
31
0.045000
12
0.061528
22
0.015020
32
0.045000
0
3DFACE
62
163
10
0.057057
20
0.017318
30
0.045000
11
0.061528
21
0.015020
31
0.045000
12
0.061916
22
0.016351
32
0.045000
0
3DFACE
62
163
10
0.057114
20
0.017838
30
0.045000
11
0.057057
21
0.017318
31
0.045000
12
0.061916
22
0.016351
32
0.045000
0
3DFACE
62
163
10
0.057114
20
0.017838
30
0.045000
11
0.061916
21
0.016351
31
0.045000
12
0.062067
22
0.017729
32
0.045000
0
3DFACE
62
163
10
0.055992
20
0.015564
30
0.045000
11
0.060094
21
0.012658
31
0.045000
12
0.056370
22
0.015926
32
0.045000
0
3DFACE
62
163
10
0.055992
20
0.015564
30
0.045000
11
0.059092
21
0.011700
31
0.045000
12
0.060094
22
0.012658
32
0.045000
0
3DFACE
62
163
10
0.057080
20
0.018360
30
0.045000
11
0.062067
21
0.017729
31
0.045000
12
0.061977
22
0.019112
32
0.045000
0
3DFACE
62
163
10
0.057080
20
0.018360
30
0.045000
11
0.057114
21
0.017838
31
0.045000
12
0.062067
22
0.017729
32
0.045000
0
3DFACE
62
163
10
0.055558
20
0.015274
30
0.045000
11
0.057939
21
0.010930
31
0.045000
12
0.059092
22
0.011700
32
0.045000
0
3DFACE
62
163
10
0.055558
20
0.015274
30
0.045000
11
0.059092
21
0.011700
31
0.045000
12
0.055992
22
0.015564
32
0.045000
0
3DFACE
62
163
10
0.056956
20
0.018868
30
0.045000
11
0.057080
21
0.018360
31
0.045000
12
0.061977
22
0.019112
32
0.045000
0
3DFACE
62
163
10
0.056956
20
0.018868
30
0.045000
11
0.061977
21
0.019112
31
0.045000
12
0.061648
22
0.020459
32
0.045000
0
3DFACE
62
163
10
0.056956
20
0.018868
30
0.045000
11
0.061648
21
0.020459
31
0.045000
12
0.061089
22
0.021728
32
0.045000
0
3DFACE
62
163
10
0.055079
20
0.015063
30
0.045000
11
0.057939
21
0.010930
31
0.045000
12
0.055558
22
0.015274
32
0.045000
0
3DFACE
62
163
10
0.055079
20
0.015063
30
0.045000
11
0.056670
21
0.010372
31
0.045000
12
0.057939
22
0.010930
32
0.045000
0
3DFACE
62
163
10
0.056746
20
0.019346
30
0.045000
11
0.056956
21
0.018868
31
0.045000
12
0.061089
22
0.021728
32
0.045000
0
3DFACE
62
163
10
0.056746
20
0.019346
30
0.045000
11
0.061089
21
0.021728
31
0.045000
12
0.060319
22
0.022881
32
0.045000
0
3DFACE
62
163
10
0.054571
20
0.014939
30
0.045000
11
0.053940
21
0.009952
31
0.045000
12
0.055323
22
0.010042
32
0.045000
0
3DFACE
62
163
10
0.054571
20
0.014939
30
0.045000
11
0.055323
21
0.010042
31
0.045000
12
0.056670
22
0.010372
32
0.045000
0
3DFACE
62
163
10
0.054571
20
0.014939
30
0.045000
11
0.056670
21
0.010372
31
0.045000
12
0.055079
22
0.015063
32
0.045000
0
3DFACE
62
163
10
0.056455
20
0.019781
30
0.045000
11
0.056746
21
0.019346
31
0.045000
12
0.060319
22
0.022881
32
0.045000
0
3DFACE
62
163
10
0.054049
20
0.014905
30
0.045000
11
0.053940
21
0.009952
31
0.045000
12
0.054571
22
0.014939
32
0.045000
0
3DFACE
62
163
10
0.056094
20
0.020159
30
0.045000
11
0.060319
21
0.022881
31
0.045000
12
0.059361
22
0.023883
32
0.045000
0
3DFACE
62
163
10
0.056094
20
0.020159
30
0.045000
11
0.056455
21
0.019781
31
0.045000
12
0.060319
22
0.022881
32
0.045000
0
3DFACE
62
163
10
0.053529
20
0.014962
30
0.045000
11
0.052562
21
0.010103
31
0.045000
12
0.053940
22
0.009952
32
0.045000
0
3DFACE
62
163
10
0.053529
20
0.014962
30
0.045000
11
0.053940
21
0.009952
31
0.045000
12
0.054049
22
0.014905
32
0.045000
0
3DFACE
62
163
10
0.055672
20
0.020468
30
0.045000
11
0.059361
21
0.023883
31
0.045000
12
0.058243
22
0.024703
32
0.045000
0
3DFACE
62
163
10
0.055672
20
0.020468
30
0.045000
11
0.056094
21
0.020159
31
0.045000
12
0.059361
22
0.023883
32
0.045000
0
3DFACE
62
163
10
0.053027
20
0.015108
30
0.045000
11
0.052562
21
0.010103
31
0.045000
12
0.053529
22
0.014962
32
0.045000
0
3DFACE
62
163
10
0.053027
20
0.015108
30
0.045000
11
0.051231
21
0.010492
31
0.045000
12
0.052562
22
0.010103
32
0.045000
0
3DFACE
62
163
10
0.056999
20
0.025317
30
0.045000
11
0.055672
21
0.020468
31
0.045000
12
0.058243
22
0.024703
32
0.045000
0
3DFACE
62
163
10
0.056999
20
0.025317
30
0.045000
11
0.055203
21
0.020700
31
0.045000
12
0.055672
22
0.020468
32
0.045000
0
3DFACE
62
163
10
0.049987
20
0.011105
30
0.045000
11
0.051231
21
0.010492
31
0.045000
12
0.053027
22
0.015108
32
0.045000
0
3DFACE
62
163
10
0.049987
20
0.011105
30
0.045000
11
0.053027
21
0.015108
31
0.045000
12
0.052558
22
0.015340
32
0.045000
0
3DFACE
62
163
10
0.055668
20
0.025705
30
0.045000
11
0.055203
21
0.020700
31
0.045000
12
0.056999
22
0.025317
32
0.045000
0
3DFACE
62
163
10
0.055668
20
0.025705
30
0.045000
11
0.054701
21
0.020846
31
0.045000
12
0.055203
22
0.020700
32
0.045000
0
3DFACE
62
163
10
0.055668
20
0.025705
30
0.045000
11
0.054181
21
0.020903
31
0.045000
12
0.054701
22
0.020846
32
0.045000
0
3DFACE
62
163
10
0.048869
20
0.011925
30
0.045000
11
0.052558
21
0.015340
31
0.045000
12
0.052137
22
0.015649
32
0.045000
0
3DFACE
62
163
10
0.048869
20
0.011925
30
0.045000
11
0.049987
21
0.011105
31
0.045000
12
0.052558
22
0.015340
32
0.045000
0
3DFACE
62
163
10
0.054290
20
0.025856
30
0.045000
11
0.054181
21
0.020903
31
0.045000
12
0.055668
22
0.025705
32
0.045000
0
3DFACE
62
163
10
0.054290
20
0.025856
30
0.045000
11
0.053659
21
0.020869
31
0.045000
12
0.054181
22
0.020903
32
0.045000
0
3DFACE
62
163
10
0.047911
20
0.012927
30
0.045000
11
0.052137
21
0.015649
31
0.045000
12
0.051775
22
0.016027
32
0.045000
0
3DFACE
62
163
10
0.047911
20
0.012927
30
0.045000
11
0.048869
21
0.011925
31
0.045000
12
0.052137
22
0.015649
32
0.045000
0
3DFACE
62
163
10
0.052907
20
0.025766
30
0.045000
11
0.053659
21
0.020869
31
0.045000
12
0.054290
22
0.025856
32
0.045000
0
3DFACE
62
163
10
0.047141
20
0.014080
30
0.045000
11
0.051485
21
0.016462
31
0.045000
12
0.051274
22
0.016940
32
0.045000
0
3DFACE
62
163
10
0.047141
20
0.014080
30
0.045000
11
0.051775
21
0.016027
31
0.045000
12
0.051485
22
0.016462
32
0.045000
0
3DFACE
62
163
10
0.047141
20
0.014080
30
0.045000
11
0.047911
21
0.012927
31
0.045000
12
0.051775
22
0.016027
32
0.045000
0
3DFACE
62
163
10
0.046583
20
0.015349
30
0.045000
11
0.047141
21
0.014080
31
0.045000
12
0.051274
22
0.016940
32
0.045000
0
3DFACE
62
163
10
0.051560
20
0.025436
30
0.045000
11
0.053151
21
0.020745
31
0.045000
12
0.053659
22
0.020869
32
0.045000
0
3DFACE
62
163
10
0.051560
20
0.025436
30
0.045000
11
0.053659
21
0.020869
31
0.045000
12
0.052907
22
0.025766
32
0.045000
0
3DFACE
62
163
10
0.046253
20
0.016696
30
0.045000
11
0.051150
21
0.017448
31
0.045000
12
0.051116
22
0.017970
32
0.045000
0
3DFACE
62
163
10
0.046253
20
0.016696
30
0.045000
11
0.051274
21
0.016940
31
0.045000
12
0.051150
22
0.017448
32
0.045000
0
3DFACE
62
163
10
0.046253
20
0.016696
30
0.045000
11
0.046583
21
0.015349
31
0.045000
12
0.051274
22
0.016940
32
0.045000
0
3DFACE
62
163
10
0.050291
20
0.024878
30
0.045000
11
0.052673
21
0.020535
31
0.045000
12
0.053151
22
0.020745
32
0.045000
0
3DFACE
62
163
10
0.050291
20
0.024878
30
0.045000
11
0.052238
21
0.020244
31
0.045000
12
0.052673
22
0.020535
32
0.045000
0
3DFACE
62
163
10
0.050291
20
0.024878
30
0.045000
11
0.053151
21
0.020745
31
0.045000
12
0.051560
22
0.025436
32
0.045000
0
3DFACE
62
163
10
0.046163
20
0.018079
30
0.045000
11
0.051116
21
0.017970
31
0.045000
12
0.051173
22
0.018490
32
0.045000
0
3DFACE
62
163
10
0.046163
20
0.018079
30
0.045000
11
0.046253
21
0.016696
31
0.045000
12
0.051116
22
0.017970
32
0.045000
0
3DFACE
62
163
10
0.049138
20
0.024108
30
0.045000
11
0.052238
21
0.020244
31
0.045000
12
0.050291
22
0.024878
32
0.045000
0
3DFACE
62
163
10
0.048136
20
0.023150
30
0.045000
11
0.052238
21
0.020244
31
0.045000
12
0.049138
22
0.024108
32
0.045000
0
3DFACE
62
163
10
0.048136
20
0.023150
30
0.045000
11
0.051860
21
0.019883
31
0.045000
12
0.052238
22
0.020244
32
0.045000
0
3DFACE
62
163
10
0.046314
20
0.019457
30
0.045000
11
0.046163
21
0.018079
31
0.045000
12
0.051173
22
0.018490
32
0.045000
0
3DFACE
62
163
10
0.047316
20
0.022032
30
0.045000
11
0.051860
21
0.019883
31
0.045000
12
0.048136
22
0.023150
32
0.045000
0
3DFACE
62
163
10
0.047316
20
0.022032
30
0.045000
11
0.051551
21
0.019461
31
0.045000
12
0.051860
22
0.019883
32
0.045000
0
3DFACE
62
163
10
0.047316
20
0.022032
30
0.045000
11
0.051319
21
0.018992
31
0.045000
12
0.051551
22
0.019461
32
0.045000
0
3DFACE
62
163
10
0.046703
20
0.020788
30
0.045000
11
0.051319
21
0.018992
31
0.045000
12
0.047316
22
0.022032
32
0.045000
0
3DFACE
62
163
10
0.046703
20
0.020788
30
0.045000
11
0.051173
21
0.018490
31
0.045000
12
0.051319
22
0.018992
32
0.045000
0
3DFACE
62
163
10
0.046703
20
0.020788
30
0.045000
11
0.046314
21
0.019457
31
0.045000
12
0.051173
22
0.018490
32
0.045000
0
3DFACE
62
163
10
0.052907
20
0.025766
30
0.045000
11
0.051560
21
0.025436
31
0.045000
12
0.051560
22
0.025436
32
0.047000
0
3DFACE
62
163
10
0.052907
20
0.025766
30
0.045000
11
0.051560
21
0.025436
31
0.047000
12
0.052907
22
0.025766
32
0.047000
0
3DFACE
62
163
10
0.054290
20
0.025856
30
0.045000
11
0.052907
21
0.025766
31
0.047000
12
0.054290
22
0.025856
32
0.047000
0
3DFACE
62
163
10
0.054290
20
0.025856
30
0.045000
11
0.052907
21
0.025766
31
0.045000
12
0.052907
22
0.025766
32
0.047000
0
3DFACE
62
163
10
0.055668
20
0.025705
30
0.045000
11
0.054290
21
0.025856
31
0.047000
12
0.055668
22
0.025705
32
0.047000
0
3DFACE
62
163
10
0.055668
20
0.025705
30
0.045000
11
0.054290
21
0.025856
31
0.045000
12
0.054290
22
0.025856
32
0.047000
0
3DFACE
62
163
10
0.056999
20
0.025317
30
0.045000
11
0.056999
21
0.025317
31
0.047000
12
0.058243
22
0.024703
32
0.047000
0
3DFACE
62
163
10
0.056999
20
0.025317
30
0.045000
11
0.055668
21
0.025705
31
0.047000
12
0.056999
22
0.025317
32
0.047000
0
3DFACE
62
163
10
0.056999
20
0.025317
30
0.045000
11
0.055668
21
0.025705
31
0.045000
12
0.055668
22
0.025705
32
0.047000
0
3DFACE
62
163
10
0.058243
20
0.024703
30
0.045000
11
0.056999
21
0.025317
31
0.045000
12
0.058243
22
0.024703
32
0.047000
0
3DFACE
62
163
10
0.059361
20
0.023883
30
0.045000
11
0.059361
21
0.023883
31
0.047000
12
0.060319
22
0.022881
32
0.047000
0
3DFACE
62
163
10
0.059361
20
0.023883
30
0.045000
11
0.058243
21
0.024703
31
0.047000
12
0.059361
22
0.023883
32
0.047000
0
3DFACE
62
163
10
0.059361
20
0.023883
30
0.045000
11
0.058243
21
0.024703
31
0.045000
12
0.058243
22
0.024703
32
0.047000
0
3DFACE
62
163
10
0.060319
20
0.022881
30
0.045000
11
0.059361
21
0.023883
31
0.045000
12
0.060319
22
0.022881
32
0.047000
0
3DFACE
62
163
10
0.061089
20
0.021728
30
0.045000
11
0.061089
21
0.021728
31
0.047000
12
0.061648
22
0.020459
32
0.047000
0
3DFACE
62
163
10
0.061089
20
0.021728
30
0.045000
11
0.060319
21
0.022881
31
0.047000
12
0.061089
22
0.021728
32
0.047000
0
3DFACE
62
163
10
0.061089
20
0.021728
30
0.045000
11
0.060319
21
0.022881
31
0.045000
12
0.060319
22
0.022881
32
0.047000
0
3DFACE
62
163
10
0.061648
20
0.020459
30
0.045000
11
0.061089
21
0.021728
31
0.045000
12
0.061648
22
0.020459
32
0.047000
0
3DFACE
62
163
10
0.061977
20
0.019112
30
0.045000
11
0.061648
21
0.020459
31
0.047000
12
0.061977
22
0.019112
32
0.047000
0
3DFACE
62
163
10
0.061977
20
0.019112
30
0.045000
11
0.061648
21
0.020459
31
0.045000
12
0.061648
22
0.020459
32
0.047000
0
3DFACE
62
163
10
0.062067
20
0.017729
30
0.045000
11
0.061977
21
0.019112
31
0.047000
12
0.062067
22
0.017729
32
0.047000
0
3DFACE
62
163
10
0.062067
20
0.017729
30
0.045000
11
0.061977
21
0.019112
31
0.045000
12
0.061977
22
0.019112
32
0.047000
0
3DFACE
62
163
10
0.061916
20
0.016351
30
0.045000
11
0.062067
21
0.017729
31
0.047000
12
0.061916
22
0.016351
32
0.047000
0
3DFACE
62
163
10
0.061916
20
0.016351
30
0.045000
11
0.062067
21
0.017729
31
0.045000
12
0.062067
22
0.017729
32
0.047000
0
3DFACE
62
163
10
0.061528
20
0.015020
30
0.045000
11
0.061916
21
0.016351
31
0.047000
12
0.061528
22
0.015020
32
0.047000
0
3DFACE
62
163
10
0.061528
20
0.015020
30
0.045000
11
0.061916
21
0.016351
31
0.045000
12
0.061916
22
0.016351
32
0.047000
0
3DFACE
62
163
10
0.060914
20
0.013776
30
0.045000
11
0.060914
21
0.013776
31
0.047000
12
0.060094
22
0.012658
32
0.047000
0
3DFACE
62
163
10
0.060914
20
0.013776
30
0.045000
11
0.061528
21
0.015020
31
0.047000
12
0.060914
22
0.013776
32
0.047000
0
3DFACE
62
163
10
0.060914
20
0.013776
30
0.045000
11
0.061528
21
0.015020
31
0.045000
12
0.061528
22
0.015020
32
0.047000
0
3DFACE
62
163
10
0.060094
20
0.012658
30
0.045000
11
0.060914
21
0.013776
31
0.045000
12
0.060094
22
0.012658
32
0.047000
0
3DFACE
62
163
10
0.059092
20
0.011700
30
0.045000
11
0.060094
21
0.012658
31
0.047000
12
0.059092
22
0.011700
32
0.047000
0
3DFACE
62
163
10
0.059092
20
0.011700
30
0.045000
11
0.060094
21
0.012658
31
0.045000
12
0.060094
22
0.012658
32
0.047000
0
3DFACE
62
163
10
0.057939
20
0.010930
30
0.045000
11
0.057939
21
0.010930
31
0.047000
12
0.056670
22
0.010372
32
0.047000
0
3DFACE
62
163
10
0.057939
20
0.010930
30
0.045000
11
0.059092
21
0.011700
31
0.047000
12
0.057939
22
0.010930
32
0.047000
0
3DFACE
62
163
10
0.057939
20
0.010930
30
0.045000
11
0.059092
21
0.011700
31
0.045000
12
0.059092
22
0.011700
32
0.047000
0
3DFACE
62
163
10
0.056670
20
0.010372
30
0.045000
11
0.057939
21
0.010930
31
0.045000
12
0.056670
22
0.010372
32
0.047000
0
3DFACE
62
163
10
0.054571
20
0.014939
30
0.045000
11
0.055079
21
0.015063
31
0.045000
12
0.055079
22
0.015063
32
0.047000
0
3DFACE
62
163
10
0.054571
20
0.014939
30
0.045000
11
0.055079
21
0.015063
31
0.047000
12
0.054571
22
0.014939
32
0.047000
0
3DFACE
62
163
10
0.054049
20
0.014905
30
0.045000
11
0.054571
21
0.014939
31
0.047000
12
0.054049
22
0.014905
32
0.047000
0
3DFACE
62
163
10
0.054049
20
0.014905
30
0.045000
11
0.054571
21
0.014939
31
0.045000
12
0.054571
22
0.014939
32
0.047000
0
3DFACE
62
163
10
0.053529
20
0.014962
30
0.045000
11
0.054049
21
0.014905
31
0.047000
12
0.053529
22
0.014962
32
0.047000
0
3DFACE
62
163
10
0.053529
20
0.014962
30
0.045000
11
0.054049
21
0.014905
31
0.045000
12
0.054049
22
0.014905
32
0.047000
0
3DFACE
62
163
10
0.053027
20
0.015108
30
0.045000
11
0.053529
21
0.014962
31
0.047000
12
0.053027
22
0.015108
32
0.047000
0
3DFACE
62
163
10
0.053027
20
0.015108
30
0.045000
11
0.053529
21
0.014962
31
0.045000
12
0.053529
22
0.014962
32
0.047000
0
3DFACE
62
163
10
0.052558
20
0.015340
30
0.045000
11
0.053027
21
0.015108
31
0.047000
12
0.052558
22
0.015340
32
0.047000
0
3DFACE
62
163
10
0.052558
20
0.015340
30
0.045000
11
0.053027
21
0.015108
31
0.045000
12
0.053027
22
0.015108
32
0.047000
0
3DFACE
62
163
10
0.052137
20
0.015649
30
0.045000
11
0.052558
21
0.015340
31
0.047000
12
0.052137
22
0.015649
32
0.047000
0
3DFACE
62
163
10
0.052137
20
0.015649
30
0.045000
11
0.052558
21
0.015340
31
0.045000
12
0.052558
22
0.015340
32
0.047000
0
3DFACE
62
163
10
0.051775
20
0.016027
30
0.045000
11
0.052137
21
0.015649
31
0.047000
12
0.051775
22
0.016027
32
0.047000
0
3DFACE
62
163
10
0.051775
20
0.016027
30
0.045000
11
0.052137
21
0.015649
31
0.045000
12
0.052137
22
0.015649
32
0.047000
0
3DFACE
62
163
10
0.051485
20
0.016462
30
0.045000
11
0.051775
21
0.016027
31
0.047000
12
0.051485
22
0.016462
32
0.047000
0
3DFACE
62
163
10
0.051485
20
0.016462
30
0.045000
11
0.051775
21
0.016027
31
0.045000
12
0.051775
22
0.016027
32
0.047000
0
3DFACE
62
163
10
0.051274
20
0.016940
30
0.045000
11
0.051485
21
0.016462
31
0.047000
12
0.051274
22
0.016940
32
0.047000
0
3DFACE
62
163
10
0.051274
20
0.016940
30
0.045000
11
0.051485
21
0.016462
31
0.045000
12
0.051485
22
0.016462
32
0.047000
0
3DFACE
62
163
10
0.051150
20
0.017448
30
0.045000
11
0.051274
21
0.016940
31
0.047000
12
0.051150
22
0.017448
32
0.047000
0
3DFACE
62
163
10
0.051150
20
0.017448
30
0.045000
11
0.051274
21
0.016940
31
0.045000
12
0.051274
22
0.016940
32
0.047000
0
3DFACE
62
163
10
0.051116
20
0.017970
30
0.045000
11
0.051150
21
0.017448
31
0.047000
12
0.051116
22
0.017970
32
0.047000
0
3DFACE
62
163
10
0.051116
20
0.017970
30
0.045000
11
0.051150
21
0.017448
31
0.045000
12
0.051150
22
0.017448
32
0.047000
0
3DFACE
62
163
10
0.051173
20
0.018490
30
0.045000
11
0.051116
21
0.017970
31
0.047000
12
0.051173
22
0.018490
32
0.047000
0
3DFACE
62
163
10
0.051173
20
0.018490
30
0.045000
11
0.051116
21
0.017970
31
0.045000
12
0.051116
22
0.017970
32
0.047000
0
3DFACE
62
163
10
0.051319
20
0.018992
30
0.045000
11
0.051173
21
0.018490
31
0.047000
12
0.051319
22
0.018992
32
0.047000
0
3DFACE
62
163
10
0.051319
20
0.018992
30
0.045000
11
0.051173
21
0.018490
31
0.045000
12
0.051173
22
0.018490
32
0.047000
0
3DFACE
62
163
10
0.051551
20
0.019461
30
0.045000
11
0.051319
21
0.018992
31
0.047000
12
0.051551
22
0.019461
32
0.047000
0
3DFACE
62
163
10
0.051551
20
0.019461
30
0.045000
11
0.051319
21
0.018992
31
0.045000
12
0.051319
22
0.018992
32
0.047000
0
3DFACE
62
163
10
0.051860
20
0.019883
30
0.045000
11
0.051551
21
0.019461
31
0.045000
12
0.051551
22
0.019461
32
0.047000
0
3DFACE
62
163
10
0.051860
20
0.019883
30
0.045000
11
0.051551
21
0.019461
31
0.047000
12
0.051860
22
0.019883
32
0.047000
0
3DFACE
62
163
10
0.052238
20
0.020244
30
0.045000
11
0.051860
21
0.019883
31
0.045000
12
0.051860
22
0.019883
32
0.047000
0
3DFACE
62
163
10
0.052238
20
0.020244
30
0.045000
11
0.051860
21
0.019883
31
0.047000
12
0.052238
22
0.020244
32
0.047000
0
3DFACE
62
163
10
0.052673
20
0.020535
30
0.045000
11
0.052238
21
0.020244
31
0.045000
12
0.052238
22
0.020244
32
0.047000
0
3DFACE
62
163
10
0.052673
20
0.020535
30
0.045000
11
0.052238
21
0.020244
31
0.047000
12
0.052673
22
0.020535
32
0.047000
0
3DFACE
62
163
10
0.053151
20
0.020745
30
0.045000
11
0.052673
21
0.020535
31
0.045000
12
0.052673
22
0.020535
32
0.047000
0
3DFACE
62
163
10
0.053151
20
0.020745
30
0.045000
11
0.052673
21
0.020535
31
0.047000
12
0.053151
22
0.020745
32
0.047000
0
ENDSEC
0
EOF
